<svg xmlns="http://www.w3.org/2000/svg" width="66" height="62" viewBox="0 0 66 62">
  <g id="Group_113" data-name="Group 113" transform="translate(-452 561)">
    <rect id="Rectangle_67" data-name="Rectangle 67" width="66" height="62" rx="8" transform="translate(452 -561)" fill="#fff"/>
    <path id="Path_40" data-name="Path 40" d="M64.959,41.308c2.624.211,5.063.427,7.5.593a1.936,1.936,0,0,1,1.505.921A8.123,8.123,0,0,0,80.834,46.1c1.258-.017,2.519.03,3.777-.009A8.15,8.15,0,0,0,92.648,38.2c.107-6.4.124-12.8-.016-19.2a9.453,9.453,0,0,0-9.248-8.918C78.257,9.937,74.128,13.664,73.5,19c-.511,4.371,2.959,8.969,7.457,9.981a8.491,8.491,0,0,0,5.008-.244c1.2-.459,1.368-.033,1.335,1.034-.061,1.945-.084,3.895.008,5.837.054,1.143-.392,1.519-1.469,1.653a17.447,17.447,0,0,1-13.786-3.7c-1.171-.96-1.726-.722-2.736.14-7.367,6.283-19.427,4.4-24.2-3.69a13.9,13.9,0,0,1-1.8-7.2c-.017-6.152.024-12.3-.032-18.454-.011-1.2.252-1.693,1.551-1.612a41.64,41.64,0,0,0,5.285,0c1.315-.084,1.551.44,1.54,1.62-.052,6.089-.027,12.178-.022,18.268,0,3.4,1.787,5.569,5.211,6.341,3.517.791,7.325-.725,8.66-3.408a3.181,3.181,0,0,0,.137-2.189A17.829,17.829,0,0,1,94.7,6.141a16.962,16.962,0,0,1,6.225,13.19c.082,5.775.019,11.551.019,17.326,0,10.45-6.4,17.212-16.867,17.736-5.485.274-10.682-.5-14.861-4.54-2.67-2.579-3.628-4.467-4.261-8.545" transform="translate(412.866 -556.13)" fill="#f05b22"/>
  </g>
</svg>
