<svg width="215" height="215" viewBox="0 0 215 215" fill="none" xmlns="http://www.w3.org/2000/svg">
<path d="M213.475 189.254C213.475 189.254 213.63 189.099 213.785 188.944C213.785 188.944 166.782 188.323 120.399 177.154L179.813 206.628C191.913 202.44 203.082 196.545 213.32 189.254H213.475Z" fill="#B2B2B2"/>
<path d="M130.017 213.764C132.344 213.764 134.516 214.074 136.843 214.074C147.392 214.074 157.475 212.678 167.248 210.351C145.53 200.578 124.898 188.323 105.042 174.982L92.7871 166.14C102.25 183.98 115.28 199.803 129.862 213.764H130.017Z" fill="#397F4D"/>
<path d="M93.5627 102.539C84.2551 103.004 75.568 103.004 67.3463 97.8847C65.1745 96.4886 63.7784 94.9373 61.9169 93.3861C61.7618 93.3861 61.6066 92.7656 61.2964 93.2309C66.5707 113.863 83.6346 128.6 101.939 138.062L139.635 99.7462C124.278 98.8155 108.92 101.608 93.5627 102.539Z" fill="black"/>
<path d="M214.871 0L211.614 1.70639C175.935 21.7177 135.292 39.5572 98.9921 58.4826C86.2717 63.912 75.1027 65.7735 63.0028 57.707C50.903 49.6404 43.3018 38.7816 26.5481 41.4187C21.8944 42.1943 11.3458 47.3135 7.00223 49.7955C3.12407 51.9673 -1.52972 56.7762 0.486924 61.5851C1.57281 64.3774 3.43432 63.2915 5.76122 63.6018C11.5009 64.2223 22.67 75.5465 28.5648 82.2169C29.9609 83.9233 31.0468 85.4746 31.8224 86.5605C41.13 99.7462 43.9223 112.001 49.1966 126.893C56.0221 145.974 65.3297 171.104 77.7398 187.082C78.3603 187.858 82.0833 192.512 82.7038 192.201C82.2385 190.03 81.618 187.858 81.4628 185.686C80.8423 179.481 82.2385 173.276 83.7897 167.226C85.0307 161.642 88.2884 156.833 89.8397 154.661C91.2358 152.334 95.4242 148.301 95.2691 147.835C47.3351 118.051 46.8697 76.0119 46.8697 76.0119C49.662 77.8734 53.0747 78.649 56.3324 78.9593C62.0721 79.4247 69.0527 79.7349 75.8783 77.8734C75.8783 77.8734 76.1885 77.8734 76.3437 77.7183C84.1 76.167 98.9921 71.6683 121.485 59.5685L135.602 52.8981C146.151 48.0891 157.63 42.8149 169.419 37.2303C175.159 34.2829 180.899 31.3355 186.949 28.6984C195.481 19.0805 204.478 9.77295 213.941 0.930757C214.251 0.620505 214.716 0.620505 214.716 0.620505V0.155126L214.871 0ZM27.7891 48.5545C26.8584 50.416 29.6507 53.0532 25.4623 52.7429C23.2905 52.5878 21.5841 51.1917 19.5675 50.7263C19.2572 50.416 21.1187 49.0199 21.429 48.8648C24.5315 46.5379 28.0994 45.452 31.8224 46.693C31.8224 47.3135 31.8224 47.1584 31.5122 47.3135C30.5814 47.6238 28.2545 47.934 27.7891 48.8648V48.5545Z" fill="black"/>
<path d="M130.172 73.2195C127.535 74.3054 124.278 75.7016 120.71 77.0977C82.2384 93.2308 69.9834 85.4745 69.9834 85.4745C69.9834 85.4745 89.0639 108.123 149.098 83.1476L164.3 64.6876C167.403 61.1197 170.505 57.5518 173.608 53.9839C172.832 53.9839 171.901 54.4493 171.281 54.7595C157.475 60.3441 143.979 67.4799 130.172 73.2195Z" fill="black"/>
<path d="M97.7509 186.617C96.8202 185.221 95.8894 183.825 95.1138 182.118C95.1138 182.118 95.1138 181.963 94.9586 181.808C94.183 180.257 93.2523 178.706 92.4766 176.999C92.4766 176.999 92.4766 176.689 92.3215 176.534C91.5459 174.827 90.7702 173.276 90.1497 171.57C90.1497 171.57 90.1497 171.415 90.1497 171.26C89.3741 169.553 88.7536 167.847 88.1331 166.295C87.5126 164.589 86.8921 163.038 86.4267 161.487C85.6511 163.193 84.8754 165.054 84.4101 167.071C84.2549 168.002 83.9447 168.933 83.7896 169.863C85.1857 180.567 87.3575 190.495 89.0638 197.166C89.3741 198.562 89.6843 200.113 89.9946 201.509C90.1497 202.285 90.7702 204.146 91.2356 205.698C99.7676 208.8 108.61 211.127 117.762 212.523C110.471 204.457 103.491 195.925 97.906 186.462L97.7509 186.617Z" fill="#C0383C"/>
</svg>
