<svg xmlns="http://www.w3.org/2000/svg" xmlns:xlink="http://www.w3.org/1999/xlink" width="287" height="33.856" viewBox="0 0 287 33.856">
  <defs>
    <linearGradient id="linear-gradient" x1="-0.139" y1="1.171" x2="0.922" y2="-0.093" gradientUnits="objectBoundingBox">
      <stop offset="0.156" stop-color="#e2118d"/>
      <stop offset="0.585" stop-color="#8d247a"/>
      <stop offset="0.854" stop-color="#5b2871"/>
    </linearGradient>
  </defs>
  <g id="Group_96009" data-name="Group 96009" transform="translate(-93.577 -584.499)">
    <text id="Powered_by" data-name="Powered by" transform="translate(93.577 607.499)" fill="#000026" font-size="21" font-family="SegoeUI, Segoe UI"><tspan x="0" y="0">Powered by</tspan></text>
    <line id="Line_2" data-name="Line 2" y2="31.84" transform="translate(207.099 586.5)" fill="none" stroke="#000" stroke-width="3"/>
    <g id="Group_96008" data-name="Group 96008" transform="translate(214.638 586.669)">
      <g id="Group_95969" data-name="Group 95969" transform="translate(0 0)">
        <path id="Path_73566" data-name="Path 73566" d="M0,11.626V5.1c0-.593.237-.83.83-1.067,3.558-1.3,7-2.609,10.556-3.914a2.287,2.287,0,0,1,1.542,0c3.44,1.3,6.879,2.609,10.437,3.8a1.175,1.175,0,0,1,.949,1.3V17.794a7.044,7.044,0,0,1-1.9,4.507c-2.609,3.2-6.049,5.219-9.607,7.116a1.586,1.586,0,0,1-1.067.119,31.238,31.238,0,0,1-9.014-6.168A8.6,8.6,0,0,1,0,16.964C.12,15.066,0,13.287,0,11.626Z" transform="translate(0.007 0.015)" fill="url(#linear-gradient)"/>
      </g>
      <g id="Group_95970" data-name="Group 95970" transform="translate(6.413 7.846)">
        <path id="Path_73567" data-name="Path 73567" d="M7.5,11.449v6.4a1.02,1.02,0,0,1-.949.949h0a1.02,1.02,0,0,1-.949-.949v-6.4a1.02,1.02,0,0,1,.949-.949h0A.935.935,0,0,1,7.5,11.449Z" transform="translate(-5.363 -5.874)" fill="#fff"/>
        <circle id="Ellipse_631" data-name="Ellipse 631" cx="1.186" cy="1.186" r="1.186" transform="translate(0 15.063)" fill="#fff"/>
        <circle id="Ellipse_632" data-name="Ellipse 632" cx="1.186" cy="1.186" r="1.186" fill="#fff"/>
      </g>
      <path id="Path_73568" data-name="Path 73568" d="M11.3,10.849V24.726a.935.935,0,0,1-.949.949h0a.935.935,0,0,1-.949-.949V10.849a.935.935,0,0,1,.949-.949h0A1.02,1.02,0,0,1,11.3,10.849Z" transform="translate(1.757 1.86)" fill="#fff"/>
      <path id="Path_73569" data-name="Path 73569" d="M3.9,5.149V19.026a.935.935,0,0,1-.949.949h0A.935.935,0,0,1,2,19.026V5.149A.935.935,0,0,1,2.949,4.2h0A1.02,1.02,0,0,1,3.9,5.149Z" transform="translate(0.38 0.8)" fill="#fff"/>
      <path id="Path_73570" data-name="Path 73570" d="M18.7,5.049V18.926a.935.935,0,0,1-.949.949h0a.935.935,0,0,1-.949-.949V5.049a.935.935,0,0,1,.949-.949h0A.935.935,0,0,1,18.7,5.049Z" transform="translate(3.134 0.781)" fill="#fff"/>
      <circle id="Ellipse_633" data-name="Ellipse 633" cx="1.186" cy="1.186" r="1.186" transform="translate(10.92 1.797)" fill="#fff"/>
      <circle id="Ellipse_634" data-name="Ellipse 634" cx="1.186" cy="1.186" r="1.186" transform="translate(10.92 6.542)" fill="#fff"/>
      <g id="Group_95971" data-name="Group 95971" transform="translate(15.664 7.846)">
        <circle id="Ellipse_635" data-name="Ellipse 635" cx="1.186" cy="1.186" r="1.186" fill="#fff"/>
        <circle id="Ellipse_636" data-name="Ellipse 636" cx="1.186" cy="1.186" r="1.186" transform="translate(0 7.472)" fill="#fff"/>
        <circle id="Ellipse_637" data-name="Ellipse 637" cx="1.186" cy="1.186" r="1.186" transform="translate(0 14.944)" fill="#fff"/>
      </g>
      <g id="Group_95972" data-name="Group 95972" transform="translate(143.404 8.321)">
        <path id="Path_73571" data-name="Path 73571" d="M128.609,10.677a1.3,1.3,0,0,0-.712-1.186,2.858,2.858,0,0,0-1.779-.474,3.009,3.009,0,0,0-1.9.474,1.639,1.639,0,0,0-.712,1.3,1.056,1.056,0,0,0,.593.949,4.146,4.146,0,0,0,1.423.356c.593.119,1.186.119,1.9.237a8.885,8.885,0,0,1,1.9.474,3.238,3.238,0,0,1,1.423,1.067,3.392,3.392,0,0,1,.593,2.016,3.788,3.788,0,0,1-.356,1.66,3.708,3.708,0,0,1-1.067,1.3,5.432,5.432,0,0,1-1.66.83,5.746,5.746,0,0,1-2.135.356,10.638,10.638,0,0,1-2.135-.237,7.246,7.246,0,0,1-1.661-.83,3.708,3.708,0,0,1-1.067-1.3,3.652,3.652,0,0,1-.356-1.542h2.491a1.639,1.639,0,0,0,.712,1.3,3.394,3.394,0,0,0,2.016.474,3.566,3.566,0,0,0,2.135-.474,1.639,1.639,0,0,0,.712-1.3,1.056,1.056,0,0,0-.593-.949,2.529,2.529,0,0,0-1.423-.356c-.593-.119-1.186-.119-1.9-.237a8.885,8.885,0,0,1-1.9-.474,3.238,3.238,0,0,1-1.423-1.067,3.392,3.392,0,0,1-.593-2.016,3.283,3.283,0,0,1,.356-1.542,5.266,5.266,0,0,1,.949-1.3,6.39,6.39,0,0,1,1.542-.83,5.891,5.891,0,0,1,4.033,0,6.39,6.39,0,0,1,1.542.83,3.012,3.012,0,0,1,.949,1.186,3.283,3.283,0,0,1,.356,1.542h-2.254Z" transform="translate(-120.9 -7)" fill="#010101"/>
      </g>
      <g id="Group_95973" data-name="Group 95973" transform="translate(155.976 4.288)">
        <path id="Path_73572" data-name="Path 73572" d="M141.463,15.579a6.906,6.906,0,0,1-.356,2.254,3.612,3.612,0,0,1-1.067,1.542,4.185,4.185,0,0,1-1.542.949,5.891,5.891,0,0,1-4.033,0,3.406,3.406,0,0,1-1.542-.949,4.513,4.513,0,0,1-1.067-1.542,6.419,6.419,0,0,1-.356-2.254V3.6h2.372V7.87h6.879V10h-6.879v5.575a2.721,2.721,0,0,0,.712,2.135,2.886,2.886,0,0,0,3.8,0,2.9,2.9,0,0,0,.712-2.135v-.237h2.372v.237Z" transform="translate(-131.5 -3.6)" fill="#010101"/>
      </g>
      <g id="Group_95974" data-name="Group 95974" transform="translate(26.339 4.407)">
        <path id="Path_73573" data-name="Path 73573" d="M22.2,20.3V3.7h5.93a12.137,12.137,0,0,1,3.8.593,7.039,7.039,0,0,1,2.728,1.66,7.538,7.538,0,0,1,1.66,2.609,10.271,10.271,0,0,1,0,6.879,6.579,6.579,0,0,1-1.66,2.609,7.039,7.039,0,0,1-2.728,1.66,12.137,12.137,0,0,1-3.8.593Zm5.93-2.372a6.25,6.25,0,0,0,2.728-.474,4.342,4.342,0,0,0,1.9-1.186,7.4,7.4,0,0,0,1.186-1.9,7.885,7.885,0,0,0,.356-2.491,8.429,8.429,0,0,0-.356-2.491,4.643,4.643,0,0,0-1.186-1.9,5.165,5.165,0,0,0-1.9-1.186,9.341,9.341,0,0,0-2.728-.474H24.809V17.7H28.13Z" transform="translate(-22.2 -3.7)" fill="#010101"/>
      </g>
      <g id="Group_95975" data-name="Group 95975" transform="translate(43.181 3.458)">
        <path id="Path_73574" data-name="Path 73574" d="M38.06,6.221a1.523,1.523,0,0,1-1.186-.474A1.523,1.523,0,0,1,36.4,4.56a1.523,1.523,0,0,1,.474-1.186,1.72,1.72,0,0,1,2.372,0,1.523,1.523,0,0,1,.474,1.186,1.523,1.523,0,0,1-.474,1.186A1.812,1.812,0,0,1,38.06,6.221Z" transform="translate(-36.4 -2.9)" fill="#c62127"/>
      </g>
      <g id="Group_95976" data-name="Group 95976" transform="translate(43.655 8.558)">
        <rect id="Rectangle_1288" data-name="Rectangle 1288" width="2.372" height="12.572" fill="#010101"/>
      </g>
      <g id="Group_95977" data-name="Group 95977" transform="translate(48.518 8.202)">
        <path id="Path_73575" data-name="Path 73575" d="M51.93,17.456h0a4.579,4.579,0,0,1-1.9,1.779,6.1,6.1,0,0,1-5.219.237A6.943,6.943,0,0,1,42.8,18.286a6.2,6.2,0,0,1-1.423-2.016,7.177,7.177,0,0,1-.474-2.847,6.383,6.383,0,0,1,.474-2.609A6.2,6.2,0,0,1,42.8,8.8a6.73,6.73,0,0,1,2.135-1.423A6.592,6.592,0,0,1,47.661,6.9a6.959,6.959,0,0,1,2.728.474,9.3,9.3,0,0,1,2.135,1.3,6.73,6.73,0,0,1,1.423,2.135,6.959,6.959,0,0,1,.474,2.728v5.1a8.032,8.032,0,0,1-.474,3.084,6.73,6.73,0,0,1-1.423,2.135,6.219,6.219,0,0,1-2.135,1.186,9.25,9.25,0,0,1-2.609.356,8.8,8.8,0,0,1-4.033-.949,6.041,6.041,0,0,1-2.372-3.2h2.491a2.622,2.622,0,0,0,1.423,1.542,5.31,5.31,0,0,0,2.372.474,9.155,9.155,0,0,0,1.779-.237,3.071,3.071,0,0,0,1.3-.83,2.846,2.846,0,0,0,.83-1.423,5.746,5.746,0,0,0,.356-2.135V17.456Zm0-3.914a4.759,4.759,0,0,0-.356-1.779,5.608,5.608,0,0,0-.83-1.423,2.2,2.2,0,0,0-1.423-.83,3.961,3.961,0,0,0-1.779-.356,4.759,4.759,0,0,0-1.779.356,4.962,4.962,0,0,0-1.423.949,2.846,2.846,0,0,0-.83,1.423,4.333,4.333,0,0,0-.356,1.779,4.759,4.759,0,0,0,.356,1.779,4.9,4.9,0,0,0,.83,1.3,2.846,2.846,0,0,0,1.423.83,3.961,3.961,0,0,0,1.779.356,4.759,4.759,0,0,0,1.779-.356,8.846,8.846,0,0,0,1.423-.83,3.071,3.071,0,0,0,.83-1.3A5.9,5.9,0,0,0,51.93,13.542Z" transform="translate(-40.9 -6.9)" fill="#010101"/>
      </g>
      <g id="Group_95978" data-name="Group 95978" transform="translate(64.412 3.458)">
        <path id="Path_73576" data-name="Path 73576" d="M55.96,6.221a1.523,1.523,0,0,1-1.186-.474A1.523,1.523,0,0,1,54.3,4.56a1.523,1.523,0,0,1,.474-1.186,1.72,1.72,0,0,1,2.372,0,1.523,1.523,0,0,1,.474,1.186,1.523,1.523,0,0,1-.474,1.186A2.107,2.107,0,0,1,55.96,6.221Z" transform="translate(-54.3 -2.9)" fill="#c62127"/>
      </g>
      <g id="Group_95979" data-name="Group 95979" transform="translate(64.886 8.558)">
        <rect id="Rectangle_1289" data-name="Rectangle 1289" width="2.372" height="12.572" fill="#010101"/>
      </g>
      <g id="Group_95980" data-name="Group 95980" transform="translate(70.223 4.288)">
        <path id="Path_73577" data-name="Path 73577" d="M69.163,15.579a6.906,6.906,0,0,1-.356,2.254,3.612,3.612,0,0,1-1.067,1.542,4.185,4.185,0,0,1-1.542.949,5.891,5.891,0,0,1-4.033,0,3.406,3.406,0,0,1-1.542-.949,4.513,4.513,0,0,1-1.067-1.542,6.419,6.419,0,0,1-.356-2.254V3.6h2.372V7.87h6.879V10H61.572v5.575a2.721,2.721,0,0,0,.712,2.135,2.886,2.886,0,0,0,3.8,0,2.9,2.9,0,0,0,.712-2.135v-.237h2.372Z" transform="translate(-59.2 -3.6)" fill="#010101"/>
      </g>
      <g id="Group_95981" data-name="Group 95981" transform="translate(81.847 8.202)">
        <path id="Path_73578" data-name="Path 73578" d="M82.284,19.71H80.03V17.1h0a3.977,3.977,0,0,1-1.779,2.135,5.806,5.806,0,0,1-2.965.83,5.654,5.654,0,0,1-2.372-.474,5.358,5.358,0,0,1-2.016-1.3,7.792,7.792,0,0,1-1.423-2.016A7.177,7.177,0,0,1,69,13.423a6.383,6.383,0,0,1,.474-2.609,4.576,4.576,0,0,1,1.3-2.016,6.731,6.731,0,0,1,2.135-1.423A6.592,6.592,0,0,1,75.642,6.9a6.959,6.959,0,0,1,2.728.474,9.3,9.3,0,0,1,2.135,1.3,6.73,6.73,0,0,1,1.423,2.135,6.959,6.959,0,0,1,.474,2.728V19.71Zm-6.642-1.9a4.759,4.759,0,0,0,1.779-.356,4.962,4.962,0,0,0,1.423-.949,2.846,2.846,0,0,0,.83-1.423A3.961,3.961,0,0,0,80.03,13.3a4.759,4.759,0,0,0-.356-1.779,5.608,5.608,0,0,0-.83-1.423,4.265,4.265,0,0,0-1.423-.949A3.961,3.961,0,0,0,75.642,8.8a4.759,4.759,0,0,0-1.779.356,4.962,4.962,0,0,0-1.423.949,2.531,2.531,0,0,0-.83,1.423,5.875,5.875,0,0,0-.237,2.016,4.759,4.759,0,0,0,.356,1.779,8.847,8.847,0,0,0,.83,1.423,3.024,3.024,0,0,0,1.423.949C74.337,17.693,74.93,17.812,75.642,17.812Z" transform="translate(-69 -6.9)" fill="#010101"/>
      </g>
      <g id="Group_95982" data-name="Group 95982" transform="translate(98.096 3.102)">
        <path id="Path_73579" data-name="Path 73579" d="M82.7,20.51V2.6h2.372V20.628H82.7Z" transform="translate(-82.7 -2.6)" fill="#010101"/>
      </g>
      <g id="Group_95983" data-name="Group 95983" transform="translate(102.959 4.407)">
        <path id="Path_73580" data-name="Path 73580" d="M92.019,20.3V6.072H86.8V3.7H99.965V6.072H94.747V20.3Z" transform="translate(-86.8 -3.7)" fill="#010101"/>
      </g>
      <g id="Group_95984" data-name="Group 95984" transform="translate(116.717 8.202)">
        <path id="Path_73581" data-name="Path 73581" d="M106.7,12.475v-.119a3.014,3.014,0,0,0-.83-2.491,3.311,3.311,0,0,0-2.135-.712,2.9,2.9,0,0,0-2.135.712,3.014,3.014,0,0,0-.83,2.491V19.71H98.4V12.356a6.663,6.663,0,0,1,.356-2.372,3.374,3.374,0,0,1,1.067-1.66,4.975,4.975,0,0,1,1.66-1.067,6.906,6.906,0,0,1,2.254-.356,5.746,5.746,0,0,1,2.135.356,4.021,4.021,0,0,1,1.66,1.067A4.466,4.466,0,0,1,108.6,10.1a7.885,7.885,0,0,1,.356,2.491v.119H106.7Z" transform="translate(-98.4 -6.9)" fill="#010101"/>
      </g>
      <g id="Group_95985" data-name="Group 95985" transform="translate(129.052 8.558)">
        <path id="Path_73582" data-name="Path 73582" d="M118.763,7.2h2.372v6.523a6.25,6.25,0,0,1-.474,2.728,4.576,4.576,0,0,1-1.3,2.016,6.372,6.372,0,0,1-1.9,1.186,8.429,8.429,0,0,1-2.491.356,7.885,7.885,0,0,1-2.491-.356,5.165,5.165,0,0,1-1.9-1.186,4.959,4.959,0,0,1-1.3-2.016,9.341,9.341,0,0,1-.474-2.728V7.2h2.372v6.523a4.054,4.054,0,0,0,1.067,3.084,3.757,3.757,0,0,0,2.728,1.067,3.573,3.573,0,0,0,2.728-1.067,4.054,4.054,0,0,0,1.067-3.084V7.2Z" transform="translate(-108.8 -7.2)" fill="#010101"/>
      </g>
      <g id="Group_96007" data-name="Group 96007" transform="translate(65.479 23.503)">
        <g id="Group_95986" data-name="Group 95986" transform="translate(0 0.712)">
          <path id="Path_73583" data-name="Path 73583" d="M55.2,26.093V20.4h.949v5.693Z" transform="translate(-55.2 -20.4)" fill="#010101"/>
        </g>
        <g id="Group_95987" data-name="Group 95987" transform="translate(2.016 0.712)">
          <path id="Path_73584" data-name="Path 73584" d="M56.9,26.093V20.4h2.016a4.264,4.264,0,0,1,1.3.237,2.488,2.488,0,0,1,1.542,1.542,3.084,3.084,0,0,1,0,2.372,4.161,4.161,0,0,1-.593.949,2.583,2.583,0,0,1-.949.593,4.264,4.264,0,0,1-1.3.237H56.9Zm2.135-.83a2.312,2.312,0,0,0,.949-.119l.712-.356c.119-.237.356-.356.356-.593a1.759,1.759,0,0,0,.119-.83,1.759,1.759,0,0,0-.119-.83,2.593,2.593,0,0,0-.356-.593.717.717,0,0,0-.712-.356,1.225,1.225,0,0,0-.949-.474H57.849v4.033h1.186Z" transform="translate(-56.9 -20.4)" fill="#010101"/>
        </g>
        <g id="Group_95988" data-name="Group 95988" transform="translate(9.963 0.712)">
          <path id="Path_73585" data-name="Path 73585" d="M65.735,26.093,63.6,20.4h.949l1.66,4.626h0L67.87,20.4h.949l-2.135,5.693Z" transform="translate(-63.6 -20.4)" fill="#010101"/>
        </g>
        <g id="Group_95989" data-name="Group 95989" transform="translate(15.3 1.898)">
          <path id="Path_73586" data-name="Path 73586" d="M68.93,24.009h0c.119.356.237.712.474.83a1.347,1.347,0,0,0,.949.356A1.309,1.309,0,0,0,71.54,24.6h.949a2.11,2.11,0,0,1-.83.949,2.391,2.391,0,0,1-1.3.356,2.312,2.312,0,0,1-.949-.119A2.181,2.181,0,0,1,68.219,24.6a2.312,2.312,0,0,1-.119-.949,2.612,2.612,0,0,1,.119-.949,1.512,1.512,0,0,1,.474-.712,2.481,2.481,0,0,1,.712-.474,2.312,2.312,0,0,1,.949-.119,2.612,2.612,0,0,1,.949.119A2.181,2.181,0,0,1,72.488,22.7a2.312,2.312,0,0,1,.119.949v.356H68.93Zm1.542-1.779a2.234,2.234,0,0,0-.949.237c-.237.237-.474.474-.474.712H71.9a1.089,1.089,0,0,0-.474-.712A2.791,2.791,0,0,0,70.472,22.23Z" transform="translate(-68.1 -21.4)" fill="#010101"/>
        </g>
        <g id="Group_95990" data-name="Group 95990" transform="translate(20.756 1.898)">
          <path id="Path_73587" data-name="Path 73587" d="M75.428,23.416h0a1.837,1.837,0,0,0-.237-.949,1.686,1.686,0,0,0-.712-.237,1,1,0,0,0-.712.237c-.237.119-.237.474-.237.83v2.491H72.7V23.3a1.759,1.759,0,0,1,.119-.83,2.592,2.592,0,0,1,.356-.593,2.592,2.592,0,0,1,.593-.356,2.194,2.194,0,0,1,1.423,0,2.593,2.593,0,0,1,.593.356,2.593,2.593,0,0,1,.356.593,1.759,1.759,0,0,1,.119.83h-.83Z" transform="translate(-72.7 -21.4)" fill="#010101"/>
        </g>
        <g id="Group_95991" data-name="Group 95991" transform="translate(25.026 0.356)">
          <path id="Path_73588" data-name="Path 73588" d="M76.774,21.167a.436.436,0,0,1-.356-.119c-.119-.119-.119-.237-.119-.474a.419.419,0,0,1,.474-.474c.119,0,.356,0,.356.119a.436.436,0,0,1,.119.356.713.713,0,0,1-.119.474A.436.436,0,0,1,76.774,21.167ZM76.3,26.149v-4.27h.83v4.27Z" transform="translate(-76.3 -20.1)" fill="#010101"/>
        </g>
        <g id="Group_95992" data-name="Group 95992" transform="translate(27.042)">
          <path id="Path_73589" data-name="Path 73589" d="M78,26.2V21.7a1.759,1.759,0,0,1,.119-.83,2.592,2.592,0,0,1,.356-.593,2.592,2.592,0,0,1,.593-.356,2.194,2.194,0,0,1,1.423,0,2.593,2.593,0,0,1,.593.356,2.593,2.593,0,0,1,.356.593,1.759,1.759,0,0,1,.119.83h-.83a1.382,1.382,0,0,0-.237-.83,1.686,1.686,0,0,0-.712-.237,1,1,0,0,0-.712.237c-.237.119-.237.474-.237.83v.712H81.2v.712H78.83v2.965H78Z" transform="translate(-78 -19.8)" fill="#010101"/>
        </g>
        <g id="Group_95993" data-name="Group 95993" transform="translate(31.312 0.356)">
          <path id="Path_73590" data-name="Path 73590" d="M82.074,21.167a.436.436,0,0,1-.356-.119c-.119-.119-.119-.237-.119-.474a.419.419,0,0,1,.474-.474c.119,0,.356,0,.356.119a.436.436,0,0,1,.119.356.713.713,0,0,1-.119.474A.436.436,0,0,1,82.074,21.167ZM81.6,26.149v-4.27h.83v4.27Z" transform="translate(-81.6 -20.1)" fill="#010101"/>
        </g>
        <g id="Group_95994" data-name="Group 95994" transform="translate(33.091 1.898)">
          <path id="Path_73591" data-name="Path 73591" d="M86.777,23.06a2.481,2.481,0,0,0-.474-.712,1.714,1.714,0,0,0-.83-.237.889.889,0,0,0-.593.119,2.1,2.1,0,0,0-.83.83,1.069,1.069,0,0,0-.119.593.889.889,0,0,0,.119.593c.119.237.119.356.356.474a1.637,1.637,0,0,0,.474.356,1.069,1.069,0,0,0,.593.119,1.714,1.714,0,0,0,.83-.237.8.8,0,0,0,.474-.712h.83a1.686,1.686,0,0,1-.237.712.926.926,0,0,1-.474.474,3.949,3.949,0,0,1-.712.356,1.759,1.759,0,0,1-.83.119,2.312,2.312,0,0,1-.949-.119A2.181,2.181,0,0,1,83.219,24.6a2.312,2.312,0,0,1-.119-.949,2.612,2.612,0,0,1,.119-.949A2.181,2.181,0,0,1,84.4,21.519a2.312,2.312,0,0,1,.949-.119,2.018,2.018,0,0,1,.83.119l.712.356c.237.119.356.356.474.474a1.686,1.686,0,0,1,.237.712h-.83Z" transform="translate(-83.1 -21.4)" fill="#010101"/>
        </g>
        <g id="Group_95995" data-name="Group 95995" transform="translate(38.073 1.898)">
          <path id="Path_73592" data-name="Path 73592" d="M91.926,25.907h-.712v-.949h0a1.215,1.215,0,0,1-.593.712c-.237.237-.593.237-1.067.237a2.018,2.018,0,0,1-.83-.119A2.181,2.181,0,0,1,87.537,24.6a2.234,2.234,0,0,1-.237-.949,2.612,2.612,0,0,1,.119-.949,1.512,1.512,0,0,1,.474-.712,2.481,2.481,0,0,1,.712-.474,2.312,2.312,0,0,1,.949-.119,2.612,2.612,0,0,1,.949.119A2.181,2.181,0,0,1,91.688,22.7a2.312,2.312,0,0,1,.119.949v2.254ZM89.672,25.2a.889.889,0,0,0,.593-.119,2.1,2.1,0,0,0,.83-.83,1.069,1.069,0,0,0,.119-.593.889.889,0,0,0-.119-.593c-.119-.237-.119-.356-.356-.474a1.637,1.637,0,0,0-.474-.356,1.069,1.069,0,0,0-.593-.119.889.889,0,0,0-.593.119,2.1,2.1,0,0,0-.83.83,1.29,1.29,0,0,0-.119.593.889.889,0,0,0,.119.593c.119.237.119.356.356.474a1.637,1.637,0,0,0,.474.356A.889.889,0,0,0,89.672,25.2Z" transform="translate(-87.3 -21.4)" fill="#010101"/>
        </g>
        <g id="Group_95996" data-name="Group 95996" transform="translate(43.529 0.593)">
          <path id="Path_73593" data-name="Path 73593" d="M95.458,24.451c0,.237,0,.593-.119.712-.119.237-.237.356-.356.593a2.592,2.592,0,0,1-.593.356,2.194,2.194,0,0,1-1.423,0c-.237-.119-.356-.237-.593-.356a2.593,2.593,0,0,1-.356-.593,1.5,1.5,0,0,1-.119-.712V20.3h.83v1.423H95.1v.712H92.73v1.9a.839.839,0,0,0,.949.949,1.686,1.686,0,0,0,.712-.237,1,1,0,0,0,.237-.712v-.119l.83.237Z" transform="translate(-91.9 -20.3)" fill="#010101"/>
        </g>
        <g id="Group_95997" data-name="Group 95997" transform="translate(47.799 0.356)">
          <path id="Path_73594" data-name="Path 73594" d="M95.974,21.167a.436.436,0,0,1-.356-.119c-.119-.119-.119-.237-.119-.474a.419.419,0,0,1,.474-.474c.119,0,.356,0,.356.119a.436.436,0,0,1,.119.356.713.713,0,0,1-.119.474C96.33,21.167,96.212,21.167,95.974,21.167Zm-.356,4.981v-4.27h.83v4.27Z" transform="translate(-95.5 -20.1)" fill="#010101"/>
        </g>
        <g id="Group_95998" data-name="Group 95998" transform="translate(49.578 1.898)">
          <path id="Path_73595" data-name="Path 73595" d="M101.626,23.654a2.612,2.612,0,0,1-.119.949,1.512,1.512,0,0,1-.474.712,2.481,2.481,0,0,1-.712.474,3.855,3.855,0,0,1-1.9,0A2.181,2.181,0,0,1,97.237,24.6,1.278,1.278,0,0,1,97,23.654a2.612,2.612,0,0,1,.119-.949A2.181,2.181,0,0,1,98.3,21.519a2.312,2.312,0,0,1,.949-.119,2.612,2.612,0,0,1,.949.119,2.181,2.181,0,0,1,1.186,1.186A2.791,2.791,0,0,1,101.626,23.654ZM99.254,25.2a.889.889,0,0,0,.593-.119,2.1,2.1,0,0,0,.83-.83,1.069,1.069,0,0,0,.119-.593.889.889,0,0,0-.119-.593c-.119-.237-.119-.356-.356-.474a1.637,1.637,0,0,0-.474-.356,1.069,1.069,0,0,0-.593-.119.889.889,0,0,0-.593.119,2.1,2.1,0,0,0-.83.83,1.069,1.069,0,0,0-.119.593.889.889,0,0,0,.119.593c.119.237.119.356.356.474a1.637,1.637,0,0,0,.474.356A1.29,1.29,0,0,0,99.254,25.2Z" transform="translate(-97 -21.4)" fill="#010101"/>
        </g>
        <g id="Group_95999" data-name="Group 95999" transform="translate(54.915 1.898)">
          <path id="Path_73596" data-name="Path 73596" d="M104.94,25.907V23.654a1.45,1.45,0,0,0-.356-1.067,1.443,1.443,0,0,0-1.9,0,1.45,1.45,0,0,0-.356,1.067v2.254h-.83V23.654a2.312,2.312,0,0,1,.119-.949,2.481,2.481,0,0,1,.474-.712,1.512,1.512,0,0,1,.712-.474,2.018,2.018,0,0,1,.83-.119,1.759,1.759,0,0,1,.83.119l.712.356a1.512,1.512,0,0,1,.474.712,2.312,2.312,0,0,1,.119.949v2.254h-.83Z" transform="translate(-101.5 -21.4)" fill="#010101"/>
        </g>
        <g id="Group_96000" data-name="Group 96000" transform="translate(62.269 0.593)">
          <path id="Path_73597" data-name="Path 73597" d="M111.021,23.384h0a.926.926,0,0,1,.474.474,1.284,1.284,0,0,1,.119.712,1.5,1.5,0,0,1-.119.712,1.637,1.637,0,0,1-.356.474c-.237.119-.356.237-.593.356a2.965,2.965,0,0,1-1.66,0,2.593,2.593,0,0,1-.593-.356,1.184,1.184,0,0,1-.474-.593,1.5,1.5,0,0,1-.119-.712,1.714,1.714,0,0,1,.237-.83,2.481,2.481,0,0,1,.712-.474h0a1.184,1.184,0,0,1-.593-.474,1.714,1.714,0,0,1-.237-.83.889.889,0,0,1,.119-.593,1.637,1.637,0,0,1,.356-.474,2.593,2.593,0,0,1,.593-.356,1.5,1.5,0,0,1,.712-.119,2.391,2.391,0,0,1,1.3.356,1.249,1.249,0,0,1,.474,1.186h-.83c0-.237-.119-.356-.237-.593a1.186,1.186,0,0,0-1.423,0,.86.86,0,0,0,0,1.186,1.714,1.714,0,0,0,.83.237h2.372v.712Zm-.119,1.067a.717.717,0,0,0-.356-.712,1.714,1.714,0,0,0-.83-.237H109.6a1.714,1.714,0,0,0-.83.237.845.845,0,0,0-.356.712.717.717,0,0,0,.356.712c.237.237.474.237.949.237a2.234,2.234,0,0,0,.949-.237A1.686,1.686,0,0,0,110.9,24.451Z" transform="translate(-107.7 -20.3)" fill="#010101"/>
        </g>
        <g id="Group_96001" data-name="Group 96001" transform="translate(69.741 0.712)">
          <path id="Path_73598" data-name="Path 73598" d="M114,26.093V20.4h2.728a1.5,1.5,0,0,1,.712.119c.237.119.356.119.474.356a1.638,1.638,0,0,1,.356.474,1.069,1.069,0,0,1,.119.593,1.714,1.714,0,0,1-.237.83,1.184,1.184,0,0,1-.593.474h0a1.912,1.912,0,0,1,.83.474,1.278,1.278,0,0,1,.237.949.889.889,0,0,1-.119.593,1.637,1.637,0,0,1-.356.474c-.119.119-.356.237-.474.356a1.5,1.5,0,0,1-.712.119H114Zm.949-4.981v1.542h1.779a.839.839,0,0,0,.593-1.423,1,1,0,0,0-.712-.237h-1.66Zm0,2.491v1.66h1.9a1,1,0,0,0,.712-.237.83.83,0,0,0-.593-1.423h-2.016Z" transform="translate(-114 -20.4)" fill="#010101"/>
        </g>
        <g id="Group_96002" data-name="Group 96002" transform="translate(74.96 1.898)">
          <path id="Path_73599" data-name="Path 73599" d="M119.23,24.009h0c.119.356.237.712.474.83a1.347,1.347,0,0,0,.949.356,1.309,1.309,0,0,0,1.186-.593h.949a2.11,2.11,0,0,1-.83.949,2.391,2.391,0,0,1-1.3.356,2.312,2.312,0,0,1-.949-.119,2.181,2.181,0,0,1-1.186-1.186,2.312,2.312,0,0,1-.119-.949,2.612,2.612,0,0,1,.119-.949,1.512,1.512,0,0,1,.474-.712,2.481,2.481,0,0,1,.712-.474,2.312,2.312,0,0,1,.949-.119,2.612,2.612,0,0,1,.949.119,2.181,2.181,0,0,1,1.186,1.186,2.312,2.312,0,0,1,.119.949v.356H119.23Zm1.423-1.779a2.234,2.234,0,0,0-.949.237c-.237.237-.474.474-.474.712h2.847a1.089,1.089,0,0,0-.474-.712A2.234,2.234,0,0,0,120.654,22.23Z" transform="translate(-118.4 -21.4)" fill="#010101"/>
        </g>
        <g id="Group_96003" data-name="Group 96003" transform="translate(80.415 1.898)">
          <path id="Path_73600" data-name="Path 73600" d="M125.016,25.2a1.347,1.347,0,0,0,.949-.356,1.45,1.45,0,0,0,.356-1.067V21.519h.83V25.67a2.312,2.312,0,0,1-.119.949,1.184,1.184,0,0,1-.474.593l-.712.356a2.018,2.018,0,0,1-.83.119,1.5,1.5,0,0,1-.712-.119.906.906,0,0,1-.593-.237.926.926,0,0,1-.474-.474c-.119-.237-.237-.356-.237-.593h.83a1.256,1.256,0,0,0,1.3.712,1.347,1.347,0,0,0,.949-.356,1.45,1.45,0,0,0,.356-1.067v-.593h0a1.429,1.429,0,0,1-.593.593,1.714,1.714,0,0,1-.83.237,1.5,1.5,0,0,1-.712-.119,2.593,2.593,0,0,1-.593-.356,1.512,1.512,0,0,1-.474-.712,2.312,2.312,0,0,1-.119-.949V21.4h.83v2.254a1.45,1.45,0,0,0,.356,1.067C124.3,25.077,124.542,25.2,125.016,25.2Z" transform="translate(-123 -21.4)" fill="#010101"/>
        </g>
        <g id="Group_96004" data-name="Group 96004" transform="translate(85.516 1.898)">
          <path id="Path_73601" data-name="Path 73601" d="M131.807,23.654a2.612,2.612,0,0,1-.119.949,1.512,1.512,0,0,1-.474.712,2.481,2.481,0,0,1-.712.474,3.855,3.855,0,0,1-1.9,0,2.181,2.181,0,0,1-1.186-1.186,2.312,2.312,0,0,1-.119-.949,2.612,2.612,0,0,1,.119-.949,1.512,1.512,0,0,1,.474-.712,2.481,2.481,0,0,1,.712-.474,2.312,2.312,0,0,1,.949-.119,2.612,2.612,0,0,1,.949.119,2.181,2.181,0,0,1,1.186,1.186A2.612,2.612,0,0,1,131.807,23.654ZM129.435,25.2a.889.889,0,0,0,.593-.119,2.1,2.1,0,0,0,.83-.83,1.069,1.069,0,0,0,.119-.593.889.889,0,0,0-.119-.593c-.119-.237-.119-.356-.356-.474s-.237-.237-.474-.356a1.069,1.069,0,0,0-.593-.119.889.889,0,0,0-.593.119,2.1,2.1,0,0,0-.83.83,1.069,1.069,0,0,0-.119.593.889.889,0,0,0,.119.593c.119.237.119.356.356.474a1.637,1.637,0,0,0,.474.356A1.069,1.069,0,0,0,129.435,25.2Z" transform="translate(-127.3 -21.4)" fill="#010101"/>
        </g>
        <g id="Group_96005" data-name="Group 96005" transform="translate(90.734 1.898)">
          <path id="Path_73602" data-name="Path 73602" d="M135.14,25.907V23.654a1.45,1.45,0,0,0-.356-1.067,1.443,1.443,0,0,0-1.9,0,1.45,1.45,0,0,0-.356,1.067v2.254h-.83V23.654a2.312,2.312,0,0,1,.119-.949,2.481,2.481,0,0,1,.474-.712,1.512,1.512,0,0,1,.712-.474,2.018,2.018,0,0,1,.83-.119,1.759,1.759,0,0,1,.83.119l.712.356a1.512,1.512,0,0,1,.474.712,2.312,2.312,0,0,1,.119.949v2.254h-.83Z" transform="translate(-131.7 -21.4)" fill="#010101"/>
        </g>
        <g id="Group_96006" data-name="Group 96006" transform="translate(95.716 0.119)">
          <path id="Path_73603" data-name="Path 73603" d="M140.407,23.933a2.312,2.312,0,0,1-.119.949,2.18,2.18,0,0,1-1.186,1.186,3.855,3.855,0,0,1-1.9,0,2.181,2.181,0,0,1-1.186-1.186,2.312,2.312,0,0,1-.119-.949,2.234,2.234,0,0,1,.237-.949,2.18,2.18,0,0,1,1.186-1.186,1.759,1.759,0,0,1,.83-.119,2.234,2.234,0,0,1,.949.237,1.429,1.429,0,0,1,.593.593h0V19.9h.83v4.033Zm-2.254,1.542a.889.889,0,0,0,.593-.119,2.1,2.1,0,0,0,.83-.83,1.069,1.069,0,0,0,.119-.593.889.889,0,0,0-.119-.593c-.119-.237-.119-.356-.356-.474s-.237-.237-.474-.356a1.069,1.069,0,0,0-.593-.119.889.889,0,0,0-.593.119,2.1,2.1,0,0,0-.83.83,1.069,1.069,0,0,0-.119.593.889.889,0,0,0,.119.593c.119.237.119.356.356.474s.237.237.474.356A.889.889,0,0,0,138.154,25.475Z" transform="translate(-135.9 -19.9)" fill="#010101"/>
        </g>
      </g>
    </g>
  </g>
</svg>
