<svg xmlns="http://www.w3.org/2000/svg" width="1498.745" height="653.646" viewBox="0 0 1498.745 653.646">
  <g id="Group_13" data-name="Group 13" transform="translate(0 0.903)" opacity="0.75">
    <path id="Path_1" data-name="Path 1" d="M240.348,231.6H198.4l-48.8,43.777H68.5" transform="translate(1252.985 334.155)" fill="none" stroke="#a8b726" stroke-miterlimit="10" stroke-width="2" opacity="0.63"/>
    <path id="Path_2" data-name="Path 2" d="M238.223,235.786H196.27l-48.8,43.777-77.948.421" transform="translate(1252.24 317.765)" fill="none" stroke="#a8b726" stroke-miterlimit="10" stroke-width="3" opacity="0.25"/>
    <ellipse id="Ellipse_1" data-name="Ellipse 1" cx="2.914" cy="2.914" rx="2.914" ry="2.914" transform="translate(1318.571 606.614)" fill="#a8b726"/>
    <ellipse id="Ellipse_2" data-name="Ellipse 2" cx="2.914" cy="2.914" rx="2.914" ry="2.914" transform="translate(1318.571 595.096)" fill="#a8b726"/>
    <path id="Path_3" data-name="Path 3" d="M342.388,224.447H202.207L67.766,348.84" transform="translate(1153.008 280.782)" fill="none" stroke="#a8b726" stroke-miterlimit="10" stroke-width="2" opacity="0.63"/>
    <path id="Path_4" data-name="Path 4" d="M690.929,226.149H535.916L403.389,358.676H67.766" transform="translate(804.467 266.162)" fill="none" stroke="#a8b726" stroke-miterlimit="10" stroke-width="3"/>
    <path id="Path_5" data-name="Path 5" d="M614.14,230.559H449.558L316.074,363.368H67.766" transform="translate(881.256 249.073)" fill="none" stroke="#a8b726" stroke-miterlimit="10" stroke-width="3"/>
    <path id="Path_6" data-name="Path 6" d="M531.61,235.276H354.785L225.291,364.156,67.766,362.983" transform="translate(963.786 235.027)" fill="none" stroke="#a8b726" stroke-miterlimit="10" stroke-width="3"/>
    <path id="Path_7" data-name="Path 7" d="M692.487,319.418l-64.469,68.566H297.777L155.681,245.5" transform="translate(555.797 182.461)" fill="none" stroke="#a8b726" stroke-miterlimit="10" stroke-width="3"/>
    <path id="Path_8" data-name="Path 8" d="M670.665,337.106l-50,54.347H309.924L164.958,251.511" transform="translate(551.544 162.098)" fill="none" stroke="#a8b726" stroke-miterlimit="10" stroke-width="3"/>
    <path id="Path_9" data-name="Path 9" d="M656.452,341.29,634.2,363.178H290.448l-122-123.8" transform="translate(555.949 224.461)" fill="none" stroke="#a8b726" stroke-miterlimit="10" stroke-width="3" opacity="0.31"/>
    <path id="Path_10" data-name="Path 10" d="M352.205,272.989l-27.391,26.553-107.791.688L178.617,262.5" transform="translate(831.609 222.432)" fill="none" stroke="#a8b726" stroke-miterlimit="10" stroke-width="2" opacity="0.63"/>
    <path id="Path_11" data-name="Path 11" d="M439.21,312.24,402.963,268.7H228.573" transform="translate(604.189 192.989)" fill="none" stroke="#a8b726" stroke-miterlimit="10" stroke-width="3" opacity="0.31"/>
    <path id="Path_12" data-name="Path 12" d="M385.351,359.945H156.18l-72.244-73.2" transform="translate(1064.594 94.569)" fill="none" stroke="#a8b726" stroke-miterlimit="10" stroke-width="3"/>
    <path id="Path_13" data-name="Path 13" d="M266.393,360.787h-33.73l-73.918-79.66" transform="translate(973.279 109.516)" fill="none" stroke="#a8b726" stroke-miterlimit="10" stroke-width="3" opacity="0.63"/>
    <path id="Path_14" data-name="Path 14" d="M365.615,310.551l-30.141-29.424H203.426" transform="translate(748.467 159.751)" fill="none" stroke="#a8b726" stroke-miterlimit="10" stroke-width="3" opacity="0.31"/>
    <path id="Path_15" data-name="Path 15" d="M537.142,401.528H392.176L314.669,327.61l-177.978,2.153L108.7,297.468" transform="translate(843.19 22.845)" fill="none" stroke="#a8b726" stroke-miterlimit="10" stroke-width="3"/>
    <path id="Path_16" data-name="Path 16" d="M397.05,380.569H149.937L67.766,301.3" transform="translate(1098.346 33.039)" fill="none" stroke="#a8b726" stroke-miterlimit="10" stroke-width="3"/>
    <path id="Path_17" data-name="Path 17" d="M395.721,385.346H146.365L68.5,306.4" transform="translate(1097.612 13.909)" fill="none" stroke="#a8b726" stroke-miterlimit="10" stroke-width="3"/>
    <path id="Path_18" data-name="Path 18" d="M273.254,363.913H264.4l-29.424-29.424H180.438l-28.706,29.424H99.619L67.766,334.489" transform="translate(1222.142 -43.6)" fill="none" stroke="#a8b726" stroke-miterlimit="10" stroke-width="2" opacity="0.63"/>
    <path id="Path_19" data-name="Path 19" d="M325.749,353.39l-23.294-15.071H243.608l-38.753,43.059H163.171l-40.847-39.471-53.824.718" transform="translate(1167.584 -71.83)" fill="none" stroke="#a8b726" stroke-miterlimit="10" stroke-width="2"/>
    <path id="Path_20" data-name="Path 20" d="M351.888,343.17h-76.4l-45.93,50.953H197.264l-36.6-42.341-91.142-.718" transform="translate(1138.574 -98.211)" fill="none" stroke="#a8b726" stroke-miterlimit="10" stroke-width="3" opacity="0.42"/>
    <path id="Path_21" data-name="Path 21" d="M425.857,373.125l-33.012-34.806H256.491L187.6,412.238" transform="translate(732.72 -102.689)" fill="none" stroke="#a8b726" stroke-miterlimit="10" stroke-width="2"/>
    <path id="Path_22" data-name="Path 22" d="M501.618,391.674h-67.46l-39.471-38.036L220.3,357.944,148.532,437.6" transform="translate(766.76 -171.115)" fill="none" stroke="#a8b726" stroke-miterlimit="10" stroke-width="2" opacity="0.35"/>
    <path id="Path_23" data-name="Path 23" d="M629.929,428.75H370.616l-56.695-52.389H103.888L67.766,415.115" transform="translate(865.467 -226.133)" fill="none" stroke="#a8b726" stroke-miterlimit="10" stroke-width="3"/>
    <path id="Path_24" data-name="Path 24" d="M451.276,397.48l-30.34-29.9H231.1l-59.075,62.459" transform="translate(751.078 -202.756)" fill="none" stroke="#a8b726" stroke-miterlimit="10" stroke-width="3" opacity="0.67"/>
    <path id="Path_25" data-name="Path 25" d="M404.585,466.1H152.449L67.766,380.7" transform="translate(1090.811 -275.685)" fill="none" stroke="#a8b726" stroke-miterlimit="10" stroke-width="2"/>
    <path id="Path_26" data-name="Path 26" d="M282.823,395.894,192.4,481.653H85.468" transform="translate(1162.816 -333.936)" fill="none" stroke="#a8b726" stroke-miterlimit="10" stroke-width="3"/>
    <path id="Path_27" data-name="Path 27" d="M447.118,403.681l-61.2,59.565H249.045l-52.079-53.3-98.987.2" transform="translate(963.356 -337.417)" fill="none" stroke="#a8b726" stroke-miterlimit="10" stroke-width="3"/>
    <path id="Path_28" data-name="Path 28" d="M634.068,416.846l-48.92,48.785-129.417-2.855L410.758,412.54,148.1,407.516l-43.777,47.9" transform="translate(758.584 -350.582)" fill="none" stroke="#a8b726" stroke-miterlimit="10" stroke-width="2" opacity="0.63"/>
    <path id="Path_29" data-name="Path 29" d="M516.539,468.656H284.617l-18.779-21.53L76.378,450l-8.612-13.636" transform="translate(978.857 -435.405)" fill="none" stroke="#a8b726" stroke-miterlimit="10" stroke-width="2" opacity="0.39"/>
    <path id="Path_30" data-name="Path 30" d="M540.944,475.492h-244l-18.659-16.506H91.692l-25.118-28.5" transform="translate(957.801 -425.735)" fill="none" stroke="#a8b726" stroke-miterlimit="10" stroke-width="2"/>
    <path id="Path_31" data-name="Path 31" d="M522.177,420.87H435.885L358.407,342V297" transform="translate(156.282 4.822)" fill="none" stroke="#a8b726" stroke-miterlimit="10" stroke-width="3"/>
    <path id="Path_32" data-name="Path 32" d="M524.912,423.948h-76.55l-85.829-87.684V289.406" transform="translate(141.949 23.085)" fill="none" stroke="#a8b726" stroke-miterlimit="10" stroke-width="3" opacity="0.63"/>
    <path id="Path_33" data-name="Path 33" d="M590.737,353.237,538.776,301.3H290.569" transform="translate(278.4 60.371)" fill="none" stroke="#a8b726" stroke-miterlimit="10" stroke-width="3"/>
    <path id="Path_34" data-name="Path 34" d="M595.819,362.811,542.466,307.6l-254.7-1.856" transform="translate(281.206 38.293)" fill="none" stroke="#a8b726" stroke-miterlimit="10" stroke-width="3"/>
    <path id="Path_35" data-name="Path 35" d="M843.941,431.349H566.97l-76.55-76.086H283.967" transform="translate(43.754 -169.427)" fill="none" stroke="#a8b726" stroke-miterlimit="10" stroke-width="3"/>
    <path id="Path_36" data-name="Path 36" d="M658.035,427.682,573.6,343.709H386.631" transform="translate(-58.91 -133.284)" fill="none" stroke="#a8b726" stroke-miterlimit="10" stroke-width="3"/>
    <path id="Path_37" data-name="Path 37" d="M648.172,418.383l-76.55-77.315H392.078" transform="translate(-64.357 -116.562)" fill="none" stroke="#a8b726" stroke-miterlimit="10" stroke-width="3"/>
    <path id="Path_38" data-name="Path 38" d="M676.6,437.583l-47.322-46.394H449.735L406.6,344.534" transform="translate(-133.611 -145.505)" fill="none" stroke="#a8b726" stroke-miterlimit="10" stroke-width="3"/>
    <path id="Path_39" data-name="Path 39" d="M892.2,426.112H700.35L622.365,347.17H433.383" transform="translate(-424.489 -141.442)" fill="none" stroke="#a8b726" stroke-miterlimit="10" stroke-width="1"/>
    <path id="Path_40" data-name="Path 40" d="M777.291,543.43H630.411L447.17,356.362" transform="translate(-348.33 -284.596)" fill="none" stroke="#a8b726" stroke-miterlimit="10" stroke-width="1"/>
    <path id="Path_41" data-name="Path 41" d="M639.231,399.426l-46.974,45.93-131.57-2.392-44.016-41.146" transform="translate(-124.543 -307.566)" fill="none" stroke="#a8b726" stroke-miterlimit="10" stroke-width="3"/>
    <path id="Path_42" data-name="Path 42" d="M622.476,449.911H492.341l-59.087-64.23H280.872" transform="translate(273.918 -273.487)" fill="none" stroke="#a8b726" stroke-miterlimit="10" stroke-width="3" opacity="0.22"/>
    <path id="Path_43" data-name="Path 43" d="M555.495,465.219H433.972L366.184,395H280.872" transform="translate(340.899 -314.99)" fill="none" stroke="#a8b726" stroke-miterlimit="10" stroke-width="3" opacity="0.63"/>
    <path id="Path_44" data-name="Path 44" d="M772.576,390.66H603.21l-66.024,61.958H387.913l-38.275-35.165" transform="translate(-69.471 -290.188)" fill="none" stroke="#a8b726" stroke-miterlimit="10" stroke-width="3" opacity="0.48"/>
    <path id="Path_45" data-name="Path 45" d="M522.289,460.776H380.759l-14.44-19.138" transform="translate(133.929 -441.638)" fill="none" stroke="#a8b726" stroke-miterlimit="10" stroke-width="3"/>
    <ellipse id="Ellipse_3" data-name="Ellipse 3" cx="9.123" cy="9.123" rx="9.123" ry="9.123" transform="translate(1191.345 631.996)" fill="none" stroke="#a8b726" stroke-miterlimit="10" stroke-width="5"/>
    <ellipse id="Ellipse_4" data-name="Ellipse 4" cx="9.123" cy="9.123" rx="9.123" ry="9.123" transform="translate(1164.82 631.996)" fill="none" stroke="#a8b726" stroke-miterlimit="10" stroke-width="5"/>
    <ellipse id="Ellipse_5" data-name="Ellipse 5" cx="9.123" cy="9.123" rx="9.123" ry="9.123" transform="translate(1138.296 631.996)" fill="none" stroke="#a8b726" stroke-miterlimit="10" stroke-width="5"/>
    <ellipse id="Ellipse_6" data-name="Ellipse 6" cx="9.123" cy="9.123" rx="9.123" ry="9.123" transform="translate(1111.771 631.996)" fill="none" stroke="#a8b726" stroke-miterlimit="10" stroke-width="5"/>
    <ellipse id="Ellipse_7" data-name="Ellipse 7" cx="9.123" cy="9.123" rx="9.123" ry="9.123" transform="translate(1085.246 631.996)" fill="none" stroke="#a8b726" stroke-miterlimit="10" stroke-width="5"/>
    <ellipse id="Ellipse_8" data-name="Ellipse 8" cx="9.123" cy="9.123" rx="9.123" ry="9.123" transform="translate(1058.722 631.996)" fill="none" stroke="#a8b726" stroke-miterlimit="10" stroke-width="5"/>
    <ellipse id="Ellipse_9" data-name="Ellipse 9" cx="9.123" cy="9.123" rx="9.123" ry="9.123" transform="translate(1032.197 631.996)" fill="none" stroke="#a8b726" stroke-miterlimit="10" stroke-width="5"/>
    <ellipse id="Ellipse_10" data-name="Ellipse 10" cx="9.123" cy="9.123" rx="9.123" ry="9.123" transform="translate(1005.672 631.996)" fill="none" stroke="#a8b726" stroke-miterlimit="10" stroke-width="5"/>
    <ellipse id="Ellipse_11" data-name="Ellipse 11" cx="8.687" cy="8.687" rx="8.687" ry="8.687" transform="translate(1058.722 494.502)" fill="none" stroke="#a8b726" stroke-miterlimit="10" stroke-width="6"/>
    <ellipse id="Ellipse_12" data-name="Ellipse 12" cx="8.687" cy="8.687" rx="8.687" ry="8.687" transform="translate(1084.04 494.502)" fill="none" stroke="#a8b726" stroke-miterlimit="10" stroke-width="6"/>
    <ellipse id="Ellipse_13" data-name="Ellipse 13" cx="8.687" cy="8.687" rx="8.687" ry="8.687" transform="translate(1109.359 494.502)" fill="none" stroke="#a8b726" stroke-miterlimit="10" stroke-width="6"/>
    <ellipse id="Ellipse_14" data-name="Ellipse 14" cx="8.687" cy="8.687" rx="8.687" ry="8.687" transform="translate(1134.677 494.502)" fill="none" stroke="#a8b726" stroke-miterlimit="10" stroke-width="6"/>
    <ellipse id="Ellipse_15" data-name="Ellipse 15" cx="8.687" cy="8.687" rx="8.687" ry="8.687" transform="translate(1067.418 195.263)" fill="none" stroke="#a8b726" stroke-miterlimit="10" stroke-width="6"/>
    <ellipse id="Ellipse_16" data-name="Ellipse 16" cx="8.687" cy="8.687" rx="8.687" ry="8.687" transform="translate(1092.737 195.263)" fill="none" stroke="#a8b726" stroke-miterlimit="10" stroke-width="6"/>
    <ellipse id="Ellipse_17" data-name="Ellipse 17" cx="8.687" cy="8.687" rx="8.687" ry="8.687" transform="translate(1118.055 195.263)" fill="none" stroke="#a8b726" stroke-miterlimit="10" stroke-width="6"/>
    <ellipse id="Ellipse_18" data-name="Ellipse 18" cx="8.687" cy="8.687" rx="8.687" ry="8.687" transform="translate(1143.373 195.263)" fill="none" stroke="#a8b726" stroke-miterlimit="10" stroke-width="6"/>
    <ellipse id="Ellipse_19" data-name="Ellipse 19" cx="8.687" cy="8.687" rx="8.687" ry="8.687" transform="translate(1387.488 214.032)" fill="none" stroke="#a8b726" stroke-miterlimit="10" stroke-width="2"/>
    <ellipse id="Ellipse_20" data-name="Ellipse 20" cx="8.687" cy="8.687" rx="8.687" ry="8.687" transform="translate(1412.806 214.032)" fill="none" stroke="#a8b726" stroke-miterlimit="10" stroke-width="2"/>
    <ellipse id="Ellipse_21" data-name="Ellipse 21" cx="8.687" cy="8.687" rx="8.687" ry="8.687" transform="translate(1438.124 214.032)" fill="none" stroke="#a8b726" stroke-miterlimit="10" stroke-width="2"/>
    <ellipse id="Ellipse_22" data-name="Ellipse 22" cx="8.687" cy="8.687" rx="8.687" ry="8.687" transform="translate(1463.443 214.032)" fill="none" stroke="#a8b726" stroke-miterlimit="10" stroke-width="2"/>
    <ellipse id="Ellipse_23" data-name="Ellipse 23" cx="4.569" cy="4.569" rx="4.569" ry="4.569" transform="translate(1024.373 594.613)" fill="#a8b726"/>
    <ellipse id="Ellipse_24" data-name="Ellipse 24" cx="4.569" cy="4.569" rx="4.569" ry="4.569" transform="translate(944.453 607.872)" fill="#a8b726"/>
    <ellipse id="Ellipse_25" data-name="Ellipse 25" cx="4.569" cy="4.569" rx="4.569" ry="4.569" transform="translate(828.193 457.122)" fill="#a8b726"/>
    <ellipse id="Ellipse_26" data-name="Ellipse 26" cx="4.569" cy="4.569" rx="4.569" ry="4.569" transform="translate(863.095 409.039)" fill="#a8b726"/>
    <ellipse id="Ellipse_27" data-name="Ellipse 27" cx="4.569" cy="4.569" rx="4.569" ry="4.569" transform="translate(872.233 393.777)" fill="#a8b726"/>
    <ellipse id="Ellipse_28" data-name="Ellipse 28" cx="4.569" cy="4.569" rx="4.569" ry="4.569" transform="translate(711.933 409.039)" fill="#a8b726"/>
    <ellipse id="Ellipse_29" data-name="Ellipse 29" cx="4.569" cy="4.569" rx="4.569" ry="4.569" transform="translate(706.909 423.392)" fill="#a8b726"/>
    <ellipse id="Ellipse_30" data-name="Ellipse 30" cx="4.569" cy="4.569" rx="4.569" ry="4.569" transform="translate(721.023 459.275)" fill="#a8b726"/>
    <ellipse id="Ellipse_31" data-name="Ellipse 31" cx="4.569" cy="4.569" rx="4.569" ry="4.569" transform="translate(867.664 620.269)" fill="#a8b726"/>
    <ellipse id="Ellipse_32" data-name="Ellipse 32" cx="4.569" cy="4.569" rx="4.569" ry="4.569" transform="translate(1207.832 561.182)" fill="#a8b726"/>
    <ellipse id="Ellipse_33" data-name="Ellipse 33" cx="4.569" cy="4.569" rx="4.569" ry="4.569" transform="translate(1245.903 496.579)" fill="#a8b726"/>
    <ellipse id="Ellipse_34" data-name="Ellipse 34" cx="4.569" cy="4.569" rx="4.569" ry="4.569" transform="translate(1217.64 494.634)" fill="#a8b726"/>
    <ellipse id="Ellipse_35" data-name="Ellipse 35" cx="4.569" cy="4.569" rx="4.569" ry="4.569" transform="translate(1181.279 489.652)" fill="#a8b726"/>
    <ellipse id="Ellipse_36" data-name="Ellipse 36" cx="4.569" cy="4.569" rx="4.569" ry="4.569" transform="translate(1005.657 480.363)" fill="#a8b726"/>
    <ellipse id="Ellipse_37" data-name="Ellipse 37" cx="4.569" cy="4.569" rx="4.569" ry="4.569" transform="translate(1038.83 500.66)" fill="#a8b726"/>
    <ellipse id="Ellipse_38" data-name="Ellipse 38" cx="4.569" cy="4.569" rx="4.569" ry="4.569" transform="translate(1111.048 466.454)" fill="#a8b726"/>
    <ellipse id="Ellipse_39" data-name="Ellipse 39" cx="4.569" cy="4.569" rx="4.569" ry="4.569" transform="translate(1235.103 465.734)" fill="#a8b726"/>
    <ellipse id="Ellipse_40" data-name="Ellipse 40" cx="4.569" cy="4.569" rx="4.569" ry="4.569" transform="translate(1124.524 383.069)" fill="#a8b726"/>
    <ellipse id="Ellipse_41" data-name="Ellipse 41" cx="4.569" cy="4.569" rx="4.569" ry="4.569" transform="translate(1141.138 373.931)" fill="#a8b726"/>
    <ellipse id="Ellipse_42" data-name="Ellipse 42" cx="4.569" cy="4.569" rx="4.569" ry="4.569" transform="translate(1161.543 329.768)" fill="#a8b726"/>
    <ellipse id="Ellipse_43" data-name="Ellipse 43" cx="4.569" cy="4.569" rx="4.569" ry="4.569" transform="translate(1160.06 313.177)" fill="#a8b726"/>
    <ellipse id="Ellipse_44" data-name="Ellipse 44" cx="4.569" cy="4.569" rx="4.569" ry="4.569" transform="translate(945.684 313.177)" fill="#a8b726"/>
    <ellipse id="Ellipse_45" data-name="Ellipse 45" cx="4.569" cy="4.569" rx="4.569" ry="4.569" transform="translate(1154.008 265.867)" fill="#a8b726"/>
    <ellipse id="Ellipse_46" data-name="Ellipse 46" cx="4.569" cy="4.569" rx="4.569" ry="4.569" transform="translate(1200.468 248.637)" fill="#a8b726"/>
    <ellipse id="Ellipse_47" data-name="Ellipse 47" cx="4.569" cy="4.569" rx="4.569" ry="4.569" transform="translate(910.723 261.92)" fill="#a8b726"/>
    <ellipse id="Ellipse_98" data-name="Ellipse 98" cx="4.569" cy="4.569" rx="4.569" ry="4.569" transform="translate(882.518 257.775)" fill="#a8b726"/>
    <ellipse id="Ellipse_97" data-name="Ellipse 97" cx="4.569" cy="4.569" rx="4.569" ry="4.569" transform="translate(915.292 305.369)" fill="#a8b726"/>
    <ellipse id="Ellipse_48" data-name="Ellipse 48" cx="4.569" cy="4.569" rx="4.569" ry="4.569" transform="translate(858.334 100.472)" fill="#a8b726"/>
    <ellipse id="Ellipse_49" data-name="Ellipse 49" cx="4.569" cy="4.569" rx="4.569" ry="4.569" transform="translate(891.825 170.241)" fill="#a8b726"/>
    <ellipse id="Ellipse_50" data-name="Ellipse 50" cx="4.569" cy="4.569" rx="4.569" ry="4.569" transform="translate(891.825 145.66)" fill="#a8b726"/>
    <ellipse id="Ellipse_51" data-name="Ellipse 51" cx="4.569" cy="4.569" rx="4.569" ry="4.569" transform="translate(834.841 102.865)" fill="#a8b726"/>
    <ellipse id="Ellipse_52" data-name="Ellipse 52" cx="4.569" cy="4.569" rx="4.569" ry="4.569" transform="translate(805.196 102.865)" fill="#a8b726"/>
    <ellipse id="Ellipse_53" data-name="Ellipse 53" cx="4.569" cy="4.569" rx="4.569" ry="4.569" transform="translate(617.202 75.441)" fill="#a8b726"/>
    <ellipse id="Ellipse_54" data-name="Ellipse 54" cx="4.569" cy="4.569" rx="4.569" ry="4.569" transform="translate(698.536 95.903)" fill="#a8b726"/>
    <ellipse id="Ellipse_55" data-name="Ellipse 55" cx="4.569" cy="4.569" rx="4.569" ry="4.569" transform="translate(651.65 14.568)" fill="#a8b726"/>
    <ellipse id="Ellipse_56" data-name="Ellipse 56" cx="4.569" cy="4.569" rx="4.569" ry="4.569" transform="translate(975.367 29.4)" fill="#a8b726"/>
    <ellipse id="Ellipse_57" data-name="Ellipse 57" cx="4.569" cy="4.569" rx="4.569" ry="4.569" transform="translate(972.891 43.167)" fill="#a8b726"/>
    <ellipse id="Ellipse_58" data-name="Ellipse 58" cx="4.569" cy="4.569" rx="4.569" ry="4.569" transform="translate(918.53 222.719)" fill="#a8b726"/>
    <ellipse id="Ellipse_59" data-name="Ellipse 59" cx="4.569" cy="4.569" rx="4.569" ry="4.569" transform="translate(928.664 185.849)" fill="#a8b726"/>
    <ellipse id="Ellipse_60" data-name="Ellipse 60" cx="4.569" cy="4.569" rx="4.569" ry="4.569" transform="translate(1195.899 189.181)" fill="#a8b726"/>
    <ellipse id="Ellipse_61" data-name="Ellipse 61" cx="4.569" cy="4.569" rx="4.569" ry="4.569" transform="translate(1154.008 100.448)" fill="#a8b726"/>
    <ellipse id="Ellipse_62" data-name="Ellipse 62" cx="4.569" cy="4.569" rx="4.569" ry="4.569" transform="translate(1056.766 68.757)" fill="#a8b726"/>
    <ellipse id="Ellipse_63" data-name="Ellipse 63" cx="4.569" cy="4.569" rx="4.569" ry="4.569" transform="translate(1242.312 143.148)" fill="#a8b726"/>
    <ellipse id="Ellipse_64" data-name="Ellipse 64" cx="4.569" cy="4.569" rx="4.569" ry="4.569" transform="translate(1441.07 57.388)" fill="#a8b726"/>
    <ellipse id="Ellipse_65" data-name="Ellipse 65" cx="4.569" cy="4.569" rx="4.569" ry="4.569" transform="translate(1405.905 60.827)" fill="#a8b726"/>
    <ellipse id="Ellipse_66" data-name="Ellipse 66" cx="4.569" cy="4.569" rx="4.569" ry="4.569" transform="translate(1228.673 265.867)" fill="#a8b726"/>
    <ellipse id="Ellipse_67" data-name="Ellipse 67" cx="4.569" cy="4.569" rx="4.569" ry="4.569" transform="translate(1282.572 286.32)" fill="#a8b726"/>
    <ellipse id="Ellipse_68" data-name="Ellipse 68" cx="4.569" cy="4.569" rx="4.569" ry="4.569" transform="translate(1263.809 215.99)" fill="#a8b726"/>
    <ellipse id="Ellipse_69" data-name="Ellipse 69" cx="4.569" cy="4.569" rx="4.569" ry="4.569" transform="translate(948.858 437.03)" fill="#a8b726"/>
    <g id="Group_1" data-name="Group 1" transform="translate(950.99 66.92)">
      <ellipse id="Ellipse_70" data-name="Ellipse 70" cx="8.391" cy="8.391" rx="8.391" ry="8.391" transform="translate(74.791)" fill="none" stroke="#a8b726" stroke-miterlimit="10" stroke-width="2"/>
      <ellipse id="Ellipse_71" data-name="Ellipse 71" cx="8.391" cy="8.391" rx="8.391" ry="8.391" transform="translate(49.861)" fill="none" stroke="#a8b726" stroke-miterlimit="10" stroke-width="2"/>
      <ellipse id="Ellipse_72" data-name="Ellipse 72" cx="8.391" cy="8.391" rx="8.391" ry="8.391" transform="translate(24.93)" fill="none" stroke="#a8b726" stroke-miterlimit="10" stroke-width="2"/>
      <ellipse id="Ellipse_73" data-name="Ellipse 73" cx="8.391" cy="8.391" rx="8.391" ry="8.391" fill="none" stroke="#a8b726" stroke-miterlimit="10" stroke-width="2"/>
    </g>
    <g id="Group_2" data-name="Group 2" transform="translate(229.401 182.382)">
      <ellipse id="Ellipse_74" data-name="Ellipse 74" cx="8.391" cy="8.391" rx="8.391" ry="8.391" transform="translate(52.217 53.545)" fill="none" stroke="#a8b726" stroke-miterlimit="10" stroke-width="2"/>
      <ellipse id="Ellipse_75" data-name="Ellipse 75" cx="8.391" cy="8.391" rx="8.391" ry="8.391" transform="translate(34.811 35.697)" fill="none" stroke="#a8b726" stroke-miterlimit="10" stroke-width="2"/>
      <ellipse id="Ellipse_76" data-name="Ellipse 76" cx="8.391" cy="8.391" rx="8.391" ry="8.391" transform="translate(17.406 17.848)" fill="none" stroke="#a8b726" stroke-miterlimit="10" stroke-width="2"/>
      <ellipse id="Ellipse_77" data-name="Ellipse 77" cx="8.391" cy="8.391" rx="8.391" ry="8.391" transform="translate(0)" fill="none" stroke="#a8b726" stroke-miterlimit="10" stroke-width="2"/>
    </g>
    <path id="Path_46" data-name="Path 46" d="M389.09,412.15l-77.22-1.925L252.579,472.6" transform="translate(586.831 -365.162)" fill="none" stroke="#a8b726" stroke-miterlimit="10" stroke-width="2" opacity="0.63"/>
    <path id="Path_47" data-name="Path 47" d="M419.782,412.606l-88.936-2.381-79.7,75.846" transform="translate(560.154 -378.637)" fill="none" stroke="#a8b726" stroke-miterlimit="10" stroke-width="2"/>
    <g id="Group_3" data-name="Group 3" transform="translate(887.728 9.569)" opacity="0.6">
      <path id="Path_48" data-name="Path 48" d="M258.2,455.26l-7.045-6.291L258.2,439.4" transform="translate(-165.987 -439.4)" fill="none" stroke="#a8b726" stroke-linecap="round" stroke-miterlimit="10" stroke-width="6"/>
      <path id="Path_49" data-name="Path 49" d="M264.255,455.26l-7.045-6.291,7.045-9.569" transform="translate(-189.08 -439.4)" fill="none" stroke="#a8b726" stroke-linecap="round" stroke-miterlimit="10" stroke-width="6"/>
      <path id="Path_50" data-name="Path 50" d="M270.315,455.26l-7.045-6.291,7.045-9.569" transform="translate(-212.172 -439.4)" fill="none" stroke="#a8b726" stroke-linecap="round" stroke-miterlimit="10" stroke-width="6"/>
      <path id="Path_51" data-name="Path 51" d="M276.375,455.26l-7.045-6.291,7.045-9.569" transform="translate(-235.264 -439.4)" fill="none" stroke="#a8b726" stroke-linecap="round" stroke-miterlimit="10" stroke-width="6"/>
      <path id="Path_52" data-name="Path 52" d="M282.435,455.26l-7.045-6.291,7.045-9.569" transform="translate(-258.357 -439.4)" fill="none" stroke="#a8b726" stroke-linecap="round" stroke-miterlimit="10" stroke-width="6"/>
      <path id="Path_53" data-name="Path 53" d="M288.494,455.26l-7.045-6.291,7.045-9.569" transform="translate(-281.449 -439.4)" fill="none" stroke="#a8b726" stroke-linecap="round" stroke-miterlimit="10" stroke-width="6"/>
    </g>
    <g id="Group_4" data-name="Group 4" transform="translate(739.071 309.817)" opacity="0.6">
      <path id="Path_54" data-name="Path 54" d="M311.083,348.441l-7.045-6.291,7.045-9.569" transform="translate(-218.875 -332.581)" fill="none" stroke="#a8b726" stroke-linecap="round" stroke-miterlimit="10" stroke-width="6"/>
      <path id="Path_55" data-name="Path 55" d="M317.143,348.441,310.1,342.15l7.045-9.569" transform="translate(-241.967 -332.581)" fill="none" stroke="#a8b726" stroke-linecap="round" stroke-miterlimit="10" stroke-width="6"/>
      <path id="Path_56" data-name="Path 56" d="M323.2,348.441l-7.045-6.291,7.045-9.569" transform="translate(-265.059 -332.581)" fill="none" stroke="#a8b726" stroke-linecap="round" stroke-miterlimit="10" stroke-width="6"/>
      <path id="Path_57" data-name="Path 57" d="M329.262,348.441l-7.045-6.291,7.045-9.569" transform="translate(-288.152 -332.581)" fill="none" stroke="#a8b726" stroke-linecap="round" stroke-miterlimit="10" stroke-width="6"/>
      <path id="Path_58" data-name="Path 58" d="M335.322,348.441l-7.045-6.291,7.045-9.569" transform="translate(-311.244 -332.581)" fill="none" stroke="#a8b726" stroke-linecap="round" stroke-miterlimit="10" stroke-width="6"/>
      <path id="Path_59" data-name="Path 59" d="M341.382,348.441l-7.045-6.291,7.045-9.569" transform="translate(-334.336 -332.581)" fill="none" stroke="#a8b726" stroke-linecap="round" stroke-miterlimit="10" stroke-width="6"/>
    </g>
    <g id="Group_5" data-name="Group 5" transform="translate(826.129 433.67)" opacity="0.6">
      <path id="Path_60" data-name="Path 60" d="M280.111,304.378l-7.045-6.291,7.045-9.569" transform="translate(-187.903 -288.518)" fill="none" stroke="#a8b726" stroke-linecap="round" stroke-miterlimit="10" stroke-width="6"/>
      <path id="Path_61" data-name="Path 61" d="M286.171,304.378l-7.045-6.291,7.045-9.569" transform="translate(-210.995 -288.518)" fill="none" stroke="#a8b726" stroke-linecap="round" stroke-miterlimit="10" stroke-width="6"/>
      <path id="Path_62" data-name="Path 62" d="M292.23,304.378l-7.045-6.291,7.045-9.569" transform="translate(-234.087 -288.518)" fill="none" stroke="#a8b726" stroke-linecap="round" stroke-miterlimit="10" stroke-width="6"/>
      <path id="Path_63" data-name="Path 63" d="M298.29,304.378l-7.045-6.291,7.045-9.569" transform="translate(-257.179 -288.518)" fill="none" stroke="#a8b726" stroke-linecap="round" stroke-miterlimit="10" stroke-width="6"/>
      <path id="Path_64" data-name="Path 64" d="M304.35,304.378l-7.045-6.291,7.045-9.569" transform="translate(-280.272 -288.518)" fill="none" stroke="#a8b726" stroke-linecap="round" stroke-miterlimit="10" stroke-width="6"/>
      <path id="Path_65" data-name="Path 65" d="M310.409,304.378l-7.045-6.291,7.045-9.569" transform="translate(-303.364 -288.518)" fill="none" stroke="#a8b726" stroke-linecap="round" stroke-miterlimit="10" stroke-width="6"/>
    </g>
    <g id="Group_6" data-name="Group 6" transform="translate(336.753 112.193)">
      <path id="Path_66" data-name="Path 66" d="M454.215,418.749l-7.045-6.291,7.045-9.569" transform="translate(-362.007 -402.89)" fill="none" stroke="#a8b726" stroke-linecap="round" stroke-miterlimit="10" stroke-width="1"/>
      <path id="Path_67" data-name="Path 67" d="M460.275,418.749l-7.045-6.291,7.045-9.569" transform="translate(-385.099 -402.89)" fill="none" stroke="#a8b726" stroke-linecap="round" stroke-miterlimit="10" stroke-width="1"/>
      <path id="Path_68" data-name="Path 68" d="M466.335,418.749l-7.045-6.291,7.045-9.569" transform="translate(-408.192 -402.89)" fill="none" stroke="#a8b726" stroke-linecap="round" stroke-miterlimit="10" stroke-width="1"/>
      <path id="Path_69" data-name="Path 69" d="M472.395,418.749l-7.045-6.291,7.045-9.569" transform="translate(-431.284 -402.89)" fill="none" stroke="#a8b726" stroke-linecap="round" stroke-miterlimit="10" stroke-width="1"/>
      <path id="Path_70" data-name="Path 70" d="M478.454,418.749l-7.045-6.291,7.045-9.569" transform="translate(-454.376 -402.89)" fill="none" stroke="#a8b726" stroke-linecap="round" stroke-miterlimit="10" stroke-width="1"/>
      <path id="Path_71" data-name="Path 71" d="M484.514,418.749l-7.045-6.291,7.045-9.569" transform="translate(-477.469 -402.89)" fill="none" stroke="#a8b726" stroke-linecap="round" stroke-miterlimit="10" stroke-width="1"/>
    </g>
    <g id="Group_7" data-name="Group 7" transform="translate(1263.063 65.396)" opacity="0.6">
      <path id="Path_72" data-name="Path 72" d="M124.663,435.4l-7.045-6.291,7.045-9.569" transform="translate(-32.455 -419.539)" fill="none" stroke="#a8b726" stroke-linecap="round" stroke-miterlimit="10" stroke-width="6"/>
      <path id="Path_73" data-name="Path 73" d="M130.723,435.4l-7.045-6.291,7.045-9.569" transform="translate(-55.547 -419.539)" fill="none" stroke="#a8b726" stroke-linecap="round" stroke-miterlimit="10" stroke-width="6"/>
      <path id="Path_74" data-name="Path 74" d="M136.783,435.4l-7.045-6.291,7.045-9.569" transform="translate(-78.639 -419.539)" fill="none" stroke="#a8b726" stroke-linecap="round" stroke-miterlimit="10" stroke-width="6"/>
      <path id="Path_75" data-name="Path 75" d="M142.842,435.4l-7.045-6.291,7.045-9.569" transform="translate(-101.732 -419.539)" fill="none" stroke="#a8b726" stroke-linecap="round" stroke-miterlimit="10" stroke-width="6"/>
      <path id="Path_76" data-name="Path 76" d="M148.9,435.4l-7.045-6.291,7.045-9.569" transform="translate(-124.824 -419.539)" fill="none" stroke="#a8b726" stroke-linecap="round" stroke-miterlimit="10" stroke-width="6"/>
      <path id="Path_77" data-name="Path 77" d="M154.962,435.4l-7.045-6.291,7.045-9.569" transform="translate(-147.916 -419.539)" fill="none" stroke="#a8b726" stroke-linecap="round" stroke-miterlimit="10" stroke-width="6"/>
    </g>
    <g id="Group_8" data-name="Group 8" transform="translate(1379.921 375.14)">
      <path id="Path_78" data-name="Path 78" d="M83.089,325.2l-7.045-6.291,7.045-9.569" transform="translate(9.12 -309.341)" fill="none" stroke="#a8b726" stroke-linecap="round" stroke-miterlimit="10" stroke-width="6"/>
      <path id="Path_79" data-name="Path 79" d="M89.149,325.2,82.1,318.91l7.045-9.569" transform="translate(-13.973 -309.341)" fill="none" stroke="#a8b726" stroke-linecap="round" stroke-miterlimit="10" stroke-width="6"/>
      <path id="Path_80" data-name="Path 80" d="M95.208,325.2l-7.045-6.291,7.045-9.569" transform="translate(-37.065 -309.341)" fill="none" stroke="#a8b726" stroke-linecap="round" stroke-miterlimit="10" stroke-width="6"/>
      <path id="Path_81" data-name="Path 81" d="M101.268,325.2l-7.045-6.291,7.045-9.569" transform="translate(-60.157 -309.341)" fill="none" stroke="#a8b726" stroke-linecap="round" stroke-miterlimit="10" stroke-width="6"/>
      <path id="Path_82" data-name="Path 82" d="M107.328,325.2l-7.045-6.291,7.045-9.569" transform="translate(-83.25 -309.341)" fill="none" stroke="#a8b726" stroke-linecap="round" stroke-miterlimit="10" stroke-width="6"/>
      <path id="Path_83" data-name="Path 83" d="M113.387,325.2l-7.045-6.291,7.045-9.569" transform="translate(-106.342 -309.341)" fill="none" stroke="#a8b726" stroke-linecap="round" stroke-miterlimit="10" stroke-width="6"/>
    </g>
    <g id="Group_9" data-name="Group 9" transform="translate(1302.027 510.752)" opacity="0.6">
      <path id="Path_84" data-name="Path 84" d="M121.491,274.092l-9.442.245-1.424-11.8" transform="translate(-48.591 -262.54)" fill="none" stroke="#a8b726" stroke-linecap="round" stroke-miterlimit="10" stroke-width="6"/>
      <path id="Path_85" data-name="Path 85" d="M125.9,269.94l-9.442.245-1.424-11.8" transform="translate(-65.412 -246.719)" fill="none" stroke="#a8b726" stroke-linecap="round" stroke-miterlimit="10" stroke-width="6"/>
      <path id="Path_86" data-name="Path 86" d="M130.319,265.789l-9.442.245-1.424-11.8" transform="translate(-82.233 -230.897)" fill="none" stroke="#a8b726" stroke-linecap="round" stroke-miterlimit="10" stroke-width="6"/>
      <path id="Path_87" data-name="Path 87" d="M134.733,261.637l-9.442.245-1.424-11.8" transform="translate(-99.053 -215.076)" fill="none" stroke="#a8b726" stroke-linecap="round" stroke-miterlimit="10" stroke-width="6"/>
      <path id="Path_88" data-name="Path 88" d="M139.147,257.485l-9.442.245-1.424-11.8" transform="translate(-115.874 -199.255)" fill="none" stroke="#a8b726" stroke-linecap="round" stroke-miterlimit="10" stroke-width="6"/>
      <path id="Path_89" data-name="Path 89" d="M143.561,253.334l-9.442.245-1.424-11.8" transform="translate(-132.695 -183.434)" fill="none" stroke="#a8b726" stroke-linecap="round" stroke-miterlimit="10" stroke-width="6"/>
    </g>
    <g id="Group_10" data-name="Group 10" transform="translate(710 371.833)" opacity="0.6">
      <path id="Path_90" data-name="Path 90" d="M344.679,326.377l7.045-6.291-7.045-9.569" transform="translate(-344.679 -310.518)" fill="none" stroke="#a8b726" stroke-linecap="round" stroke-miterlimit="10" stroke-width="6"/>
      <path id="Path_91" data-name="Path 91" d="M338.619,326.377l7.045-6.291-7.045-9.569" transform="translate(-321.587 -310.518)" fill="none" stroke="#a8b726" stroke-linecap="round" stroke-miterlimit="10" stroke-width="6"/>
      <path id="Path_92" data-name="Path 92" d="M332.56,326.377l7.045-6.291-7.045-9.569" transform="translate(-298.494 -310.518)" fill="none" stroke="#a8b726" stroke-linecap="round" stroke-miterlimit="10" stroke-width="6"/>
      <path id="Path_93" data-name="Path 93" d="M326.5,326.377l7.045-6.291-7.045-9.569" transform="translate(-275.402 -310.518)" fill="none" stroke="#a8b726" stroke-linecap="round" stroke-miterlimit="10" stroke-width="6"/>
      <path id="Path_94" data-name="Path 94" d="M320.44,326.377l7.045-6.291-7.045-9.569" transform="translate(-252.31 -310.518)" fill="none" stroke="#a8b726" stroke-linecap="round" stroke-miterlimit="10" stroke-width="6"/>
      <path id="Path_95" data-name="Path 95" d="M314.381,326.377l7.045-6.291-7.045-9.569" transform="translate(-229.217 -310.518)" fill="none" stroke="#a8b726" stroke-linecap="round" stroke-miterlimit="10" stroke-width="6"/>
    </g>
    <path id="Path_96" data-name="Path 96" d="M378.574,374.175v-12.13h13.86" transform="translate(229.337 -131.314)" fill="none" stroke="#a8b726" stroke-miterlimit="10" stroke-width="6" opacity="0.6"/>
    <path id="Path_97" data-name="Path 97" d="M381.5,377.557v-12.13h13.86" transform="translate(218.188 -144.204)" fill="none" stroke="#a8b726" stroke-miterlimit="10" stroke-width="6" opacity="0.6"/>
    <path id="Path_98" data-name="Path 98" d="M385.795,381.023v-12.13h13.86" transform="translate(201.823 -157.413)" fill="none" stroke="#a8b726" stroke-miterlimit="10" stroke-width="6" opacity="0.6"/>
    <path id="Path_99" data-name="Path 99" d="M389.612,385.228V373.1h13.86" transform="translate(187.273 -173.435)" fill="none" stroke="#a8b726" stroke-miterlimit="10" stroke-width="6" opacity="0.6"/>
    <path id="Path_100" data-name="Path 100" d="M394.064,389.049v-12.13h13.86" transform="translate(170.31 -187.997)" fill="none" stroke="#a8b726" stroke-miterlimit="10" stroke-width="6" opacity="0.6"/>
    <path id="Path_101" data-name="Path 101" d="M396.529,392.094v-12.13h13.86" transform="translate(160.914 -199.602)" fill="none" stroke="#a8b726" stroke-miterlimit="10" stroke-width="6" opacity="0.6"/>
    <ellipse id="Ellipse_78" data-name="Ellipse 78" cx="4.447" cy="4.447" rx="4.447" ry="4.447" transform="translate(466.088 280.222)" fill="#a8b726"/>
    <ellipse id="Ellipse_79" data-name="Ellipse 79" cx="4.447" cy="4.447" rx="4.447" ry="4.447" transform="translate(424.514 254.387)" fill="#a8b726"/>
    <ellipse id="Ellipse_80" data-name="Ellipse 80" cx="4.447" cy="4.447" rx="4.447" ry="4.447" transform="translate(0 201.28)" fill="#a8b726"/>
    <ellipse id="Ellipse_81" data-name="Ellipse 81" cx="4.447" cy="4.447" rx="4.447" ry="4.447" transform="translate(94.393 67.318)" fill="#a8b726"/>
    <ellipse id="Ellipse_82" data-name="Ellipse 82" cx="4.447" cy="4.447" rx="4.447" ry="4.447" transform="translate(268.544 194.582)" fill="#a8b726"/>
    <ellipse id="Ellipse_83" data-name="Ellipse 83" cx="4.447" cy="4.447" rx="4.447" ry="4.447" transform="translate(318.827 181.98)" fill="#a8b726"/>
    <ellipse id="Ellipse_84" data-name="Ellipse 84" cx="4.447" cy="4.447" rx="4.447" ry="4.447" transform="translate(275.721 122.817)" fill="#a8b726"/>
    <ellipse id="Ellipse_85" data-name="Ellipse 85" cx="4.447" cy="4.447" rx="4.447" ry="4.447" transform="translate(287.681 91.577)" fill="#a8b726"/>
    <ellipse id="Ellipse_86" data-name="Ellipse 86" cx="4.447" cy="4.447" rx="4.447" ry="4.447" transform="translate(510.241 87.13)" fill="#a8b726"/>
    <ellipse id="Ellipse_87" data-name="Ellipse 87" cx="4.447" cy="4.447" rx="4.447" ry="4.447" transform="translate(323.274 205.978)" fill="#a8b726"/>
    <ellipse id="Ellipse_88" data-name="Ellipse 88" cx="4.447" cy="4.447" rx="4.447" ry="4.447" transform="translate(323.274 220.059)" fill="#a8b726"/>
    <ellipse id="Ellipse_89" data-name="Ellipse 89" cx="4.447" cy="4.447" rx="4.447" ry="4.447" transform="translate(579.368 297.374)" fill="#a8b726"/>
    <ellipse id="Ellipse_90" data-name="Ellipse 90" cx="4.447" cy="4.447" rx="4.447" ry="4.447" transform="translate(538.542 287.1)" fill="#a8b726"/>
    <ellipse id="Ellipse_91" data-name="Ellipse 91" cx="4.447" cy="4.447" rx="4.447" ry="4.447" transform="translate(559.926 339.592)" fill="#a8b726"/>
    <ellipse id="Ellipse_92" data-name="Ellipse 92" cx="4.447" cy="4.447" rx="4.447" ry="4.447" transform="translate(500.035 305.369)" fill="#a8b726"/>
    <ellipse id="Ellipse_93" data-name="Ellipse 93" cx="4.447" cy="4.447" rx="4.447" ry="4.447" transform="translate(674.012 420.377)" fill="#a8b726"/>
    <ellipse id="Ellipse_94" data-name="Ellipse 94" cx="4.447" cy="4.447" rx="4.447" ry="4.447" transform="translate(662.413 442.586)" fill="#a8b726"/>
    <ellipse id="Ellipse_95" data-name="Ellipse 95" cx="4.447" cy="4.447" rx="4.447" ry="4.447" transform="translate(510.241 298.997)" fill="#a8b726"/>
    <ellipse id="Ellipse_96" data-name="Ellipse 96" cx="4.447" cy="4.447" rx="4.447" ry="4.447" transform="translate(591.291 287.1)" fill="#a8b726"/>
  </g>
</svg>
