<svg xmlns="http://www.w3.org/2000/svg" width="244" height="43.531" viewBox="0 0 244 43.531">
  <g id="Group_96963" data-name="Group 96963" transform="translate(-99.513 -712.337)">
    <text id="Powered_by" data-name="Powered by" transform="translate(99.513 741.602)" fill="#000026" font-size="21" font-family="Lato-Bold, Lato" font-weight="700"><tspan x="0" y="0">Powered by</tspan></text>
    <line id="Line_320" data-name="Line 320" y2="31.802" transform="translate(224.319 718.769)" fill="none" stroke="#000" stroke-width="3"/>
    <g id="Group_85711" data-name="Group 85711" transform="translate(238.022 712.337)">
      <g id="Group_85694" data-name="Group 85694" transform="translate(39.911 25.289)">
        <path id="Path_63234" data-name="Path 63234" d="M430.637,407.386a2.049,2.049,0,0,1-1.634.7,1.9,1.9,0,0,1-1.712-.868,2.25,2.25,0,0,1-.211-1.243v-2.4c0-.7-.062-.891-.367-1.056h1.564c-.3.164-.367.352-.367,1.056v2.4a1.414,1.414,0,0,0,.266,1.024,1.357,1.357,0,0,0,1.071.477,1.477,1.477,0,0,0,1.188-.563.98.98,0,0,0,.172-.657v-2.682c0-.7-.07-.891-.367-1.056H431.8c-.3.164-.367.352-.367,1.056V406.9c0,.7.07.891.367,1.056h-1.165Z" transform="translate(-426.712 -402.381)"/>
        <path id="Path_63235" data-name="Path 63235" d="M544.891,406.221a1.079,1.079,0,0,0,.047.422,1.8,1.8,0,0,0-.289.047,7.308,7.308,0,0,1-1.689.2,3.759,3.759,0,0,1-2.182-.579,2.679,2.679,0,0,1-1.188-2.244,2.717,2.717,0,0,1,1.267-2.3,3.691,3.691,0,0,1,2.142-.586,5.91,5.91,0,0,1,1.306.148v.946a1.959,1.959,0,0,0-1.462-.5,2.171,2.171,0,0,0-2.315,2.189,2.366,2.366,0,0,0,2.416,2.33,3.9,3.9,0,0,0,1.118-.156v-1.095c0-.7-.062-.891-.367-1.056h1.243a1.778,1.778,0,0,0-.047.485Z" transform="translate(-527.766 -401.178)"/>
        <path id="Path_63236" data-name="Path 63236" d="M654.876,406.846l1.454-3.628a1.087,1.087,0,0,0,.094-.368c0-.149-.063-.235-.25-.328h1.314l1.736,4.324c.266.657.422.891.8,1.11h-1.712c.25-.149.3-.2.3-.329a1.321,1.321,0,0,0-.141-.461l-.485-1.259h-2.088l-.469,1.259a1.3,1.3,0,0,0-.094.422c0,.156.07.242.3.368H654.11C654.493,407.714,654.595,407.55,654.876,406.846Zm2.893-1.47-.837-2.158-.844,2.158Z" transform="translate(-630.289 -402.381)"/>
        <path id="Path_63237" data-name="Path 63237" d="M772.649,406.987v-3.5c0-.54-.094-.751-.43-.97h1.2a.866.866,0,0,0,.2.3l3.057,3.894v-3.229c0-.547-.094-.743-.438-.97h1.478c-.352.227-.438.422-.438.97v4.731a2.333,2.333,0,0,1-1.134-.868l-2.893-3.667v3.3c0,.54.094.751.43.97h-1.47C772.563,407.73,772.649,407.534,772.649,406.987Z" transform="translate(-736.019 -402.381)"/>
        <path id="Path_63238" data-name="Path 63238" d="M890.162,407.47a2.345,2.345,0,0,0,.07-.743v-3.284c0-.7-.062-.891-.368-1.056h.829c.148,0,.328,0,.547-.008.25-.008.516-.008.633-.008a3.113,3.113,0,0,1,2.111.641,2.527,2.527,0,0,1,.97,2.033,2.739,2.739,0,0,1-1.579,2.5,3,3,0,0,1-1.22.25c-.235.008-.735.023-.962.023h-1.329C890.107,407.6,890.123,407.6,890.162,407.47Zm1.517-.266a2.588,2.588,0,0,0,1.517-.368,1.955,1.955,0,0,0,.852-1.7,2.367,2.367,0,0,0-.571-1.579,2.2,2.2,0,0,0-1.658-.626,3.082,3.082,0,0,0-.758.094v4.129A2.79,2.79,0,0,0,891.679,407.2Z" transform="translate(-841.348 -402.247)"/>
        <path id="Path_63239" data-name="Path 63239" d="M997.089,406.846l1.454-3.628a1.087,1.087,0,0,0,.094-.368c0-.149-.062-.235-.25-.328H999.7l1.736,4.324c.266.657.422.891.8,1.11h-1.712c.25-.149.3-.2.3-.329a1.323,1.323,0,0,0-.141-.461l-.485-1.259h-2.088l-.469,1.259a1.3,1.3,0,0,0-.094.422c0,.156.07.242.3.368h-1.517C996.706,407.714,996.808,407.55,997.089,406.846Zm2.893-1.47-.837-2.158-.845,2.158Z" transform="translate(-936.655 -402.381)"/>
      </g>
      <path id="Path_63240" data-name="Path 63240" d="M809.453,201.336l-.219,0H790.2c-.08,0-.16,0-.24-.008-.007,0-.022-.027-.018-.033.03-.058.061-.116.1-.171q.593-.958,1.186-1.915l1.563-2.53c.034-.056.069-.112.1-.167a.456.456,0,0,1,.38-.224q.088,0,.175,0c.131,0,.262.006.394.006h6.06c.214,0,.225,0,.226-.03a.376.376,0,0,0-.088-.194q-2.175-3.743-4.353-7.484-.049-.085-.1-.169c-.024-.039-.052-.036-.08.01s-.061.1-.091.149q-1.735,2.873-3.47,5.746c-.8,1.328-1.612,2.653-2.412,3.984-.458.762-.9,1.531-1.356,2.3a2.738,2.738,0,0,1-.152.24,2.032,2.032,0,0,1-.2.233,1.089,1.089,0,0,1-.64.3,2.8,2.8,0,0,1-.415.023c-.569-.009-1.137-.021-1.706-.023-1.065,0-2.13,0-3.194,0-.08,0-.16-.006-.24-.01a1.165,1.165,0,0,1,.2-.524c.028-.042.058-.084.085-.127.066-.1.131-.209.2-.315.184-.306.365-.613.55-.917.235-.385.474-.768.708-1.153a12.589,12.589,0,0,0,.6-1.115.5.5,0,0,0,.074-.2.615.615,0,0,0,.125-.178q.608-1,1.214-2l6.536-10.794c.185-.306.375-.608.583-.9a6.311,6.311,0,0,1,.736-.866,3.548,3.548,0,0,1,1.345-.836,3.286,3.286,0,0,1,1.314-.168,3.388,3.388,0,0,1,1.931.791,4.673,4.673,0,0,1,.786.849,8.558,8.558,0,0,1,.476.734l2.779,4.708q3.631,6.148,7.262,12.3c.106.181.2.367.306.55,0,0,.014,0,.021,0Z" transform="translate(-704.536 -179.013)"/>
      <path id="Path_63241" data-name="Path 63241" d="M128.043,159.767a.144.144,0,0,0,.1.038,2.75,2.75,0,0,1,1.052.347,3.082,3.082,0,0,1,.809.661,3.649,3.649,0,0,1,.594.939c.357.815.719,1.627,1.075,2.442.28.641.553,1.286.832,1.928q.5,1.144.994,2.286c.2.468.416.932.618,1.4a9.377,9.377,0,0,1,.555,1.679,8.743,8.743,0,0,1,.167,1.035,7.587,7.587,0,0,1,.033.786,9.331,9.331,0,0,1-.075,1.046c-.033.283-.082.562-.142.84a7.225,7.225,0,0,1-.731,1.96,1.615,1.615,0,0,1-.117.185.513.513,0,0,1-.108.107.2.2,0,0,1-.227.019.855.855,0,0,1-.146-.1,1.806,1.806,0,0,1-.157-.153c-.334-.357-.681-.7-1.031-1.042-.209-.2-.42-.406-.625-.613q-.416-.42-.824-.846a4.786,4.786,0,0,0-.807-.7,3.5,3.5,0,0,0-1.375-.537,3.94,3.94,0,0,0-.807-.027,2.946,2.946,0,0,1-.415.013,1.271,1.271,0,0,1-.2-.021,3.209,3.209,0,0,0-.608-.06,1.689,1.689,0,0,0-.409.066,1.259,1.259,0,0,0-.641.435,2.542,2.542,0,0,0-.355.626q-.043.1-.078.2a2.766,2.766,0,0,1-.637,1.01,4.412,4.412,0,0,1-1.41.98,4.191,4.191,0,0,1-1.063.324,3.216,3.216,0,0,1-.98,0,6.417,6.417,0,0,1-.874-.194,4.511,4.511,0,0,1-1.444-.712,3.785,3.785,0,0,1-1.02-1.157,4.714,4.714,0,0,1-.558-1.556,4.376,4.376,0,0,1-.075-.87,4.127,4.127,0,0,1,2.04-3.511,4.55,4.55,0,0,1,1.312-.53,4.347,4.347,0,0,1,1.347-.1,4.132,4.132,0,0,1,1.47.4,4.026,4.026,0,0,1,1.327,1.019,4.627,4.627,0,0,1,.615.928,2.536,2.536,0,0,0,.152.265.793.793,0,0,0,.622.357c.1.009.2.008.306.008.445,0,.89-.007,1.335-.008.175,0,.351,0,.525.008a7.711,7.711,0,0,1,1.321.168,4.629,4.629,0,0,1,1.617.7,5.265,5.265,0,0,1,.532.42c.184.166.364.337.543.508s.366.356.548.535c.078.077.151.158.23.234a.211.211,0,0,0,.182.056.235.235,0,0,0,.2-.2c0-.022,0-.044,0-.066,0-.168,0-.335,0-.5a5.146,5.146,0,0,0-.2-1.512,9.155,9.155,0,0,0-.4-1.135q-.282-.676-.574-1.348c-.322-.743-.647-1.484-.969-2.226l-.942-2.166q-.445-1.023-.89-2.045a3.944,3.944,0,0,0-.317-.6,1.677,1.677,0,0,0-.343-.394.905.905,0,0,0-.783-.174,1.8,1.8,0,0,0-.492.179c-.148.078-.3.16-.436.25a12.424,12.424,0,0,1-1.1.634,13.116,13.116,0,0,1-1.24.548,15.421,15.421,0,0,1-1.9.583c-.4.1-.8.176-1.2.248-.323.058-.647.1-.971.155-.165.026-.333.04-.5.059l-.63.069-.087.008c-.437.025-.873.058-1.311.064-.248,0-.5.021-.743.014-.379-.01-.758-.024-1.137-.037-.26-.041-.524-.028-.784-.066-.2-.03-.406-.039-.609-.061-.138-.015-.275-.032-.412-.052-.223-.034-.445-.075-.669-.107a4.022,4.022,0,0,0-.784-.053,2.381,2.381,0,0,0-.787.168,1.735,1.735,0,0,0-.73.575,2.125,2.125,0,0,0-.3.557,3.567,3.567,0,0,0-.188.762c-.039.3-.091.605-.146.906-.064.351-.128.7-.167,1.058a5.614,5.614,0,0,0-.032.655,3.138,3.138,0,0,0,.2,1.112c.07.184.151.363.231.543a1.8,1.8,0,0,0,.193.317,1.248,1.248,0,0,0,.425.371,2.936,2.936,0,0,1,.455.3,1.96,1.96,0,0,1,.569.711,1.757,1.757,0,0,1,.16.676,2.438,2.438,0,0,1-.3,1.218,3.811,3.811,0,0,1-.519.755c-.335.386-.681.761-1.049,1.115-.389.374-.784.742-1.193,1.094-.376.323-.75.649-1.126.973l-.565.484a.847.847,0,0,1-.24.15.341.341,0,0,1-.315-.025.691.691,0,0,1-.191-.179c-.058-.075-.112-.153-.168-.229a1.12,1.12,0,0,0-.323-.322.332.332,0,0,1-.161-.2.214.214,0,0,1,0-.128.541.541,0,0,1,.14-.219q.148-.146.3-.287c.252-.232.507-.461.759-.693.3-.272.587-.546.883-.818.5-.459,1-.916,1.5-1.376.128-.119.25-.245.371-.372a1.587,1.587,0,0,0,.367-.664.334.334,0,0,0-.094-.34,1.078,1.078,0,0,0-.172-.134,4.776,4.776,0,0,1-.454-.343,3.435,3.435,0,0,1-.72-.874,4.332,4.332,0,0,1-.5-1.345,8.384,8.384,0,0,1-.14-1.083c-.016-.233-.027-.466-.027-.7a9.479,9.479,0,0,1,.069-1.047c.023-.21.057-.418.091-.627a9,9,0,0,1,.238-1.021c.095-.329.21-.652.337-.97a3.554,3.554,0,0,1,.672-1.094,3.177,3.177,0,0,1,.728-.59,3.806,3.806,0,0,1,1.158-.445,4.434,4.434,0,0,1,.977-.1c.168,0,.335.006.5.009a4.427,4.427,0,0,1,.586.066c.288.044.574.1.862.143.165.026.333.041.5.06l.63.07.044,0c.313.017.626.04.939.048s.642.006.963,0a4.447,4.447,0,0,0,.633-.03.375.375,0,0,1,.044,0c.343-.011.683-.05,1.023-.089a17.4,17.4,0,0,0,2.782-.56,17.9,17.9,0,0,0,2.342-.847,6.086,6.086,0,0,0,.719-.371,3.579,3.579,0,0,0,.478-.346,2.821,2.821,0,0,1,1.509-.69.1.1,0,0,0,.074-.039Zm-4.549,12.913a2.055,2.055,0,0,0-.206-.924,2.3,2.3,0,0,0-2.084-1.317,2.077,2.077,0,0,0-.908.208,2.4,2.4,0,0,0-1.251,1.4,1.863,1.863,0,0,0,.045,1.428,2.661,2.661,0,0,0,1.5,1.425,1.865,1.865,0,0,0,.991.091,2.007,2.007,0,0,0,.731-.279,2.481,2.481,0,0,0,.866-.879A2.171,2.171,0,0,0,123.493,172.68Z" transform="translate(-100.117 -159.767)" fill="#aec737"/>
      <path id="Path_63242" data-name="Path 63242" d="M45.707,335.746a.189.189,0,0,0,.051-.035.121.121,0,0,0,.021-.061,9.244,9.244,0,0,1,.161-.948c.093-.5.194-1,.3-1.5s.211-1.028.321-1.541q.2-.951.416-1.9.226-1.013.46-2.025c.076-.334.162-.665.236-1a7.313,7.313,0,0,1,.556-1.584,10.362,10.362,0,0,1,.544-1c.188-.3.382-.6.575-.9a1.125,1.125,0,0,1,.177-.221.242.242,0,0,1,.32-.02,1.65,1.65,0,0,1,.243.22q.6.594,1.194,1.189t1.205,1.209c.174.176.342.359.511.541a4.681,4.681,0,0,0,.613.56,3.363,3.363,0,0,0,1.233.593,3.5,3.5,0,0,0,1.172.09,2.1,2.1,0,0,1,.5.007,3.182,3.182,0,0,0,.7.022,1.451,1.451,0,0,0,1.026-.517,2.185,2.185,0,0,0,.289-.437c.059-.117.114-.236.163-.358a3.41,3.41,0,0,1,1.266-1.554,4.157,4.157,0,0,1,1.565-.647,4.365,4.365,0,0,1,3.263.638,4.254,4.254,0,0,1,1.828,2.6,4.163,4.163,0,0,1,.074,1.542,4.369,4.369,0,0,1-2.111,3.164,4.187,4.187,0,0,1-1.433.512,4.694,4.694,0,0,1-.565.057,4.14,4.14,0,0,1-3.543-1.644,4.25,4.25,0,0,1-.364-.6c-.03-.058-.056-.119-.09-.175a2.467,2.467,0,0,0-.156-.237.96.96,0,0,0-.752-.387,3.292,3.292,0,0,0-.372.005,13.844,13.844,0,0,1-1.465.014c-.219-.007-.438,0-.656-.012a4.55,4.55,0,0,1-3.12-1.336c-.224-.219-.44-.448-.652-.678-.429-.467-.853-.939-1.28-1.409-.054-.059-.108-.119-.162-.178s-.075-.043-.1.007a8.326,8.326,0,0,0-.351.8,10.384,10.384,0,0,0-.433,1.466q-.159.726-.3,1.456c-.086.444-.191.883-.292,1.323-.127.554-.253,1.108-.371,1.664-.175.819-.343,1.64-.514,2.461-.028.136-.057.271-.081.407a2.261,2.261,0,0,0-.026.632.864.864,0,0,0,.044.191.579.579,0,0,0,.519.406,1.27,1.27,0,0,0,.392-.015,3.446,3.446,0,0,0,.485-.131,23.458,23.458,0,0,1,2.413-.7q.724-.168,1.456-.3c.445-.078.892-.144,1.341-.2.347-.043.7-.073,1.045-.1.283-.026.567-.045.851-.067l.131-.008c.94-.047,1.881-.063,2.822-.039,1.8.045,3.6.033,5.4.032q1.116,0,2.232-.006c1.028,0,2.057-.006,3.086-.013a5.421,5.421,0,0,0,.893-.069,2.857,2.857,0,0,0,.751-.227,1.784,1.784,0,0,0,.874-.883,2.828,2.828,0,0,0,.212-.687,5.72,5.72,0,0,0,.076-.849c.005-.168.007-.335.011-.5.007-.321.041-.64.077-.959a14.777,14.777,0,0,1,.83-3.389,23.244,23.244,0,0,1,1.135-2.579c.185-.364.379-.723.57-1.084q.379-.715.759-1.429c.02-.039.039-.078.059-.117.085-.161.089-.165.242-.07a1.311,1.311,0,0,1,.188.15c.059.054.112.115.167.173a2.04,2.04,0,0,0,.242.221,1.863,1.863,0,0,1,.165.144.721.721,0,0,1,.192.744,1.561,1.561,0,0,1-.127.325c-.063.123-.128.246-.193.368-.29.547-.583,1.093-.87,1.642a19.415,19.415,0,0,0-.822,1.762,10.684,10.684,0,0,0-.529,1.664c-.057.256-.106.514-.151.772s-.085.518-.12.778c-.026.195-.041.391-.062.587-.039.363-.037.728-.044,1.093a4.793,4.793,0,0,1-.3,1.626,3.626,3.626,0,0,1-2.247,2.21,4.628,4.628,0,0,1-.977.231,5.611,5.611,0,0,1-.742.044l-2.582,0q-3.184,0-6.368,0-1.937,0-3.873-.008c-.5,0-.992.02-1.487.05-.385.023-.77.06-1.154.107-.355.043-.709.092-1.061.151-.46.078-.917.172-1.371.28-.7.167-1.393.372-2.076.605a10.591,10.591,0,0,1-1.091.316c-.043.01-.086.015-.129.022a.705.705,0,0,0-.276.039h-.569a.669.669,0,0,0-.237-.033c-.092-.02-.187-.033-.277-.061a2.2,2.2,0,0,1-1.593-1.689,2.314,2.314,0,0,1-.05-.323.164.164,0,0,0-.075-.127Zm16.707-5.338a2.1,2.1,0,0,0,.4-.036,2.267,2.267,0,0,0,1.852-1.976,2.026,2.026,0,0,0-.032-.695,2.3,2.3,0,0,0-1.246-1.6,2.068,2.068,0,0,0-1.507-.164,2.294,2.294,0,0,0-1.293.878,2.143,2.143,0,0,0-.388,1.84A2.254,2.254,0,0,0,62.414,330.408Z" transform="translate(-45.707 -305.151)"/>
      <path id="Path_63243" data-name="Path 63243" d="M448.5,190.547q0,2.112,0,4.224,0,1.871-.007,3.742a5.088,5.088,0,0,1-.084.957,3.251,3.251,0,0,1-.422,1.119,2.591,2.591,0,0,1-1.851,1.23,3.483,3.483,0,0,1-.61.041,2.29,2.29,0,0,1-1.219-.365,3.073,3.073,0,0,1-.5-.393c-.068-.066-.135-.134-.2-.2l-7.482-7.863-2.354-2.473a4.7,4.7,0,0,0-.5-.457.027.027,0,0,0-.039,0,.033.033,0,0,0-.01.016.3.3,0,0,0,0,.043c0,.051,0,.1,0,.153q0,3.436,0,6.871c0,1.16.011,2.32.016,3.479,0,.1-.007.2-.01.306a.764.764,0,0,1-.045.213.446.446,0,0,1-.36.314,1.42,1.42,0,0,1-.37.029c-.751-.047-1.5-.035-2.253-.03-.372,0-.744.012-1.116.016-.095,0-.19,0-.284-.01a.626.626,0,0,1-.148-.036.321.321,0,0,1-.2-.193.582.582,0,0,1-.048-.212c0-.088,0-.175,0-.263q0-4.924.006-9.847,0-1.98,0-3.961c0-.686,0-1.371.007-2.057a5.063,5.063,0,0,1,.212-1.467,3.39,3.39,0,0,1,.392-.851,2.583,2.583,0,0,1,1.517-1.112,2.742,2.742,0,0,1,1-.092,2.341,2.341,0,0,1,.735.2,3.193,3.193,0,0,1,.654.395,5.071,5.071,0,0,1,.6.547q.541.572,1.083,1.145l5.908,6.219q1.3,1.372,2.61,2.742c.126.132.262.254.393.38a.059.059,0,0,0,.077-.008.489.489,0,0,0,.11-.368c-.039-.5-.012-1.006-.016-1.509s0-.992,0-1.488q0-2.385,0-4.771c0-.8-.007-1.6-.009-2.407a2.618,2.618,0,0,1,.008-.262.976.976,0,0,1,.041-.192.4.4,0,0,1,.285-.276.987.987,0,0,1,.3-.039c.175,0,.35.007.525.014.5.023,1.006.025,1.51.02.459,0,.919-.017,1.378-.026l.262,0a.843.843,0,0,1,.258.041.318.318,0,0,1,.2.184.508.508,0,0,1,.049.19c0,.095.006.189.006.284q0,2.188-.006,4.377Q448.495,188.676,448.5,190.547Z" transform="translate(-388.31 -179.14)"/>
      <path id="Path_63244" data-name="Path 63244" d="M708.087,199.875a.5.5,0,0,1-.074.2,12.622,12.622,0,0,1-.6,1.115c-.234.386-.474.768-.708,1.153-.185.3-.366.612-.55.917-.064.106-.129.211-.2.315-.027.043-.057.085-.085.127a1.163,1.163,0,0,0-.2.524c-.08,0-.16.01-.24.01-.467,0-.934,0-1.4,0a4.337,4.337,0,0,0-.59.029,1.055,1.055,0,0,1-.369-.023.47.47,0,0,1-.383-.373,1.367,1.367,0,0,1-.045-.346c0-.212,0-.423,0-.635q0-2.713,0-5.427,0-2.615.007-5.23c0-.467.015-.933.022-1.4,0-.117,0-.234,0-.35a1.6,1.6,0,0,0-.075-.451.548.548,0,0,0-.135-.222.475.475,0,0,0-.162-.109.983.983,0,0,0-.361-.078c-.2,0-.408.005-.613.011-.124,0-.247.018-.371.019-.729,0-1.459,0-2.188,0l-1.335,0a1.211,1.211,0,0,1-.325-.033.378.378,0,0,1-.3-.315,1.209,1.209,0,0,1-.03-.282c.008-.211.018-.422.021-.634q.007-.4.006-.81,0-.974-.006-1.948c0-.19-.01-.379-.018-.568a1.232,1.232,0,0,1,.034-.3.337.337,0,0,1,.258-.268.944.944,0,0,1,.259-.037c.2,0,.394,0,.591,0l4,.006,6.7.005c.89.031,1.78.011,2.669.014s1.765,0,2.648,0c.336,0,.671,0,1.007,0a.987.987,0,0,1,.343.057.054.054,0,0,1,.031.071c-.009.02-.016.04-.027.06q-.814,1.537-1.628,3.073c-.235.445-.469.89-.7,1.335-.058.11-.115.22-.178.327a.437.437,0,0,1-.313.217,1.034,1.034,0,0,1-.239.025h-.022l-2.3,0c-.285,0-.569,0-.853,0-.146,0-.292-.014-.437-.013a2.642,2.642,0,0,0-.348.029.344.344,0,0,0-.3.3,1.488,1.488,0,0,0-.013.218q0,1.171,0,2.342,0,.908,0,1.816,0,2.528,0,5.055c0,.036,0,.073,0,.109A.486.486,0,0,0,708.087,199.875Z" transform="translate(-628.583 -181.873)" fill="#aec737"/>
      <path id="Path_63245" data-name="Path 63245" d="M643.171,194.4q0,2.888,0,5.776c0,1.123.007,2.246.01,3.369,0,.124,0,.248-.006.372a.655.655,0,0,1-.044.213.38.38,0,0,1-.263.242.943.943,0,0,1-.28.045c-.124,0-.248,0-.372-.008s-.247-.015-.371-.016q-1.367-.017-2.735,0c-.211,0-.423.014-.634.023a1.222,1.222,0,0,1-.3-.031.37.37,0,0,1-.3-.282,1.1,1.1,0,0,1-.038-.3c0-.277,0-.554,0-.831q0-.9,0-1.794,0-1.892,0-3.785,0-1.936,0-3.872,0-2.417,0-4.835,0-1.772,0-3.544a1.538,1.538,0,0,1,.034-.369.34.34,0,0,1,.259-.267.814.814,0,0,1,.237-.032c.306.008.612,0,.918.022.145.01.292.006.438.006.656,0,1.313,0,1.969,0,.3,0,.6-.015.9-.023a.819.819,0,0,1,.281.031.8.8,0,0,1,.083.028.325.325,0,0,1,.178.183.616.616,0,0,1,.046.213c0,.109.005.219.005.328,0,.992-.006,1.984-.007,2.975q0,3.085,0,6.169Z" transform="translate(-575.807 -181.882)" fill="#aec737"/>
      <g id="Group_85695" data-name="Group 85695" transform="translate(16.743 37.833)">
        <path id="Path_63246" data-name="Path 63246" d="M205.536,520.93h1.625a3.174,3.174,0,0,1,.838.084,1.473,1.473,0,0,1,.664.405,1.923,1.923,0,0,1,.42.713,3.249,3.249,0,0,1,.144,1.041,2.893,2.893,0,0,1-.135.937,1.945,1.945,0,0,1-.472.778,1.565,1.565,0,0,1-.625.351,2.689,2.689,0,0,1-.787.093h-1.673Zm.889.745v2.916h.664a2.42,2.42,0,0,0,.538-.042.82.82,0,0,0,.359-.183.933.933,0,0,0,.233-.425,2.872,2.872,0,0,0,.09-.807,2.628,2.628,0,0,0-.09-.784,1.008,1.008,0,0,0-.252-.427.847.847,0,0,0-.411-.207,4.028,4.028,0,0,0-.73-.042Z" transform="translate(-205.536 -520.93)"/>
        <path id="Path_63247" data-name="Path 63247" d="M248.413,535.087h-.844V531.9h.784v.453a1.361,1.361,0,0,1,.362-.423.665.665,0,0,1,.365-.1,1.072,1.072,0,0,1,.556.159l-.261.736a.741.741,0,0,0-.4-.138.469.469,0,0,0-.3.1.668.668,0,0,0-.194.353,5.015,5.015,0,0,0-.071,1.069Z" transform="translate(-243.166 -530.684)"/>
        <path id="Path_63248" data-name="Path 63248" d="M270.765,521.711v-.781h.844v.781Zm0,3.622v-3.19h.844v3.19Z" transform="translate(-263.932 -520.93)"/>
        <path id="Path_63249" data-name="Path 63249" d="M284.464,535.7l-1.286-3.19h.886l.6,1.628.174.544q.069-.207.087-.273.042-.135.09-.27l.607-1.628h.868l-1.267,3.19Z" transform="translate(-275.045 -531.3)"/>
        <path id="Path_63250" data-name="Path 63250" d="M319.735,521.711v-.781h.844v.781Zm0,3.622v-3.19h.844v3.19Z" transform="translate(-307.772 -520.93)"/>
        <path id="Path_63251" data-name="Path 63251" d="M338.9,535.087h-.844v-1.628a2.51,2.51,0,0,0-.054-.668.47.47,0,0,0-.176-.236.5.5,0,0,0-.293-.084.677.677,0,0,0-.393.12.606.606,0,0,0-.239.319,2.758,2.758,0,0,0-.064.733v1.445h-.844V531.9h.784v.468a1.307,1.307,0,0,1,1.562-.44.857.857,0,0,1,.35.257.927.927,0,0,1,.165.354,2.635,2.635,0,0,1,.047.568Z" transform="translate(-322.326 -530.684)"/>
        <path id="Path_63252" data-name="Path 63252" d="M370.223,535.3l.964.117a.33.33,0,0,0,.111.231.636.636,0,0,0,.379.09.984.984,0,0,0,.5-.1.41.41,0,0,0,.168-.213,1.281,1.281,0,0,0,.039-.388v-.465a1.142,1.142,0,0,1-.955.517,1.176,1.176,0,0,1-1.018-.544,1.848,1.848,0,0,1-.294-1.069,1.759,1.759,0,0,1,.386-1.225,1.245,1.245,0,0,1,.96-.424,1.168,1.168,0,0,1,.976.52V531.9h.79v2.862a2.851,2.851,0,0,1-.093.844,1.047,1.047,0,0,1-.261.438,1.157,1.157,0,0,1-.449.249,2.366,2.366,0,0,1-.71.09,1.838,1.838,0,0,1-1.15-.278.871.871,0,0,1-.339-.7Q370.22,535.357,370.223,535.3Zm.754-1.871a1.151,1.151,0,0,0,.2.743.608.608,0,0,0,.485.236.67.67,0,0,0,.523-.242,1.054,1.054,0,0,0,.213-.716,1.117,1.117,0,0,0-.2-.736.649.649,0,0,0-.517-.24.623.623,0,0,0-.5.236A1.106,1.106,0,0,0,370.977,533.426Z" transform="translate(-352.872 -530.684)"/>
        <path id="Path_63253" data-name="Path 63253" d="M422.585,522.888v.673h-.577v1.285a3.2,3.2,0,0,0,.017.455.186.186,0,0,0,.075.107.238.238,0,0,0,.143.042,1.092,1.092,0,0,0,.339-.081l.072.655a1.678,1.678,0,0,1-.667.126,1.057,1.057,0,0,1-.412-.077.6.6,0,0,1-.269-.2.783.783,0,0,1-.119-.329,4.093,4.093,0,0,1-.027-.595v-1.391h-.388v-.673h.388v-.634l.847-.492v1.126Z" transform="translate(-398.227 -521.675)"/>
        <path id="Path_63254" data-name="Path 63254" d="M444.469,520.93v1.619a1.265,1.265,0,0,1,1.5-.369.859.859,0,0,1,.353.276,1,1,0,0,1,.162.373,3.329,3.329,0,0,1,.044.634v1.871h-.844v-1.685a2.494,2.494,0,0,0-.048-.637.418.418,0,0,0-.17-.215.546.546,0,0,0-.3-.08.7.7,0,0,0-.375.1.589.589,0,0,0-.242.308,1.837,1.837,0,0,0-.077.608v1.6h-.844v-4.4Z" transform="translate(-418.685 -520.93)"/>
        <path id="Path_63255" data-name="Path 63255" d="M479.264,534.072l.841.141a1.378,1.378,0,0,1-.512.7,1.5,1.5,0,0,1-.875.242,1.427,1.427,0,0,1-1.231-.544,1.827,1.827,0,0,1-.315-1.1,1.762,1.762,0,0,1,.414-1.242,1.366,1.366,0,0,1,1.048-.449,1.416,1.416,0,0,1,1.123.47,2.08,2.08,0,0,1,.393,1.44h-2.115a.854.854,0,0,0,.2.584.639.639,0,0,0,.487.209.517.517,0,0,0,.333-.108A.668.668,0,0,0,479.264,534.072Zm.048-.853a.813.813,0,0,0-.189-.557.609.609,0,0,0-.9.011.778.778,0,0,0-.177.547Z" transform="translate(-448.716 -530.684)"/>
        <path id="Path_63256" data-name="Path 63256" d="M528.292,525.333v-4.4h.889v4.4Z" transform="translate(-494.482 -520.93)"/>
        <path id="Path_63257" data-name="Path 63257" d="M543.161,525.333v-3.658h-1.307v-.745h3.5v.745h-1.3v3.658Z" transform="translate(-506.624 -520.93)"/>
        <path id="Path_63258" data-name="Path 63258" d="M597.075,525.333v-4.4h1.871a3.2,3.2,0,0,1,1.026.119,1.013,1.013,0,0,1,.512.422,1.269,1.269,0,0,1,.192.694,1.175,1.175,0,0,1-.291.818,1.4,1.4,0,0,1-.871.407,2.078,2.078,0,0,1,.476.37,5.024,5.024,0,0,1,.506.715l.537.859H599.97l-.643-.958a6.183,6.183,0,0,0-.469-.647.684.684,0,0,0-.267-.183,1.467,1.467,0,0,0-.448-.049h-.18v1.838Zm.889-2.541h.658a3.393,3.393,0,0,0,.8-.054.478.478,0,0,0,.249-.186.573.573,0,0,0,.09-.33.529.529,0,0,0-.119-.359.544.544,0,0,0-.335-.173q-.108-.015-.649-.015h-.694Z" transform="translate(-556.06 -520.93)"/>
        <path id="Path_63259" data-name="Path 63259" d="M639.136,534.072l.841.141a1.378,1.378,0,0,1-.512.7,1.5,1.5,0,0,1-.876.242,1.427,1.427,0,0,1-1.231-.544,1.826,1.826,0,0,1-.315-1.1,1.761,1.761,0,0,1,.414-1.242,1.365,1.365,0,0,1,1.048-.449,1.416,1.416,0,0,1,1.123.47,2.08,2.08,0,0,1,.393,1.44h-2.115a.854.854,0,0,0,.2.584.639.639,0,0,0,.487.209.517.517,0,0,0,.333-.108A.669.669,0,0,0,639.136,534.072Zm.048-.853a.812.812,0,0,0-.189-.557.609.609,0,0,0-.895.011.779.779,0,0,0-.177.547Z" transform="translate(-591.841 -530.684)"/>
        <path id="Path_63260" data-name="Path 63260" d="M669.438,535.7l-1.286-3.19h.886l.6,1.628.174.544q.069-.207.087-.273.042-.135.09-.27l.607-1.628h.868L670.2,535.7Z" transform="translate(-619.692 -531.3)"/>
        <path id="Path_63261" data-name="Path 63261" d="M702.845,533.447a1.725,1.725,0,0,1,.207-.814,1.422,1.422,0,0,1,.587-.6,1.744,1.744,0,0,1,.848-.207,1.593,1.593,0,0,1,1.186.47,1.624,1.624,0,0,1,.462,1.188,1.643,1.643,0,0,1-.467,1.2,1.578,1.578,0,0,1-1.176.476,1.855,1.855,0,0,1-.836-.2,1.361,1.361,0,0,1-.605-.581A1.936,1.936,0,0,1,702.845,533.447Zm.865.045a1.056,1.056,0,0,0,.225.727.736.736,0,0,0,1.11,0,1.071,1.071,0,0,0,.224-.733,1.052,1.052,0,0,0-.224-.721.737.737,0,0,0-1.11,0A1.057,1.057,0,0,0,703.71,533.492Z" transform="translate(-650.75 -530.684)"/>
        <path id="Path_63262" data-name="Path 63262" d="M740.577,525.333v-4.4h.844v4.4Z" transform="translate(-684.53 -520.93)"/>
        <path id="Path_63263" data-name="Path 63263" d="M758.836,535.7v-.478a1.231,1.231,0,0,1-.458.4,1.284,1.284,0,0,1-.6.147,1.17,1.17,0,0,1-.577-.141.833.833,0,0,1-.369-.4,1.767,1.767,0,0,1-.114-.706v-2.018h.844v1.466a4.052,4.052,0,0,0,.047.824.447.447,0,0,0,.17.24.521.521,0,0,0,.312.089.663.663,0,0,0,.387-.119.6.6,0,0,0,.234-.294,3.428,3.428,0,0,0,.063-.861v-1.345h.844v3.19Z" transform="translate(-698.98 -531.3)"/>
        <path id="Path_63264" data-name="Path 63264" d="M791.244,522.888v.673h-.577v1.285a3.2,3.2,0,0,0,.017.455.185.185,0,0,0,.075.107.238.238,0,0,0,.143.042,1.093,1.093,0,0,0,.339-.081l.072.655a1.678,1.678,0,0,1-.667.126,1.056,1.056,0,0,1-.412-.077.6.6,0,0,1-.269-.2.783.783,0,0,1-.119-.329,4.1,4.1,0,0,1-.027-.595v-1.391h-.387v-.673h.387v-.634l.847-.492v1.126Z" transform="translate(-728.268 -521.675)"/>
        <path id="Path_63265" data-name="Path 63265" d="M812.313,521.711v-.781h.844v.781Zm0,3.622v-3.19h.844v3.19Z" transform="translate(-748.751 -520.93)"/>
        <path id="Path_63266" data-name="Path 63266" d="M826.763,533.447a1.726,1.726,0,0,1,.207-.814,1.424,1.424,0,0,1,.587-.6,1.743,1.743,0,0,1,.848-.207,1.592,1.592,0,0,1,1.186.47,1.624,1.624,0,0,1,.463,1.188,1.643,1.643,0,0,1-.467,1.2,1.578,1.578,0,0,1-1.176.476,1.855,1.855,0,0,1-.836-.2,1.361,1.361,0,0,1-.605-.581A1.937,1.937,0,0,1,826.763,533.447Zm.865.045a1.056,1.056,0,0,0,.225.727.736.736,0,0,0,1.11,0,1.071,1.071,0,0,0,.224-.733,1.052,1.052,0,0,0-.224-.721.736.736,0,0,0-1.11,0A1.057,1.057,0,0,0,827.628,533.492Z" transform="translate(-761.688 -530.684)"/>
        <path id="Path_63267" data-name="Path 63267" d="M867.344,535.087H866.5v-1.628a2.519,2.519,0,0,0-.054-.668.47.47,0,0,0-.176-.236.5.5,0,0,0-.293-.084.678.678,0,0,0-.393.12.606.606,0,0,0-.239.319,2.753,2.753,0,0,0-.065.733v1.445h-.844V531.9h.784v.468a1.307,1.307,0,0,1,1.562-.44.857.857,0,0,1,.35.257.928.928,0,0,1,.165.354,2.639,2.639,0,0,1,.046.568Z" transform="translate(-795.415 -530.684)"/>
      </g>
      <rect id="Rectangle_717" data-name="Rectangle 717" width="1.549" height="0.631" transform="translate(12.627 40.036)"/>
      <rect id="Rectangle_718" data-name="Rectangle 718" width="2.448" height="0.997" transform="translate(90.462 40.021)"/>
    </g>
  </g>
</svg>
