<svg xmlns="http://www.w3.org/2000/svg" width="573" height="89" viewBox="0 0 573 89">
  <g id="Group_96866" data-name="Group 96866" transform="translate(-1001 -768)">
    <text id="Select_the_above_displayed_number_to_sign_in." data-name="Select the above displayed number to sign in." transform="translate(1001 851)" font-size="29" font-family="Lato-Regular, Lato"><tspan x="0" y="0">Select the above displayed number to sign in.</tspan></text>
    <g id="Group_96620" data-name="Group 96620" transform="translate(1170.166 769.891)">
      <g id="Group_95900" data-name="Group 95900" transform="translate(94.403 0)">
        <path id="Path_73545" data-name="Path 73545" d="M337.6,56.9c.685-.5,1.349-1.04,2.059-1.5a26.981,26.981,0,0,1,8-3.389c.615-.162,1.242-.284,1.866-.407a.96.96,0,0,1,.351.074c-.041.125-.044.31-.13.366a12.239,12.239,0,0,1-1.853,1.111c-2.209.917-4.438,1.787-6.672,2.64-1.167.446-2.362.818-3.544,1.224Z" transform="translate(-337.517 -44.44)" fill="#ffd300"/>
        <path id="Path_73546" data-name="Path 73546" d="M341.209,37.912c.254-.6.5-1.206.764-1.8.627-1.441,1.231-2.893,1.905-4.311a9.25,9.25,0,0,1,1.084-1.633c.228-.3.48-.241.7.068a1.33,1.33,0,0,1,.119,1.2,6.339,6.339,0,0,1-1.183,2.114q-1.607,2.106-3.219,4.208c-.045.059-.094.116-.141.174Z" transform="translate(-340.023 -29.407)"/>
        <path id="Path_73547" data-name="Path 73547" d="M340.876,43.69a5.98,5.98,0,0,1,1.262-2.231c.969-1.16,1.973-2.292,2.978-3.422.473-.532.995-1.02,1.474-1.546a1.29,1.29,0,0,1,.884-.374c.3-.032.422.131.288.406a4.533,4.533,0,0,1-.575.915,20.224,20.224,0,0,1-1.4,1.528c-1.454,1.406-2.929,2.79-4.394,4.186C341.214,43.323,341.048,43.51,340.876,43.69Z" transform="translate(-339.792 -33.678)" fill="#cc001b"/>
        <path id="Path_73548" data-name="Path 73548" d="M348.761,43.086a3.232,3.232,0,0,1-.9,1.315,13,13,0,0,1-3.464,2.179,16.06,16.06,0,0,0-1.727,1.074c-1.078.708-2.147,1.429-3.229,2.13.666-.617,1.323-1.243,2-1.846.483-.431.985-.841,1.493-1.242a23.531,23.531,0,0,1,5.136-3.4,4.372,4.372,0,0,1,.437-.146C348.574,43.126,348.646,43.113,348.761,43.086Z" transform="translate(-338.792 -38.525)"/>
        <path id="Path_73549" data-name="Path 73549" d="M342.3,28.941a6.833,6.833,0,0,1,.026,1.022,14.665,14.665,0,0,1-1.362,4.214,10.534,10.534,0,0,1-.786,1.483c.08-.49.137-.986.245-1.47.28-1.253.557-2.507.886-3.747a2.627,2.627,0,0,1,.858-1.513Z" transform="translate(-339.304 -28.686)" fill="#ffd300"/>
        <path id="Path_73550" data-name="Path 73550" d="M337.42,33.433c-.187-1.924-.156-4.891.514-5.3C338.636,29.147,338.351,31.546,337.42,33.433Z" transform="translate(-337.321 -28.129)"/>
      </g>
      <path id="Path_73551" data-name="Path 73551" d="M35.871,59.774a8.022,8.022,0,0,1-5.8-2.259,7.52,7.52,0,0,1-2.328-5.647v-11.9h4.366V51.814a3.789,3.789,0,0,0,6.432,2.672,3.591,3.591,0,0,0,1.074-2.672V39.969h4.366v11.9a7.52,7.52,0,0,1-2.328,5.647A8.013,8.013,0,0,1,35.871,59.774Z" transform="translate(-27.745 -36.358)" fill="#1a1818"/>
      <path id="Path_73552" data-name="Path 73552" d="M99.913,55.85h4.118V68.673a7.078,7.078,0,0,1-2.025,5.275,7.412,7.412,0,0,1-5.4,1.983A7.714,7.714,0,0,1,91.869,74.5a6.808,6.808,0,0,1-2.534-3.926h4.229a3.21,3.21,0,0,0,3.044,1.6,3.133,3.133,0,0,0,2.41-.964,3.651,3.651,0,0,0,.9-2.562V68.2a5.653,5.653,0,0,1-4.352,1.887A6.521,6.521,0,0,1,90.6,68a7.825,7.825,0,0,1,0-10.413,6.51,6.51,0,0,1,4.958-2.08,5.672,5.672,0,0,1,4.352,1.887ZM96.387,66.331a3.553,3.553,0,1,0,0-7.107,3.383,3.383,0,0,0-2.52,1.019,3.7,3.7,0,0,0,0,5.069A3.384,3.384,0,0,0,96.387,66.331Z" transform="translate(-70.056 -47.158)" fill="#cc001b"/>
      <path id="Path_73553" data-name="Path 73553" d="M157.587,39.969a6.778,6.778,0,0,1,4.876,1.887,6.717,6.717,0,0,1,0,9.476,6.779,6.779,0,0,1-4.876,1.887h-2.81V59.43H150.4V39.969Zm-.11,9.132a2.327,2.327,0,0,0,1.749-.716,2.633,2.633,0,0,0,0-3.581,2.327,2.327,0,0,0-1.749-.716h-2.7V49.1Z" transform="translate(-112.996 -36.358)" fill="#1a1818"/>
      <path id="Path_73554" data-name="Path 73554" d="M210.282,55.85H214.4V70.23h-4.118V68.645a5.7,5.7,0,0,1-4.352,1.928,6.425,6.425,0,0,1-4.945-2.162,8.241,8.241,0,0,1,0-10.757,6.459,6.459,0,0,1,4.945-2.149,5.664,5.664,0,0,1,4.352,1.915Zm-.992,9.724a3.5,3.5,0,0,0,.992-2.548,3.437,3.437,0,0,0-3.526-3.539,3.332,3.332,0,0,0-2.493,1.005,3.714,3.714,0,0,0,0,5.082,3.343,3.343,0,0,0,2.493,1.019A3.436,3.436,0,0,0,209.29,65.574Z" transform="translate(-146.769 -47.158)" fill="#1a1818"/>
      <path id="Path_73555" data-name="Path 73555" d="M258.946,69.2a4.215,4.215,0,0,1-1.611-3.333h4.118a1.5,1.5,0,0,0,1.528,1.432,1.277,1.277,0,0,0,1.405-1.1c0-.716-.772-1.24-2.314-1.584q-4.545-1.074-4.532-4.559a4,4,0,0,1,1.557-3.333,5.954,5.954,0,0,1,3.8-1.212,5.827,5.827,0,0,1,3.87,1.308,4.034,4.034,0,0,1,1.543,3.21h-4.118a1.272,1.272,0,0,0-1.322-1.24,1.132,1.132,0,0,0-1.212.978q0,1.054,2.4,1.612a7.586,7.586,0,0,1,3.03,1.322,3.688,3.688,0,0,1,1.419,3.14,4.179,4.179,0,0,1-1.584,3.471,6.192,6.192,0,0,1-3.967,1.267A5.93,5.93,0,0,1,258.946,69.2Z" transform="translate(-187.323 -47.158)" fill="#1a1818"/>
      <path id="Path_73556" data-name="Path 73556" d="M300.627,69.2a4.216,4.216,0,0,1-1.611-3.333h4.118a1.5,1.5,0,0,0,1.529,1.432,1.277,1.277,0,0,0,1.4-1.1c0-.716-.771-1.24-2.314-1.584q-4.545-1.074-4.531-4.559a4,4,0,0,1,1.557-3.333,5.953,5.953,0,0,1,3.8-1.212,5.827,5.827,0,0,1,3.87,1.308,4.035,4.035,0,0,1,1.542,3.21h-4.118a1.272,1.272,0,0,0-1.322-1.24,1.132,1.132,0,0,0-1.212.978q0,1.054,2.4,1.612a7.588,7.588,0,0,1,3.03,1.322,3.688,3.688,0,0,1,1.419,3.14,4.18,4.18,0,0,1-1.584,3.471,6.193,6.193,0,0,1-3.967,1.267A5.932,5.932,0,0,1,300.627,69.2Z" transform="translate(-216.294 -47.158)" fill="#1a1818"/>
    </g>
    <text id="_Check_" data-name=" Check  " transform="translate(1088 793)" font-size="25" font-family="Lato-Regular, Lato"><tspan x="0" y="0" xml:space="preserve"> Check  </tspan></text>
    <text id="Mobile_Application" data-name="Mobile Application" transform="translate(1280.839 793.005)" font-size="25" font-family="Lato-Regular, Lato"><tspan x="0" y="0">Mobile Application</tspan></text>
  </g>
</svg>
