<svg xmlns="http://www.w3.org/2000/svg" width="341.892" height="92.145" viewBox="0 0 341.892 92.145">
  <g id="Group_15" data-name="Group 15" transform="translate(-27.745 -28.129)">
    <g id="Group_95900" data-name="Group 95900" transform="translate(330.056 28.129)">
      <path id="Path_73545" data-name="Path 73545" d="M337.6,68.582c2.194-1.612,4.319-3.331,6.595-4.819a86.4,86.4,0,0,1,25.612-10.851c1.971-.519,3.976-.909,5.976-1.3a3.073,3.073,0,0,1,1.123.235c-.132.4-.14.994-.415,1.171a39.2,39.2,0,0,1-5.932,3.557c-7.073,2.937-14.212,5.722-21.368,8.454-3.737,1.427-7.563,2.62-11.35,3.92Z" transform="translate(-337.327 -28.68)" fill="#ffd300"/>
      <path id="Path_73546" data-name="Path 73546" d="M341.209,55.408c.814-1.927,1.612-3.862,2.447-5.78,2.009-4.613,3.942-9.263,6.1-13.806a29.628,29.628,0,0,1,3.473-5.229c.73-.945,1.538-.771,2.255.217a4.26,4.26,0,0,1,.382,3.856,20.3,20.3,0,0,1-3.789,6.771q-5.147,6.744-10.309,13.476c-.146.19-.3.373-.452.559Z" transform="translate(-337.412 -28.172)"/>
      <path id="Path_73547" data-name="Path 73547" d="M340.876,60.379a19.15,19.15,0,0,1,4.043-7.145c3.1-3.715,6.317-7.341,9.536-10.958,1.516-1.7,3.184-3.266,4.719-4.952a4.131,4.131,0,0,1,2.83-1.2c.95-.1,1.353.419.921,1.3a14.518,14.518,0,0,1-1.842,2.931,64.768,64.768,0,0,1-4.477,4.892c-4.655,4.5-9.38,8.935-14.071,13.4C341.957,59.2,341.428,59.8,340.876,60.379Z" transform="translate(-337.404 -28.316)" fill="#cc001b"/>
      <path id="Path_73548" data-name="Path 73548" d="M369.294,43.086A10.35,10.35,0,0,1,366.4,47.3c-3.211,3.1-7.136,5.044-11.093,6.978a51.422,51.422,0,0,0-5.531,3.438c-3.451,2.268-6.877,4.576-10.341,6.822,2.133-1.975,4.237-3.98,6.407-5.913,1.547-1.379,3.154-2.692,4.781-3.977,5.177-4.091,10.316-8.244,16.448-10.893a14,14,0,0,1,1.4-.468C368.7,43.214,368.926,43.173,369.294,43.086Z" transform="translate(-337.37 -28.48)"/>
      <path id="Path_73549" data-name="Path 73549" d="M346.969,28.965a21.881,21.881,0,0,1,.084,3.274c-.568,4.776-2.426,9.153-4.362,13.494a33.734,33.734,0,0,1-2.517,4.749c.257-1.57.438-3.158.784-4.708.9-4.012,1.783-8.027,2.838-12a8.413,8.413,0,0,1,2.747-4.847Z" transform="translate(-337.388 -28.148)" fill="#ffd300"/>
      <path id="Path_73550" data-name="Path 73550" d="M337.637,45.116c-.6-6.162-.5-15.664,1.646-16.987C341.533,31.389,340.62,39.072,337.637,45.116Z" transform="translate(-337.321 -28.129)"/>
    </g>
    <path id="Path_73551" data-name="Path 73551" d="M53.767,103.393A25.689,25.689,0,0,1,35.2,96.16a24.081,24.081,0,0,1-7.454-18.082V39.969H41.726V77.9a11.685,11.685,0,0,0,12,12,11.672,11.672,0,0,0,8.6-3.44A11.5,11.5,0,0,0,65.763,77.9V39.969H79.746V78.077A24.082,24.082,0,0,1,72.291,96.16,25.661,25.661,0,0,1,53.767,103.393Z" transform="translate(0 -0.278)" fill="#1a1818"/>
    <path id="Path_73552" data-name="Path 73552" d="M124.786,56.608h13.188V97.672c0,7.013-2.161,12.614-6.484,16.893-4.367,4.234-10.1,6.351-17.29,6.351-6.042,0-11.071-1.544-15.172-4.588a21.8,21.8,0,0,1-8.116-12.571h13.542c1.455,3.132,5.16,5.117,9.747,5.117a10.034,10.034,0,0,0,7.719-3.087,11.69,11.69,0,0,0,2.867-8.2V96.172a18.1,18.1,0,0,1-13.938,6.043,20.884,20.884,0,0,1-15.877-6.7,23.286,23.286,0,0,1-6.351-16.716A23.221,23.221,0,0,1,94.97,62.166a20.847,20.847,0,0,1,15.877-6.66,18.165,18.165,0,0,1,13.938,6.043ZM113.494,90.173a11.511,11.511,0,0,0,8.072-19.495,10.974,10.974,0,0,0-8.072-3.264,10.834,10.834,0,0,0-8.07,3.264,11.836,11.836,0,0,0,0,16.232A10.837,10.837,0,0,0,113.494,90.173Z" transform="translate(-1.429 -0.642)" fill="#cc001b"/>
    <path id="Path_73553" data-name="Path 73553" d="M173.421,39.969a21.707,21.707,0,0,1,15.615,6.043A20.127,20.127,0,0,1,195.3,61.184a20.128,20.128,0,0,1-6.263,15.172A21.71,21.71,0,0,1,173.421,82.4h-9v19.893H150.4V39.969Zm-.353,29.242a7.451,7.451,0,0,0,5.6-2.293,8.432,8.432,0,0,0,0-11.468,7.451,7.451,0,0,0-5.6-2.293h-8.645V69.211Z" transform="translate(-2.878 -0.278)" fill="#1a1818"/>
    <path id="Path_73554" data-name="Path 73554" d="M235.155,56.608h13.188v46.047H235.155V97.583a18.266,18.266,0,0,1-13.937,6.175,20.574,20.574,0,0,1-15.834-6.924c-4.278-4.632-6.4-10.366-6.4-17.247a24.374,24.374,0,0,1,6.4-17.2,20.685,20.685,0,0,1,15.834-6.881,18.139,18.139,0,0,1,13.937,6.132Zm-3.176,31.14a11.213,11.213,0,0,0,3.176-8.161,11.007,11.007,0,0,0-11.291-11.335,10.67,10.67,0,0,0-7.983,3.22,11.894,11.894,0,0,0,0,16.276,10.706,10.706,0,0,0,7.983,3.264A11,11,0,0,0,231.979,87.748Z" transform="translate(-4.019 -0.642)" fill="#1a1818"/>
    <path id="Path_73555" data-name="Path 73555" d="M262.495,99.347a13.5,13.5,0,0,1-5.16-10.674h13.188a4.8,4.8,0,0,0,4.894,4.587c2.515,0,4.5-1.588,4.5-3.528,0-2.293-2.471-3.97-7.41-5.072Q257.952,81.22,258,70.061a12.824,12.824,0,0,1,4.985-10.674,19.067,19.067,0,0,1,12.173-3.882A18.659,18.659,0,0,1,287.547,59.7a12.918,12.918,0,0,1,4.94,10.278H279.3A4.074,4.074,0,0,0,275.065,66c-2.161,0-3.882,1.5-3.882,3.132q0,3.375,7.676,5.161a24.293,24.293,0,0,1,9.7,4.233c2.955,2.162,4.544,5.6,4.544,10.056A13.383,13.383,0,0,1,288.032,99.7a19.828,19.828,0,0,1-12.7,4.057A18.991,18.991,0,0,1,262.495,99.347Z" transform="translate(-5.388 -0.642)" fill="#1a1818"/>
    <path id="Path_73556" data-name="Path 73556" d="M304.176,99.347a13.5,13.5,0,0,1-5.16-10.674H312.2a4.8,4.8,0,0,0,4.9,4.587c2.515,0,4.5-1.588,4.5-3.528,0-2.293-2.47-3.97-7.41-5.072q-14.554-3.441-14.511-14.6a12.824,12.824,0,0,1,4.985-10.674,19.064,19.064,0,0,1,12.172-3.882A18.66,18.66,0,0,1,329.229,59.7a12.92,12.92,0,0,1,4.939,10.278H320.98A4.073,4.073,0,0,0,316.747,66c-2.161,0-3.882,1.5-3.882,3.132q0,3.375,7.675,5.161a24.3,24.3,0,0,1,9.7,4.233c2.954,2.162,4.543,5.6,4.543,10.056A13.385,13.385,0,0,1,329.714,99.7a19.832,19.832,0,0,1-12.7,4.057A19,19,0,0,1,304.176,99.347Z" transform="translate(-6.366 -0.642)" fill="#1a1818"/>
  </g>
</svg>
