<svg id="Layer_1" data-name="Layer 1" xmlns="http://www.w3.org/2000/svg" viewBox="0 0 122.88 122.88"><defs><style>.cls-1{fill:#939598;}.cls-2{fill:#a7a9ac;}</style></defs><path class="cls-1" d="M93.81,105.23H19.46a3.58,3.58,0,0,1-3.59-3.58V9.07a3.58,3.58,0,0,1,3.59-3.58H93.81a3.58,3.58,0,0,1,3.58,3.58v92.58A3.58,3.58,0,0,1,93.81,105.23Zm-71.94-6H91.39V11.49H21.87Z"/><path class="cls-1" d="M102.2,121.36H31.89a6.11,6.11,0,0,1-6.1-6.11v-13h7v12.13h68.52V27.61H94.39v-7h7.81a6.12,6.12,0,0,1,6.11,6.11v88.53A6.12,6.12,0,0,1,102.2,121.36Z"/><rect class="cls-2" x="29.29" y="26.2" width="13.54" height="13.54"/><rect class="cls-2" x="29.29" y="51.72" width="13.54" height="13.54"/><rect class="cls-2" x="29.29" y="77.24" width="13.54" height="13.54"/><rect class="cls-1" x="54.29" y="26.2" width="28.12" height="6.77"/><rect class="cls-1" x="54.29" y="56.38" width="28.12" height="6.77"/><rect class="cls-1" x="54.29" y="80.62" width="28.12" height="6.77"/></svg>