<svg id="Layer_1" data-name="Layer 1" xmlns="http://www.w3.org/2000/svg" viewBox="0 0 122.88 122.88"><defs><style>.cls-1{fill:#343030;}</style></defs><path class="cls-1" d="M113,116.64H9.89A3.65,3.65,0,0,1,6.25,113V9.89A3.64,3.64,0,0,1,9.89,6.25H113a3.65,3.65,0,0,1,3.65,3.64V113A3.66,3.66,0,0,1,113,116.64Zm-101.74-5H111.64V11.25H11.25Z"/><path class="cls-1" d="M94.59,31.23h-68A10.77,10.77,0,0,0,15.86,42V79A10.76,10.76,0,0,0,26.62,89.77h68A10.77,10.77,0,0,0,105.36,79V42A10.77,10.77,0,0,0,94.59,31.23ZM44.5,67.58a4.33,4.33,0,0,1-4.33,4.34H26a3.79,3.79,0,0,1-3.79-3.79v-2.8a10.31,10.31,0,0,1,5.64-9.16A8,8,0,1,1,39.36,55a7.37,7.37,0,0,1-.9,1,10.33,10.33,0,0,1,6,9.38Zm37.92.6H55.94V60.5H82.42ZM84.53,57H47.7V49.92H84.53Z"/></svg>