<svg id="Layer_1" data-name="Layer 1" xmlns="http://www.w3.org/2000/svg" viewBox="0 0 122.88 80.13"><defs><style>.cls-1{fill:#27b7e4;}</style></defs><path class="cls-1" d="M118.45,71.82c-3,.1-6,0-8.83,0a23,23,0,0,0,.5-3.33c0-20.24,0-40.48.06-60.72,0-1.56-.37-2.68-1.75-3.41H14.38c-1.59.62-2,1.82-2,3.45,0,20.25,0,40.49.05,60.74A19.26,19.26,0,0,0,13,71.85c-2.64,0-5.44.06-8.23,0-1.69,0-3,.39-3.79,2v3.34H122.22V73.78A3.62,3.62,0,0,0,118.45,71.82ZM65.12,75.66h-7a2.12,2.12,0,0,1,0-4.23h7a2.12,2.12,0,0,1,0,4.23ZM106.66,69H16.26V8.11h90.4Z"/><path class="cls-1" d="M71.31,26.21c.8-.46,1.59-.95,2.42-1.38a2.32,2.32,0,0,1,3.32.88q2.46,4.13,4.81,8.31a2.38,2.38,0,0,1-.93,3.41.39.39,0,0,1-.11.06c-2.6.67-2.31,2.74-2.21,4.66,0,.34.47.75.83,1,3.38,2,3.49,2.45,1.49,5.9-1.26,2.18-2.49,4.37-3.78,6.54-.86,1.44-2.17,1.94-3.44,1-1.82-1.4-3.36-1.13-4.91.22A2,2,0,0,0,68.06,58c.24,4.34-1.28,4.51-4.53,4.41-2.43-.07-4.87,0-7.31,0-1.81,0-2.7-.95-2.75-2.79,0-.84.22-1.95-.22-2.46a8.69,8.69,0,0,0-2.8-1.72,1.32,1.32,0,0,0-1,.24c-3.41,2.21-4.32,1.57-6-1.69-1.14-2.14-2.43-4.21-3.63-6.32-.89-1.57-.68-3.05.94-3.64,2.49-.91,2.32-2.77,2.19-4.71,0-.34-.47-.78-.83-1-3-1.49-3.67-2.55-1.53-5.92,1.35-2.12,2.52-4.36,3.8-6.52a2.4,2.4,0,0,1,3.59-1c.78.42,1.64,1.22,2.35,1.11a8,8,0,0,0,2.89-1.58c.23-.15.32-.66.3-1-.21-3.87.62-4.52,4.5-4.37,2.52.1,5,0,7.56,0,1.48,0,2.64.92,2.44,2.35-.31,2.31.63,3.57,2.64,4.33A3.73,3.73,0,0,1,71.31,26.21ZM58.5,38.86l4.08,4c1.54-1.57,2.86-2.91,4.2-4.23a4.61,4.61,0,0,1,.94-.57c.18.36.51.71.52,1.07a11.07,11.07,0,0,1-.13,3.05,7.3,7.3,0,0,1-9,5.32c-.41-.09-1-.17-1.27,0C56.52,48.73,55.29,50,54,51.28c4.74,3.53,12.22,2.43,16.25-2.26A12.64,12.64,0,0,0,52.44,31.19c-4.71,4.2-5.8,11.65-2.15,16.34,1.09-1.18,2.11-2.38,3.23-3.47A1.54,1.54,0,0,0,54,42.29a7.26,7.26,0,0,1,8.41-9.09,4,4,0,0,1,1,.46,4.8,4.8,0,0,1-.54.94C61.48,36,60.1,37.29,58.5,38.86Z"/></svg>