<svg id="Layer_1" data-name="Layer 1" xmlns="http://www.w3.org/2000/svg" viewBox="0 0 122.88 80.13"><defs><style>.cls-1{fill:#343030;}</style></defs><path class="cls-1" d="M118.27,71.82c-3,.1-6,0-8.82,0a23,23,0,0,0,.5-3.33C110,48.28,110,28,110,7.8c0-1.56-.38-2.68-1.75-3.41H14.2c-1.58.62-2,1.82-2,3.45,0,20.25,0,40.49.05,60.74a19.26,19.26,0,0,0,.61,3.27c-2.64,0-5.44.06-8.23,0-1.69,0-3,.39-3.79,2v3.34H122.05V73.78A3.63,3.63,0,0,0,118.27,71.82ZM65,75.66h-7a2.12,2.12,0,0,1,0-4.23h7a2.12,2.12,0,0,1,0,4.23ZM106.49,69H16.08V8.11h90.41Z"/><path class="cls-1" d="M71.14,26.21c.79-.46,1.59-.95,2.42-1.38a2.32,2.32,0,0,1,3.32.88q2.46,4.13,4.81,8.31a2.38,2.38,0,0,1-.93,3.41.6.6,0,0,1-.11.06c-2.6.67-2.31,2.74-2.21,4.66,0,.34.47.75.82,1,3.39,2,3.5,2.45,1.5,5.9-1.26,2.18-2.49,4.37-3.78,6.54-.86,1.44-2.17,1.94-3.44,1-1.83-1.4-3.36-1.13-4.91.22A2,2,0,0,0,67.89,58c.23,4.34-1.28,4.51-4.53,4.41-2.43-.07-4.87,0-7.31,0-1.81,0-2.7-.95-2.75-2.79,0-.84.22-1.95-.22-2.46a8.69,8.69,0,0,0-2.8-1.72,1.31,1.31,0,0,0-1,.24C45.85,57.85,45,57.21,43.22,54c-1.14-2.14-2.43-4.21-3.63-6.32-.89-1.57-.68-3.05.94-3.64,2.49-.91,2.32-2.77,2.19-4.71,0-.34-.47-.78-.84-1-3-1.49-3.66-2.55-1.52-5.92,1.35-2.12,2.51-4.36,3.8-6.52a2.4,2.4,0,0,1,3.59-1c.78.42,1.64,1.22,2.35,1.11A8.09,8.09,0,0,0,53,24.45a1.32,1.32,0,0,0,.3-1c-.21-3.87.62-4.52,4.49-4.37,2.52.1,5,0,7.57,0,1.48,0,2.64.92,2.44,2.35-.32,2.31.63,3.57,2.64,4.33A3.73,3.73,0,0,1,71.14,26.21ZM58.33,38.86l4.08,4c1.54-1.57,2.85-2.91,4.19-4.23a5.23,5.23,0,0,1,.94-.57c.19.36.52.71.53,1.07a11.48,11.48,0,0,1-.13,3.05,7.3,7.3,0,0,1-9,5.32c-.4-.09-1-.17-1.26,0-1.32,1.19-2.55,2.47-3.82,3.74C58.59,54.81,66.07,53.71,70.1,49A12.64,12.64,0,0,0,52.27,31.19c-4.71,4.2-5.8,11.65-2.15,16.34,1.09-1.18,2.11-2.38,3.23-3.47a1.54,1.54,0,0,0,.46-1.77,7.26,7.26,0,0,1,8.41-9.09,4,4,0,0,1,1,.46,4.37,4.37,0,0,1-.55.94C61.31,36,59.93,37.29,58.33,38.86Z"/></svg>