<svg id="Layer_1" data-name="Layer 1" xmlns="http://www.w3.org/2000/svg" viewBox="0 0 122.88 122.88"><defs><style>.cls-1{fill:#27b7e4;}</style></defs><path class="cls-1" d="M92.23,104.91H17.87a3.59,3.59,0,0,1-3.58-3.58V8.75a3.59,3.59,0,0,1,3.58-3.59H92.23a3.59,3.59,0,0,1,3.58,3.59v92.58A3.59,3.59,0,0,1,92.23,104.91Zm-71.94-6H89.81V11.16H20.29Z"/><path class="cls-1" d="M100.62,121H30.31a6.1,6.1,0,0,1-6.1-6.1v-13h7V114H99.72V27.29H92.81v-7h7.81a6.11,6.11,0,0,1,6.1,6.1v88.54A6.1,6.1,0,0,1,100.62,121Z"/><rect class="cls-1" x="27.71" y="25.87" width="13.54" height="13.54"/><rect class="cls-1" x="27.71" y="51.39" width="13.54" height="13.54"/><rect class="cls-1" x="27.71" y="76.91" width="13.54" height="13.54"/><rect class="cls-1" x="52.71" y="25.87" width="28.12" height="6.77"/><rect class="cls-1" x="52.71" y="56.06" width="28.12" height="6.77"/><rect class="cls-1" x="52.71" y="80.3" width="28.12" height="6.77"/></svg>