<svg id="Layer_1" data-name="Layer 1" xmlns="http://www.w3.org/2000/svg" xmlns:xlink="http://www.w3.org/1999/xlink" viewBox="0 0 122.88 122.88"><defs><style>.cls-1{fill:url(#linear-gradient);}.cls-2{fill:url(#linear-gradient-2);}.cls-3{fill:url(#linear-gradient-3);}.cls-4{fill:url(#linear-gradient-4);}.cls-5{fill:url(#linear-gradient-5);}.cls-6{fill:url(#linear-gradient-6);}.cls-7{fill:url(#linear-gradient-7);}.cls-8{fill:url(#linear-gradient-8);}</style><linearGradient id="linear-gradient" x1="14.29" y1="55.04" x2="95.81" y2="55.04" gradientUnits="userSpaceOnUse"><stop offset="0" stop-color="#3f89c1"/><stop offset="1" stop-color="#4bbfaa"/></linearGradient><linearGradient id="linear-gradient-2" x1="24.21" y1="70.66" x2="106.72" y2="70.66" xlink:href="#linear-gradient"/><linearGradient id="linear-gradient-3" x1="27.71" y1="32.64" x2="41.25" y2="32.64" xlink:href="#linear-gradient"/><linearGradient id="linear-gradient-4" x1="27.71" y1="58.16" x2="41.25" y2="58.16" xlink:href="#linear-gradient"/><linearGradient id="linear-gradient-5" x1="27.71" y1="83.68" x2="41.25" y2="83.68" xlink:href="#linear-gradient"/><linearGradient id="linear-gradient-6" x1="52.71" y1="29.26" x2="80.83" y2="29.26" xlink:href="#linear-gradient"/><linearGradient id="linear-gradient-7" x1="52.71" y1="59.44" x2="80.83" y2="59.44" xlink:href="#linear-gradient"/><linearGradient id="linear-gradient-8" x1="52.71" y1="83.68" x2="80.83" y2="83.68" xlink:href="#linear-gradient"/></defs><path class="cls-1" d="M92.23,104.91H17.87a3.59,3.59,0,0,1-3.58-3.58V8.75a3.59,3.59,0,0,1,3.58-3.59H92.23a3.59,3.59,0,0,1,3.58,3.59v92.58A3.59,3.59,0,0,1,92.23,104.91Zm-71.94-6H89.81V11.16H20.29Z"/><path class="cls-2" d="M100.62,121H30.31a6.1,6.1,0,0,1-6.1-6.1v-13h7V114H99.72V27.29H92.81v-7h7.81a6.11,6.11,0,0,1,6.1,6.1v88.54A6.1,6.1,0,0,1,100.62,121Z"/><rect class="cls-3" x="27.71" y="25.87" width="13.54" height="13.54"/><rect class="cls-4" x="27.71" y="51.39" width="13.54" height="13.54"/><rect class="cls-5" x="27.71" y="76.91" width="13.54" height="13.54"/><rect class="cls-6" x="52.71" y="25.87" width="28.12" height="6.77"/><rect class="cls-7" x="52.71" y="56.06" width="28.12" height="6.77"/><rect class="cls-8" x="52.71" y="80.3" width="28.12" height="6.77"/></svg>