<svg id="Layer_1" data-name="Layer 1" xmlns="http://www.w3.org/2000/svg" xmlns:xlink="http://www.w3.org/1999/xlink" viewBox="0 0 122.88 122.88"><defs><style>.cls-1{fill:url(#linear-gradient);}.cls-2{fill:url(#linear-gradient-2);}</style><linearGradient id="linear-gradient" x1="6.24" y1="60.2" x2="116.64" y2="60.2" gradientUnits="userSpaceOnUse"><stop offset="0" stop-color="#3f89c1"/><stop offset="1" stop-color="#4bbfaa"/></linearGradient><linearGradient id="linear-gradient-2" x1="15.86" y1="59.26" x2="105.36" y2="59.26" xlink:href="#linear-gradient"/></defs><path class="cls-1" d="M113,115.4H9.89a3.66,3.66,0,0,1-3.65-3.65V8.65A3.65,3.65,0,0,1,9.89,5H113a3.65,3.65,0,0,1,3.65,3.64v103.1A3.66,3.66,0,0,1,113,115.4Zm-101.75-5h100.4V10H11.24Z"/><path class="cls-2" d="M94.59,30h-68A10.77,10.77,0,0,0,15.86,40.76v37A10.77,10.77,0,0,0,26.62,88.54h68a10.78,10.78,0,0,0,10.77-10.77v-37A10.77,10.77,0,0,0,94.59,30ZM44.5,66.34a4.33,4.33,0,0,1-4.33,4.34H26a3.79,3.79,0,0,1-3.79-3.79v-2.8a10.29,10.29,0,0,1,5.64-9.16,8,8,0,1,1,11.53-1.17,7.37,7.37,0,0,1-.9,1,10.33,10.33,0,0,1,6,9.38Zm37.92.6H55.94V59.26H82.42ZM84.53,55.8H47.7V48.68H84.53Z"/></svg>