<svg id="Layer_1" data-name="Layer 1" xmlns="http://www.w3.org/2000/svg" viewBox="0 0 122.88 122.88"><defs><style>.cls-1{fill:#27b7e4;}</style></defs><path class="cls-1" d="M67.47,114.89H19.62a14,14,0,0,1-14-14V22a14,14,0,0,1,14-14H67.47a14,14,0,0,1,14,14V53.48a3,3,0,0,1-6,0V22a8,8,0,0,0-8-8H19.62a8,8,0,0,0-8,8v78.91a8,8,0,0,0,8,8H67.47a3,3,0,0,1,0,6Z"/><path class="cls-1" d="M37.93,48.56H17.63A3.66,3.66,0,0,1,14,44.91V24.61A3.65,3.65,0,0,1,17.63,21h20.3a3.65,3.65,0,0,1,3.65,3.64v20.3A3.66,3.66,0,0,1,37.93,48.56ZM20,42.56h15.6V27H20Z"/><path class="cls-1" d="M67.31,31H45.88a3,3,0,1,1,0-6H67.31a3,3,0,0,1,0,6Z"/><path class="cls-1" d="M67.31,41.57H45.88a3,3,0,0,1,0-6H67.31a3,3,0,0,1,0,6Z"/><path class="cls-1" d="M107,51.09H43.1A10.52,10.52,0,0,0,32.83,61.85V104.2A10.51,10.51,0,0,0,43.1,115H107a10.52,10.52,0,0,0,10.27-10.76V61.85A10.53,10.53,0,0,0,107,51.09ZM42.76,81.61V75.43H67.27v6.18ZM85.82,97.93H60.32V91.74h25.5Z"/></svg>