<svg id="Layer_1" data-name="Layer 1" xmlns="http://www.w3.org/2000/svg" xmlns:xlink="http://www.w3.org/1999/xlink" viewBox="0 0 122.88 122.88"><defs><style>.cls-1{fill:url(#linear-gradient);}.cls-2{fill:url(#linear-gradient-2);}.cls-3{fill:url(#linear-gradient-3);}.cls-4{fill:url(#linear-gradient-4);}.cls-5{fill:url(#linear-gradient-5);}</style><linearGradient id="linear-gradient" x1="5.59" y1="61.41" x2="81.5" y2="61.41" gradientUnits="userSpaceOnUse"><stop offset="0" stop-color="#3f89c1"/><stop offset="1" stop-color="#4bbfaa"/></linearGradient><linearGradient id="linear-gradient-2" x1="13.98" y1="34.76" x2="41.58" y2="34.76" xlink:href="#linear-gradient"/><linearGradient id="linear-gradient-3" x1="42.88" y1="28" x2="70.31" y2="28" xlink:href="#linear-gradient"/><linearGradient id="linear-gradient-4" x1="42.88" y1="38.57" x2="70.31" y2="38.57" xlink:href="#linear-gradient"/><linearGradient id="linear-gradient-5" x1="32.83" y1="83.03" x2="117.29" y2="83.03" xlink:href="#linear-gradient"/></defs><path class="cls-1" d="M67.47,114.89H19.62a14,14,0,0,1-14-14V22a14,14,0,0,1,14-14H67.47a14,14,0,0,1,14,14V53.48a3,3,0,0,1-6,0V22a8,8,0,0,0-8-8H19.62a8,8,0,0,0-8,8v78.91a8,8,0,0,0,8,8H67.47a3,3,0,0,1,0,6Z"/><path class="cls-2" d="M37.93,48.56H17.63A3.66,3.66,0,0,1,14,44.91V24.61A3.65,3.65,0,0,1,17.63,21h20.3a3.65,3.65,0,0,1,3.65,3.64v20.3A3.66,3.66,0,0,1,37.93,48.56ZM20,42.56h15.6V27H20Z"/><path class="cls-3" d="M67.31,31H45.88a3,3,0,1,1,0-6H67.31a3,3,0,0,1,0,6Z"/><path class="cls-4" d="M67.31,41.57H45.88a3,3,0,0,1,0-6H67.31a3,3,0,0,1,0,6Z"/><path class="cls-5" d="M107,51.09H43.1A10.52,10.52,0,0,0,32.83,61.85V104.2A10.51,10.51,0,0,0,43.1,115H107a10.52,10.52,0,0,0,10.27-10.76V61.85A10.53,10.53,0,0,0,107,51.09ZM42.76,81.61V75.43H67.27v6.18ZM85.82,97.93H60.32V91.74h25.5Z"/></svg>