<svg id="Layer_1" data-name="Layer 1" xmlns="http://www.w3.org/2000/svg" viewBox="0 0 122.88 122.88"><defs><style>.cls-1{fill:#939598;}</style></defs><path class="cls-1" d="M107.12,111.8l-36.49-1.63.91-87L107.12,40.5ZM75.48,108l26.64.33V44.91L76.44,31.3Z"/><path class="cls-1" d="M96.7,34.71a2.47,2.47,0,0,1-2.5-2.44V22L72,8.32,36.58,22.26v10a2.5,2.5,0,0,1-5,0V19l40.9-16.1L99.2,19.26v13A2.47,2.47,0,0,1,96.7,34.71Z"/><path class="cls-1" d="M24.72,41.66l-.82,70.23L71,109.41l.57-86.26ZM61.16,100l-26.64,4.41-.44,0a2.64,2.64,0,0,1-2.62-2.16,2.6,2.6,0,0,1,2.18-3l26.63-4.4A2.64,2.64,0,0,1,63.33,97,2.59,2.59,0,0,1,61.16,100Zm0-13.29-26.64,4.4a3.42,3.42,0,0,1-.44,0A2.65,2.65,0,0,1,31.46,89a2.61,2.61,0,0,1,2.18-3l26.63-4.4a2.64,2.64,0,0,1,3.06,2.12A2.6,2.6,0,0,1,61.16,86.73Zm0-13.3-26.64,4.4a2.25,2.25,0,0,1-.44,0,2.65,2.65,0,0,1-2.62-2.16,2.61,2.61,0,0,1,2.18-3l26.63-4.4a2.64,2.64,0,0,1,3.06,2.12A2.6,2.6,0,0,1,61.16,73.43Zm0-13.3-26.64,4.4a2.25,2.25,0,0,1-.44,0,2.64,2.64,0,0,1-2.62-2.16,2.59,2.59,0,0,1,2.18-3L60.27,55a2.65,2.65,0,0,1,3.06,2.12A2.59,2.59,0,0,1,61.16,60.13Zm.05-13.81L34.57,51.23a2.7,2.7,0,0,1-.49,0,2.64,2.64,0,0,1-2.61-2.11,2.59,2.59,0,0,1,2.12-3l26.63-4.92a2.65,2.65,0,0,1,3.1,2.07A2.6,2.6,0,0,1,61.21,46.32Z"/><path class="cls-1" d="M71.53,111.27l-48.14,1.1.84-71.05,47.3-18Zm-47.13.13,46.84-1.2.3-87.05L25.22,42ZM34.08,105A3.12,3.12,0,0,1,31,102.39a3.09,3.09,0,0,1,2.58-3.55l26.63-4.41A3.15,3.15,0,0,1,63.82,97a3,3,0,0,1-.53,2.29,3.13,3.13,0,0,1-2,1.25h0l-26.63,4.41A3.23,3.23,0,0,1,34.08,105Zm26.63-9.58a2.19,2.19,0,0,0-.36,0L33.72,99.8A2.12,2.12,0,0,0,32,102.22a2.14,2.14,0,0,0,2.49,1.72l26.63-4.4a2.15,2.15,0,0,0,1.4-.85,2.1,2.1,0,0,0,.37-1.57A2.15,2.15,0,0,0,60.71,95.37ZM34.08,91.65A3.13,3.13,0,0,1,31,89.09a3.09,3.09,0,0,1,2.58-3.55l26.63-4.4a3.14,3.14,0,0,1,3.64,2.52A3,3,0,0,1,63.29,86a3.18,3.18,0,0,1-2,1.26l-26.63,4.4A3.23,3.23,0,0,1,34.08,91.65Zm26.63-9.58a2.19,2.19,0,0,0-.36,0L33.72,86.5a2.11,2.11,0,1,0,.72,4.15l26.63-4.4a2.16,2.16,0,0,0,1.4-.86,2.1,2.1,0,0,0,.37-1.57A2.16,2.16,0,0,0,60.71,82.07ZM34.08,78.36a3.08,3.08,0,0,1-.53-6.12l26.63-4.4a3.15,3.15,0,0,1,3.64,2.52,3,3,0,0,1-.53,2.3,3.17,3.17,0,0,1-2,1.25h0l-26.63,4.4A3.27,3.27,0,0,1,34.08,78.36Zm26.63-9.59a2.19,2.19,0,0,0-.36,0L33.72,73.2a2.11,2.11,0,1,0,.72,4.15L61.07,73a2.16,2.16,0,0,0,1.4-.86,2.09,2.09,0,0,0,.37-1.57A2.16,2.16,0,0,0,60.71,68.77ZM34.08,65.06a3.08,3.08,0,0,1-.53-6.12l26.63-4.4a3.16,3.16,0,0,1,3.64,2.52,3,3,0,0,1-.53,2.3,3.13,3.13,0,0,1-2,1.25h0L34.61,65A3.27,3.27,0,0,1,34.08,65.06Zm26.63-9.58-.36,0L33.72,59.91A2.12,2.12,0,0,0,32,62.33a2.15,2.15,0,0,0,2.49,1.72l26.63-4.4a2.15,2.15,0,0,0,1.4-.85,2.1,2.1,0,0,0,.37-1.57A2.15,2.15,0,0,0,60.71,55.48ZM34.08,51.76a3.13,3.13,0,0,1-3.1-2.5,3.09,3.09,0,0,1,2.51-3.6l26.64-4.92a3.16,3.16,0,0,1,3.68,2.46,3.07,3.07,0,0,1-2.51,3.59L34.67,51.71A4,4,0,0,1,34.08,51.76ZM60.71,41.67l-.4,0L33.68,46.62A2.1,2.1,0,0,0,32,49.07a2.16,2.16,0,0,0,2.52,1.68l26.63-4.91a2.11,2.11,0,0,0,1.72-2.46A2.14,2.14,0,0,0,60.71,41.67Z"/><path class="cls-1" d="M115,117.21H12.75a3.9,3.9,0,1,1,0-7.8H115a3.9,3.9,0,1,1,0,7.8Z"/></svg>