<svg id="Layer_1" data-name="Layer 1" xmlns="http://www.w3.org/2000/svg" viewBox="0 0 122.88 122.88"><defs><style>.cls-1{fill:#27b7e4;}</style></defs><path class="cls-1" d="M103,112.27l-36.49-1.63.91-87L103,41Zm-31.64-3.76,26.64.33V45.38L72.32,31.76Z"/><path class="cls-1" d="M92.58,35.17a2.47,2.47,0,0,1-2.5-2.43V22.43L67.86,8.79,32.46,22.72v10a2.5,2.5,0,0,1-5,0V19.43L68.36,3.34,95.08,19.73v13A2.47,2.47,0,0,1,92.58,35.17Z"/><path class="cls-1" d="M20.61,42.13l-.83,70.22,47.08-2.47.56-86.26ZM57,100.49l-26.63,4.4a2.28,2.28,0,0,1-.45,0,2.62,2.62,0,0,1-2.61-2.16,2.58,2.58,0,0,1,2.17-3l26.63-4.41a2.64,2.64,0,0,1,3.06,2.12A2.59,2.59,0,0,1,57,100.49Zm0-13.3L30.41,91.6a3.4,3.4,0,0,1-.45,0,2.63,2.63,0,0,1-2.61-2.15,2.59,2.59,0,0,1,2.17-3l26.63-4.4a2.64,2.64,0,0,1,3.06,2.12A2.58,2.58,0,0,1,57,87.19ZM57,73.9,30.41,78.3a3.42,3.42,0,0,1-.45,0,2.63,2.63,0,0,1-2.61-2.16,2.59,2.59,0,0,1,2.17-3l26.63-4.4a2.64,2.64,0,0,1,3.06,2.12A2.59,2.59,0,0,1,57,73.9Zm0-13.3L30.41,65A2.28,2.28,0,0,1,30,65a2.63,2.63,0,0,1-2.61-2.16,2.59,2.59,0,0,1,2.17-3l26.63-4.4a2.65,2.65,0,0,1,3.06,2.12A2.59,2.59,0,0,1,57,60.6Zm.05-13.82L30.46,51.7a2.81,2.81,0,0,1-.5,0,2.65,2.65,0,0,1-2.61-2.11,2.59,2.59,0,0,1,2.12-3L56.1,41.69a2.67,2.67,0,0,1,3.11,2.07A2.59,2.59,0,0,1,57.09,46.78Z"/><path class="cls-1" d="M67.42,111.74l-48.15,1.1.84-71.05,47.31-18Zm-47.13.13,46.83-1.21.3-87L21.1,42.48ZM30,105.42a3.13,3.13,0,0,1-3.11-2.57,3.1,3.1,0,0,1,2.59-3.55l26.63-4.4a3.16,3.16,0,0,1,3.64,2.52,3,3,0,0,1-.54,2.3A3.17,3.17,0,0,1,57.12,101h0l-26.63,4.4A3.17,3.17,0,0,1,30,105.42ZM56.6,95.83l-.37,0L29.6,100.27a2.1,2.1,0,0,0-1.76,2.42,2.14,2.14,0,0,0,2.49,1.72L57,100a2.13,2.13,0,0,0,1.39-.86,2,2,0,0,0,.37-1.56A2.15,2.15,0,0,0,56.6,95.83ZM30,92.12a3.13,3.13,0,0,1-3.11-2.56A3.09,3.09,0,0,1,29.44,86L56.07,81.6a3.16,3.16,0,0,1,3.64,2.53,3,3,0,0,1-.54,2.29,3.18,3.18,0,0,1-2.05,1.26l-26.63,4.4A3.15,3.15,0,0,1,30,92.12ZM56.6,82.54l-.37,0L29.6,87a2.1,2.1,0,0,0-1.76,2.42,2.14,2.14,0,0,0,2.49,1.73L57,86.71a2.11,2.11,0,0,0,1.39-.85,2,2,0,0,0,.37-1.57A2.14,2.14,0,0,0,56.6,82.54ZM30,78.82a3.07,3.07,0,0,1-.52-6.11l26.63-4.4a3.15,3.15,0,0,1,3.64,2.52,3,3,0,0,1-.54,2.3,3.17,3.17,0,0,1-2.05,1.25h0l-26.63,4.4A3.15,3.15,0,0,1,30,78.82Zm26.63-9.58-.36,0L29.6,73.67a2.11,2.11,0,0,0-1.76,2.43,2.14,2.14,0,0,0,2.49,1.72L57,73.42a2.16,2.16,0,0,0,1.39-.86A2,2,0,0,0,58.72,71,2.15,2.15,0,0,0,56.59,69.24ZM30,65.53A3.13,3.13,0,0,1,26.85,63a3.1,3.1,0,0,1,2.59-3.55L56.07,55a3.16,3.16,0,0,1,3.64,2.52,3,3,0,0,1-.54,2.3,3.17,3.17,0,0,1-2.05,1.25h0l-26.63,4.4A3.17,3.17,0,0,1,30,65.53Zm26.63-9.59-.36,0L29.6,60.37a2.11,2.11,0,1,0,.73,4.15L57,60.12a2.13,2.13,0,0,0,1.39-.86,2,2,0,0,0,.37-1.57A2.15,2.15,0,0,0,56.59,55.94ZM30,52.23a3.14,3.14,0,0,1-3.1-2.51,3.09,3.09,0,0,1,2.52-3.59L56,41.21a3.17,3.17,0,0,1,3.69,2.46,3.09,3.09,0,0,1-2.52,3.59L30.55,52.18A3.92,3.92,0,0,1,30,52.23ZM56.6,42.13a2.85,2.85,0,0,0-.41,0L29.56,47.08a2.11,2.11,0,0,0-1.71,2.46,2.15,2.15,0,0,0,2.51,1.68L57,46.3a2.11,2.11,0,0,0,1.72-2.45A2.16,2.16,0,0,0,56.6,42.13Z"/><path class="cls-1" d="M110.88,117.68H8.63a3.9,3.9,0,1,1,0-7.8H110.88a3.9,3.9,0,1,1,0,7.8Z"/></svg>