<svg id="Layer_1" data-name="Layer 1" xmlns="http://www.w3.org/2000/svg" xmlns:xlink="http://www.w3.org/1999/xlink" viewBox="0 0 122.88 122.88"><defs><style>.cls-1{fill:url(#linear-gradient);}.cls-2{fill:url(#linear-gradient-2);}.cls-3{fill:url(#linear-gradient-3);}.cls-4{fill:url(#linear-gradient-4);}.cls-5{fill:url(#linear-gradient-5);}</style><linearGradient id="linear-gradient" x1="65.3" y1="64.45" x2="102" y2="64.45" gradientUnits="userSpaceOnUse"><stop offset="0" stop-color="#3f89c1"/><stop offset="1" stop-color="#4bbfaa"/></linearGradient><linearGradient id="linear-gradient-2" x1="26.46" y1="16.24" x2="94.08" y2="16.24" xlink:href="#linear-gradient"/><linearGradient id="linear-gradient-3" x1="18.78" y1="64.72" x2="67.83" y2="64.72" xlink:href="#linear-gradient"/><linearGradient id="linear-gradient-4" x1="18.27" y1="64.61" x2="68.33" y2="64.61" xlink:href="#linear-gradient"/><linearGradient id="linear-gradient-5" x1="4.59" y1="110.91" x2="114.84" y2="110.91" xlink:href="#linear-gradient"/></defs><path class="cls-1" d="M102,110.68l-36.7-.47,1.12-92L102,37.56Zm-31.64-5.4,26.64.34V40.54l-25.68-14Z"/><path class="cls-2" d="M91.58,32.57a2.5,2.5,0,0,1-2.5-2.5V19.5l-22.22-14L31.46,19.8V30.07a2.5,2.5,0,0,1-5,0V16.43L67.36-.08,94.08,16.73V30.07A2.5,2.5,0,0,1,91.58,32.57Z"/><path class="cls-3" d="M19.61,37.21l-.83,72H67.83v-89ZM56,97.05l-26.63,4.52a3.42,3.42,0,0,1-.45,0,2.66,2.66,0,0,1-.44-5.28l26.63-4.51A2.65,2.65,0,1,1,56,97.05Zm0-13.63L29.41,87.93A2.28,2.28,0,0,1,29,88a2.66,2.66,0,0,1-.44-5.28l26.63-4.51A2.66,2.66,0,0,1,56,83.42Zm0-13.64L29.41,74.3a3.42,3.42,0,0,1-.45,0,2.66,2.66,0,0,1-.44-5.28l26.63-4.51A2.65,2.65,0,1,1,56,69.78Zm0-13.63L29.41,60.66a2.28,2.28,0,0,1-.45,0,2.66,2.66,0,0,1-.44-5.28l26.63-4.51A2.66,2.66,0,0,1,56,56.15ZM56.09,42,29.46,47a2.81,2.81,0,0,1-.5,0,2.65,2.65,0,0,1-.49-5.26l26.63-5a2.66,2.66,0,1,1,1,5.22Z"/><path class="cls-4" d="M68.33,109.72H18.27l.84-72.87L68.33,19.51Zm-49-1h48V20.92L20.1,37.56ZM29,102.11a3.16,3.16,0,0,1-.52-6.27l26.63-4.52a3.16,3.16,0,0,1,3.64,2.59,3.11,3.11,0,0,1-.54,2.35,3.15,3.15,0,0,1-2.05,1.29h0l-26.63,4.51A3.17,3.17,0,0,1,29,102.11ZM55.6,92.28l-.37,0L28.6,96.82a2.16,2.16,0,0,0,.73,4.26L56,96.56a2.15,2.15,0,0,0,1.39-.88,2.1,2.1,0,0,0,.37-1.61A2.15,2.15,0,0,0,55.6,92.28ZM29,88.47a3.16,3.16,0,0,1-.52-6.27l26.63-4.51a3.15,3.15,0,1,1,1,6.22L29.49,88.43A3.15,3.15,0,0,1,29,88.47ZM55.6,78.64l-.37,0L28.6,83.19a2.16,2.16,0,0,0,.73,4.25L56,82.93a2.15,2.15,0,0,0,1.39-.88,2.1,2.1,0,0,0,.37-1.61A2.16,2.16,0,0,0,55.6,78.64ZM29,74.84a3.16,3.16,0,0,1-.52-6.27l26.63-4.52a3.16,3.16,0,0,1,3.64,2.59,3.17,3.17,0,0,1-2.59,3.64h0L29.49,74.79A3.17,3.17,0,0,1,29,74.84ZM55.59,65a2.28,2.28,0,0,0-.36,0L28.6,69.55A2.16,2.16,0,0,0,26.84,72a2.14,2.14,0,0,0,2.49,1.76L56,69.29a2.15,2.15,0,0,0,1.39-.88,2.1,2.1,0,0,0,.37-1.61A2.16,2.16,0,0,0,55.59,65ZM29,61.2a3.16,3.16,0,0,1-.52-6.27l26.63-4.51a3.15,3.15,0,1,1,1,6.22h0L29.49,61.15A3.17,3.17,0,0,1,29,61.2Zm26.63-9.83-.36,0L28.6,55.92a2.16,2.16,0,0,0,.73,4.25L56,55.65a2.15,2.15,0,0,0,1.76-2.48A2.16,2.16,0,0,0,55.59,51.37ZM29,47.56a3.15,3.15,0,0,1-.58-6.25l26.63-5a3.15,3.15,0,1,1,1.17,6.2l-26.63,5A2.94,2.94,0,0,1,29,47.56ZM55.6,37.21a1.9,1.9,0,0,0-.41,0l-26.63,5a2.16,2.16,0,0,0,.8,4.24l26.64-5a2.16,2.16,0,0,0-.4-4.28Z"/><path class="cls-5" d="M110.84,114.91H8.59a4,4,0,0,1,0-8H110.84a4,4,0,0,1,0,8Z"/></svg>