<svg id="Layer_1" data-name="Layer 1" xmlns="http://www.w3.org/2000/svg" viewBox="0 0 122.88 122.88"><defs><style>.cls-1{fill:#808285;}.cls-2{fill:#939598;}.cls-3{fill:#d1d3d4;}</style></defs><path class="cls-1" d="M89.89,103.72A16,16,0,0,1,73.83,89.05l5-.45a11.12,11.12,0,0,0,22.2-1V67.75l2.43-.07a7,7,0,0,0,6.9-7.07v-9a20.24,20.24,0,0,0-10.29-17.64l-2.88-1.66L99.58,30a13.88,13.88,0,0,0,4.34-10.11,14,14,0,0,0-28.07,0c0,3.36-2.62,5.67-4.74,7.52-.52.47-1.25,1.11-1.67,1.57l2,1.92-2.85,1.7A27.61,27.61,0,0,0,65.87,36a23,23,0,0,1-2.54,3.23l-3.4-3.67a26.12,26.12,0,0,0,1.86-2.45c1-1.36,1.76-2.45,2.47-3.28a4.86,4.86,0,0,1-.08-.88c0-2.23,1.87-3.83,3.64-5.37,1.35-1.19,3-2.67,3-3.77a19,19,0,0,1,38.07,0,18.82,18.82,0,0,1-3.83,11.43,25.44,25.44,0,0,1,10.25,20.29v9A12,12,0,0,1,106,72.37V87.6A16.14,16.14,0,0,1,89.89,103.72Z"/><path class="cls-1" d="M33,104.62A16.14,16.14,0,0,1,16.87,88.5V73.27A12,12,0,0,1,7.54,61.51v-9A25.46,25.46,0,0,1,17.79,32.17,18.8,18.8,0,0,1,14,20.74a19,19,0,0,1,38.07,0c0,1.36.95,3.22,1.87,5,1.29,2.51,3,5.8,1.71,8.58a12,12,0,0,1,.08,3.73A14.52,14.52,0,0,0,55.6,40a2.5,2.5,0,0,1-3.74,3.28c-1.5-1.39-1.33-3.53-1.16-5.6,0-.48.1-1.19.1-1.67l-2.25-1.3,2.4-2.3c.49-.47-.76-2.9-1.5-4.35C48.31,25.82,47,23.31,47,20.74A14,14,0,1,0,23.3,30.86l2.41,2.3-2.88,1.67A20.21,20.21,0,0,0,12.54,52.46v9a7,7,0,0,0,6.9,7.07l2.43.07V88.5a11.12,11.12,0,0,0,22.2,1,2.5,2.5,0,1,1,5,.45A16,16,0,0,1,33,104.62Zm22.27-65Z"/><path class="cls-2" d="M72.31,47.82a17.55,17.55,0,1,0-24.24,0,24.26,24.26,0,0,0-12.25,21v9.61a10.17,10.17,0,0,0,9.9,10.16V107.1a14.47,14.47,0,0,0,28.94,0V88.61a10.17,10.17,0,0,0,9.9-10.16V68.84A24.26,24.26,0,0,0,72.31,47.82Z"/><polygon class="cls-3" points="64.66 71.88 60.15 75.31 55.72 71.88 55.72 58.62 60.19 50.6 64.66 58.62 64.66 71.88"/></svg>