<svg id="Layer_1" data-name="Layer 1" xmlns="http://www.w3.org/2000/svg" viewBox="0 0 122.88 122.88"><defs><style>.cls-1{fill:#343030;}.cls-2{fill:#58595b;}.cls-3{fill:#939598;}.cls-4{fill:#e6e7e8;}</style></defs><path class="cls-1" d="M114.72,52.45v9.06a12,12,0,0,1-9.33,11.75V88.49A16.13,16.13,0,0,1,74,93.83v-4h-.13V80.32h4v9.2l.28,0a11.12,11.12,0,0,0,22.2-1V68.64l2.43-.07a7,7,0,0,0,6.9-7.06V52.45A20.21,20.21,0,0,0,99.43,34.82l-2.88-1.67L99,30.85a13.9,13.9,0,0,0,4.34-10.11,14,14,0,0,0-28.07,0,7.22,7.22,0,0,1-1.78,4.58,17.67,17.67,0,0,0-3.62-3.5,2.06,2.06,0,0,0,.4-1.08,19,19,0,0,1,38.07,0,18.77,18.77,0,0,1-3.83,11.42A25.47,25.47,0,0,1,114.72,52.45Z"/><polygon class="cls-1" points="74.04 89.87 74.04 91.87 73.91 91.87 73.91 89.88 74.04 89.87"/><path class="cls-2" d="M69.44,28.93l2,1.91-2.85,1.7A27.1,27.1,0,0,0,65.87,36a24.26,24.26,0,0,1-2.54,3.23l-3.4-3.67a25.23,25.23,0,0,0,1.86-2.46c1-1.35,1.76-2.44,2.47-3.28a4.79,4.79,0,0,1-.08-.88c0-2.22,1.87-3.82,3.64-5.37a16.12,16.12,0,0,0,2.63-2.68,17.67,17.67,0,0,1,3.62,3.5,22.8,22.8,0,0,1-3,2.94C70.59,27.82,69.86,28.46,69.44,28.93Z"/><path class="cls-2" d="M74.66,89v4A16,16,0,0,1,73.83,89l.7-.06Z"/><path class="cls-1" d="M33,104.62A16.14,16.14,0,0,1,16.87,88.5V73.27A12,12,0,0,1,7.54,61.51v-9A25.46,25.46,0,0,1,17.79,32.17,18.8,18.8,0,0,1,14,20.74a19,19,0,0,1,38.07,0c0,1.36.95,3.22,1.87,5,1.29,2.51,3,5.8,1.71,8.58a12,12,0,0,1,.08,3.73A14.52,14.52,0,0,0,55.6,40a2.5,2.5,0,0,1-3.74,3.28c-1.5-1.39-1.33-3.53-1.16-5.6,0-.48.1-1.19.1-1.67l-2.25-1.3,2.4-2.3c.49-.47-.76-2.9-1.5-4.35C48.31,25.82,47,23.31,47,20.74A14,14,0,1,0,23.3,30.86l2.41,2.3-2.88,1.67A20.21,20.21,0,0,0,12.54,52.46v9a7,7,0,0,0,6.9,7.07l2.43.07V88.5a11.12,11.12,0,0,0,22.2,1,2.5,2.5,0,1,1,5,.45A16,16,0,0,1,33,104.62Zm22.27-65Z"/><polygon class="cls-3" points="64.66 71.88 60.15 75.31 55.72 71.88 55.72 58.62 60.19 50.6 64.66 58.62 64.66 71.88"/><path class="cls-1" d="M72.68,47.81a17.49,17.49,0,0,0,1.76-23.39,17.67,17.67,0,0,0-3.62-3.5,17.55,17.55,0,0,0-18.45-1.28,17.23,17.23,0,0,0-4.62,3.54,17.48,17.48,0,0,0,.69,24.63,24.27,24.27,0,0,0-12.25,21v9.62a10.17,10.17,0,0,0,8.57,10,9.67,9.67,0,0,0,1.33.12v18.5a14.47,14.47,0,0,0,28.94,0V89a13.39,13.39,0,0,0,3.87-1.48v.24a10.17,10.17,0,0,0,6-9.28V68.83A24.27,24.27,0,0,0,72.68,47.81Z"/><polygon class="cls-4" points="65.03 72.66 60.52 76.08 56.09 72.66 56.09 59.4 60.56 51.37 65.03 59.4 65.03 72.66"/></svg>