<svg id="Layer_1" data-name="Layer 1" xmlns="http://www.w3.org/2000/svg" xmlns:xlink="http://www.w3.org/1999/xlink" viewBox="0 0 122.88 122.88"><defs><style>.cls-1{fill:url(#linear-gradient);}.cls-2{fill:url(#linear-gradient-2);}.cls-3{fill:url(#linear-gradient-3);}.cls-4{fill:#27aae1;}</style><linearGradient id="linear-gradient" x1="59.93" y1="52.52" x2="115.34" y2="52.52" gradientUnits="userSpaceOnUse"><stop offset="0" stop-color="#3f89c1"/><stop offset="1" stop-color="#4bbfaa"/></linearGradient><linearGradient id="linear-gradient-2" x1="7.54" y1="53.42" x2="56.06" y2="53.42" xlink:href="#linear-gradient"/><linearGradient id="linear-gradient-3" x1="35.82" y1="69.84" x2="84.56" y2="69.84" xlink:href="#linear-gradient"/></defs><path class="cls-1" d="M89.89,104A16,16,0,0,1,73.83,89.3l5-.45a11.12,11.12,0,0,0,22.2-1V68l2.43-.07a7,7,0,0,0,6.9-7.07v-9a20.24,20.24,0,0,0-10.29-17.64l-2.88-1.66,2.41-2.31a13.88,13.88,0,0,0,4.34-10.11,14,14,0,0,0-28.07,0c0,3.36-2.62,5.67-4.74,7.52-.52.47-1.25,1.11-1.67,1.57l2,1.91L68.59,32.8a27.61,27.61,0,0,0-2.72,3.48,23,23,0,0,1-2.54,3.23l-3.4-3.67a28,28,0,0,0,1.86-2.45c1-1.36,1.76-2.45,2.47-3.28a4.86,4.86,0,0,1-.08-.88c0-2.23,1.87-3.83,3.64-5.37,1.35-1.19,3-2.67,3-3.77a19,19,0,0,1,38.07,0,18.82,18.82,0,0,1-3.83,11.43,25.44,25.44,0,0,1,10.25,20.29v9A12,12,0,0,1,106,72.62V87.85A16.14,16.14,0,0,1,89.89,104Z"/><path class="cls-2" d="M33,104.87A16.14,16.14,0,0,1,16.87,88.75V73.52A12,12,0,0,1,7.54,61.76v-9A25.46,25.46,0,0,1,17.79,32.42,18.8,18.8,0,0,1,14,21,19,19,0,0,1,52,21c0,1.36.95,3.22,1.87,5,1.29,2.51,3,5.8,1.71,8.58a12,12,0,0,1,.08,3.73,14.52,14.52,0,0,0-.09,1.91,2.5,2.5,0,0,1-3.74,3.28c-1.5-1.39-1.33-3.53-1.16-5.6,0-.48.1-1.19.1-1.67l-2.25-1.3,2.4-2.3c.49-.47-.76-2.9-1.5-4.35C48.31,26.07,47,23.56,47,21A14,14,0,1,0,23.3,31.11l2.41,2.3-2.88,1.66A20.24,20.24,0,0,0,12.54,52.71v9a7,7,0,0,0,6.9,7.07l2.43.07V88.75a11.12,11.12,0,0,0,22.2,1,2.5,2.5,0,1,1,5,.45A16,16,0,0,1,33,104.87Zm22.27-65Z"/><path class="cls-3" d="M72.31,48.07a17.55,17.55,0,1,0-24.24,0,24.26,24.26,0,0,0-12.25,21V78.7a10.17,10.17,0,0,0,9.9,10.16v18.49a14.47,14.47,0,0,0,28.94,0V88.86a10.17,10.17,0,0,0,9.9-10.16V69.09A24.26,24.26,0,0,0,72.31,48.07Z"/><polygon class="cls-4" points="64.66 69.18 60.15 72.13 55.72 69.18 55.72 57.76 60.19 50.85 64.66 57.76 64.66 69.18"/></svg>