<svg id="Layer_1" data-name="Layer 1"
    xmlns="http://www.w3.org/2000/svg" viewBox="0 0 122.88 122.88">
    <defs>
        <style>.cls-1{fill:#23b7e5;}</style>
    </defs>
    <path class="cls-1" d="M33,104.87A16.14,16.14,0,0,1,16.87,88.75V73.52A12,12,0,0,1,7.54,61.76v-9A25.46,25.46,0,0,1,17.79,32.42,18.8,18.8,0,0,1,14,21,19,19,0,0,1,52,21c0,1.36.95,3.22,1.87,5,1.29,2.51,3,5.8,1.71,8.58a12,12,0,0,1,.08,3.73,14.52,14.52,0,0,0-.09,1.91,2.5,2.5,0,0,1-3.74,3.28c-1.5-1.39-1.33-3.53-1.16-5.6,0-.48.1-1.19.1-1.67l-2.25-1.3,2.4-2.3c.49-.47-.76-2.9-1.5-4.35C48.31,26.07,47,23.56,47,21A14,14,0,1,0,23.3,31.11l2.41,2.3-2.88,1.66A20.24,20.24,0,0,0,12.54,52.71v9a7,7,0,0,0,6.9,7.07l2.43.07V88.75a11.12,11.12,0,0,0,22.2,1,2.5,2.5,0,1,1,5,.45A16,16,0,0,1,33,104.87Zm22.27-65Z"/>
    <path class="cls-1" d="M115.34,51.81v9.06A12,12,0,0,1,106,72.62V87.85a16.13,16.13,0,0,1-32.18,1.56h-.35V76.81h6l-.62,12.6A11.13,11.13,0,0,0,101,87.85V68l2.43-.07a7,7,0,0,0,6.89-7.06V51.81a20.2,20.2,0,0,0-10.28-17.63l-2.88-1.67,2.4-2.3a13.91,13.91,0,0,0,4.35-10.11,14,14,0,0,0-28.07,0c0,3.36-2.63,5.66-4.74,7.52a19.57,19.57,0,0,0-1.67,1.57l2,1.91L68.6,32.8a28,28,0,0,0-2.73,3.49,22.69,22.69,0,0,1-2.54,3.23l-3.39-3.67a29,29,0,0,0,1.86-2.46c1-1.35,1.75-2.44,2.47-3.28a3.51,3.51,0,0,1-.08-.88c0-2.22,1.87-3.82,3.63-5.37,1.35-1.19,3-2.67,3-3.76a19,19,0,0,1,38.07,0,18.78,18.78,0,0,1-3.84,11.42A25.44,25.44,0,0,1,115.34,51.81Z"/>
    <path class="cls-1" d="M72.06,47.46a17.56,17.56,0,1,0-24.25,0,24.28,24.28,0,0,0-12.24,21V78.1a10.16,10.16,0,0,0,9.9,10.15v18.5a14.47,14.47,0,1,0,28.93,0V88.25A10.16,10.16,0,0,0,84.3,78.1V68.48A24.28,24.28,0,0,0,72.06,47.46Z"/>
    <polygon class="cls-1" points="64.66 69.18 60.15 72.13 55.72 69.18 55.72 57.76 60.19 50.85 64.66 57.76 64.66 69.18"/>
</svg>