<svg id="Layer_1" data-name="Layer 1" xmlns="http://www.w3.org/2000/svg" viewBox="0 0 122.88 122.88"><defs><style>.cls-1{fill:#27b7e4;}</style></defs><path class="cls-1" d="M114.46,120.54H8.42a4.05,4.05,0,0,1-4-4.05V6.41a4,4,0,0,1,4-4h106a4,4,0,0,1,4,4V116.49A4.05,4.05,0,0,1,114.46,120.54Zm-103.08-7H111.5V9.37H11.38Z"/><rect class="cls-1" x="7.88" y="24.77" width="104.74" height="6"/><path class="cls-1" d="M90,64.17H87a27.87,27.87,0,0,0-2.43-5.85l2.15-2.15a7.63,7.63,0,0,0-10.8-10.79l-2.14,2.15a27.22,27.22,0,0,0-5.86-2.43v-3a7.63,7.63,0,1,0-15.26,0v3a27.22,27.22,0,0,0-5.86,2.43l-2.14-2.15a7.63,7.63,0,0,0-10.8,10.79L36,58.32a27.87,27.87,0,0,0-2.43,5.85h-3a7.64,7.64,0,0,0,0,15.27h3A27.87,27.87,0,0,0,36,85.29l-2.15,2.15a7.63,7.63,0,1,0,10.8,10.79l2.14-2.14a27.7,27.7,0,0,0,5.86,2.42v3a7.63,7.63,0,1,0,15.26,0v-3a27.7,27.7,0,0,0,5.86-2.42l2.14,2.14a7.63,7.63,0,1,0,10.8-10.79l-2.15-2.15A27.87,27.87,0,0,0,87,79.44h3a7.64,7.64,0,0,0,0-15.27ZM60.25,94.79a23,23,0,1,1,23-23A23,23,0,0,1,60.25,94.79Z"/><path class="cls-1" d="M60.25,93.08A21.28,21.28,0,1,1,81.52,71.81,21.29,21.29,0,0,1,60.25,93.08Zm0-37.55A16.28,16.28,0,1,0,76.52,71.81,16.29,16.29,0,0,0,60.25,55.53Z"/><circle class="cls-1" cx="60.25" cy="71.81" r="13.34"/></svg>