<svg id="Layer_1" data-name="Layer 1" xmlns="http://www.w3.org/2000/svg" viewBox="0 0 122.88 122.88"><defs><style>.cls-1{fill:#343030;}</style></defs><path class="cls-1" d="M114.46,120.52H8.42a4,4,0,0,1-4-4V6.4a4,4,0,0,1,4-4h106a4,4,0,0,1,4,4V116.48A4,4,0,0,1,114.46,120.52Zm-103.08-7H111.5V9.36H11.38Z"/><rect class="cls-1" x="7.88" y="24.76" width="104.74" height="6"/><path class="cls-1" d="M90,64.16H87a27.87,27.87,0,0,0-2.43-5.85l2.15-2.15a7.63,7.63,0,0,0-10.8-10.79l-2.14,2.14a27.7,27.7,0,0,0-5.86-2.42v-3a7.63,7.63,0,1,0-15.26,0v3a27.7,27.7,0,0,0-5.86,2.42l-2.14-2.14a7.63,7.63,0,0,0-10.8,10.79L36,58.31a27.87,27.87,0,0,0-2.43,5.85h-3a7.64,7.64,0,0,0,0,15.27h3A27.87,27.87,0,0,0,36,85.28l-2.15,2.15a7.63,7.63,0,0,0,10.8,10.79l2.14-2.14a27.7,27.7,0,0,0,5.86,2.42v3a7.63,7.63,0,1,0,15.26,0v-3a27.7,27.7,0,0,0,5.86-2.42l2.14,2.14a7.63,7.63,0,1,0,10.8-10.79l-2.15-2.15A27.87,27.87,0,0,0,87,79.43h3a7.64,7.64,0,0,0,0-15.27ZM60.25,94.78a23,23,0,1,1,23-23A23,23,0,0,1,60.25,94.78Z"/><path class="cls-1" d="M60.25,93.07A21.28,21.28,0,1,1,81.52,71.79,21.29,21.29,0,0,1,60.25,93.07Zm0-37.55A16.28,16.28,0,1,0,76.52,71.79,16.29,16.29,0,0,0,60.25,55.52Z"/><circle class="cls-1" cx="60.25" cy="71.79" r="13.34"/></svg>