<svg id="Layer_1" data-name="Layer 1" xmlns="http://www.w3.org/2000/svg" viewBox="0 0 122.88 122.88"><defs><style>.cls-1,.cls-2{fill:#a7a9ac;}.cls-2{stroke:#a7a9ac;stroke-miterlimit:10;}</style></defs><path class="cls-1" d="M66.52,114.5H18.68a14,14,0,0,1-14-14V21.55a14,14,0,0,1,14-14H66.52a14,14,0,0,1,14,14V53.09a3,3,0,0,1-6,0V21.55a8,8,0,0,0-8-8H18.68a8,8,0,0,0-8,8v78.92a8,8,0,0,0,8,8H66.52a3,3,0,0,1,0,6Z"/><path class="cls-1" d="M37,48.17H16.68A3.65,3.65,0,0,1,13,44.52V24.22a3.65,3.65,0,0,1,3.64-3.65H37a3.66,3.66,0,0,1,3.65,3.65v20.3A3.66,3.66,0,0,1,37,48.17ZM19,42.17H34.63V26.57H19Z"/><path class="cls-1" d="M66.37,30.61H44.93a3,3,0,1,1,0-6H66.37a3,3,0,0,1,0,6Z"/><path class="cls-1" d="M66.37,41.18H44.93a3,3,0,0,1,0-6H66.37a3,3,0,0,1,0,6Z"/><path class="cls-2" d="M106.07,50.7H42.15A10.53,10.53,0,0,0,31.88,61.46v42.35a10.53,10.53,0,0,0,10.27,10.76h63.92a10.53,10.53,0,0,0,10.27-10.76V61.46A10.53,10.53,0,0,0,106.07,50.7ZM41.82,81.22V75H66.33v6.19ZM84.87,97.53H59.37V91.35h25.5Z"/></svg>