<svg id="Layer_1" data-name="Layer 1" xmlns="http://www.w3.org/2000/svg" viewBox="0 0 122.88 122.88"><defs><style>.cls-1{fill:#343030;}</style></defs><path class="cls-1" d="M106.68,91H79.78V86h26.9A9.29,9.29,0,0,0,116,76.69V70.57a25.66,25.66,0,0,0-15-23.22L97.62,45.8l2.7-2.55a19,19,0,0,0,2.17-2.3,19.21,19.21,0,1,0-27.74,2.83l2.81,2.42-3.3,1.69A26.78,26.78,0,0,0,70.79,50l-3-4c.4-.3.8-.58,1.22-.85A24.17,24.17,0,1,1,106.46,44c-.11.14-.22.29-.34.43A30.64,30.64,0,0,1,121,70.57v6.12A14.29,14.29,0,0,1,106.68,91Z"/><path class="cls-1" d="M37.85,88.57H14.72A12.8,12.8,0,0,1,1.92,75.8V68.21A30.3,30.3,0,0,1,15.68,42.85a24.14,24.14,0,1,1,42.17-19,23.92,23.92,0,0,1-4.18,17.06c.23,2.84.87,11.63.81,20.53C54.34,82.14,50.67,86,47.49,87L46,82.2s3.37-1.3,3.5-20.81c.07-10.54-.86-20.89-.86-21l-.09-1,.59-.77a19.14,19.14,0,0,0-3.6-26.85A19.13,19.13,0,0,0,21.38,41.47l2.82,2.42-3.31,1.7a25.39,25.39,0,0,0-14,22.62V75.8a7.8,7.8,0,0,0,7.8,7.77H37.85Z"/><path class="cls-1" d="M75.58,74.12a21.68,21.68,0,1,0-28.91.59,28,28,0,0,0-15.33,24.9v7.61a10.29,10.29,0,0,0,10.29,10.29H80.22A11.77,11.77,0,0,0,92,105.73V99.61A28,28,0,0,0,75.58,74.12Z"/></svg>