<svg id="Layer_1" data-name="Layer 1" xmlns="http://www.w3.org/2000/svg" xmlns:xlink="http://www.w3.org/1999/xlink" viewBox="0 0 122.88 122.88"><defs><style>.cls-1{fill:url(#linear-gradient);}.cls-2{fill:url(#linear-gradient-2);}.cls-3{fill:url(#linear-gradient-3);}</style><linearGradient id="linear-gradient" x1="63.07" y1="49.27" x2="120.96" y2="49.27" gradientUnits="userSpaceOnUse"><stop offset="0" stop-color="#3f89c1"/><stop offset="1" stop-color="#4bbfaa"/></linearGradient><linearGradient id="linear-gradient-2" x1="1.92" y1="46.97" x2="58.07" y2="46.97" xlink:href="#linear-gradient"/><linearGradient id="linear-gradient-3" x1="31.34" y1="78.31" x2="92" y2="78.31" xlink:href="#linear-gradient"/></defs><path class="cls-1" d="M106.68,92.22H79.78v-5h26.9A9.3,9.3,0,0,0,116,77.94V71.82a25.68,25.68,0,0,0-15-23.23L97.62,47l2.7-2.54a19.71,19.71,0,0,0,2.17-2.3A19.21,19.21,0,1,0,74.75,45l2.81,2.42-3.3,1.7a25.67,25.67,0,0,0-3.47,2.14l-3-4c.4-.29.8-.58,1.22-.85a24.17,24.17,0,1,1,37.4-1.17c-.11.15-.22.29-.34.43A30.67,30.67,0,0,1,121,71.82v6.12A14.3,14.3,0,0,1,106.68,92.22Z"/><path class="cls-2" d="M37.85,89.81H14.72A12.8,12.8,0,0,1,1.92,77V69.45A30.3,30.3,0,0,1,15.68,44.09a24.14,24.14,0,1,1,42.17-19,23.94,23.94,0,0,1-4.18,17.07c.23,2.84.87,11.62.81,20.52-.14,20.72-3.81,24.54-7,25.55L46,83.45s3.37-1.3,3.5-20.82c.07-10.53-.85-20.89-.86-21l-.09-1,.59-.78a19.13,19.13,0,0,0-3.6-26.84A19.13,19.13,0,0,0,21.38,42.71l2.82,2.43-3.31,1.69a25.41,25.41,0,0,0-14,22.62V77a7.79,7.79,0,0,0,7.8,7.77H37.85Z"/><path class="cls-3" d="M75.58,75.36A21.68,21.68,0,1,0,46.67,76a28,28,0,0,0-15.33,24.9v7.61a10.3,10.3,0,0,0,10.29,10.3H80.22A11.78,11.78,0,0,0,92,107v-6.13A28,28,0,0,0,75.58,75.36Z"/></svg>