<svg width="24" height="24" viewBox="0 0 24 24" fill="none" xmlns="http://www.w3.org/2000/svg">
<g clip-path="url(#clip0_1107_69)">
<path d="M17.1647 10.5247H15.4534V19.0267H14.5015V12.7501H12.7912V19.0267H11.6979V14.2105H9.98653V19.0267H8.89316V16.9999H7.18182V19.0267H6.56494V19.5717H17.7816V19.0267H17.1647V10.5247Z" fill="#797979"/>
<path d="M18.1791 8.47574L15.9266 7.97432L13.8318 11.9788L13.0391 11.559C13.0353 11.4736 13.0125 11.3902 12.9722 11.3152C12.932 11.2402 12.8755 11.1755 12.807 11.1262C12.7384 11.0768 12.6597 11.0441 12.5769 11.0305C12.4941 11.0169 12.4092 11.0228 12.329 11.0476C12.2487 11.0725 12.1751 11.1158 12.1137 11.1741C12.0524 11.2324 12.0049 11.3043 11.975 11.3841C11.9451 11.464 11.9335 11.5497 11.9411 11.6348C11.9488 11.72 11.9754 11.8022 12.019 11.8752L11.0693 13.5888L9.47026 13.3945L7.60272 16.5732C7.58751 16.5989 7.57743 16.6274 7.57308 16.6571C7.56872 16.6868 7.57017 16.7171 7.57733 16.7463C7.5845 16.7754 7.59725 16.8028 7.61485 16.8269C7.63244 16.851 7.65454 16.8713 7.67987 16.8867C7.71443 16.9078 7.75402 16.919 7.79436 16.9189C7.83309 16.9189 7.87117 16.9087 7.90486 16.8892C7.93855 16.8697 7.9667 16.8417 7.98653 16.8078L9.70633 13.8812L11.3146 14.0775L12.3865 12.139C12.4206 12.1457 12.4553 12.1493 12.4901 12.1495C12.6351 12.1497 12.7744 12.0914 12.8774 11.9874L14.0182 12.5915L16.1622 8.49296L18.0834 8.92108C18.1129 8.92988 18.1438 8.93242 18.1742 8.92853C18.2047 8.92464 18.234 8.91441 18.2604 8.89848C18.2869 8.88254 18.3098 8.86125 18.3278 8.83591C18.3457 8.81057 18.3584 8.78174 18.365 8.7512C18.3716 8.72066 18.3719 8.68907 18.366 8.65839C18.3601 8.62771 18.348 8.5986 18.3306 8.57287C18.3131 8.54714 18.2907 8.52533 18.2646 8.50882C18.2386 8.4923 18.2094 8.48142 18.1791 8.47685V8.47574Z" fill="#797979"/>
<path d="M16.0439 5.31755H7.57111V6.30929H16.0439V5.31755Z" fill="#797979"/>
<path d="M12.0506 7.15221H7.57111V8.14395H12.0506V7.15221Z" fill="#797979"/>
<path d="M18 2H7.00002C6.46958 2 5.96087 2.21462 5.58579 2.59664C5.21072 2.97867 5 3.4968 5 4.03707V19.9629C5 20.5032 5.21072 21.0213 5.58579 21.4034C5.96087 21.7854 6.46958 22 7.00002 22H18C18.5304 22 19.0391 21.7854 19.4142 21.4034C19.7893 21.0213 20 20.5032 20 19.9629V4.03707C20 3.4968 19.7893 2.97867 19.4142 2.59664C19.0391 2.21462 18.5304 2 18 2ZM11.0775 2.58305H13.9013C13.9437 2.58178 13.9859 2.58919 14.0254 2.60484C14.0649 2.6205 14.101 2.64407 14.1314 2.67416C14.1619 2.70426 14.186 2.74027 14.2026 2.78006C14.2191 2.81985 14.2276 2.86261 14.2276 2.90581C14.2276 2.94901 14.2191 2.99177 14.2026 3.03156C14.186 3.07135 14.1619 3.10736 14.1314 3.13746C14.101 3.16755 14.0649 3.19112 14.0254 3.20677C13.9859 3.22242 13.9437 3.22984 13.9013 3.22857H11.0777C10.9953 3.22611 10.9171 3.19102 10.8596 3.13076C10.8021 3.0705 10.77 2.98981 10.77 2.90581C10.77 2.82181 10.8021 2.74112 10.8596 2.68086C10.9171 2.6206 10.995 2.58551 11.0775 2.58305ZM12.4598 21.6738C12.3088 21.6738 12.1613 21.6282 12.0357 21.5428C11.9102 21.4573 11.8124 21.3359 11.7546 21.1939C11.6969 21.0518 11.6817 20.8955 11.7112 20.7447C11.7406 20.5939 11.8133 20.4554 11.9201 20.3467C12.0268 20.2379 12.1628 20.1639 12.3109 20.1339C12.4589 20.1039 12.6124 20.1193 12.7519 20.1781C12.8913 20.237 13.0106 20.3366 13.0944 20.4645C13.1783 20.5923 13.2231 20.7426 13.2231 20.8964C13.2231 20.9985 13.2034 21.0996 13.1651 21.1939C13.1267 21.2882 13.0705 21.3739 12.9997 21.4462C12.9288 21.5184 12.8447 21.5757 12.7521 21.6148C12.6595 21.6539 12.5603 21.674 12.4601 21.674L12.4598 21.6738ZM18.5585 19.3538C18.5585 19.5458 18.4836 19.73 18.3503 19.8658C18.217 20.0016 18.0361 20.0779 17.8476 20.0779H7.1524C6.96385 20.0779 6.78302 20.0016 6.6497 19.8658C6.51638 19.73 6.44147 19.5458 6.44147 19.3538V4.64594C6.4414 4.5508 6.45974 4.45658 6.49543 4.36867C6.53113 4.28075 6.58348 4.20086 6.64951 4.13357C6.71553 4.06627 6.79392 4.01288 6.88021 3.97646C6.9665 3.94004 7.05899 3.92129 7.1524 3.92129H17.8476C18.0361 3.92136 18.2169 3.99767 18.3502 4.13345C18.4835 4.26923 18.5585 4.45336 18.5585 4.64538V19.3538Z" fill="#797979"/>
</g>
<defs>
<clipPath id="clip0_1107_69">
<rect width="15" height="20" fill="white" transform="translate(5 2)"/>
</clipPath>
</defs>
</svg>
