<svg xmlns="http://www.w3.org/2000/svg" width="55.027" height="72.035" viewBox="0 0 55.027 72.035">
  <g id="Group_441" data-name="Group 441" transform="translate(-12.046 -6.28)">
    <g id="Group_440" data-name="Group 440" transform="translate(17.787 27.796)">
      <path id="Path_63199" data-name="Path 63199" d="M62.57,68.525H56.292V99.147H52.8V76.54H46.526V99.147H42.515V81.8H36.237V99.147H32.226v-7.3H25.948v7.3H23.685v1.963H64.833V99.147H62.57Z" transform="translate(-23.685 -59.337)" fill="#ffb628"/>
      <path id="Path_63200" data-name="Path 63200" d="M70.082,51.706,61.819,49.9,54.134,64.323l-2.908-1.512a2.019,2.019,0,1,0-3.742,1.139L44,70.122l-5.866-.7L31.283,80.871A.821.821,0,0,0,31.566,82a.811.811,0,0,0,.42.116.82.82,0,0,0,.705-.4L39,71.175l5.9.707L48.832,64.9a2.053,2.053,0,0,0,.38.038,2.016,2.016,0,0,0,1.421-.584l4.185,2.176,7.865-14.762,7.048,1.542a.821.821,0,1,0,.351-1.6Z" transform="translate(-27.476 -49.898)" fill="#ffb628"/>
    </g>
    <rect id="Rectangle_209" data-name="Rectangle 209" width="31.082" height="3.572" transform="translate(21.478 18.229)" fill="#ffb628"/>
    <rect id="Rectangle_210" data-name="Rectangle 210" width="16.433" height="3.572" transform="translate(21.478 24.837)" fill="#ffb628"/>
    <path id="Path_63201" data-name="Path 63201" d="M59.736,6.28H19.383a7.337,7.337,0,0,0-7.337,7.337V70.978a7.337,7.337,0,0,0,7.337,7.337H59.736a7.337,7.337,0,0,0,7.337-7.337V13.617A7.337,7.337,0,0,0,59.736,6.28Zm-25.395,2.1H44.7a1.163,1.163,0,1,1,0,2.325H34.342a1.163,1.163,0,0,1,0-2.325Zm5.071,68.76a2.8,2.8,0,1,1,2.8-2.8A2.8,2.8,0,0,1,39.413,77.141Zm22.373-8.356a2.608,2.608,0,0,1-2.608,2.608H19.942a2.608,2.608,0,0,1-2.608-2.608V15.81A2.608,2.608,0,0,1,19.942,13.2H59.177a2.609,2.609,0,0,1,2.608,2.608Z" transform="translate(0 0)" fill="#ffb628"/>
  </g>
</svg>
