<svg xmlns="http://www.w3.org/2000/svg" width="30" height="20" viewBox="0 0 51.081 33.578">
  <g id="Group_616" data-name="Group 616" transform="translate(0 -2.886)">
    <path id="Path_73633" data-name="Path 73633" d="M-152.026,21.639A15.753,15.753,0,0,0-167.39,5.912c-.067,0-.133-.01-.2-.01l-.061,0-.113,0A15.755,15.755,0,0,0-183.5,21.639a15.755,15.755,0,0,0,15.737,15.737l.113,0,.061,0c.067,0,.134-.006.2-.009A15.753,15.753,0,0,0-152.026,21.639ZM-181.369,20.6a13.574,13.574,0,0,1,2.749-7.216,7.362,7.362,0,0,0,3.388,2.694,29.39,29.39,0,0,0-.488,4.522Zm21.907,0a29.282,29.282,0,0,0-.517-4.668,7.105,7.105,0,0,0,3.071-2.549,13.572,13.572,0,0,1,2.749,7.216Zm-7.258,7.954a16.444,16.444,0,0,1,4.125.73c-.986,3.178-2.537,5.276-4.125,5.849Zm0-2.093V22.684h5.169a27.269,27.269,0,0,1-.518,4.543A18.735,18.735,0,0,0-166.719,26.457Zm0-5.861V17.45a19.659,19.659,0,0,0,4.771-.769,27.828,27.828,0,0,1,.4,3.913Zm-2.088-5.235a17.681,17.681,0,0,1-3.99-.634c.9-3.342,2.407-5.631,3.99-6.425Zm2.088-7.21c1.691.61,3.34,2.949,4.31,6.48a17.359,17.359,0,0,1-4.31.73Zm6.234,5.679A16.581,16.581,0,0,0-162.7,8.967a13.674,13.674,0,0,1,4.251,2.707A3.614,3.614,0,0,1-160.486,13.83Zm-14.256.156c-1.35-.67-2.184-1.5-2.335-2.312a13.668,13.668,0,0,1,4.732-2.891A16.42,16.42,0,0,0-174.741,13.986Zm1.493,2.792a19.989,19.989,0,0,0,4.441.672V20.6h-4.823A27.878,27.878,0,0,1-173.248,16.778Zm4.441,5.905v3.773a19.054,19.054,0,0,0-4.324.673,27.37,27.37,0,0,1-.5-4.446Zm0,5.866v6.428c-1.481-.743-2.9-2.8-3.809-5.8A16.73,16.73,0,0,1-168.808,28.549Zm-3.536,5.946a13.65,13.65,0,0,1-4.293-2.5,3.679,3.679,0,0,1,2.089-2.057A15.807,15.807,0,0,0-172.344,34.5Zm11.658-4.4a3.4,3.4,0,0,1,1.8,1.9,13.659,13.659,0,0,1-3.812,2.314A15.957,15.957,0,0,0-160.686,30.1Zm.569-2.094a28.785,28.785,0,0,0,.654-5.322h5.3a13.585,13.585,0,0,1-3.15,7.718A6.7,6.7,0,0,0-160.116,28.005Zm-21.253-5.322h5.649a28.933,28.933,0,0,0,.619,5.171,6.954,6.954,0,0,0-3.119,2.547A13.586,13.586,0,0,1-181.369,22.684Z" transform="translate(203.107 -0.913)"/>
    <path id="Path_73635" data-name="Path 73635" d="M-47.892,177.787c-.6-6.6-.712-7.158-2.177-9.108a9.965,9.965,0,0,0-8.194-4.21,10.066,10.066,0,0,0-7.032,2.6c-3.277,2.889-3.757,6.706-3.451,10.811-2.134.47-2.534.948-2.54,2.965q-.021,7.147,0,14.293c.006,2.348.55,2.9,2.844,2.9q9.973.01,19.947,0c2.493,0,2.986-.509,2.99-3.07q.01-6.91,0-13.822C-45.508,178.883-45.754,178.548-47.892,177.787Zm-9.266,12.258v6.077h-2.2v-6.077a3.429,3.429,0,0,1-2.331-3.247,3.431,3.431,0,0,1,3.43-3.43,3.431,3.431,0,0,1,3.43,3.43A3.429,3.429,0,0,1-57.158,190.045Zm4.655-12.072H-64.3c-.8-3.459.109-6.469,2.411-8.1a6.127,6.127,0,0,1,6.654-.215C-52.746,171.193-51.846,173.874-52.5,177.973Z" transform="translate(71.296 -161.582)"/>
  </g>
</svg>
