<svg xmlns="http://www.w3.org/2000/svg" width="13.458" height="13.254" viewBox="0 0 13.458 13.254">
  <g id="Group_456" data-name="Group 456" transform="translate(52.186 -61.915)">
    <path id="Path_63223" data-name="Path 63223" d="M13.433,64.284a3.149,3.149,0,0,0-2.923,4.28.234.234,0,0,1-.068.308c-.283.257-.538.547-.837.782a4.831,4.831,0,0,1-.794.469.294.294,0,0,1-.449-.158c-.156-.377-.3-.762-.424-1.15a.3.3,0,0,1,.231-.4,1.164,1.164,0,0,0,.826-1.062,1.186,1.186,0,0,0-.63-1.214c-.36-.217-.4-.294-.244-.678.128-.309.276-.612.433-.908.113-.214.251-.246.472-.151a1.255,1.255,0,0,0,1.717-1.593c-.078-.224-.031-.37.187-.46.359-.149.724-.285,1.093-.405.236-.077.356,0,.457.234A1.248,1.248,0,0,0,13.62,63a1.208,1.208,0,0,0,1.179-.73c.117-.23.24-.3.47-.2q.53.218,1.042.477c.222.112.256.255.156.487a1.2,1.2,0,0,0,.205,1.386,1.24,1.24,0,0,0,1.386.325c.24-.078.376-.036.472.2.143.346.274.7.39,1.056.083.255.014.369-.233.471a1.24,1.24,0,0,0-.574,1.912,1.515,1.515,0,0,0,.454.383c.258.16.331.284.219.56-.129.316-.272.628-.427.932-.147.289-.248.316-.552.2a1.232,1.232,0,0,0-1.716.831,1.964,1.964,0,0,0,.044.768c.048.246.031.378-.2.474-.352.147-.711.28-1.074.4-.249.08-.361,0-.469-.241a1.247,1.247,0,0,0-1.149-.815,1.206,1.206,0,0,0-1.163.723c-.123.239-.245.305-.484.207-.347-.143-.689-.3-1.023-.469-.246-.126-.3-.314-.131-.531a10.627,10.627,0,0,1,.776-.869c.211-.216.452-.4.67-.611a.186.186,0,0,1,.245-.031,3.139,3.139,0,1,0,1.9-5.935C13.835,64.316,13.633,64.306,13.433,64.284Z" transform="translate(-57.68 0)" fill="#ffa200"/>
    <path id="Path_63224" data-name="Path 63224" d="M-49.341,150.166l.571.616c.064-.057.114-.1.16-.143q1.554-1.549,3.1-3.1a.485.485,0,0,0,.12-.295c.015-.308,0-.618.01-.927a.231.231,0,0,1,.088-.174c.789-.4,1.582-.8,2.4-1.207.174.183.353.364.52.555a.192.192,0,0,1,.025.171q-.564,1.148-1.145,2.287a.255.255,0,0,1-.192.093c-.322.01-.644,0-.966.007a.309.309,0,0,0-.2.065q-1.616,1.6-3.224,3.214c-.019.019-.035.04-.074.083l.637.591-1.215,1.213c-.4.4-.806.809-1.212,1.211a1.306,1.306,0,0,1-1.876.037,1.3,1.3,0,0,1,.033-1.876q1.151-1.158,2.308-2.309C-49.432,150.249-49.4,150.223-49.341,150.166Zm-.693,2.939a.446.446,0,0,0,.453-.441.454.454,0,0,0-.45-.448.447.447,0,0,0-.439.436A.436.436,0,0,0-50.035,153.105Z" transform="translate(0 -79.672)" fill="#ffa200"/>
  </g>
</svg>
