<svg width="24" height="24" viewBox="0 0 24 24" fill="none" xmlns="http://www.w3.org/2000/svg">
<g clip-path="url(#clip0_1107_3)">
<path d="M9.72802 12.6764H3.65853C3.21975 12.6764 2.79894 12.8496 2.48867 13.1579C2.1784 13.4662 2.00409 13.8844 2.00409 14.3205V20.3559C2.00409 20.792 2.1784 21.2101 2.48867 21.5185C2.79894 21.8268 3.21975 22 3.65853 22H9.7321C10.1709 22 10.5917 21.8268 10.902 21.5185C11.2122 21.2101 11.3865 20.792 11.3865 20.3559V14.3205C11.3865 14.1042 11.3436 13.8901 11.2602 13.6904C11.1768 13.4906 11.0546 13.3092 10.9005 13.1565C10.7465 13.0038 10.5636 12.8828 10.3624 12.8004C10.1612 12.718 9.94563 12.6758 9.72802 12.6764ZM9.53122 19.1043C9.53122 19.2428 9.50377 19.38 9.45043 19.5079C9.39709 19.6359 9.31892 19.7522 9.22037 19.8501C9.12181 19.9481 9.00482 20.0257 8.87605 20.0787C8.74728 20.1317 8.60925 20.159 8.46988 20.159H4.91397C4.77459 20.159 4.63658 20.1317 4.50781 20.0787C4.37904 20.0257 4.26203 19.9481 4.16347 19.8501C4.06492 19.7522 3.98675 19.6359 3.93341 19.5079C3.88007 19.38 3.85262 19.2428 3.85262 19.1043V15.5721C3.85262 15.2923 3.96443 15.0241 4.16347 14.8263C4.36251 14.6285 4.63248 14.5174 4.91397 14.5174H8.46988C8.75136 14.5174 9.02133 14.6285 9.22037 14.8263C9.41941 15.0241 9.53122 15.2923 9.53122 15.5721V19.1043Z" fill="#797979"/>
<path d="M20.3456 2H14.272C13.8332 2 13.4124 2.17322 13.1021 2.48154C12.7919 2.78987 12.6176 3.20803 12.6176 3.64407V9.67955C12.6176 10.1156 12.7919 10.5338 13.1021 10.8421C13.4124 11.1504 13.8332 11.3236 14.272 11.3236H20.3456C20.7844 11.3236 21.2052 11.1504 21.5154 10.8421C21.8257 10.5338 22 10.1156 22 9.67955V3.64407C22 3.20803 21.8257 2.78987 21.5154 2.48154C21.2052 2.17322 20.7844 2 20.3456 2ZM20.1474 8.42795C20.1474 8.70767 20.0356 8.97593 19.8365 9.17372C19.6375 9.37151 19.3675 9.48264 19.0861 9.48264H15.5315C15.25 9.48264 14.9801 9.37151 14.781 9.17372C14.582 8.97593 14.4701 8.70767 14.4701 8.42795V4.89432C14.4701 4.75582 14.4976 4.61868 14.551 4.49072C14.6043 4.36275 14.6825 4.24649 14.781 4.14856C14.8796 4.05062 14.9966 3.97292 15.1253 3.91992C15.2541 3.86691 15.3921 3.83964 15.5315 3.83964H19.0861C19.2254 3.83964 19.3635 3.86691 19.4922 3.91992C19.621 3.97292 19.738 4.05062 19.8365 4.14856C19.9351 4.24649 20.0133 4.36275 20.0666 4.49072C20.1199 4.61868 20.1474 4.75582 20.1474 4.89432V8.42795Z" fill="#797979"/>
<path d="M20.6428 12.6764H13.9747C13.2252 12.6764 12.6175 13.2802 12.6175 14.0251V20.6513C12.6175 21.3962 13.2252 22 13.9747 22H20.6428C21.3923 22 22 21.3962 22 20.6513V14.0251C22 13.2802 21.3923 12.6764 20.6428 12.6764Z" fill="#797979"/>
<path d="M10.0252 2H3.35722C2.60765 2 2 2.60384 2 3.34871V9.97491C2 10.7198 2.60765 11.3236 3.35722 11.3236H10.0252C10.7748 11.3236 11.3825 10.7198 11.3825 9.97491V3.34871C11.3825 2.60384 10.7748 2 10.0252 2Z" fill="#797979"/>
</g>
<defs>
<clipPath id="clip0_1107_3">
<rect width="20" height="20" fill="white" transform="translate(2 2)"/>
</clipPath>
</defs>
</svg>
