<svg xmlns="http://www.w3.org/2000/svg" width="14.277" height="14.243" viewBox="0 0 14.277 14.243">
  <g id="Group_440" data-name="Group 440" transform="translate(238.169 -195.234)">
    <g id="Group_436" data-name="Group 436" transform="translate(-238.169 195.234)">
      <path id="Path_63201" data-name="Path 63201" d="M-233.232,201.717h-3.39a1.548,1.548,0,0,1-1.547-1.546v-3.39a1.548,1.548,0,0,1,1.547-1.547h3.39a1.548,1.548,0,0,1,1.546,1.547v3.39A1.548,1.548,0,0,1-233.232,201.717Zm-3.39-5.506a.57.57,0,0,0-.57.57v3.39a.57.57,0,0,0,.57.569h3.39a.57.57,0,0,0,.569-.569v-3.39a.57.57,0,0,0-.569-.57Z" transform="translate(238.169 -195.234)" fill="#ffb628"/>
    </g>
    <g id="Group_437" data-name="Group 437" transform="translate(-230.375 195.234)">
      <path id="Path_63202" data-name="Path 63202" d="M-217.087,201.717h-3.776a1.355,1.355,0,0,1-1.354-1.353v-3.777a1.355,1.355,0,0,1,1.354-1.353h3.776a1.355,1.355,0,0,1,1.354,1.353v3.777A1.355,1.355,0,0,1-217.087,201.717Zm-3.776-5.506a.377.377,0,0,0-.377.376v3.777a.377.377,0,0,0,.377.376h3.776a.377.377,0,0,0,.377-.376v-3.777a.377.377,0,0,0-.377-.376Z" transform="translate(222.216 -195.234)" fill="#ffb628"/>
    </g>
    <g id="Group_438" data-name="Group 438" transform="translate(-238.169 202.994)">
      <path id="Path_63203" data-name="Path 63203" d="M-233.28,217.6h-3.294a1.6,1.6,0,0,1-1.595-1.595v-3.294a1.6,1.6,0,0,1,1.595-1.595h3.294a1.6,1.6,0,0,1,1.594,1.595v3.294A1.6,1.6,0,0,1-233.28,217.6Zm-3.294-5.506a.618.618,0,0,0-.618.618v3.294a.618.618,0,0,0,.618.618h3.294a.618.618,0,0,0,.617-.618v-3.294a.618.618,0,0,0-.617-.618Z" transform="translate(238.169 -211.118)" fill="#ffb628"/>
    </g>
    <g id="Group_439" data-name="Group 439" transform="translate(-230.375 202.994)">
      <path id="Path_63204" data-name="Path 63204" d="M-217.2,217.6h-3.552a1.467,1.467,0,0,1-1.466-1.466v-3.552a1.467,1.467,0,0,1,1.466-1.466h3.552a1.467,1.467,0,0,1,1.466,1.466v3.552A1.467,1.467,0,0,1-217.2,217.6Zm-3.552-5.506a.489.489,0,0,0-.489.489v3.552a.489.489,0,0,0,.489.489h3.552a.489.489,0,0,0,.489-.489v-3.552a.489.489,0,0,0-.489-.489Z" transform="translate(222.216 -211.118)" fill="#ffb628"/>
    </g>
  </g>
</svg>
