<svg xmlns="http://www.w3.org/2000/svg" width="14.736" height="14.829" viewBox="0 0 14.736 14.829">
  <g id="Group_441" data-name="Group 441" transform="translate(252.022 -181.53)">
    <path id="Path_63205" data-name="Path 63205" d="M-246.328,202.234H-250.8a1.219,1.219,0,0,0-1.219,1.219v4.475a1.219,1.219,0,0,0,1.219,1.219h4.475a1.219,1.219,0,0,0,1.219-1.219v-4.475A1.219,1.219,0,0,0-246.328,202.234Zm-.145,4.766a.782.782,0,0,1-.782.782h-2.62a.782.782,0,0,1-.782-.782v-2.619a.782.782,0,0,1,.782-.782h2.62a.782.782,0,0,1,.782.782Z" transform="translate(0 -12.788)" fill="#ffa200"/>
    <path id="Path_63206" data-name="Path 63206" d="M-225.868,181.53h-4.475a1.219,1.219,0,0,0-1.219,1.219v4.475a1.219,1.219,0,0,0,1.219,1.219h4.475a1.219,1.219,0,0,0,1.219-1.219v-4.475A1.219,1.219,0,0,0-225.868,181.53Zm-.146,4.766a.782.782,0,0,1-.782.782h-2.619a.782.782,0,0,1-.782-.782v-2.62a.782.782,0,0,1,.782-.782h2.619a.782.782,0,0,1,.782.782Z" transform="translate(-12.637 0)" fill="#ffa200"/>
    <rect id="Rectangle_210" data-name="Rectangle 210" width="6.913" height="6.913" rx="1" transform="translate(-244.199 189.446)" fill="#ffa200"/>
    <rect id="Rectangle_211" data-name="Rectangle 211" width="6.913" height="6.913" rx="1" transform="translate(-252.022 181.53)" fill="#ffa200"/>
  </g>
</svg>
