<svg xmlns="http://www.w3.org/2000/svg" width="21.524" height="21.66" viewBox="0 0 21.524 21.66"><g transform="translate(252.022 -181.53)"><path d="M-243.7,202.234h-6.537a1.781,1.781,0,0,0-1.78,1.78v6.537a1.781,1.781,0,0,0,1.78,1.78h6.537a1.78,1.78,0,0,0,1.78-1.78v-6.537A1.781,1.781,0,0,0-243.7,202.234Zm-.212,6.962a1.143,1.143,0,0,1-1.143,1.143h-3.827a1.143,1.143,0,0,1-1.143-1.143V205.37a1.143,1.143,0,0,1,1.143-1.143h3.827a1.143,1.143,0,0,1,1.143,1.143Z" transform="translate(0 -9.142)" fill="#ffb400"/><path d="M-223.245,181.53h-6.537a1.78,1.78,0,0,0-1.78,1.78v6.536a1.78,1.78,0,0,0,1.78,1.78h6.537a1.781,1.781,0,0,0,1.78-1.78V183.31A1.781,1.781,0,0,0-223.245,181.53Zm-.213,6.962a1.143,1.143,0,0,1-1.143,1.143h-3.826a1.143,1.143,0,0,1-1.143-1.143v-3.827a1.143,1.143,0,0,1,1.143-1.143h3.826a1.143,1.143,0,0,1,1.143,1.143Z" transform="translate(-9.034 0)" fill="#ffb400"/><rect width="10.097" height="10.097" rx="1" transform="translate(-240.596 193.092)" fill="#ffb400"/><rect width="10.097" height="10.097" rx="1" transform="translate(-252.022 181.53)" fill="#ffb400"/></g></svg>