<svg xmlns="http://www.w3.org/2000/svg" width="63.99" height="64.395" viewBox="0 0 63.99 64.395">
  <g id="Group_441" data-name="Group 441" transform="translate(252.022 -181.53)">
    <path id="Path_63205" data-name="Path 63205" d="M-227.3,202.234h-19.434a5.3,5.3,0,0,0-5.293,5.293v19.434a5.294,5.294,0,0,0,5.293,5.293H-227.3A5.292,5.292,0,0,0-222,226.961V207.527A5.294,5.294,0,0,0-227.3,202.234Zm-.631,20.7a3.4,3.4,0,0,1-3.4,3.4H-242.7a3.4,3.4,0,0,1-3.4-3.4V211.557a3.4,3.4,0,0,1,3.4-3.4h11.376a3.4,3.4,0,0,1,3.4,3.4Z" transform="translate(0 13.671)" fill="#1d7ec7"/>
    <path id="Path_63206" data-name="Path 63206" d="M-206.835,181.53h-19.434a5.292,5.292,0,0,0-5.293,5.293v19.432a5.292,5.292,0,0,0,5.293,5.293h19.434a5.293,5.293,0,0,0,5.293-5.293V186.823A5.293,5.293,0,0,0-206.835,181.53Zm-.632,20.7a3.4,3.4,0,0,1-3.4,3.4h-11.375a3.4,3.4,0,0,1-3.4-3.4V190.851a3.4,3.4,0,0,1,3.4-3.4h11.375a3.4,3.4,0,0,1,3.4,3.4Z" transform="translate(13.51 0)" fill="#1d7ec7"/>
    <rect id="Rectangle_210" data-name="Rectangle 210" width="30.019" height="30.019" rx="1" transform="translate(-218.052 215.905)" fill="#1d7ec7"/>
    <rect id="Rectangle_211" data-name="Rectangle 211" width="30.019" height="30.019" rx="1" transform="translate(-252.021 181.53)" fill="#1d7ec7"/>
  </g>
</svg>
