<svg xmlns="http://www.w3.org/2000/svg" xmlns:xlink="http://www.w3.org/1999/xlink" width="63" height="63" viewBox="0 0 63 63">
  <defs>
    <filter id="Ellipse_70" x="0" y="0" width="63" height="63" filterUnits="userSpaceOnUse">
      <feOffset dy="3" input="SourceAlpha"/>
      <feGaussianBlur stdDeviation="3" result="blur"/>
      <feFlood flood-opacity="0.161"/>
      <feComposite operator="in" in2="blur"/>
      <feComposite in="SourceGraphic"/>
    </filter>
  </defs>
  <g id="Group_468" data-name="Group 468" transform="translate(-1615 -279)">
    <g transform="matrix(1, 0, 0, 1, 1615, 279)" filter="url(#Ellipse_70)">
      <circle id="Ellipse_70-2" data-name="Ellipse 70" cx="22.5" cy="22.5" r="22.5" transform="translate(9 6)" fill="#ffb628" opacity="0.2"/>
    </g>
    <g id="Group_467" data-name="Group 467" transform="translate(2022.73 107.548)">
      <path id="Path_63225" data-name="Path 63225" d="M-376.143,187c2.415,3.054,5.9,3.886,9.713,4.015.016.26.04.48.041.7,0,2.852-.038,5.706.008,8.557a10.517,10.517,0,0,1-3.749,8.26,19.429,19.429,0,0,1-5.759,3.484.935.935,0,0,1-.645.026c-3.174-1.315-6.04-3.051-7.979-6a9.187,9.187,0,0,1-1.566-5.2c.016-2.875,0-5.751,0-8.626,0-1.234.007-1.213,1.221-1.274a11.966,11.966,0,0,0,5.78-1.639A31.534,31.534,0,0,0-376.143,187Zm8.038,10.333c0-1.357-.016-2.714.009-4.071.009-.493-.155-.668-.656-.731a13.567,13.567,0,0,1-7.145-2.844c-.312-.257-.514-.161-.774.05a13.331,13.331,0,0,1-6.959,2.769c-.677.083-.825.339-.817.953.03,2.368.026,4.737.018,7.105A8.177,8.177,0,0,0-382.6,205.8a15.268,15.268,0,0,0,6.021,4.378,1.071,1.071,0,0,0,.834-.07,33.158,33.158,0,0,0,3.662-2.19,8.879,8.879,0,0,0,3.99-7.962C-368.148,199.087-368.1,198.21-368.105,197.337Z" transform="translate(0)"/>
      <path id="Path_63226" data-name="Path 63226" d="M-337.008,270.553c.944,0,1.889.021,2.832-.009.492-.016.7.113.69.651-.031,1.334.033,2.671-.028,4a1.5,1.5,0,0,1-.546,1.005,5.275,5.275,0,0,1-6.02.022,1.491,1.491,0,0,1-.549-1c-.063-1.332-.01-2.669-.034-4-.009-.511.181-.7.684-.685.99.023,1.98.007,2.97.007Zm-.687,4.454c1.084.346,1.257.193,1.092-.795a1.464,1.464,0,0,1,.168-.847c.209-.405.24-.8-.14-1.026a1.177,1.177,0,0,0-.968-.057c-.42.213-.406.634-.207,1.074a2.557,2.557,0,0,1,.16.934A3.7,3.7,0,0,1-337.695,275.007Z" transform="translate(-39.116 -71.941)"/>
      <path id="Path_63227" data-name="Path 63227" d="M-328.566,237.6a3.688,3.688,0,0,1-.02.892c-.046.177-.278.421-.429.423a.626.626,0,0,1-.483-.376,10.869,10.869,0,0,1-.051-1.375,1.706,1.706,0,0,0-1.655-1.769,1.7,1.7,0,0,0-1.6,1.809c-.006.391-.01.782,0,1.173.007.337-.044.58-.477.575-.391,0-.537-.169-.528-.542.014-.552-.022-1.106.023-1.655a2.607,2.607,0,0,1,2.714-2.389,2.62,2.62,0,0,1,2.509,2.613C-328.563,237.182-328.565,237.389-328.566,237.6Z" transform="translate(-45.015 -40.784)"/>
    </g>
  </g>
</svg>
