<svg xmlns="http://www.w3.org/2000/svg" width="23.872" height="34" viewBox="0 0 23.872 34"><g transform="translate(-18.172 -553.253)"><g transform="translate(18.172 553.253)"><path d="M1718.926-112.917a1.447,1.447,0,0,1-1.447-1.447v-10.2a9.053,9.053,0,0,0-9.043-9.042,9.053,9.053,0,0,0-9.043,9.042v7.706a1.447,1.447,0,0,1-1.446,1.447,1.447,1.447,0,0,1-1.447-1.447v-7.706a11.95,11.95,0,0,1,11.936-11.936,11.95,11.95,0,0,1,11.936,11.936v10.2A1.447,1.447,0,0,1,1718.926-112.917Z" transform="translate(-1696.5 136.5)" fill="#ffb628"/></g><g transform="translate(22.946 558.895)"><path d="M1714.447-93.624A1.447,1.447,0,0,1,1713-95.07v-14.7a7.035,7.035,0,0,1,6.8-7.234,7.035,7.035,0,0,1,6.8,7.234v14.6a1.447,1.447,0,0,1-1.447,1.447,1.447,1.447,0,0,1-1.447-1.447v-14.6a4.145,4.145,0,0,0-3.906-4.34,4.145,4.145,0,0,0-3.906,4.34v14.7A1.447,1.447,0,0,1,1714.447-93.624Z" transform="translate(-1713.001 117)" fill="#ffb628"/></g><g transform="translate(28.444 564.104)"><path d="M1733.447-75.851A1.447,1.447,0,0,1,1732-77.3V-97.553A1.447,1.447,0,0,1,1733.447-99a1.447,1.447,0,0,1,1.447,1.447V-77.3A1.447,1.447,0,0,1,1733.447-75.851Z" transform="translate(-1732 99)" fill="#ffb628"/></g></g></svg>