<svg xmlns="http://www.w3.org/2000/svg" width="61" height="61" viewBox="0 0 61 61">
  <g id="Group_458" data-name="Group 458" transform="translate(-1204 -241)">
    <path id="Path_63166" data-name="Path 63166" d="M30.5,0A30.5,30.5,0,1,1,0,30.5,30.5,30.5,0,0,1,30.5,0Z" transform="translate(1204 241)" fill="#fff0cc"/>
    <g id="secure-shield" transform="translate(1216.245 250.365)">
      <g id="Group_95" data-name="Group 95" transform="translate(0 0)">
        <g id="Group_94" data-name="Group 94" transform="translate(0)">
          <path id="Path_60" data-name="Path 60" d="M73.529,7.471A70.814,70.814,0,0,1,56.394.126a.892.892,0,0,0-.916,0A68.875,68.875,0,0,1,38.344,7.471a.909.909,0,0,0-.663.878v9.3A26.888,26.888,0,0,0,45.72,37.2c3.948,3.91,8.547,6.072,10.217,6.072s6.269-2.162,10.217-6.072a26.888,26.888,0,0,0,8.038-19.548v-9.3A.909.909,0,0,0,73.529,7.471ZM72.39,17.649a25.094,25.094,0,0,1-7.5,18.248c-3.882,3.845-8.033,5.552-8.956,5.552S50.863,39.742,46.98,35.9a25.1,25.1,0,0,1-7.5-18.248V9.04A70.526,70.526,0,0,0,55.937,1.965,72.758,72.758,0,0,0,72.39,9.04Z" transform="translate(-37.681 0)" fill="#333"/>
          <path id="Path_61" data-name="Path 61" d="M87.034,99.52a.9.9,0,0,0-1.168-.513c-1.609.641-3.26,1.23-4.908,1.753a.909.909,0,0,0-.631.868v3.515a.9.9,0,1,0,1.8,0v-2.85c1.478-.483,2.955-1.018,4.4-1.593A.913.913,0,0,0,87.034,99.52Z" transform="translate(-76.761 -90.581)" fill="#333"/>
          <path id="Path_62" data-name="Path 62" d="M171.105,88.031a.893.893,0,0,0,.361-.076l.017-.007a.912.912,0,0,0,.461-1.2.9.9,0,0,0-1.188-.467l-.015.006a.912.912,0,0,0-.463,1.2A.9.9,0,0,0,171.105,88.031Z" transform="translate(-159.121 -78.92)" fill="#333"/>
          <path id="Path_63" data-name="Path 63" d="M310.1,345.676a.9.9,0,0,0-1.247.264,22.115,22.115,0,0,1-2.588,3.267,23.08,23.08,0,0,1-2.583,2.323.917.917,0,0,0-.17,1.276.894.894,0,0,0,1.262.172,24.9,24.9,0,0,0,2.786-2.505,23.905,23.905,0,0,0,2.8-3.537A.916.916,0,0,0,310.1,345.676Z" transform="translate(-281.118 -316.327)" fill="#333"/>
          <path id="Path_64" data-name="Path 64" d="M277.065,432.091l-.052.031a.916.916,0,0,0-.328,1.244.9.9,0,0,0,.78.454.887.887,0,0,0,.45-.123l.06-.035a.916.916,0,0,0,.322-1.245A.9.9,0,0,0,277.065,432.091Z" transform="translate(-256.589 -395.46)" fill="#333"/>
          <path id="Path_65" data-name="Path 65" d="M127.819,161.311a2.907,2.907,0,0,0-4.141,0,2.986,2.986,0,0,0,0,4.186L129,170.871a2.907,2.907,0,0,0,4.141,0l11.1-11.22a2.986,2.986,0,0,0,0-4.186,2.908,2.908,0,0,0-4.142,0l-9.03,9.127Zm13.551-4.558a1.12,1.12,0,0,1,1.595,0,1.149,1.149,0,0,1,0,1.611l-11.1,11.22a1.12,1.12,0,0,1-1.595,0l-5.318-5.374a1.149,1.149,0,0,1,0-1.611,1.12,1.12,0,0,1,1.594,0l3.884,3.925a.894.894,0,0,0,1.273,0Z" transform="translate(-115.702 -141.534)" fill="#333"/>
        </g>
      </g>
    </g>
  </g>
</svg>
