<svg width="24" height="24" viewBox="0 0 24 24" fill="none" xmlns="http://www.w3.org/2000/svg">
<g clip-path="url(#clip0_1107_33)">
<path d="M18.1519 15.8725C17.927 15.8725 17.7113 15.7829 17.5523 15.6234C17.3932 15.4638 17.3039 15.2475 17.3039 15.0219V9.02212C17.3022 7.61183 16.7429 6.2598 15.7487 5.26257C14.7546 4.26535 13.4065 3.70435 12.0006 3.70264C10.5946 3.70435 9.24673 4.26535 8.25255 5.26257C7.25837 6.2598 6.69906 7.61183 6.69735 9.02212V13.5555C6.69735 13.7811 6.60804 13.9975 6.44899 14.157C6.28995 14.3165 6.0743 14.4061 5.84938 14.4061C5.62446 14.4061 5.40865 14.3165 5.24961 14.157C5.09057 13.9975 5.00125 13.7811 5.00125 13.5555V9.02212C5.00363 7.16083 5.74183 5.37644 7.05395 4.0603C8.36607 2.74417 10.1449 2.00373 12.0006 2.00134C13.8562 2.00373 15.6352 2.74417 16.9473 4.0603C18.2595 5.37644 18.9976 7.16083 19 9.02212V15.0219C19 15.2475 18.9107 15.4638 18.7517 15.6234C18.5926 15.7829 18.3768 15.8725 18.1519 15.8725Z" fill="#797979"/>
<path d="M8.64834 19.0698C8.42342 19.0698 8.20761 18.9802 8.04857 18.8207C7.88953 18.6612 7.80021 18.4448 7.80021 18.2192V9.57067C7.76761 8.47558 8.16929 7.41221 8.91712 6.6137C9.66495 5.81518 10.6979 5.3467 11.7895 5.31097C12.8812 5.3467 13.9142 5.81518 14.6621 6.6137C15.4099 7.41221 15.8114 8.47558 15.7788 9.57067V18.1572C15.7788 18.3828 15.6895 18.5992 15.5305 18.7587C15.3714 18.9183 15.1558 19.0079 14.9309 19.0079C14.8195 19.0079 14.7092 18.9859 14.6063 18.9431C14.5034 18.9004 14.41 18.8377 14.3312 18.7587C14.2525 18.6797 14.1899 18.586 14.1473 18.4828C14.1047 18.3796 14.0827 18.2689 14.0827 18.1572V9.57842C14.114 8.93579 13.8908 8.30681 13.4617 7.82856C13.0327 7.3503 12.4326 7.06153 11.7922 7.02517C11.1518 7.06153 10.5515 7.3503 10.1225 7.82856C9.69341 8.30681 9.47025 8.93579 9.5015 9.57842V18.2269C9.49946 18.4521 9.40852 18.6673 9.24858 18.8253C9.08865 18.9833 8.87282 19.0712 8.64834 19.0698Z" fill="#797979"/>
<path d="M11.872 22C11.6471 22 11.4313 21.9104 11.2723 21.7509C11.1132 21.5913 11.0239 21.375 11.0239 21.1494V9.23377C11.0239 9.00817 11.1132 8.7918 11.2723 8.63227C11.4313 8.47275 11.6471 8.38313 11.872 8.38313C12.0969 8.38313 12.3126 8.47275 12.4716 8.63227C12.6307 8.7918 12.72 9.00817 12.72 9.23377V21.1494C12.72 21.375 12.6307 21.5913 12.4716 21.7509C12.3126 21.9104 12.0969 22 11.872 22Z" fill="#797979"/>
</g>
<defs>
<clipPath id="clip0_1107_33">
<rect width="14" height="20" fill="white" transform="translate(5 2)"/>
</clipPath>
</defs>
</svg>
