<svg xmlns="http://www.w3.org/2000/svg" width="10.879" height="15.494" viewBox="0 0 10.879 15.494">
  <g id="Group_362" data-name="Group 362" transform="translate(-18.172 -553.253)">
    <g id="Group_359" data-name="Group 359" transform="translate(18.172 553.253)">
      <path id="Path_63125" data-name="Path 63125" d="M1706.72-125.753a.659.659,0,0,1-.659-.659v-4.648a4.126,4.126,0,0,0-4.121-4.121,4.126,4.126,0,0,0-4.121,4.121v3.512a.659.659,0,0,1-.659.659.659.659,0,0,1-.659-.659v-3.512a5.446,5.446,0,0,1,5.439-5.439,5.446,5.446,0,0,1,5.439,5.439v4.648A.659.659,0,0,1,1706.72-125.753Z" transform="translate(-1696.5 136.5)" fill="#ffa200"/>
    </g>
    <g id="Group_360" data-name="Group 360" transform="translate(20.348 555.824)">
      <path id="Path_63126" data-name="Path 63126" d="M1713.659-106.347a.659.659,0,0,1-.659-.659v-6.7a3.206,3.206,0,0,1,3.1-3.3,3.206,3.206,0,0,1,3.1,3.3v6.652a.659.659,0,0,1-.659.659.659.659,0,0,1-.659-.659V-113.7a1.889,1.889,0,0,0-1.78-1.978,1.889,1.889,0,0,0-1.78,1.978v6.7A.659.659,0,0,1,1713.659-106.347Z" transform="translate(-1713 117)" fill="#ffa200"/>
    </g>
    <g id="Group_361" data-name="Group 361" transform="translate(22.853 558.198)">
      <path id="Path_63127" data-name="Path 63127" d="M1732.659-88.451a.659.659,0,0,1-.659-.659v-9.231a.659.659,0,0,1,.659-.659.659.659,0,0,1,.659.659v9.231A.659.659,0,0,1,1732.659-88.451Z" transform="translate(-1732 99)" fill="#ffa200"/>
    </g>
  </g>
</svg>
