<svg xmlns="http://www.w3.org/2000/svg" width="44.552" height="63.454" viewBox="0 0 44.552 63.454">
  <g id="Group_362" data-name="Group 362" transform="translate(-18.172 -553.253)">
    <g id="Group_359" data-name="Group 359" transform="translate(18.172 553.253)">
      <path id="Path_63125" data-name="Path 63125" d="M1738.353-92.487a2.7,2.7,0,0,1-2.7-2.7v-19.036a16.9,16.9,0,0,0-16.876-16.876,16.9,16.9,0,0,0-16.876,16.876v14.383a2.7,2.7,0,0,1-2.7,2.7,2.7,2.7,0,0,1-2.7-2.7v-14.383a22.3,22.3,0,0,1,22.276-22.276,22.3,22.3,0,0,1,22.277,22.276v19.036A2.7,2.7,0,0,1,1738.353-92.487Z" transform="translate(-1696.5 136.5)" fill="#1d7ec7"/>
    </g>
    <g id="Group_360" data-name="Group 360" transform="translate(27.083 563.783)">
      <path id="Path_63126" data-name="Path 63126" d="M1715.7-73.372a2.7,2.7,0,0,1-2.7-2.7V-103.5c0-7.444,5.692-13.5,12.69-13.5s12.691,6.056,12.691,13.5v27.243a2.7,2.7,0,0,1-2.7,2.7,2.7,2.7,0,0,1-2.7-2.7V-103.5c0-4.467-3.271-8.1-7.29-8.1s-7.29,3.634-7.29,8.1v27.427A2.7,2.7,0,0,1,1715.7-73.372Z" transform="translate(-1713.001 117)" fill="#1d7ec7"/>
    </g>
    <g id="Group_361" data-name="Group 361" transform="translate(37.343 573.504)">
      <path id="Path_63127" data-name="Path 63127" d="M1734.7-55.8a2.7,2.7,0,0,1-2.7-2.7V-96.3a2.7,2.7,0,0,1,2.7-2.7,2.7,2.7,0,0,1,2.7,2.7v37.8A2.7,2.7,0,0,1,1734.7-55.8Z" transform="translate(-1732 99)" fill="#1d7ec7"/>
    </g>
  </g>
</svg>
