<svg xmlns="http://www.w3.org/2000/svg" width="170" height="170" viewBox="0 0 170 170">
  <g id="Group_631" data-name="Group 631" transform="translate(-3106.5 -2163.5)">
    <circle id="Ellipse_91" data-name="Ellipse 91" cx="85" cy="85" r="85" transform="translate(3106.5 2163.5)" fill="#ffa800" opacity="0.31"/>
    <g id="Group_630" data-name="Group 630" transform="translate(3144.643 2182.07)">
      <g id="Group_359" data-name="Group 359" transform="translate(0 0)">
        <path id="Path_63125" data-name="Path 63125" d="M1783.333-45.187a5.6,5.6,0,0,1-5.6-5.6V-90.283a35.053,35.053,0,0,0-35.013-35.013A35.052,35.052,0,0,0,1707.7-90.283v29.84a5.6,5.6,0,0,1-5.6,5.6,5.6,5.6,0,0,1-5.6-5.6v-29.84a46.27,46.27,0,0,1,46.217-46.217,46.27,46.27,0,0,1,46.218,46.217v39.494A5.6,5.6,0,0,1,1783.333-45.187Z" transform="translate(-1696.5 136.5)" fill="#e9ad38"/>
      </g>
      <g id="Group_360" data-name="Group 360" transform="translate(18.487 21.847)">
        <path id="Path_63126" data-name="Path 63126" d="M1718.6-26.486a5.6,5.6,0,0,1-5.6-5.6v-56.9c0-15.445,11.81-28.01,26.329-28.01s26.33,12.565,26.33,28.01v56.521a5.6,5.6,0,0,1-5.6,5.6,5.6,5.6,0,0,1-5.6-5.6V-88.99c0-9.267-6.785-16.806-15.126-16.806S1724.2-98.257,1724.2-88.99v56.9A5.6,5.6,0,0,1,1718.6-26.486Z" transform="translate(-1713.001 117)" fill="#e9ad38"/>
      </g>
      <g id="Group_361" data-name="Group 361" transform="translate(39.775 42.015)">
        <path id="Path_63127" data-name="Path 63127" d="M1737.6-9.368a5.6,5.6,0,0,1-5.6-5.6V-93.4a5.6,5.6,0,0,1,5.6-5.6,5.6,5.6,0,0,1,5.6,5.6V-14.97A5.6,5.6,0,0,1,1737.6-9.368Z" transform="translate(-1732.001 99)" fill="#e9ad38"/>
      </g>
    </g>
  </g>
</svg>
