<svg width="24" height="24" viewBox="0 0 24 24" fill="none" xmlns="http://www.w3.org/2000/svg">
<g clip-path="url(#clip0_1107_88)">
<path d="M11.3824 12.257V9.98136H10.2589L12.3487 6.65588L14.5112 9.75723L13.6581 9.7313V12.257" fill="#797979"/>
<mask id="mask0_1107_88" style="mask-type:luminance" maskUnits="userSpaceOnUse" x="3" y="2" width="19" height="20">
<path d="M22 2H3V22H22V2Z" fill="white"/>
</mask>
<g mask="url(#mask0_1107_88)">
<path d="M14.5115 14.602C14.5115 14.602 15.5213 13.3533 16.7016 13.1701L16.1904 12.4718L19.2478 12.5679L17.7966 15.1057L17.4272 14.5582C17.4272 14.5582 15.3218 15.3743 15.1525 16.0618" fill="#797979"/>
<path d="M10.4651 14.602C10.4651 14.602 9.45541 13.3533 8.27506 13.1701L8.7869 12.4718L5.72949 12.5679L7.18003 15.1057L7.54947 14.5582C7.54947 14.5582 9.65489 15.3727 9.82518 16.0602" fill="#797979"/>
<path d="M13.7318 13.9126C13.7317 14.1756 13.6527 14.4325 13.5046 14.6511C13.3566 14.8697 13.1463 15.04 12.9002 15.1406C12.6542 15.2412 12.3834 15.2675 12.1222 15.2162C11.861 15.1649 11.621 15.0383 11.4327 14.8524C11.2444 14.6665 11.1161 14.4296 11.0642 14.1718C11.0122 13.9139 11.0388 13.6466 11.1407 13.4037C11.2426 13.1608 11.4152 12.9532 11.6366 12.8071C11.858 12.661 12.1184 12.583 12.3847 12.5829C12.7419 12.5829 13.0846 12.723 13.3372 12.9724C13.5898 13.2218 13.7318 13.56 13.7318 13.9126Z" fill="#797979"/>
<path d="M11.1122 19.557H10.8096C10.6633 19.557 10.5231 19.4996 10.4197 19.3975C10.3163 19.2954 10.2582 19.157 10.2582 19.0126V15.7787C10.2587 15.636 10.3166 15.4993 10.4191 15.3987C10.5217 15.2981 10.6605 15.2417 10.805 15.2421H13.7616C13.9604 15.2421 14.1511 15.32 14.2916 15.4588C14.4322 15.5976 14.5112 15.7858 14.5112 15.982V18.9819C14.5112 19.1348 14.4497 19.2813 14.3402 19.3894C14.2307 19.4975 14.0822 19.5582 13.9273 19.5582H13.7308" fill="#797979"/>
<path d="M11.2546 16.7639V21.6776C11.2546 21.72 11.263 21.762 11.2794 21.8011C11.2959 21.8403 11.3199 21.8759 11.3503 21.9059C11.3807 21.9359 11.4167 21.9596 11.4564 21.9758C11.4961 21.992 11.5386 22.0004 11.5816 22.0003H12.1615V18.7853H12.5099V22.0003H13.0899C13.1328 22.0004 13.1753 21.992 13.215 21.9758C13.2547 21.9596 13.2908 21.9359 13.3212 21.9059C13.3515 21.8759 13.3756 21.8403 13.392 21.8011C13.4084 21.762 13.4169 21.72 13.4168 21.6776V16.7639H11.2546Z" fill="#797979"/>
<path d="M13.1638 3.71333C13.0831 3.84595 12.969 3.95568 12.8326 4.03186C12.6961 4.10804 12.5421 4.14808 12.3854 4.14808C12.2286 4.14808 12.0746 4.10804 11.9382 4.03186C11.8017 3.95568 11.6876 3.84595 11.6069 3.71333C11.4844 3.78316 11.3828 3.88356 11.312 4.00445C11.2413 4.12534 11.2041 4.26247 11.204 4.40206V5.93897H13.5676V4.40206C13.5675 4.26237 13.5301 4.12518 13.4592 4.00428C13.3883 3.88338 13.2865 3.78304 13.1638 3.71333Z" fill="#797979"/>
<path d="M13.2945 2.89845C13.2941 3.07562 13.2406 3.2487 13.1406 3.39585C13.0406 3.54299 12.8988 3.6576 12.7329 3.72521C12.567 3.79282 12.3845 3.8104 12.2085 3.77572C12.0325 3.74104 11.8709 3.65566 11.744 3.53036C11.6171 3.40506 11.5307 3.24546 11.4956 3.07171C11.4605 2.89796 11.4784 2.71784 11.5469 2.55411C11.6155 2.39037 11.7316 2.25036 11.8807 2.15174C12.0298 2.05312 12.2052 2.00032 12.3847 2C12.5042 1.99996 12.6226 2.02317 12.733 2.0683C12.8435 2.11344 12.9438 2.17962 13.0283 2.26306C13.1129 2.34649 13.1799 2.44556 13.2256 2.55458C13.2714 2.6636 13.2949 2.78045 13.2948 2.89845" fill="#797979"/>
<path d="M21.5972 11.7972C21.5164 11.9298 21.4023 12.0395 21.2659 12.1157C21.1295 12.1919 20.9754 12.2319 20.8187 12.2319C20.662 12.2319 20.5079 12.1919 20.3715 12.1157C20.2351 12.0395 20.121 11.9298 20.0402 11.7972C19.9178 11.867 19.8161 11.9674 19.7454 12.0883C19.6747 12.2092 19.6374 12.3463 19.6374 12.4859V14.0228H22.001V12.4859C22.001 12.3463 21.9637 12.2092 21.893 12.0883C21.8223 11.9674 21.7206 11.867 21.5981 11.7972" fill="#797979"/>
<path d="M21.7278 10.9823C21.7275 11.1594 21.6739 11.3325 21.574 11.4796C21.474 11.6268 21.3322 11.7414 21.1663 11.809C21.0004 11.8766 20.818 11.8942 20.642 11.8596C20.466 11.8249 20.3043 11.7396 20.1774 11.6143C20.0505 11.489 19.9641 11.3295 19.929 11.1557C19.8939 10.982 19.9117 10.8019 19.9802 10.6382C20.0487 10.4744 20.1648 10.3344 20.3139 10.2357C20.4629 10.1371 20.6382 10.0842 20.8177 10.0838C20.9372 10.0838 21.0556 10.107 21.166 10.1521C21.2765 10.1973 21.3768 10.2634 21.4614 10.3469C21.5459 10.4303 21.6129 10.5294 21.6587 10.6384C21.7044 10.7474 21.7279 10.8643 21.7278 10.9823Z" fill="#797979"/>
<path d="M4.96075 11.5042C4.88002 11.6368 4.76591 11.7465 4.62949 11.8227C4.49308 11.8989 4.33902 11.9389 4.18229 11.9389C4.02556 11.9389 3.8715 11.8989 3.73509 11.8227C3.59867 11.7465 3.48456 11.6368 3.40383 11.5042C3.2812 11.5739 3.17931 11.6742 3.10843 11.7951C3.03754 11.916 3.00014 12.0532 3 12.1929V13.7298H5.36361V12.1929C5.36356 12.0533 5.32631 11.9162 5.2556 11.7953C5.18489 11.6744 5.0832 11.574 4.96075 11.5042Z" fill="#797979"/>
<path d="M5.0915 10.6893C5.09111 10.8665 5.03757 11.0395 4.93763 11.1867C4.83768 11.3338 4.69582 11.4484 4.52995 11.516C4.36407 11.5836 4.18163 11.6012 4.00563 11.5666C3.82964 11.5319 3.66799 11.4466 3.54109 11.3213C3.4142 11.1961 3.32774 11.0365 3.29263 10.8628C3.25753 10.689 3.27535 10.5089 3.34385 10.3452C3.41235 10.1814 3.52845 10.0414 3.67751 9.94274C3.82656 9.84408 4.00188 9.79123 4.18134 9.79085C4.30088 9.79081 4.41925 9.81402 4.52969 9.85915C4.64014 9.90429 4.74049 9.97047 4.82501 10.0539C4.90954 10.1373 4.97658 10.2364 5.0223 10.3454C5.06803 10.4545 5.09154 10.5713 5.0915 10.6893Z" fill="#797979"/>
</g>
</g>
<defs>
<clipPath id="clip0_1107_88">
<rect width="19" height="20" fill="white" transform="translate(3 2)"/>
</clipPath>
</defs>
</svg>
