<svg xmlns="http://www.w3.org/2000/svg" width="42.988" height="52.446" viewBox="0 0 42.988 52.446">
  <g id="Group_447" data-name="Group 447" transform="translate(-17.262 -553.303)">
    <path id="Path_185" data-name="Path 185" d="M-1087.026-628.685c4.275-2.2,5.673-1.833,7.866,1.734,3.893-1.846,5.09-1.5,7.11,2.055,4.573-.525,5.18.312,5.525,5.064a52.593,52.593,0,0,1-3.573,22.752,2.515,2.515,0,0,1-1.48,1.33,32.082,32.082,0,0,1-17.325.029,3.581,3.581,0,0,1-1.849-2.1c-.593-1.607-.56-3.484-1.31-4.988-2.708-5.432-3.163-11.16-2.983-17.1.188-6.189.031-12.388.047-18.583.008-3.047,1.578-4.888,4.056-4.836,2.371.049,3.885,1.85,3.911,4.732C-1087-635.377-1087.026-632.167-1087.026-628.685Z" transform="translate(1112.342 1200.292)" fill="#1d7ec7"/>
    <rect id="Rectangle_177" data-name="Rectangle 177" width="8.689" height="8.689" rx="2" transform="translate(25.495 553.303)" fill="#1d7ec7"/>
    <rect id="Rectangle_178" data-name="Rectangle 178" width="8.689" height="8.689" rx="2" transform="translate(39.397 553.303)" fill="#1d7ec7"/>
    <rect id="Rectangle_179" data-name="Rectangle 179" width="8.689" height="8.689" rx="2" transform="translate(51.561 553.303)" fill="#1d7ec7"/>
    <rect id="Rectangle_180" data-name="Rectangle 180" width="8.689" height="8.689" rx="2" transform="translate(51.561 563.729)" fill="#1d7ec7"/>
    <rect id="Rectangle_182" data-name="Rectangle 182" width="8.689" height="8.689" rx="2" transform="translate(51.561 574.156)" fill="#1d7ec7"/>
    <rect id="Rectangle_181" data-name="Rectangle 181" width="8.689" height="8.689" rx="2" transform="translate(39.397 563.729)" fill="#1d7ec7"/>
  </g>
</svg>
