<svg width="24" height="24" viewBox="0 0 24 24" fill="none" xmlns="http://www.w3.org/2000/svg">
<g clip-path="url(#clip0_1107_42)">
<path d="M6.99814 8.98083C8.58948 8.14374 9.10906 8.2813 9.92606 9.64172C11.3756 8.93836 11.8211 9.06953 12.5729 10.4248C14.2747 10.2242 14.5006 10.5444 14.6299 12.3536C14.8173 15.3106 14.3629 18.2735 13.2995 21.0292C13.2462 21.1478 13.1699 21.254 13.0752 21.3414C12.9805 21.4287 12.8693 21.4953 12.7486 21.5371C10.6408 22.1463 8.41012 22.1499 6.30047 21.5474C6.13936 21.4681 5.99534 21.3565 5.87719 21.2191C5.75904 21.0817 5.66905 20.9213 5.61261 20.7476C5.48201 20.1054 5.31917 19.4707 5.12452 18.8458C4.22289 16.8037 3.84077 14.5609 4.01384 12.3266C4.08412 9.96705 4.02503 7.60241 4.0313 5.24031C4.0313 4.08305 4.61873 3.37581 5.53739 3.39639C6.41589 3.41439 6.9832 4.10235 6.99324 5.1966C7.00579 6.42844 6.99814 7.65255 6.99814 8.98083Z" fill="#797979"/>
<path d="M8.68239 2H8.68114C7.7884 2 7.0647 2.74149 7.0647 3.65617V3.65745C7.0647 4.57213 7.7884 5.31362 8.68114 5.31362H8.68239C9.57513 5.31362 10.2988 4.57213 10.2988 3.65745V3.65617C10.2988 2.74149 9.57513 2 8.68239 2Z" fill="#797979"/>
<path d="M13.8568 2H13.8555C12.9628 2 12.2391 2.74149 12.2391 3.65617V3.65745C12.2391 4.57213 12.9628 5.31362 13.8555 5.31362H13.8568C14.7495 5.31362 15.4732 4.57213 15.4732 3.65745V3.65617C15.4732 2.74149 14.7495 2 13.8568 2Z" fill="#797979"/>
<path d="M18.3836 2H18.3823C17.4896 2 16.7659 2.74149 16.7659 3.65617V3.65745C16.7659 4.57213 17.4896 5.31362 18.3823 5.31362H18.3836C19.2763 5.31362 20 4.57213 20 3.65745V3.65617C20 2.74149 19.2763 2 18.3836 2Z" fill="#797979"/>
<path d="M18.3836 5.97588H18.3823C17.4896 5.97588 16.7659 6.71737 16.7659 7.63204V7.63333C16.7659 8.548 17.4896 9.28949 18.3823 9.28949H18.3836C19.2763 9.28949 20 8.548 20 7.63333V7.63204C20 6.71737 19.2763 5.97588 18.3836 5.97588Z" fill="#797979"/>
<path d="M18.3836 9.95168H18.3823C17.4896 9.95168 16.7659 10.6932 16.7659 11.6078V11.6091C16.7659 12.5238 17.4896 13.2653 18.3823 13.2653H18.3836C19.2763 13.2653 20 12.5238 20 11.6091V11.6078C20 10.6932 19.2763 9.95168 18.3836 9.95168Z" fill="#797979"/>
<path d="M13.8568 5.97588H13.8555C12.9628 5.97588 12.2391 6.71737 12.2391 7.63204V7.63333C12.2391 8.548 12.9628 9.28949 13.8555 9.28949H13.8568C14.7495 9.28949 15.4732 8.548 15.4732 7.63333V7.63204C15.4732 6.71737 14.7495 5.97588 13.8568 5.97588Z" fill="#797979"/>
</g>
<defs>
<clipPath id="clip0_1107_42">
<rect width="16" height="20" fill="white" transform="translate(4 2)"/>
</clipPath>
</defs>
</svg>
