<svg xmlns="http://www.w3.org/2000/svg" width="12.749" height="15.554" viewBox="0 0 12.749 15.554">
  <g id="Group_448" data-name="Group 448" transform="translate(-17.262 -553.303)">
    <path id="Path_185" data-name="Path 185" d="M-1092.691-638.979c1.268-.651,1.682-.544,2.333.514,1.155-.547,1.51-.445,2.109.609,1.356-.156,1.536.093,1.639,1.5a15.6,15.6,0,0,1-1.06,6.747.746.746,0,0,1-.439.395,9.515,9.515,0,0,1-5.138.008,1.062,1.062,0,0,1-.548-.622,14.784,14.784,0,0,0-.389-1.479,10.32,10.32,0,0,1-.885-5.07c.056-1.835.009-3.674.014-5.511,0-.9.468-1.45,1.2-1.434.7.014,1.152.549,1.16,1.4C-1092.685-640.964-1092.691-640.012-1092.691-638.979Z" transform="translate(1112.342 1197.711)" fill="#fff"/>
    <rect id="Rectangle_177" data-name="Rectangle 177" width="2.577" height="2.577" rx="1.288" transform="translate(19.704 553.303)" fill="#fff"/>
    <rect id="Rectangle_178" data-name="Rectangle 178" width="2.577" height="2.577" rx="1.288" transform="translate(23.827 553.303)" fill="#fff"/>
    <rect id="Rectangle_179" data-name="Rectangle 179" width="2.577" height="2.577" rx="1.288" transform="translate(27.434 553.303)" fill="#fff"/>
    <rect id="Rectangle_180" data-name="Rectangle 180" width="2.577" height="2.577" rx="1.288" transform="translate(27.434 556.395)" fill="#fff"/>
    <rect id="Rectangle_182" data-name="Rectangle 182" width="2.577" height="2.577" rx="1.288" transform="translate(27.434 559.487)" fill="#fff"/>
    <rect id="Rectangle_181" data-name="Rectangle 181" width="2.577" height="2.577" rx="1.288" transform="translate(23.827 556.395)" fill="#fff"/>
  </g>
</svg>
