<svg xmlns="http://www.w3.org/2000/svg" width="24.738" height="30.181" viewBox="0 0 24.738 30.181"><g transform="translate(-17.262 -553.303)"><path d="M-1090.445-634.9c2.46-1.264,3.265-1.055,4.526,1,2.24-1.062,2.929-.863,4.092,1.183,2.631-.3,2.981.18,3.18,2.914a30.266,30.266,0,0,1-2.056,13.093,1.448,1.448,0,0,1-.852.765,18.463,18.463,0,0,1-9.97.016,2.061,2.061,0,0,1-1.064-1.206,28.637,28.637,0,0,0-.754-2.87,20.022,20.022,0,0,1-1.717-9.838c.108-3.562.017-7.129.027-10.694,0-1.753.908-2.812,2.334-2.783,1.364.028,2.236,1.065,2.25,2.723C-1090.433-638.749-1090.445-636.9-1090.445-634.9Z" transform="translate(1112.342 1198.734)" fill="#ffb628"/><rect width="5" height="5" rx="2" transform="translate(22 553.303)" fill="#ffb628"/><rect width="5" height="5" rx="2" transform="translate(30 553.303)" fill="#ffb628"/><rect width="5" height="5" rx="2" transform="translate(37 553.303)" fill="#ffb628"/><rect width="5" height="5" rx="2" transform="translate(37 559.303)" fill="#ffb628"/><rect width="5" height="5" rx="2" transform="translate(37 565.303)" fill="#ffb628"/><rect width="5" height="5" rx="2" transform="translate(30 559.303)" fill="#ffb628"/></g></svg>