<svg xmlns="http://www.w3.org/2000/svg" width="40.564" height="41.654" viewBox="0 0 40.564 41.654">
  <g id="Group_1819" data-name="Group 1819" transform="translate(0 0)">
    <path id="Path_16738" data-name="Path 16738" d="M534.7,431.3c-4.56.127-9.128-.017-13.689.088-1.508.035-1.878-.436-1.8-1.871.124-2.273.033-4.558.033-6.838h-.015c0-2.527.016-5.055-.015-7.583-.005-.456.353-1.2-.641-1.187a27.2,27.2,0,0,0-4.052.061,18.556,18.556,0,0,0-15.046,17.114,18.906,18.906,0,0,0,10.351,17.79c5.571,2.815,14.992,2.425,20.514-3.064A20.277,20.277,0,0,0,536.5,433.3C536.68,431.837,536.359,431.252,534.7,431.3Zm-18.512-14.5c.8-.5,1.079-.314,1.043.608-.039.981-.009,1.964-.009,2.947,0,.061,0,.123,0,.184.006,4.057.006,4.057-3.972,3.134-3.127-.725-3.168-.89-1.027-3.335A18.1,18.1,0,0,1,516.186,416.795Zm-9.053,2.874c1.579-1.2,3.082-2.584,5.364-2.829-1.227,1.6-2.328,3.049-3.447,4.487-1.006,1.294-1.594-.131-2.229-.463C505.928,420.4,506.808,419.915,507.133,419.668Zm-5.4,9.468a15.842,15.842,0,0,1,2.586-6.255c.3-.447.585-1.1,1.212-.411s2.368.491,1.835,1.97a33.806,33.806,0,0,0-1.611,6.037c-.145.888-.194.88-2.136.879C501.4,431.356,501.377,431.352,501.73,429.136Zm2.174,11.743a19.825,19.825,0,0,1-2.014-4.907c-.536-2.427-.558-2.422,2.089-2.42,1.4-.388,1.95.38,2.091,1.87a10.67,10.67,0,0,0,1.113,3.858c.715,1.394-.288,1.783-1.17,2.407C504.79,442.555,504.411,441.845,503.9,440.879Zm3.228,3.768c-.344-.3-1.194-.74-.3-1.213.613-.324,1.267-1.676,2.1-.519,1.208,1.68,2.526,3.264,3.8,4.927A15.505,15.505,0,0,1,507.132,444.648Zm10.091,3.452a17.251,17.251,0,0,1-6.181-5.624c-.615-.853-.257-1.055.541-1.331,5.317-1.839,5.646-1.622,5.64,3.918C517.222,445.973,517.223,446.884,517.223,448.1Zm-1.7-9.74a12.677,12.677,0,0,0-2.712.479h0a.3.3,0,0,0-.327.054l-.8.252a4,4,0,0,0-1.892.627c-1.323-1.692-1.633-3.743-2.032-5.76-.086-.434.336-.419.6-.528l5.178.013c.244.023.489.063.734.066,2.967.048,2.889.049,2.993,2.986C517.311,437.933,516.909,438.409,515.521,438.36Zm1.718-8.427c.163,1.151-.29,1.539-1.434,1.44-1.1-.095-2.22-.021-3.33-.021q-1.3,0-2.592,0c-2.368,0-2.37,0-1.863-2.4.063-.3.143-.6.225-.9.922-3.361.921-3.356,4.271-2.572a9.926,9.926,0,0,0,2.709.524c1.937-.115,2.224.887,2.01,2.447A5.4,5.4,0,0,0,517.239,429.933Zm5.3,3.635h1.3c.679,0,1.359,0,2.038,0,2.585,0,2.584,0,1.881,2.583-.081.3-.142.6-.238.893-.928,2.811-.911,2.754-3.8,1.768a11.344,11.344,0,0,0-3.283-.5c-1.007-.031-1.2-.445-1.228-1.357C519.112,433.566,519.079,433.566,522.543,433.568Zm-2.232,13.663c-.835.607-1.167.393-1.108-.633.049-.857.01-1.719.01-2.579,0-.184,0-.369,0-.553,0-3.6,0-3.6,3.609-2.844,3.09.651,3.075.639,1.082,3.2A17.551,17.551,0,0,1,520.31,447.231Zm8.7-2.762a13.415,13.415,0,0,1-5.873,3.28,46.876,46.876,0,0,0,3.911-4.91c.895-1.283,1.573.145,2.233.459C530.255,443.758,529.316,444.19,529.014,444.469Zm5.068-8.584a14.668,14.668,0,0,1-2.02,4.886c-.313.483-.505,1.758-1.491.882-.724-.643-2.691-.46-1.77-2.447a14.229,14.229,0,0,0,1.063-3.68c.235-1.452.6-2.5,2.154-1.958C534.609,433.569,534.588,433.564,534.082,435.885Z" transform="translate(-499.452 -408.936)" fill="#ffb628"/>
    <path id="Path_16739" data-name="Path 16739" d="M573.729,404.832c-.233-.534-.673-.472-1.12-.388l-.342,0h0c-3.878-.029-7.759-.133-11.635-.046-1.448.033-2.064-.443-2.07-1.826-.007-1.459-.616-2.191-2.18-1.92a8.143,8.143,0,0,1-1.476-.058c-.8-.013-1.542.213-1.6,1.112-.065.972.725,1.3,1.505,1.193,1.35-.177,1.631.491,1.791,1.646.472,3.419,1.085,6.819,1.583,10.235.174,1.193.676,1.688,1.937,1.661,3.455-.074,6.913-.033,10.37-.033.844,0,1.73-.038,1.69-1.173-.038-1.084-.882-1.153-1.749-1.148-3.026.019-6.052-.007-9.077.023-.692.007-1.035-.223-1.063-.918-.035-.882.639-.57,1.037-.573,3.273-.027,6.545-.017,9.818-.023.611,0,1.5.157,1.666-.484C573.427,409.734,574.249,407.359,573.729,404.832Zm-13.164,1.117c-.041,0-.081,0-.121.007C560.484,405.952,560.524,405.949,560.565,405.948Zm-.917.516c-.009.019-.017.041-.025.061C559.631,406.506,559.639,406.484,559.648,406.465Zm11.435,3.721c0,.02-.007.041-.01.063,0-.022.006-.043.01-.063l-.331.162-8.139.032h-.376c-2.662-.193-3.269-1.06-2.644-3.778h0l11.909.093Q571.293,408.44,571.083,410.186Zm-.038.237c0-.008,0-.018.005-.027C571.048,410.4,571.047,410.414,571.045,410.422Zm.024-.15v0Z" transform="translate(-533.329 -400.591)" fill="#ffb628"/>
    <path id="Path_16740" data-name="Path 16740" d="M574.714,447.543c0-.966-.524-1.455-1.568-1.553a1.473,1.473,0,0,0-1.3,1.634,1.323,1.323,0,0,0,1.482,1.32A1.3,1.3,0,0,0,574.714,447.543Z" transform="translate(-544.995 -429.153)" fill="#ffb628"/>
    <path id="Path_16741" data-name="Path 16741" d="M594.355,447.69a1.451,1.451,0,1,0-2.9-.047,1.378,1.378,0,0,0,1.355,1.4C593.74,448.995,594.319,448.51,594.355,447.69Z" transform="translate(-557.336 -429.238)" fill="#ffb628"/>
  </g>
</svg>
