<svg width="80" height="80" viewBox="0 0 80 80" fill="none" xmlns="http://www.w3.org/2000/svg">
<circle cx="40" cy="40" r="40" fill="#EACAF7"/>
<g clip-path="url(#clip0_1409_382)">
<path d="M62.6875 56.0625H61.0312V27.9062C61.0312 27.467 60.8568 27.0457 60.5461 26.7351C60.2355 26.4245 59.8143 26.25 59.375 26.25H51.0938V21.2812C51.0938 20.842 50.9193 20.4207 50.6086 20.1101C50.298 19.7995 49.8768 19.625 49.4375 19.625H29.5625C29.1232 19.625 28.702 19.7995 28.3914 20.1101C28.0807 20.4207 27.9062 20.842 27.9062 21.2812V32.875H19.625C19.1857 32.875 18.7645 33.0495 18.4539 33.3601C18.1432 33.6707 17.9688 34.092 17.9688 34.5312V56.0625H16.3125C15.8732 56.0625 15.452 56.237 15.1414 56.5476C14.8307 56.8582 14.6562 57.2795 14.6562 57.7188C14.6562 58.158 14.8307 58.5793 15.1414 58.8899C15.452 59.2005 15.8732 59.375 16.3125 59.375H62.6875C63.1268 59.375 63.548 59.2005 63.8586 58.8899C64.1693 58.5793 64.3438 58.158 64.3438 57.7188C64.3438 57.2795 64.1693 56.8582 63.8586 56.5476C63.548 56.237 63.1268 56.0625 62.6875 56.0625ZM29.5625 49.4375H26.25C25.8107 49.4375 25.3895 49.263 25.0789 48.9524C24.7682 48.6418 24.5938 48.2205 24.5938 47.7812C24.5938 47.342 24.7682 46.9207 25.0789 46.6101C25.3895 46.2995 25.8107 46.125 26.25 46.125H29.5625C30.0018 46.125 30.423 46.2995 30.7336 46.6101C31.0443 46.9207 31.2188 47.342 31.2188 47.7812C31.2188 48.2205 31.0443 48.6418 30.7336 48.9524C30.423 49.263 30.0018 49.4375 29.5625 49.4375ZM29.5625 42.8125H26.25C25.8107 42.8125 25.3895 42.638 25.0789 42.3274C24.7682 42.0168 24.5938 41.5955 24.5938 41.1562C24.5938 40.717 24.7682 40.2957 25.0789 39.9851C25.3895 39.6745 25.8107 39.5 26.25 39.5H29.5625C30.0018 39.5 30.423 39.6745 30.7336 39.9851C31.0443 40.2957 31.2188 40.717 31.2188 41.1562C31.2188 41.5955 31.0443 42.0168 30.7336 42.3274C30.423 42.638 30.0018 42.8125 29.5625 42.8125ZM42.8125 56.0625H36.1875V47.7812H42.8125V56.0625ZM41.1562 42.8125H37.8438C37.4045 42.8125 36.9832 42.638 36.6726 42.3274C36.362 42.0168 36.1875 41.5955 36.1875 41.1562C36.1875 40.717 36.362 40.2957 36.6726 39.9851C36.9832 39.6745 37.4045 39.5 37.8438 39.5H41.1562C41.5955 39.5 42.0168 39.6745 42.3274 39.9851C42.638 40.2957 42.8125 40.717 42.8125 41.1562C42.8125 41.5955 42.638 42.0168 42.3274 42.3274C42.0168 42.638 41.5955 42.8125 41.1562 42.8125ZM41.1562 36.1875H37.8438C37.4045 36.1875 36.9832 36.013 36.6726 35.7024C36.362 35.3918 36.1875 34.9705 36.1875 34.5312C36.1875 34.092 36.362 33.6707 36.6726 33.3601C36.9832 33.0495 37.4045 32.875 37.8438 32.875H41.1562C41.5955 32.875 42.0168 33.0495 42.3274 33.3601C42.638 33.6707 42.8125 34.092 42.8125 34.5312C42.8125 34.9705 42.638 35.3918 42.3274 35.7024C42.0168 36.013 41.5955 36.1875 41.1562 36.1875ZM41.1562 29.5625H37.8438C37.4045 29.5625 36.9832 29.388 36.6726 29.0774C36.362 28.7668 36.1875 28.3455 36.1875 27.9062C36.1875 27.467 36.362 27.0457 36.6726 26.7351C36.9832 26.4245 37.4045 26.25 37.8438 26.25H41.1562C41.5955 26.25 42.0168 26.4245 42.3274 26.7351C42.638 27.0457 42.8125 27.467 42.8125 27.9062C42.8125 28.3455 42.638 28.7668 42.3274 29.0774C42.0168 29.388 41.5955 29.5625 41.1562 29.5625ZM52.75 49.4375H49.4375C48.9982 49.4375 48.577 49.263 48.2664 48.9524C47.9557 48.6418 47.7812 48.2205 47.7812 47.7812C47.7812 47.342 47.9557 46.9207 48.2664 46.6101C48.577 46.2995 48.9982 46.125 49.4375 46.125H52.75C53.1893 46.125 53.6105 46.2995 53.9211 46.6101C54.2318 46.9207 54.4062 47.342 54.4062 47.7812C54.4062 48.2205 54.2318 48.6418 53.9211 48.9524C53.6105 49.263 53.1893 49.4375 52.75 49.4375ZM52.75 42.8125H49.4375C48.9982 42.8125 48.577 42.638 48.2664 42.3274C47.9557 42.0168 47.7812 41.5955 47.7812 41.1562C47.7812 40.717 47.9557 40.2957 48.2664 39.9851C48.577 39.6745 48.9982 39.5 49.4375 39.5H52.75C53.1893 39.5 53.6105 39.6745 53.9211 39.9851C54.2318 40.2957 54.4062 40.717 54.4062 41.1562C54.4062 41.5955 54.2318 42.0168 53.9211 42.3274C53.6105 42.638 53.1893 42.8125 52.75 42.8125ZM52.75 36.1875H49.4375C48.9982 36.1875 48.577 36.013 48.2664 35.7024C47.9557 35.3918 47.7812 34.9705 47.7812 34.5312C47.7812 34.092 47.9557 33.6707 48.2664 33.3601C48.577 33.0495 48.9982 32.875 49.4375 32.875H52.75C53.1893 32.875 53.6105 33.0495 53.9211 33.3601C54.2318 33.6707 54.4062 34.092 54.4062 34.5312C54.4062 34.9705 54.2318 35.3918 53.9211 35.7024C53.6105 36.013 53.1893 36.1875 52.75 36.1875Z" fill="#A92ADF"/>
</g>
<defs>
<clipPath id="clip0_1409_382">
<rect width="53" height="53" fill="white" transform="translate(13 13)"/>
</clipPath>
</defs>
</svg>
