<svg xmlns="http://www.w3.org/2000/svg" xmlns:xlink="http://www.w3.org/1999/xlink" width="1047" height="949" viewBox="0 0 1047 949"><defs><filter id="a" x="0" y="0" width="1047" height="949" filterUnits="userSpaceOnUse"><feOffset input="SourceAlpha"/><feGaussianBlur stdDeviation="4.5" result="b"/><feFlood flood-opacity="0.302"/><feComposite operator="in" in2="b"/><feComposite in="SourceGraphic"/></filter><linearGradient id="c" x1="0.5" x2="0.5" y2="1" gradientUnits="objectBoundingBox"><stop offset="0" stop-color="#feb060"/><stop offset="1" stop-color="#fff"/></linearGradient><filter id="d" x="34.5" y="31.5" width="79" height="79" filterUnits="userSpaceOnUse"><feOffset dy="3" input="SourceAlpha"/><feGaussianBlur stdDeviation="3" result="e"/><feFlood flood-opacity="0.161"/><feComposite operator="in" in2="e"/><feComposite in="SourceGraphic"/></filter></defs><g transform="translate(-301.5 -423.5)"><g transform="translate(315 437)"><g transform="matrix(1, 0, 0, 1, -13.5, -13.5)" filter="url(#a)"><rect width="1020" height="922" rx="12" transform="translate(13.5 13.5)" fill="#fff"/></g><text transform="translate(105.143 64)" fill="#707070" font-size="27" font-family="Poppins-Medium, Poppins" font-weight="500"><tspan x="0" y="0" xml:space="preserve"> Subscriber Status</tspan></text><text transform="translate(13 278.701)" fill="#707070" font-size="16" font-family="SegoeUI-Semibold, Segoe UI" font-weight="600"><tspan x="0" y="0">130 k</tspan></text><rect width="58" height="195" transform="translate(525.839 443.753)" opacity="0.48" fill="url(#c)"/><g transform="translate(13 135.09)"><path d="M-806,3589.073s9.733-26.385,42.827-26.385,56.455-108.837,56.455-108.837,27.253-56.065,72.028,0c-1.947,3.3,38.934,23.087,66.188-49.472,9.733-62.663,87.6-102.239,140.162-36.278-1.947,3.3,42.827,23.087,64.241-36.28,5.84-6.593,27.254-42.874,54.507,52.772,5.84,3.3,27.254,155.008,81.761,36.278,3.893,3.3,11.68-98.943,29.2-108.836s40.881-19.789,64.241,19.787c0,6.6,48.667,26.387,85.655-19.787,0,0,21.414-49.472,52.561-39.579,3.894,3.3,46.927-22,91.2-97.775" transform="translate(872.6 -3077.738)" fill="none" stroke="#333" stroke-width="3"/><path d="M-806,3471.877s15.582-100.1,79.856-54.892c1.948-3.23,40.9,38.746,89.595-64.581,0-6.458,21.425-29.06,35.059-29.06s41.8-35.518,41.8-35.518,24.769-69.243,50.09,8.251,22.393,123.1,89.571,61.549c7.86-5.309,19.23-49.563,44.129,13.41.113.283,17.832,9.995,18.132,10.782,0,0,5.588,6.106,13.378,35.167s13.634,16.144,37.006,0a417.48,417.48,0,0,0,40.9-32.291l23.372-61.35,38.954-16.144s56.483-51.665,74.013,16.144c1.948,6.458,9.089,6.458,26.619,0,3.9-6.458,34.214-71.873,68.4-3.3,14.7,10.2,46.148,17,74.179-64.039,0,0,25.575-58.587,54.791-71.5" transform="translate(873.998 -3020.275)" fill="none" stroke="#56ccf2" stroke-width="3"/><path d="M-806,3495.853s29.233-113.014,91.6-125.928c5.847,6.458,48.722,9.686,77.956-35.521,1.949,0,35.08-38.746,64.313-16.144,13.452,12.835,22.273,15.059,47.609,8.6,21.377-16.938,34.245-34.433,69.325,7.543,15.021,18.25,31.182,61.35,68.211-16.144,1.949-3.228,36.375-80.761,51.966-61.387,13.583,14.562,6.457,7.2,15.036,20.5,7.393,11.46,16.219,26.908,20.906,40.885,9.744,29.06,7.588,48.434,17.332,51.665s15.591,45.2,33.131,54.892,76.007,51.662,107.189-90.413c-1.949,0,23.387-103.326,74.058-54.892-1.949,0,17.54,12.916,29.233,12.916s54.569-12.916,54.569-12.916L92.441,3166.5" transform="translate(872.6 -3120.132)" fill="none" stroke="#ffb628" stroke-width="3"/><line x2="938.981" transform="translate(48.5 575.916)" fill="none" stroke="#707070" stroke-width="1" opacity="0.66"/><line x2="938.981" transform="translate(48.5 491.964)" fill="none" stroke="#707070" stroke-width="1" opacity="0.45"/><line x2="938.981" transform="translate(48.5 409.993)" fill="none" stroke="#707070" stroke-width="1" opacity="0.45"/><line x2="938.981" transform="translate(48.5 340.699)" fill="none" stroke="#707070" stroke-width="1" opacity="0.45"/><line x2="938.981" transform="translate(48.5 250.616)" fill="none" stroke="#707070" stroke-width="1" opacity="0.45"/><line x2="938.981" transform="translate(48.5 175.527)" fill="none" stroke="#707070" stroke-width="1" opacity="0.45"/><line x2="938.981" transform="translate(48.5 98.032)" fill="none" stroke="#707070" stroke-width="1" opacity="0.45"/><text transform="translate(13 569.047)" fill="#707070" font-size="16" font-family="SegoeUI-Bold, Segoe UI" font-weight="700"><tspan x="0" y="0">0</tspan></text><text transform="translate(3 479.964)" fill="#707070" font-size="17" font-family="SegoeUI-Semibold, Segoe UI" font-weight="600"><tspan x="0" y="0">20K</tspan></text><text transform="translate(2 401.43)" fill="#707070" font-size="17" font-family="SegoeUI-Semibold, Segoe UI" font-weight="600"><tspan x="0" y="0">30 k</tspan></text><text transform="translate(2 332.136)" fill="#707070" font-size="17" font-family="SegoeUI-Semibold, Segoe UI" font-weight="600"><tspan x="0" y="0">60 k</tspan></text><text transform="translate(2 242.053)" fill="#707070" font-size="17" font-family="SegoeUI-Semibold, Segoe UI" font-weight="600"><tspan x="0" y="0">80 k</tspan></text><text transform="translate(0 169.448)" fill="#707070" font-size="16" font-family="SegoeUI-Semibold, Segoe UI" font-weight="600"><tspan x="0" y="0">100 k</tspan></text><ellipse cx="9.5" cy="20.788" rx="9.5" ry="20.788" transform="translate(530.002 136.279)" fill="#feb060"/><rect width="118" height="110.871" rx="4" transform="translate(473.25)" fill="#feb060"/><text transform="translate(47 603.385)" fill="#787c88" font-size="18" font-family="SegoeUI-Semibold, Segoe UI" font-weight="600"><tspan x="0" y="0">Jan</tspan></text><text transform="translate(218.781 603.385)" fill="#787c88" font-size="18" font-family="SegoeUI-Semibold, Segoe UI" font-weight="600"><tspan x="0" y="0">Feb</tspan></text><text transform="translate(215.292 603.385)" fill="#787c88" font-size="18" font-family="SegoeUI-Semibold, Segoe UI" font-weight="600"><tspan x="0" y="0">Mar</tspan></text><text transform="translate(296.711 603.385)" fill="#787c88" font-size="18" font-family="SegoeUI-Semibold, Segoe UI" font-weight="600"><tspan x="0" y="0">Apr</tspan></text><text transform="translate(376.366 603.385)" fill="#787c88" font-size="18" font-family="SegoeUI-Semibold, Segoe UI" font-weight="600"><tspan x="0" y="0">May</tspan></text><text transform="translate(459.693 603.385)" fill="#787c88" font-size="18" font-family="SegoeUI-Semibold, Segoe UI" font-weight="600"><tspan x="0" y="0">Jun</tspan></text><text transform="translate(534.659 603.385)" fill="#feb060" font-size="18" font-family="SegoeUI-Semibold, Segoe UI" font-weight="600"><tspan x="0" y="0">Jul</tspan></text><text transform="translate(603.635 603.385)" fill="#787c88" font-size="18" font-family="SegoeUI-Semibold, Segoe UI" font-weight="600"><tspan x="0" y="0">Aug</tspan></text><text transform="translate(763.268 603.385)" fill="#787c88" font-size="18" font-family="SegoeUI-Semibold, Segoe UI" font-weight="600"><tspan x="0" y="0">Oct</tspan></text><text transform="translate(685.975 603.385)" fill="#787c88" font-size="18" font-family="SegoeUI-Semibold, Segoe UI" font-weight="600"><tspan x="0" y="0">Sep</tspan></text><text transform="translate(775.895 603.385)" fill="#787c88" font-size="18" font-family="SegoeUI-Semibold, Segoe UI" font-weight="600"><tspan x="0" y="0">Nov</tspan></text><text transform="translate(933 603.385)" fill="#787c88" font-size="18" font-family="SegoeUI-Semibold, Segoe UI" font-weight="600"><tspan x="0" y="0">Dec</tspan></text></g><text transform="translate(274.571 872)" font-size="16" font-family="Montserrat-Regular, Montserrat"><tspan x="0" y="0">Weekly</tspan></text><text transform="translate(543.78 872)" font-size="16" font-family="Montserrat-Regular, Montserrat"><tspan x="0" y="0">Monthly</tspan></text><text transform="translate(809.255 872)" font-size="16" font-family="Montserrat-Regular, Montserrat"><tspan x="0" y="0">Yearly</tspan></text></g><rect width="22" height="22" rx="5" transform="translate(541.696 1291)" fill="#feb060"/><rect width="22" height="22" rx="5" transform="translate(797.903 1291)" fill="#56ccf2"/><rect width="22" height="22" rx="5" transform="translate(1068.865 1291)" fill="#333"/><g transform="matrix(1, 0, 0, 1, 301.5, 423.5)" filter="url(#d)"><circle cx="30.5" cy="30.5" r="30.5" transform="translate(43.5 37.5)" fill="#feb060" opacity="0.57"/></g><path d="M7.909,24.091v2.5H19.979v-2.5Zm.2-4.495-.173,2.5,12.038.818.157-2.483L8.114,19.6ZM4.4,18.559V30.628H23.483V18.559h-2V28.616H6.4V18.559h-2Zm4.62-4.274-.6,2.42,11.708,2.907.6-2.436L9.026,14.285Zm2.593-6.05-1.273,2.153,10.4,6.113,1.273-2.169ZM17.967,2.5,15.893,3.9l6.71,10.01,2.074-1.383ZM26.076,0,23.594.3l1.462,11.975,2.483-.3Z" transform="translate(356.029 475.229)" fill="#ec7801"/></g></svg>