<svg xmlns="http://www.w3.org/2000/svg" xmlns:xlink="http://www.w3.org/1999/xlink" width="1160" height="521" viewBox="0 0 1160 521">
  <defs>
    <filter id="Rectangle_6" x="0" y="0" width="1160" height="521" filterUnits="userSpaceOnUse">
      <feOffset input="SourceAlpha"/>
      <feGaussianBlur stdDeviation="3" result="blur"/>
      <feFlood flood-opacity="0.161"/>
      <feComposite operator="in" in2="blur"/>
      <feComposite in="SourceGraphic"/>
    </filter>
    <linearGradient id="linear-gradient" x1="0.5" x2="0.5" y2="1" gradientUnits="objectBoundingBox">
      <stop offset="0" stop-color="#feb060"/>
      <stop offset="1" stop-color="#fff"/>
    </linearGradient>
    <filter id="Ellipse_10" x="14" y="9" width="79" height="79" filterUnits="userSpaceOnUse">
      <feOffset dy="3" input="SourceAlpha"/>
      <feGaussianBlur stdDeviation="3" result="blur-2"/>
      <feFlood flood-opacity="0.161"/>
      <feComposite operator="in" in2="blur-2"/>
      <feComposite in="SourceGraphic"/>
    </filter>
  </defs>
  <g id="Group_434" data-name="Group 434" transform="translate(-308 -425)">
    <g transform="matrix(1, 0, 0, 1, 308, 425)" filter="url(#Rectangle_6)">
      <rect id="Rectangle_6-2" data-name="Rectangle 6" width="1142" height="503" rx="12" transform="translate(9 9)" fill="#fff"/>
    </g>
    <text id="_Subscriber_Status" data-name=" Subscriber Status" transform="translate(414 478)" fill="#707070" font-size="18" font-family="Montserrat-Medium, Montserrat" font-weight="500"><tspan x="0" y="0" xml:space="preserve"> Subscriber Status</tspan></text>
    <text id="_130_k" data-name="130 k" transform="translate(330 591)" fill="#707070" font-size="16" font-family="SegoeUI-Semibold, Segoe UI" font-weight="600"><tspan x="0" y="0">130 k</tspan></text>
    <rect id="Rectangle_138" data-name="Rectangle 138" width="58" height="195" transform="translate(905 616)" opacity="0.48" fill="url(#linear-gradient)"/>
    <path id="Path_164" data-name="Path 164" d="M-806,3354.085s9.629-11.423,42.369-11.423,55.851-47.119,55.851-47.119,26.962-24.272,71.258,0c-1.926,1.428,38.518,10,65.48-21.418,9.629-27.129,86.665-44.263,138.664-15.706-1.926,1.428,42.37,10,63.555-15.707,5.778-2.854,26.962-18.562,53.925,22.847,5.778,1.428,26.963,67.108,80.887,15.706,3.852,1.428,11.555-42.836,28.888-47.119s40.444-8.567,63.554,8.566c0,2.856,45.634-48.668,97.634-22,0,0,47.853,27.717,78.667,32,3.852,1.429,105.53-53.862,149.333-86.667" transform="translate(1202.6 -2585.711)" fill="none" stroke="#333" stroke-width="3"/>
    <path id="Path_165" data-name="Path 165" d="M-806,3308.915s15.273-43.336,78.273-23.765c1.909-1.4,40.091,16.774,87.818-27.959,0-2.8,21-12.581,34.364-12.581s40.968-15.377,40.968-15.377,24.278-29.978,49.1,3.572,21.949,53.292,87.8,26.646c7.7-2.3,18.849-21.458,43.254,5.806.11.123,17.478,4.327,17.772,4.668,0,0,5.477,2.644,13.113,15.225s13.364,6.989,36.273,0,40.091-13.979,40.091-13.979l22.909-26.561,38.182-6.989s55.364-22.367,72.546,6.989c1.909,2.8,34.213,31.458,50.213-6.989,3.818-2.8,18.667-32.22,84,47.529C100,3306.694,40,3206.735,76,3182.735c0,0,90.03-35.741,118.667-41.333" transform="translate(1203.998 -2566.401)" fill="none" stroke="#56ccf2" stroke-width="3"/>
    <path id="Path_166" data-name="Path 166" d="M-806,3309.088s29.818-48.928,93.429-54.519c5.964,2.8,49.7,4.193,79.514-15.378,1.988,0,35.781-16.774,65.6-6.989,13.721,5.557,22.718,6.519,48.561,3.723,21.8-7.333,34.929-14.907,70.711,3.266,15.321,7.9,17.586-39.433,37.586-3.266,1.851-1.3,12.327,14.726,65.333,11.833,1.044.266,28.236-27.319,29.333-26.74,25.333-18.593,37.917-23.018,46.667-17.26,7.541,4.962,45.854,11.208,50.635,17.26,9.939,12.581,8.725,31.333,18.664,32.731s14.958,15.963,32.849,20.157,7.171,26.793,38.976-34.715c-1.988,0,23.854-44.733,75.538-23.765-1.988,0,17.891,5.592,29.818,5.592s55.66-5.592,55.66-5.592l155.193-50.334" transform="translate(1202.6 -2599.426)" fill="none" stroke="#ffb628" stroke-width="3"/>
    <line id="Line_11" data-name="Line 11" x2="1055.779" transform="translate(378.5 796.334)" fill="none" stroke="#707070" stroke-width="1" opacity="0.66"/>
    <line id="Line_12" data-name="Line 12" x2="1055.779" transform="translate(378.5 759.988)" fill="none" stroke="#707070" stroke-width="1" opacity="0.45"/>
    <line id="Line_13" data-name="Line 13" x2="1055.779" transform="translate(378.5 724.5)" fill="none" stroke="#707070" stroke-width="1" opacity="0.45"/>
    <line id="Line_14" data-name="Line 14" x2="1055.779" transform="translate(378.5 694.5)" fill="none" stroke="#707070" stroke-width="1" opacity="0.45"/>
    <line id="Line_15" data-name="Line 15" x2="1055.779" transform="translate(378.5 655.5)" fill="none" stroke="#707070" stroke-width="1" opacity="0.45"/>
    <line id="Line_18" data-name="Line 18" x2="1055.779" transform="translate(378.5 622.991)" fill="none" stroke="#707070" stroke-width="1" opacity="0.45"/>
    <line id="Line_17" data-name="Line 17" x2="1055.779" transform="translate(378.5 589.441)" fill="none" stroke="#707070" stroke-width="1" opacity="0.45"/>
    <text id="_0" data-name="0" transform="translate(343 803)" fill="#707070" font-size="16" font-family="SegoeUI-Bold, Segoe UI" font-weight="700"><tspan x="0" y="0">0</tspan></text>
    <text id="_20K" data-name="20K" transform="translate(333 765)" fill="#707070" font-size="17" font-family="SegoeUI-Semibold, Segoe UI" font-weight="600"><tspan x="0" y="0">20K</tspan></text>
    <text id="_30_k" data-name="30 k" transform="translate(332 731)" fill="#707070" font-size="17" font-family="SegoeUI-Semibold, Segoe UI" font-weight="600"><tspan x="0" y="0">30 k</tspan></text>
    <text id="_60_k" data-name="60 k" transform="translate(332 701)" fill="#707070" font-size="17" font-family="SegoeUI-Semibold, Segoe UI" font-weight="600"><tspan x="0" y="0">60 k</tspan></text>
    <text id="_80_k" data-name="80 k" transform="translate(332 662)" fill="#707070" font-size="17" font-family="SegoeUI-Semibold, Segoe UI" font-weight="600"><tspan x="0" y="0">80 k</tspan></text>
    <text id="_100_k" data-name="100 k" transform="translate(330 630)" fill="#707070" font-size="16" font-family="SegoeUI-Semibold, Segoe UI" font-weight="600"><tspan x="0" y="0">100 k</tspan></text>
    <ellipse id="Ellipse_30" data-name="Ellipse 30" cx="9.5" cy="9" rx="9.5" ry="9" transform="translate(925 608)" fill="#feb060"/>
    <rect id="Rectangle_139" data-name="Rectangle 139" width="118" height="48" rx="4" transform="translate(806 515)" fill="#feb060"/>
    <text id="Jan" transform="translate(377 819)" fill="#787c88" font-size="18" font-family="SegoeUI-Semibold, Segoe UI" font-weight="600"><tspan x="0" y="0">Jan</tspan></text>
    <text id="Feb" transform="translate(464 819)" fill="#787c88" font-size="18" font-family="SegoeUI-Semibold, Segoe UI" font-weight="600"><tspan x="0" y="0">Feb</tspan></text>
    <text id="Mar" transform="translate(554 819)" fill="#787c88" font-size="18" font-family="SegoeUI-Semibold, Segoe UI" font-weight="600"><tspan x="0" y="0">Mar</tspan></text>
    <text id="Apr" transform="translate(647 819)" fill="#787c88" font-size="18" font-family="SegoeUI-Semibold, Segoe UI" font-weight="600"><tspan x="0" y="0">Apr</tspan></text>
    <text id="May" transform="translate(738 819)" fill="#787c88" font-size="18" font-family="SegoeUI-Semibold, Segoe UI" font-weight="600"><tspan x="0" y="0">May</tspan></text>
    <text id="Jun" transform="translate(833 819)" fill="#787c88" font-size="18" font-family="SegoeUI-Semibold, Segoe UI" font-weight="600"><tspan x="0" y="0">Jun</tspan></text>
    <text id="Jul" transform="translate(922 819)" fill="#feb060" font-size="18" font-family="SegoeUI-Semibold, Segoe UI" font-weight="600"><tspan x="0" y="0">Jul</tspan></text>
    <text id="Aug" transform="translate(1004 819)" fill="#787c88" font-size="18" font-family="SegoeUI-Semibold, Segoe UI" font-weight="600"><tspan x="0" y="0">Aug</tspan></text>
    <text id="Oct" transform="translate(1188 819)" fill="#787c88" font-size="18" font-family="SegoeUI-Semibold, Segoe UI" font-weight="600"><tspan x="0" y="0">Oct</tspan></text>
    <text id="Sep" transform="translate(1098 819)" fill="#787c88" font-size="18" font-family="SegoeUI-Semibold, Segoe UI" font-weight="600"><tspan x="0" y="0">Sep</tspan></text>
    <text id="Nov" transform="translate(1278 819)" fill="#787c88" font-size="18" font-family="SegoeUI-Semibold, Segoe UI" font-weight="600"><tspan x="0" y="0">Nov</tspan></text>
    <text id="Dec" transform="translate(1372 814)" fill="#787c88" font-size="18" font-family="SegoeUI-Semibold, Segoe UI" font-weight="600"><tspan x="0" y="0">Dec</tspan></text>
    <text id="Week" transform="translate(693 891)" font-size="16" font-family="Montserrat-Regular, Montserrat"><tspan x="0" y="0">Week</tspan></text>
    <text id="Monthly" transform="translate(890 891)" font-size="16" font-family="Montserrat-Regular, Montserrat"><tspan x="0" y="0">Monthly</tspan></text>
    <text id="Year" transform="translate(1089 891)" font-size="16" font-family="Montserrat-Regular, Montserrat"><tspan x="0" y="0">Year</tspan></text>
    <rect id="Rectangle_141" data-name="Rectangle 141" width="22" height="22" rx="5" transform="translate(660 875)" fill="#feb060"/>
    <rect id="Rectangle_142" data-name="Rectangle 142" width="22" height="22" rx="5" transform="translate(851 875)" fill="#56ccf2"/>
    <rect id="Rectangle_143" data-name="Rectangle 143" width="22" height="22" rx="5" transform="translate(1041 875)" fill="#333"/>
    <text id="_10_000_SUBSCRIBER" data-name="10,000
SUBSCRIBER" transform="translate(863 532)" fill="#fff" font-size="16" font-family="SegoeUI-Semibold, Segoe UI" font-weight="600"><tspan x="-22.914" y="0">10,000</tspan><tspan x="-45.402" y="21">SUBSCRIBER</tspan></text>
    <g transform="matrix(1, 0, 0, 1, 308, 425)" filter="url(#Ellipse_10)">
      <circle id="Ellipse_10-2" data-name="Ellipse 10" cx="30.5" cy="30.5" r="30.5" transform="translate(23 15)" fill="#feb060" opacity="0.57"/>
    </g>
    <g id="Group_356" data-name="Group 356" transform="translate(760.122 290.5)">
      <line id="Line_22" data-name="Line 22" x2="15.407" transform="translate(643.297 164.635)" fill="none" stroke="#707070" stroke-linecap="round" stroke-width="2"/>
      <line id="Line_23" data-name="Line 23" x2="15.407" transform="translate(643.297 169.5)" fill="none" stroke="#707070" stroke-linecap="round" stroke-width="2"/>
      <line id="Line_24" data-name="Line 24" x2="15.407" transform="translate(643.297 174.365)" fill="none" stroke="#707070" stroke-linecap="round" stroke-width="2"/>
    </g>
    <line id="Line_31" data-name="Line 31" x2="1133.376" y2="0.5" transform="translate(326.124 513)" fill="none" stroke="#bdbdbd" stroke-linecap="round" stroke-width="1" stroke-dasharray="5 5"/>
    <path id="stackoverflow" d="M7.909,24.091v2.5H19.979v-2.5Zm.2-4.495-.173,2.5,12.038.818.157-2.483L8.114,19.6ZM4.4,18.559V30.628H23.483V18.559h-2V28.616H6.4V18.559h-2Zm4.62-4.274-.6,2.42,11.708,2.907.6-2.436L9.026,14.285Zm2.593-6.05-1.273,2.153,10.4,6.113,1.273-2.169ZM17.967,2.5,15.893,3.9l6.71,10.01,2.074-1.383ZM26.076,0,23.594.3l1.462,11.975,2.483-.3Z" transform="translate(342.029 454.229)" fill="#ec7801"/>
  </g>
</svg>
