<svg xmlns="http://www.w3.org/2000/svg" xmlns:xlink="http://www.w3.org/1999/xlink" width="79" height="79" viewBox="0 0 79 79">
  <defs>
    <filter id="Ellipse_10" x="0" y="0" width="79" height="79" filterUnits="userSpaceOnUse">
      <feOffset dy="3" input="SourceAlpha"/>
      <feGaussianBlur stdDeviation="3" result="blur"/>
      <feFlood flood-opacity="0.161"/>
      <feComposite operator="in" in2="blur"/>
      <feComposite in="SourceGraphic"/>
    </filter>
  </defs>
  <g id="Group_62" data-name="Group 62" transform="translate(8.928 5.928)">
    <g transform="matrix(1, 0, 0, 1, -8.93, -5.93)" filter="url(#Ellipse_10)">
      <circle id="Ellipse_10-2" data-name="Ellipse 10" cx="30.5" cy="30.5" r="30.5" transform="translate(9 6)" fill="#56ccf2" opacity="0.74"/>
    </g>
    <g id="stacked-files" transform="translate(8.946 13.815)" opacity="0.76">
      <g id="Group_33" data-name="Group 33">
        <path id="Path_45" data-name="Path 45" d="M41.433,26.067,22,18.428a2.032,2.032,0,0,0-1.481,0L1.087,26.067A1.616,1.616,0,0,0,.01,27.476a1.582,1.582,0,0,0,.962,1.47L20.4,38.081a2.04,2.04,0,0,0,1.714,0L41.55,28.946a1.584,1.584,0,0,0,.962-1.47A1.622,1.622,0,0,0,41.433,26.067Z" transform="translate(-0.008 -18.288)" fill="#333"/>
        <path id="Path_46" data-name="Path 46" d="M39.828,137.43l-18.577,8.735L2.677,137.43a1.945,1.945,0,0,0-2.462.661,1.512,1.512,0,0,0,.749,2.169L20.4,149.4a2.042,2.042,0,0,0,1.714,0l19.433-9.137a1.515,1.515,0,0,0,.749-2.169A1.949,1.949,0,0,0,39.828,137.43Z" transform="translate(0 -122.816)" fill="#333"/>
        <path id="Path_47" data-name="Path 47" d="M39.828,189.1l-18.577,8.733L2.677,189.1a1.945,1.945,0,0,0-2.462.66,1.512,1.512,0,0,0,.749,2.17L20.4,201.064a2.033,2.033,0,0,0,1.714,0l19.433-9.134a1.515,1.515,0,0,0,.749-2.17A1.949,1.949,0,0,0,39.828,189.1Z" transform="translate(0 -168.22)" fill="#333"/>
      </g>
    </g>
  </g>
</svg>
