<svg xmlns="http://www.w3.org/2000/svg" width="195.699" height="52.743" viewBox="0 0 195.699 52.743">
  <g id="Group_430" data-name="Group 430" transform="translate(-24.66 -12.301)">
    <g id="Group_429" data-name="Group 429" transform="translate(197.702 12.301)">
      <path id="Path_63189" data-name="Path 63189" d="M334.518,45.491c1.256-.923,2.472-1.907,3.775-2.758a49.436,49.436,0,0,1,14.66-6.212c1.127-.3,2.276-.52,3.42-.745a1.744,1.744,0,0,1,.643.134c-.075.229-.079.569-.237.67a22.417,22.417,0,0,1-3.4,2.036c-4.049,1.681-8.135,3.276-12.231,4.839-2.14.817-4.33,1.5-6.5,2.244Z" transform="translate(-334.36 -22.651)" fill="#ffd300"/>
      <path id="Path_63190" data-name="Path 63190" d="M338.125,28.7c.466-1.1.922-2.211,1.4-3.309,1.15-2.641,2.257-5.3,3.492-7.9a16.965,16.965,0,0,1,1.988-2.993c.418-.541.88-.442,1.291.124a2.441,2.441,0,0,1,.219,2.207,11.622,11.622,0,0,1-2.169,3.876q-2.945,3.861-5.9,7.714c-.083.108-.172.213-.258.319Z" transform="translate(-335.951 -13.112)"/>
      <path id="Path_63191" data-name="Path 63191" d="M337.791,34.175a10.97,10.97,0,0,1,2.315-4.09c1.776-2.126,3.615-4.2,5.458-6.272.867-.974,1.822-1.869,2.7-2.834a2.36,2.36,0,0,1,1.62-.686c.544-.06.775.24.527.743a8.255,8.255,0,0,1-1.054,1.677,36.811,36.811,0,0,1-2.563,2.8c-2.665,2.578-5.369,5.115-8.054,7.672C338.41,33.5,338.107,33.845,337.791,34.175Z" transform="translate(-335.804 -15.822)" fill="#cc001b"/>
      <path id="Path_63192" data-name="Path 63192" d="M353.443,27.258a5.924,5.924,0,0,1-1.654,2.41,23.834,23.834,0,0,1-6.35,3.994,29.483,29.483,0,0,0-3.166,1.968c-1.975,1.3-3.936,2.62-5.919,3.9,1.22-1.13,2.425-2.278,3.667-3.385.885-.789,1.806-1.541,2.737-2.277,2.963-2.342,5.905-4.718,9.415-6.235a8.066,8.066,0,0,1,.8-.268C353.1,27.332,353.233,27.308,353.443,27.258Z" transform="translate(-335.17 -18.898)"/>
      <path id="Path_63193" data-name="Path 63193" d="M340.979,13.122A12.6,12.6,0,0,1,341.027,15a26.921,26.921,0,0,1-2.5,7.724,19.389,19.389,0,0,1-1.44,2.718c.146-.9.25-1.807.448-2.695.513-2.3,1.021-4.595,1.624-6.867a4.816,4.816,0,0,1,1.572-2.774Z" transform="translate(-335.495 -12.654)" fill="#ffd300"/>
      <path id="Path_63194" data-name="Path 63194" d="M334.417,22.025c-.343-3.528-.286-8.966.942-9.724C336.647,14.167,336.124,18.565,334.417,22.025Z" transform="translate(-334.236 -12.301)"/>
    </g>
    <path id="Path_63195" data-name="Path 63195" d="M39.555,60.445A14.707,14.707,0,0,1,28.927,56.3a13.785,13.785,0,0,1-4.267-10.35V24.141h8V45.853A6.688,6.688,0,0,0,39.53,52.72a6.678,6.678,0,0,0,4.923-1.969,6.581,6.581,0,0,0,1.969-4.9V24.141h8V45.954A13.782,13.782,0,0,1,50.158,56.3,14.687,14.687,0,0,1,39.555,60.445Z" transform="translate(0 -5.222)" fill="#1a1818"/>
    <path id="Path_63196" data-name="Path 63196" d="M106.236,40.309h7.549v23.5a12.975,12.975,0,0,1-3.711,9.67,13.586,13.586,0,0,1-9.9,3.636,14.145,14.145,0,0,1-8.685-2.625,12.476,12.476,0,0,1-4.645-7.2H94.6c.833,1.793,2.954,2.928,5.58,2.928a5.744,5.744,0,0,0,4.418-1.767,6.694,6.694,0,0,0,1.641-4.7v-.808a10.363,10.363,0,0,1-7.978,3.459,11.955,11.955,0,0,1-9.089-3.838,13.329,13.329,0,0,1-3.636-9.568A13.292,13.292,0,0,1,89.17,43.49a11.933,11.933,0,0,1,9.089-3.812,10.4,10.4,0,0,1,7.978,3.459ZM99.773,59.521a6.514,6.514,0,1,0,0-13.027,6.2,6.2,0,0,0-4.62,1.869,6.774,6.774,0,0,0,0,9.291A6.2,6.2,0,0,0,99.773,59.521Z" transform="translate(-26.847 -12.074)" fill="#cc001b"/>
    <path id="Path_63197" data-name="Path 63197" d="M160.492,24.141a12.426,12.426,0,0,1,8.937,3.459,11.521,11.521,0,0,1,3.585,8.685,11.521,11.521,0,0,1-3.585,8.685,12.426,12.426,0,0,1-8.937,3.459h-5.15V59.814h-8.028V24.141Zm-.2,16.738a4.266,4.266,0,0,0,3.207-1.312,4.828,4.828,0,0,0,0-6.564,4.266,4.266,0,0,0-3.207-1.312h-4.948v9.189Z" transform="translate(-54.095 -5.222)" fill="#1a1818"/>
    <path id="Path_63198" data-name="Path 63198" d="M216.605,40.309h7.548V66.667h-7.548v-2.9a10.457,10.457,0,0,1-7.978,3.535,11.777,11.777,0,0,1-9.064-3.964,13.972,13.972,0,0,1-3.661-9.871,13.954,13.954,0,0,1,3.661-9.846,11.84,11.84,0,0,1,9.064-3.938,10.385,10.385,0,0,1,7.978,3.51Zm-1.818,17.824a6.418,6.418,0,0,0,1.818-4.671,6.3,6.3,0,0,0-6.463-6.488,6.108,6.108,0,0,0-4.57,1.843,6.808,6.808,0,0,0,0,9.316A6.128,6.128,0,0,0,210.142,60,6.3,6.3,0,0,0,214.788,58.133Z" transform="translate(-75.524 -12.074)" fill="#1a1818"/>
    <path id="Path_63199" data-name="Path 63199" d="M257.2,64.773a7.728,7.728,0,0,1-2.954-6.109H261.8a2.747,2.747,0,0,0,2.8,2.626,2.341,2.341,0,0,0,2.575-2.02c0-1.312-1.414-2.272-4.241-2.9q-8.331-1.97-8.306-8.357a7.341,7.341,0,0,1,2.853-6.11,10.914,10.914,0,0,1,6.968-2.222,10.678,10.678,0,0,1,7.094,2.4,7.394,7.394,0,0,1,2.827,5.883h-7.549a2.331,2.331,0,0,0-2.424-2.272,2.075,2.075,0,0,0-2.221,1.793q0,1.931,4.393,2.954a13.9,13.9,0,0,1,5.554,2.424,6.76,6.76,0,0,1,2.6,5.756,7.66,7.66,0,0,1-2.9,6.362,11.352,11.352,0,0,1-7.271,2.323A10.873,10.873,0,0,1,257.2,64.773Z" transform="translate(-101.257 -12.074)" fill="#1a1818"/>
    <path id="Path_63200" data-name="Path 63200" d="M298.886,64.773a7.726,7.726,0,0,1-2.954-6.109h7.549a2.746,2.746,0,0,0,2.8,2.626,2.342,2.342,0,0,0,2.576-2.02c0-1.312-1.414-2.272-4.241-2.9q-8.332-1.97-8.307-8.357a7.34,7.34,0,0,1,2.853-6.11,10.914,10.914,0,0,1,6.968-2.222,10.677,10.677,0,0,1,7.094,2.4,7.393,7.393,0,0,1,2.828,5.883H308.5a2.331,2.331,0,0,0-2.424-2.272,2.076,2.076,0,0,0-2.222,1.793q0,1.931,4.393,2.954a13.9,13.9,0,0,1,5.554,2.424,6.759,6.759,0,0,1,2.6,5.756,7.659,7.659,0,0,1-2.9,6.362,11.35,11.35,0,0,1-7.271,2.323A10.871,10.871,0,0,1,298.886,64.773Z" transform="translate(-119.64 -12.074)" fill="#1a1818"/>
  </g>
</svg>
