<svg xmlns="http://www.w3.org/2000/svg" width="22" height="29" viewBox="0 0 44.616 58.689">
  <g id="Group_690" data-name="Group 690" transform="translate(-288 -846)">
    <g id="Group_686" data-name="Group 686" transform="translate(288 904.689) rotate(-90)">
      <path id="Path_73715" data-name="Path 73715" d="M4.459,36.412c.634-1.343,1.249-2.526,1.744-3.758a2.267,2.267,0,0,0,.046-1.475,42.746,42.746,0,0,0-1.666-4.038A2.135,2.135,0,0,0,3.559,26.2,17.5,17.5,0,0,0,.91,25.336c-.691-.174-.988-.5-.892-1.228a11.659,11.659,0,0,0,.011-1.454,9.473,9.473,0,0,0,7.934-5.195c-.229,1.5-.517,2.809-.618,4.134a14.931,14.931,0,0,0,27.314,9.24c3.3-5.147,3.562-10.546.492-15.836-3.1-5.337-7.969-7.727-14.114-7.413a14.173,14.173,0,0,0-6.973,2.369,2.237,2.237,0,0,1-1.1.384c-2.265.034-4.531-.017-6.8.028-1.194.023-1.044-1.045-1.425-1.653-.116-.185.111-.718.329-.955.8-.868,1.68-1.655,2.481-2.519a.788.788,0,0,1,1.12-.169,26.975,26.975,0,0,0,2.947,1.377,2.5,2.5,0,0,0,1.559.058,37.374,37.374,0,0,0,3.956-1.621,2.312,2.312,0,0,0,1.02-1.077c.452-1.017.733-2.109,1.167-3.134a1.17,1.17,0,0,1,.816-.62A37.87,37.87,0,0,1,23.956.045a1.087,1.087,0,0,1,.768.573c.44,1.057.745,2.172,1.2,3.222a2.14,2.14,0,0,0,.945,1.024,42.7,42.7,0,0,0,4.041,1.662,2.317,2.317,0,0,0,1.478-.048,30.835,30.835,0,0,0,3.028-1.421.751.751,0,0,1,1.053.133c.876.921,1.816,1.783,2.673,2.722a1.065,1.065,0,0,1,.138.929c-.425,1.031-1,2-1.391,3.043a2.488,2.488,0,0,0-.066,1.564A36.941,36.941,0,0,0,39.446,17.4a2.326,2.326,0,0,0,1.082,1.02,31.762,31.762,0,0,0,3.146,1.139.809.809,0,0,1,.683.918c-.042,1.209-.041,2.421,0,3.63a.81.81,0,0,1-.672.926c-1.09.352-2.183.711-3.235,1.16a2,2,0,0,0-.953.905c-.629,1.347-1.207,2.723-1.711,4.121a2.136,2.136,0,0,0,.063,1.388c.421,1.065.94,2.092,1.455,3.116a.746.746,0,0,1-.187,1.037c-.905.848-1.78,1.73-2.629,2.634a.752.752,0,0,1-1.044.169c-1.024-.518-2.049-1.042-3.114-1.461a2.156,2.156,0,0,0-1.4-.036c-1.37.491-2.72,1.05-4.037,1.669a2.146,2.146,0,0,0-.963,1.007c-.458,1.048-.815,2.142-1.172,3.232a.758.758,0,0,1-.85.633c-1.24-.032-2.483-.041-3.723,0-.552.02-.751-.221-.9-.692-.345-1.061-.693-2.126-1.138-3.146a2.151,2.151,0,0,0-.945-1.025c-1.344-.635-2.723-1.2-4.12-1.711a2,2,0,0,0-1.316.051c-1.091.44-2.128,1.011-3.211,1.471a.99.99,0,0,1-.864-.091C6.581,38.48,5.524,37.433,4.459,36.412Z" transform="translate(14.331)"/>
      <path id="Path_73716" data-name="Path 73716" d="M6.241,1.886A12.6,12.6,0,0,1,15.608.306,12.887,12.887,0,1,1,.69,8.778c.2-.57.453-.905,1.119-.822.458.057.929,0,1.394.014A3.581,3.581,0,0,0,6.818,6,3.612,3.612,0,0,0,6.241,1.886ZM4.992,9.418a8.635,8.635,0,0,0,3.288,10.9,8.735,8.735,0,0,0,10.472-13.9C15.63,3.584,10.488,3.4,7.638,6.059L8.731,7.5c4.037-1.89,7.229-1.547,9.254.965a6.737,6.737,0,0,1-7.565,10.678A6.589,6.589,0,0,1,7.06,16.2a6.965,6.965,0,0,1-.35-6.016Z" transform="translate(23.597 9.538)"/>
      <path id="Path_73717" data-name="Path 73717" d="M0,17.65V3.181c1.12,0,2.2.047,3.271-.017a11.285,11.285,0,0,0,1.973-.388A3.389,3.389,0,0,0,6.1,2.415,19.222,19.222,0,0,1,17.543.087C18.99.21,20.457.1,21.915.111A1.557,1.557,0,0,1,23.67,1.618,1.565,1.565,0,0,1,21.936,3.25q-2.558.039-5.118,0a1.39,1.39,0,0,0-1.43.92A6.968,6.968,0,0,1,8.81,8.376c-1.305.02-1.6.316-1.6,1.589,0,1.115.029,2.231.014,3.346a1.122,1.122,0,0,0,.9,1.221c1.067.322,2.14.638,3.176,1.045a1.981,1.981,0,0,1,.959.851A17.076,17.076,0,0,1,13.329,19a2.388,2.388,0,0,1-.026,1.206c-.293,1.288-1.092,1.664-2.424,1.592a6.516,6.516,0,0,1-5.635-3.2,1.706,1.706,0,0,0-1.72-.959C2.383,17.688,1.237,17.65,0,17.65Z" transform="translate(5.128 12.247)"/>
      <path id="Path_73718" data-name="Path 73718" d="M0,0H3.01V20.54H0Z" transform="translate(0 12.404)"/>
    </g>
  </g>
</svg>
