<svg width="24" height="24" viewBox="0 0 24 24" fill="none" xmlns="http://www.w3.org/2000/svg">
<g clip-path="url(#clip0_1107_62)">
<path d="M19.51 12.738C17.3741 12.799 15.2345 12.7298 13.0981 12.7802C12.3918 12.797 12.2185 12.5709 12.255 11.8819C12.3131 10.7905 12.2705 9.69337 12.2705 8.59863H12.2635C12.2635 7.3853 12.271 6.1715 12.2564 4.9577C12.2541 4.73875 12.4218 4.38152 11.9562 4.38776C11.3237 4.34913 10.6893 4.35892 10.0583 4.41705C8.15939 4.78831 6.43546 5.79788 5.1591 7.2861C3.88273 8.77432 3.12677 10.6563 3.01078 12.6343C2.92761 14.386 3.34124 16.1249 4.20165 17.6408C5.06206 19.1566 6.33242 20.3845 7.85913 21.1761C10.4686 22.5277 14.8813 22.3404 17.4678 19.7049C19.0921 18.1153 20.1143 15.9872 20.3531 13.6983C20.4374 12.9958 20.2871 12.7149 19.51 12.738ZM10.8391 5.77585C11.2138 5.53578 11.3445 5.62509 11.3276 6.06778C11.3093 6.53881 11.3234 7.0108 11.3234 7.48278C11.3234 7.51207 11.3234 7.54184 11.3234 7.57113C11.3262 9.51908 11.3262 9.51908 9.46292 9.07591C7.99825 8.7278 7.97906 8.64858 8.98189 7.47462C9.5156 6.81701 10.1411 6.24378 10.8381 5.77347L10.8391 5.77585ZM6.59869 7.15581C7.33828 6.57963 8.04229 5.9151 9.11117 5.79747C8.53645 6.5657 8.02073 7.26143 7.4966 7.95188C7.02539 8.57319 6.74997 7.88898 6.45254 7.72957C6.03333 7.50438 6.44552 7.27152 6.59774 7.15292L6.59869 7.15581ZM4.06934 11.7018C4.25732 10.623 4.67052 9.59847 5.28063 8.69851C5.42114 8.48388 5.55463 8.17036 5.84831 8.50118C6.14199 8.832 6.95748 8.73693 6.70783 9.44706C6.36954 10.3873 6.11693 11.3577 5.95323 12.3457C5.88531 12.7721 5.86237 12.7682 4.95274 12.7677C3.91244 12.7649 3.90167 12.7629 4.06701 11.6989L4.06934 11.7018ZM5.08764 17.3402C4.67165 16.6017 4.35436 15.8092 4.14429 14.9841C3.89323 13.8188 3.88293 13.8212 5.12277 13.8222C5.77853 13.6359 6.03615 14.0046 6.10219 14.72C6.16004 15.3657 6.33693 15.9943 6.6235 16.5724C6.95841 17.2418 6.48861 17.4285 6.07549 17.7281C5.5003 18.142 5.32277 17.8011 5.08342 17.3373L5.08764 17.3402ZM6.59962 19.1494C6.43849 19.0053 6.04036 18.7941 6.4591 18.567C6.74623 18.4114 7.05257 17.7622 7.44274 18.3177C8.00856 19.1244 8.6259 19.8849 9.22264 20.6834C8.25207 20.3657 7.35757 19.8422 6.59727 19.147L6.59962 19.1494ZM11.3262 20.8068C10.1599 20.1636 9.16562 19.2362 8.43105 18.1065C8.14298 17.6969 8.31068 17.5999 8.68446 17.4674C11.1749 16.5844 11.329 16.6886 11.3262 19.3486C11.3234 19.7832 11.3239 20.2206 11.3239 20.8044L11.3262 20.8068ZM10.5299 16.1302C10.0996 16.1594 9.67366 16.2365 9.25963 16.3602C9.23444 16.3486 9.20648 16.3449 9.17924 16.3495C9.152 16.3541 9.1267 16.3669 9.10648 16.3861L8.73176 16.5071C8.41631 16.5292 8.11144 16.6328 7.84555 16.8082C7.22586 15.9958 7.08067 15.011 6.89378 14.0425C6.8535 13.8342 7.05115 13.8414 7.17481 13.789L9.60018 13.7953C9.71447 13.8063 9.8292 13.8255 9.94396 13.8269C11.3337 13.85 11.2972 13.8505 11.3459 15.2607C11.3651 15.9228 11.1768 16.1513 10.5266 16.1278L10.5299 16.1302ZM11.3346 12.084C11.411 12.6367 11.1988 12.823 10.663 12.7754C10.1477 12.7298 9.62311 12.7653 9.10319 12.7653C8.69725 12.7653 8.29257 12.7653 7.88912 12.7653C6.77996 12.7653 6.77902 12.7653 7.0165 11.613C7.04601 11.469 7.08348 11.3249 7.12189 11.1809C7.55375 9.5671 7.55328 9.56949 9.1224 9.94592C9.53188 10.0899 9.95896 10.1746 10.3913 10.1975C11.2986 10.1423 11.433 10.6234 11.3328 11.3724C11.3006 11.6076 11.3001 11.8463 11.3314 12.0816L11.3346 12.084ZM13.8171 13.8293H14.426C14.7441 13.8293 15.0626 13.8293 15.3806 13.8293C16.5914 13.8293 16.591 13.8294 16.2617 15.0696C16.2238 15.2136 16.1952 15.3577 16.1502 15.4983C15.7155 16.848 15.7235 16.8207 14.3703 16.3472C13.872 16.1903 13.3538 16.1094 12.8325 16.1072C12.3609 16.0923 12.2705 15.8935 12.2574 15.4556C12.2087 13.826 12.1932 13.826 13.8157 13.8269L13.8171 13.8293ZM12.7717 20.3896C12.3806 20.681 12.225 20.5783 12.2527 20.0856C12.2756 19.6742 12.2574 19.2603 12.2574 18.8473C12.2574 18.759 12.2574 18.6702 12.2574 18.5818C12.2574 16.8533 12.2574 16.8533 13.9478 17.2163C15.3952 17.5289 15.3881 17.5231 14.4546 18.7528C13.9712 19.3765 13.4039 19.9267 12.7698 20.3872L12.7717 20.3896ZM16.8467 19.0634C16.0751 19.8194 15.1284 20.3614 14.0958 20.6383C14.7572 19.8953 15.3692 19.1077 15.9277 18.2808C16.3469 17.6648 16.6645 18.3504 16.9736 18.5012C17.428 18.7196 16.9882 18.9271 16.8467 19.061V19.0634ZM19.2205 14.9419C19.0464 15.7761 18.7258 16.571 18.2744 17.2878C18.1278 17.5198 18.0378 18.1319 17.576 17.7113C17.2369 17.4026 16.3156 17.4905 16.747 16.5364C16.9899 15.9731 17.1573 15.3788 17.2449 14.7695C17.3549 14.0723 17.5259 13.5691 18.2538 13.8293C19.4674 13.8274 19.4575 13.825 19.2205 14.9395V14.9419Z" fill="#797979"/>
<path d="M21.9232 4.0363C21.8141 3.7799 21.608 3.80967 21.3986 3.85001H21.2384C19.422 3.83608 17.6041 3.78615 15.7886 3.82792C15.1104 3.84377 14.8219 3.61521 14.819 2.95117C14.8158 2.25064 14.5305 1.89918 13.7979 2.0293C13.5671 2.0415 13.3357 2.03217 13.1066 2.00144C12.7319 1.9952 12.3843 2.10371 12.3572 2.53536C12.3267 3.00206 12.6967 3.15955 13.0621 3.10817C13.6944 3.02319 13.826 3.34394 13.901 3.89851C14.1221 5.54013 14.4092 7.17262 14.6425 8.81279C14.724 9.38561 14.9591 9.62329 15.5497 9.61032C17.168 9.57479 18.7878 9.59447 20.407 9.59447C20.8023 9.59447 21.2173 9.57622 21.1986 9.03125C21.1808 8.51078 20.7855 8.47766 20.3794 8.48006C18.962 8.48918 17.5446 8.47669 16.1277 8.49109C15.8036 8.49445 15.643 8.38402 15.6298 8.05032C15.6135 7.62683 15.9291 7.77663 16.1156 7.77519C17.6486 7.76223 19.1812 7.76704 20.7143 7.76416C21.0005 7.76416 21.4169 7.83954 21.4946 7.53176C21.7818 6.38998 22.1668 5.24963 21.9232 4.0363ZM15.7572 4.57263C15.738 4.57263 15.7193 4.57262 15.7005 4.57598C15.7193 4.57406 15.738 4.57262 15.7572 4.57214V4.57263ZM20.6838 6.60701C20.6838 6.61661 20.6805 6.62669 20.6791 6.63725C20.6791 6.62669 20.682 6.61661 20.6838 6.60701L20.5288 6.68478L16.7165 6.70015H16.5404C15.2935 6.60749 15.0092 6.19119 15.302 4.88616L20.8801 4.93082C20.8148 5.48939 20.7494 6.04812 20.6838 6.60701ZM20.666 6.7208C20.666 6.71696 20.666 6.71215 20.6684 6.70783C20.6674 6.70975 20.667 6.71648 20.666 6.72032V6.7208Z" fill="#797979"/>
<path d="M16.9203 10.8299C16.9203 10.3661 16.6749 10.1313 16.1859 10.0842C16.0955 10.0945 16.0081 10.123 15.9286 10.1681C15.849 10.2132 15.7789 10.2739 15.7223 10.3468C15.6658 10.4197 15.6238 10.5033 15.5988 10.5929C15.5739 10.6825 15.5664 10.7762 15.5769 10.8688C15.5765 10.9589 15.5948 11.0481 15.6305 11.1304C15.6663 11.2128 15.7188 11.2863 15.7845 11.3463C15.8501 11.4062 15.9275 11.4512 16.0114 11.4781C16.0953 11.5051 16.1838 11.5134 16.2711 11.5026C16.3585 11.5088 16.4462 11.4956 16.5282 11.4639C16.6102 11.4322 16.6846 11.3827 16.7462 11.3189C16.8078 11.255 16.8553 11.1783 16.8854 11.0939C16.9154 11.0095 16.9273 10.9194 16.9203 10.8299Z" fill="#797979"/>
<path d="M20.3395 10.8597C20.344 10.7663 20.3302 10.673 20.2988 10.5853C20.2674 10.4975 20.2192 10.4172 20.1569 10.3489C20.0946 10.2807 20.0195 10.2261 19.9362 10.1882C19.8528 10.1503 19.7629 10.13 19.6717 10.1285C19.5806 10.127 19.4901 10.1443 19.4056 10.1794C19.3211 10.2145 19.2443 10.2666 19.1799 10.3327C19.1155 10.3988 19.0647 10.4775 19.0305 10.5642C18.9964 10.6508 18.9796 10.7437 18.9812 10.8371C18.9784 11.0125 19.0437 11.1818 19.1627 11.3079C19.2818 11.4339 19.4447 11.5064 19.6158 11.5093C20.0515 11.4862 20.3226 11.2534 20.3395 10.8597Z" fill="#797979"/>
</g>
<defs>
<clipPath id="clip0_1107_62">
<rect width="19" height="20" fill="white" transform="translate(3 2)"/>
</clipPath>
</defs>
</svg>
