<svg xmlns="http://www.w3.org/2000/svg" width="26" height="28" viewBox="0 0 51.341 56">
  <g id="Group_697" data-name="Group 697" transform="translate(-258.33 -735)">
    <path id="Path_73719" data-name="Path 73719" d="M525.089-1060.939c-.825-.176-1.623-.35-2.424-.509-.061-.012-.169.066-.213.13-.542.781-1.077,1.566-1.614,2.351-.035.05-.071.1-.132.184l-2.356-1.009c.121-.608.236-1.186.352-1.763.087-.432.174-.863.265-1.293a.227.227,0,0,0-.118-.268q-.891-.617-1.765-1.26a.218.218,0,0,0-.3-.022c-.8.506-1.618,1-2.424,1.5-.133.083-.22.089-.33-.033q-.739-.822-1.492-1.632c-.112-.12-.1-.2-.005-.331.593-.82,1.176-1.647,1.758-2.465-.285-.474-.567-.937-.843-1.4a5.022,5.022,0,0,1-.3-.567.212.212,0,0,0-.264-.152c-.559.081-1.119.153-1.678.228l-1.393.185c-.255-.8-.507-1.6-.764-2.4-.043-.132.04-.167.125-.218.836-.494,1.668-.994,2.508-1.481a.232.232,0,0,0,.129-.277q-.116-1.015-.208-2.032c-.011-.124-.064-.155-.171-.186-.924-.267-1.846-.542-2.77-.813-.094-.028-.189-.039-.177-.178.073-.849.142-1.7.213-2.552l1.426-.169c.581-.068,1.163-.132,1.744-.208a.236.236,0,0,0,.153-.138c.212-.632.409-1.269.623-1.9a.184.184,0,0,0-.072-.24q-1.059-.893-2.111-1.793c-.073-.062-.145-.126-.237-.208.162-.316.312-.638.488-.947.246-.431.514-.848.764-1.276a.2.2,0,0,1,.279-.1c.916.3,1.837.575,2.753.87a.252.252,0,0,0,.325-.1c.424-.507.863-1,1.311-1.516l-1.408-2.94c.718-.518,1.43-1.035,2.149-1.543a.219.219,0,0,1,.2.026q1.1.955,2.188,1.926a.252.252,0,0,0,.338.047c.518-.255,1.044-.494,1.574-.724a.254.254,0,0,0,.188-.286c-.034-.916-.057-1.832-.083-2.748,0-.1,0-.192,0-.325.605-.147,1.21-.3,1.818-.439.234-.054.475-.081.71-.133.147-.033.217.013.279.152.393.879.8,1.753,1.2,2.631a.219.219,0,0,0,.245.155c.585-.023,1.17-.037,1.755-.037a.244.244,0,0,0,.268-.181c.351-.867.714-1.73,1.062-2.6.071-.176.135-.258.352-.212.773.163,1.552.3,2.329.446.128.023.164.077.164.2.007.964.025,1.927.031,2.891a.237.237,0,0,0,.177.269c.6.229,1.2.476,1.828.727l1.589-1.513c.215-.2.436-.4.642-.615a.16.16,0,0,1,.245-.025q1.011.7,2.028,1.389c.12.081.11.16.06.275-.384.876-.76,1.756-1.147,2.631a.233.233,0,0,0,.064.314c.43.427.847.867,1.258,1.312a.227.227,0,0,0,.293.077c.963-.351,1.929-.691,2.916-1.042.189.276.39.547.567.831.261.421.5.855.762,1.276a.256.256,0,0,1-.059.392c-.7.625-1.381,1.268-2.075,1.9a.222.222,0,0,0-.071.294q.345.894.662,1.8c.042.118.087.178.22.187.8.057,1.607.122,2.411.185a2.635,2.635,0,0,0,.389.035c.23-.017.329.087.357.3q.142,1.1.3,2.189c.021.147-.024.216-.173.265-.9.292-1.788.6-2.683.892a.259.259,0,0,0-.212.287c-.024.626-.067,1.251-.121,1.876a.344.344,0,0,0,.2.4c.884.462,1.758.943,2.689,1.446-.246.81-.491,1.623-.745,2.433a.186.186,0,0,1-.154.08q-1.389-.126-2.776-.267c-.31-.032-.3-.036-.444.245q-.457.879-.941,1.744a.229.229,0,0,0,.016.306c.591.754,1.171,1.516,1.761,2.27a.219.219,0,0,1,0,.333c-.482.557-.957,1.121-1.429,1.686a.2.2,0,0,1-.31.05q-1.244-.716-2.5-1.411a.262.262,0,0,0-.228-.013c-.634.495-1.26,1-1.909,1.521.226.939.458,1.922.706,2.9a.237.237,0,0,1-.151.329c-.7.336-1.4.682-2.1,1.029-.159-.211-.3-.39-.43-.57-.477-.641-.956-1.281-1.426-1.927a.217.217,0,0,0-.272-.093c-.734.181-1.469.358-2.208.517-.138.03-.144.111-.16.2-.117.622-.228,1.245-.341,1.868-.06.332-.121.663-.178,1-.02.114-.058.179-.2.18-.744.007-1.488.022-2.231.04-.13,0-.188-.029-.219-.171-.21-.974-.433-1.946-.652-2.918C525.092-1060.929,525.084-1060.955,525.089-1060.939Zm1.658-22.576a7.542,7.542,0,0,0-7.573,7.53,7.54,7.54,0,0,0,7.674,7.568,7.52,7.52,0,0,0,7.428-7.417A7.529,7.529,0,0,0,526.746-1083.515Z" transform="translate(-250.16 1829.167)"/>
    <path id="Path_73720" data-name="Path 73720" d="M664.721-927.361l-.686-3.058,1.21-.473c.333-.13.665-.263,1-.385a.19.19,0,0,0,.143-.211,9.412,9.412,0,0,1,.356-2.507.168.168,0,0,0-.077-.218c-.555-.4-1.107-.8-1.659-1.2-.077-.056-.153-.114-.238-.177l.894-1.734c.155-.3.317-.6.462-.9.063-.13.125-.139.255-.094.732.257,1.469.5,2.151.734.555-.509,1.085-1,1.62-1.483a2.5,2.5,0,0,1,.4-.293.206.206,0,0,0,.1-.271c-.189-.733-.371-1.467-.561-2.224l2.891-1.207c.335.55.665,1.1,1,1.64.1.158.169.376.311.447s.343-.032.52-.053a9.3,9.3,0,0,1,2.144-.04.222.222,0,0,0,.268-.15c.29-.617.592-1.228.89-1.841.027-.055.056-.108.091-.176l2.988.934c-.068.446-.134.879-.2,1.313-.048.313-.094.626-.147.939a.19.19,0,0,0,.11.231,9.113,9.113,0,0,1,2.058,1.582.224.224,0,0,0,.3.046c.651-.3,1.305-.587,1.981-.89L687-936.441l-1.15,1.01c-.176.155-.349.314-.532.46a.182.182,0,0,0-.058.246,9.068,9.068,0,0,1,.56,2.613c.008.127.072.157.174.186.682.192,1.362.388,2.08.594l-.4,3.1c-.115.006-.217.015-.32.017-.634.014-1.268.025-1.9.044a.225.225,0,0,0-.169.093c-.2.435-.377.888-.6,1.313s-.491.812-.754,1.24l1.286,1.9-2.307,2.124-1.856-1.491a10.085,10.085,0,0,1-2.655,1.078c-.048.012-.1.119-.1.186-.079.711-.151,1.423-.227,2.16-.122.011-.242.026-.363.032-.874.042-1.749.08-2.623.125-.13.007-.163-.049-.185-.161-.134-.7-.271-1.391-.416-2.084a.234.234,0,0,0-.14-.154,10.216,10.216,0,0,1-2.636-.9l-1.73,1.674-2.494-1.9c.218-.4.431-.79.645-1.181.156-.284.306-.571.472-.849a.212.212,0,0,0-.031-.288,9.291,9.291,0,0,1-1.317-2.139.207.207,0,0,0-.247-.144C666.252-927.467,665.5-927.417,664.721-927.361Zm6.943-3.955a4.369,4.369,0,0,0,4.316,4.389,4.385,4.385,0,0,0,4.456-4.344,4.395,4.395,0,0,0-4.378-4.425A4.378,4.378,0,0,0,671.663-931.316Z" transform="translate(-378.401 1704.729)"/>
    <path id="Path_73721" data-name="Path 73721" d="M568.92-866.833c-.41-.4-.811-.774-1.2-1.166a.325.325,0,0,0-.4-.094c-.6.192-1.212.352-1.825.505-.177.044-.276.092-.312.295-.1.534-.225,1.062-.343,1.6l-2.52-.166c-.044-.52-.088-1.033-.132-1.545,0-.028,0-.055,0-.083a.389.389,0,0,0-.307-.42c-.635-.236-1.245-.538-1.907-.832l-1.48,1.143-1.811-1.759c.209-.295.415-.584.619-.875.146-.208.3-.413.429-.631a.292.292,0,0,0,.015-.252,8.04,8.04,0,0,1-.877-1.84c-.018-.054-.133-.1-.2-.108-.591-.033-1.183-.054-1.8-.079l-.276-2.507,1.963-.524a8.51,8.51,0,0,1,.52-2.1.238.238,0,0,0-.07-.2c-.444-.413-.895-.818-1.36-1.241.151-.23.3-.458.451-.686.271-.407.546-.81.812-1.22a.235.235,0,0,1,.364-.1c.485.246.98.471,1.475.7a.242.242,0,0,0,.211-.007,8.492,8.492,0,0,1,1.775-1.258l-.264-1.968,2.425-.709c.252.546.51,1.085.75,1.632a.257.257,0,0,0,.307.182,7.522,7.522,0,0,1,2.09.164l1.044-1.648,2.3,1.016c-.119.446-.217.881-.352,1.3-.179.561-.176.54.256.925.415.37.8.776,1.185,1.176a.218.218,0,0,0,.265.074c.541-.179,1.085-.35,1.652-.532l1.12,2.267c-.471.328-.929.657-1.4.968a.256.256,0,0,0-.129.331,7.009,7.009,0,0,1,.194,1.989.219.219,0,0,0,.166.255c.519.2,1.031.419,1.568.639l-.6,2.457-1.073-.1c-.219-.021-.438-.039-.656-.064-.128-.015-.192.039-.25.155a6.8,6.8,0,0,1-1.171,1.688.2.2,0,0,0-.028.27c.269.5.527,1,.8,1.516Zm-4.576-12.145a3.648,3.648,0,0,0-3.646,3.637,3.654,3.654,0,0,0,3.587,3.656,3.674,3.674,0,0,0,3.71-3.535A3.667,3.667,0,0,0,564.344-878.977Z" transform="translate(-288.165 1656.689)"/>
  </g>
</svg>
