<svg width="24" height="24" viewBox="0 0 24 24" fill="none" xmlns="http://www.w3.org/2000/svg">
<g clip-path="url(#clip0_1107_78)">
<path d="M21.0329 10.3419H20.1175C19.9062 9.30389 19.4966 8.31639 18.9113 7.43347L19.5575 6.78731C19.7382 6.60558 19.8396 6.35972 19.8396 6.10345C19.8396 5.84719 19.7382 5.60135 19.5575 5.41962L18.5804 4.44249C18.3987 4.26181 18.1528 4.16039 17.8965 4.16039C17.6403 4.16039 17.3944 4.26181 17.2127 4.44249L16.5665 5.08864C15.6836 4.5033 14.6962 4.09375 13.6581 3.88246V2.96708C13.6574 2.71083 13.5552 2.46529 13.374 2.28409C13.1928 2.1029 12.9473 2.00077 12.691 2.00001H11.3089C11.0527 2.00077 10.8071 2.1029 10.6259 2.28409C10.4447 2.46529 10.3427 2.71083 10.3419 2.96708V3.88246C9.30387 4.09369 8.31632 4.50325 7.43346 5.08864L6.78728 4.44249C6.60555 4.26181 6.35969 4.16039 6.10342 4.16039C5.84716 4.16039 5.6013 4.26181 5.41956 4.44249L4.44246 5.41962C4.26178 5.60135 4.16034 5.84719 4.16034 6.10345C4.16034 6.35972 4.26178 6.60558 4.44246 6.78731L5.08863 7.43347C4.50327 8.31635 4.0937 9.30386 3.88243 10.3419H2.96711C2.71086 10.3426 2.46524 10.4448 2.28404 10.626C2.10284 10.8072 2.00076 11.0527 2 11.309V12.6903C2.00076 12.9466 2.10284 13.1921 2.28404 13.3733C2.46524 13.5545 2.71086 13.6566 2.96711 13.6574H3.88243C4.0937 14.6954 4.50327 15.6829 5.08863 16.5658L4.44246 17.212C4.26178 17.3937 4.16034 17.6396 4.16034 17.8958C4.16034 18.1521 4.26178 18.3979 4.44246 18.5797L5.41956 19.5568C5.6013 19.7375 5.84716 19.8389 6.10342 19.8389C6.35969 19.8389 6.60555 19.7375 6.78728 19.5568L7.43346 18.9106C8.31634 19.496 9.30388 19.9056 10.3419 20.1168V21.0322C10.3427 21.2885 10.4447 21.534 10.6259 21.7152C10.8071 21.8964 11.0527 21.9985 11.3089 21.9993H12.691C12.9473 21.9985 13.1928 21.8964 13.374 21.7152C13.5552 21.534 13.6574 21.2885 13.6581 21.0322V20.1168C14.6961 19.9055 15.6836 19.496 16.5665 18.9106L17.2127 19.5568C17.3944 19.7375 17.6403 19.8389 17.8965 19.8389C18.1528 19.8389 18.3987 19.7375 18.5804 19.5568L19.5575 18.5797C19.7382 18.3979 19.8396 18.1521 19.8396 17.8958C19.8396 17.6396 19.7382 17.3937 19.5575 17.212L18.9113 16.5658C19.4966 15.6829 19.9061 14.6954 20.1175 13.6574H21.0329C21.2892 13.6566 21.5347 13.5545 21.7159 13.3733C21.8971 13.1921 21.9992 12.9466 22 12.6903V11.309C21.9992 11.0527 21.8971 10.8072 21.7159 10.626C21.5347 10.4448 21.2892 10.3426 21.0329 10.3419ZM11.9996 16.5881C10.7823 16.5881 9.61488 16.1045 8.75412 15.2437C7.89335 14.383 7.4098 13.2155 7.4098 11.9982C7.4098 10.7809 7.89335 9.61345 8.75412 8.75268C9.61488 7.89191 10.7823 7.40834 11.9996 7.40834C13.2169 7.40834 14.3844 7.89191 15.2451 8.75268C16.1059 9.61345 16.5895 10.7809 16.5895 11.9982C16.5898 12.6011 16.4713 13.1981 16.2408 13.7552C16.0103 14.3122 15.6723 14.8185 15.2462 15.2449C14.82 15.6713 14.314 16.0096 13.7571 16.2404C13.2002 16.4713 12.6032 16.5901 12.0003 16.5902L11.9996 16.5881Z" fill="#797979"/>
</g>
<defs>
<clipPath id="clip0_1107_78">
<rect width="20" height="20" fill="white" transform="translate(2 2)"/>
</clipPath>
</defs>
</svg>
