<svg id="Group_432" data-name="Group 432" xmlns="http://www.w3.org/2000/svg" width="43.491" height="60.898" viewBox="0 0 43.491 60.898">
  <path id="Path_63189" data-name="Path 63189" d="M64.676,77.326c-.066,5.913-2.762,9.568-8.44,11.095-3.357.9-6.741,1.726-10.145,2.433-4.006.832-7.848-.124-11.653-1.337a17.9,17.9,0,0,0-3.179-.55,40.794,40.794,0,0,1-4.937-.581,6.3,6.3,0,0,1-5.109-6.439A41.13,41.13,0,0,1,31.75,52.259a36.128,36.128,0,0,1,8.5-7.3,3.147,3.147,0,0,1,3.725.013c10.3,6.7,16.7,16.2,20.038,27.882A33.2,33.2,0,0,1,64.676,77.326ZM43.492,78.363a10.527,10.527,0,1,0,.175-21.053,10.528,10.528,0,1,0-.175,21.053Z" transform="translate(-21.185 -30.269)" fill="#d90000"/>
  <path id="Path_63190" data-name="Path 63190" d="M62.709,25.288c-.481-2.991-.928-5.953-1.467-8.9-.071-.39-.611-.695-1.043-1.156a5.2,5.2,0,0,1,5.631-.154,5.876,5.876,0,0,0,4.677.464,6.12,6.12,0,0,1,6.239,1.571,34.247,34.247,0,0,0-9.422,7.744,1.314,1.314,0,0,1-.885.41C65.158,25.314,63.877,25.288,62.709,25.288Zm6.18-8.787c-2.513.673-4.717,3.975-4.6,6.818Z" transform="translate(-41.892 -14.333)" fill="#d90000"/>
  <path id="Path_63191" data-name="Path 63191" d="M52.024,25.938c-1.908.336-2.9-.079-3.815-1.171a26.887,26.887,0,0,0-3.51-3.332c-1.237-1.028-2.588-1.921-3.884-2.869a5.042,5.042,0,0,1,7.633-1.711,2.615,2.615,0,0,1,.59,1.157C50.027,20.613,51,23.22,52.024,25.938Z" transform="translate(-31.603 -15.095)" fill="#d90000"/>
  <path id="Path_63192" data-name="Path 63192" d="M58.871,37.64c2.192.88,4.212,1.614,6.146,2.532.384.183.432,1.07.635,1.633-.524-.12-1.057-.206-1.569-.364-1.753-.542-3.5-1.091-5.242-1.677a14.465,14.465,0,0,1-1.579-.746Z" transform="translate(-40.333 -26.703)" fill="#d90000"/>
  <path id="Path_63193" data-name="Path 63193" d="M59.1,43.507a21.123,21.123,0,0,1-1.889,1.2,1.282,1.282,0,0,1-1.007-.008A.824.824,0,0,1,56,43.9a1.509,1.509,0,0,1,.9-.642,15.179,15.179,0,0,1,2.1-.029Z" transform="translate(-39.644 -29.658)" fill="#d90000"/>
  <path id="Path_63194" data-name="Path 63194" d="M72.709,40.454,69.3,38.416l.137-.43c1.028.36,2.076.674,3.063,1.122C72.684,39.192,72.622,39.819,72.709,40.454Z" transform="translate(-46.722 -26.887)" fill="#d90000"/>
  <g id="Group_429" data-name="Group 429" transform="translate(17.186 27.634)">
    <path id="Path_63195" data-name="Path 63195" d="M68.594,86.949c0,2.435-2.233,3.654-4.72,3.958v1.7H62.606V90.983a20.951,20.951,0,0,1-3.7-.609c-.33,0-.482.254-.66.71h-.3l-.076-4.135h.381c.381,2.055,2.233,3.222,4.364,3.324v-5.4c-.355-.2-.762-.432-1.218-.66-2.157-1.167-3.578-2.639-3.578-4.542,0-2.258,1.9-4.034,4.8-4.262V73.222h1.269V75.4a8.667,8.667,0,0,1,3.248,1.4c.152,0,.228-.153.38-.432h.279V80.2H67.4a3.992,3.992,0,0,0-3.527-3.907v5.455C66.056,82.965,68.594,84.361,68.594,86.949ZM62.606,76.343c-1.243.178-2.537.838-2.537,1.9,0,1.319,1.243,2.081,2.537,2.816Zm2.943,11.849c0-1.193-.457-1.827-1.675-2.588v4.567A1.922,1.922,0,0,0,65.549,88.192Z" transform="translate(-57.81 -73.222)" fill="#d90000"/>
  </g>
</svg>
