<svg width="24" height="24" viewBox="0 0 24 24" fill="none" xmlns="http://www.w3.org/2000/svg">
<g clip-path="url(#clip0_1107_52)">
<path d="M19 17.4544C18.9788 19.3963 18.1109 20.5967 16.2831 21.0982C15.2025 21.3937 14.1131 21.665 13.0174 21.8972C11.7278 22.1704 10.4911 21.8565 9.26621 21.4581C8.93112 21.3666 8.58862 21.3061 8.24287 21.2775C7.70982 21.2469 7.17908 21.1832 6.65363 21.0867C6.17676 20.9934 5.74852 20.7287 5.44672 20.3407C5.14493 19.9526 4.98962 19.467 5.00901 18.972C4.91866 17.1991 5.17173 15.4255 5.75374 13.7525C6.33576 12.0795 7.2353 10.54 8.40093 9.22191C9.18524 8.28245 10.1084 7.47358 11.1371 6.82446C11.3114 6.69486 11.5217 6.62538 11.7374 6.62615C11.953 6.62692 12.1628 6.69789 12.3362 6.82873C15.6519 9.02913 17.7121 12.1491 18.7866 15.9857C18.8903 16.4697 18.9616 16.9604 19 17.4544ZM12.1807 17.7949C12.6272 17.801 13.0704 17.7171 13.4849 17.5479C13.8994 17.3787 14.2771 17.1276 14.5962 16.809C14.9153 16.4905 15.1695 16.1107 15.3443 15.6916C15.5191 15.2724 15.611 14.8222 15.6147 14.3667C15.6185 13.9112 15.5339 13.4595 15.366 13.0375C15.198 12.6154 14.95 12.2314 14.6361 11.9075C14.3222 11.5835 13.9487 11.3261 13.537 11.1499C13.1253 10.9737 12.6835 10.8822 12.2371 10.8808C11.788 10.8702 11.3413 10.9509 10.923 11.118C10.5047 11.2852 10.1231 11.5356 9.80054 11.8546C9.47794 12.1735 9.22072 12.5548 9.04384 12.9761C8.86696 13.3974 8.77395 13.8504 8.77022 14.3087C8.76648 14.767 8.8521 15.2215 9.02209 15.6457C9.19208 16.07 9.44305 16.4555 9.76041 16.7799C10.0778 17.1043 10.4552 17.3611 10.8707 17.5354C11.2862 17.7096 11.7315 17.7979 12.1807 17.7949Z" fill="#797979"/>
<path d="M11.7011 5.59782C11.5463 4.61552 11.4024 3.64275 11.2289 2.6749C11.206 2.54681 11.0322 2.44665 10.8931 2.29525C11.1586 2.11007 11.4707 2.00682 11.7922 1.99785C12.1136 1.98888 12.4308 2.07457 12.7058 2.24467C12.9329 2.37441 13.1839 2.4549 13.443 2.48112C13.702 2.50735 13.9636 2.47873 14.2113 2.39706C14.56 2.28436 14.9326 2.27293 15.2873 2.36405C15.642 2.45518 15.9649 2.64526 16.2197 2.913C15.0677 3.56879 14.0404 4.4302 13.1867 5.45627C13.1122 5.53678 13.0102 5.58499 12.9018 5.59092C12.4895 5.60636 12.0771 5.59782 11.7011 5.59782ZM13.6905 2.71201C12.8815 2.93303 12.1721 4.01747 12.2097 4.95116L13.6905 2.71201Z" fill="#797979"/>
<path d="M11.5736 5.56104C10.9594 5.67139 10.6401 5.53509 10.3456 5.17646C10.0019 4.77779 9.62378 4.41154 9.21568 4.08217C8.81748 3.74456 8.38258 3.45128 7.96539 3.13994C8.07298 2.91974 8.22732 2.72676 8.41718 2.57505C8.60703 2.42333 8.82765 2.31668 9.06297 2.26287C9.2983 2.20905 9.54242 2.20941 9.77759 2.26393C10.0128 2.31844 10.2331 2.42574 10.4225 2.57802C10.5161 2.68637 10.5814 2.81706 10.6124 2.958C10.9308 3.81221 11.244 4.6684 11.5736 5.56104Z" fill="#797979"/>
<path d="M10.9675 5.59191C11.6731 5.88092 12.3234 6.12198 12.9459 6.42347C13.0695 6.48357 13.085 6.77487 13.1503 6.95977C12.9817 6.92036 12.8101 6.89212 12.6453 6.84023C12.081 6.66223 11.5186 6.48192 10.9578 6.28947C10.7837 6.21832 10.614 6.13651 10.4496 6.04447L10.9675 5.59191Z" fill="#797979"/>
<path d="M11.263 6.54826C11.0673 6.6905 10.8643 6.82205 10.6549 6.94236C10.6035 6.96427 10.5483 6.97533 10.4926 6.97488C10.4369 6.97443 10.3818 6.96247 10.3308 6.93973C10.2982 6.90573 10.275 6.86358 10.2634 6.81751C10.2519 6.77145 10.2525 6.7231 10.2651 6.67733C10.332 6.57219 10.4356 6.49684 10.5548 6.46648C10.7797 6.44739 11.0055 6.44421 11.2308 6.45696L11.263 6.54826Z" fill="#797979"/>
<path d="M13.3654 6.45565L12.268 5.78633L12.3121 5.64511C12.643 5.76334 12.9804 5.86647 13.2981 6.0136C13.3573 6.04118 13.3373 6.2471 13.3654 6.45565Z" fill="#797979"/>
<path d="M14.0037 15.5837C14.0037 16.3834 13.2849 16.7837 12.4843 16.8836V17.4419H12.0761V16.9085C11.674 16.8783 11.2754 16.8114 10.8851 16.7085C10.7788 16.7085 10.7299 16.7919 10.6726 16.9417H10.576L10.5516 15.5837H10.6742C10.7969 16.2586 11.393 16.6419 12.079 16.6754V14.9019C11.9647 14.8362 11.8337 14.76 11.6869 14.6851C10.9926 14.3019 10.5352 13.8184 10.5352 13.1935C10.5352 12.4519 11.1468 11.8686 12.0803 11.7937V11.0755H12.4888V11.7908C12.8646 11.8691 13.2205 12.0256 13.5344 12.2506C13.5833 12.2506 13.6077 12.2003 13.6567 12.1087H13.7465V13.3672H13.6193C13.6148 13.0492 13.4972 12.7438 13.2883 12.5077C13.0794 12.2716 12.7936 12.1211 12.484 12.0841V13.8756C13.1867 14.2753 14.0037 14.7337 14.0037 15.5837ZM12.0761 12.1005C11.676 12.159 11.2594 12.3757 11.2594 12.7245C11.2594 13.1577 11.6596 13.4079 12.0761 13.6493V12.1005ZM13.0235 15.9919C13.0235 15.6001 12.8764 15.3919 12.4843 15.142V16.6419C12.6375 16.6217 12.7777 16.5439 12.8775 16.4236C12.9773 16.3033 13.0293 16.1494 13.0235 15.9919Z" fill="#797979"/>
</g>
<defs>
<clipPath id="clip0_1107_52">
<rect width="14" height="20" fill="white" transform="translate(5 2)"/>
</clipPath>
</defs>
</svg>
