<svg xmlns="http://www.w3.org/2000/svg" width="22" height="27.726" viewBox="0 0 22 27.726"><g transform="translate(1447.113 769.486)"><path d="M-1425.15-766.988v.694c0,2.771-.082,5.546.027,8.313a13.359,13.359,0,0,1-1.171,5.83,19.694,19.694,0,0,1-9.163,10.193,1.494,1.494,0,0,1-1.372.058,14.836,14.836,0,0,1-6.76-5.818,26.378,26.378,0,0,1-3.359-7.327,4.316,4.316,0,0,1-.158-1.182c-.012-3.343-.007-6.686-.007-10.028v-.711c3.909,1,7.223-.516,10.457-2.343a.832.832,0,0,1,1.053.02,13.542,13.542,0,0,0,8.642,2.52C-1426.374-766.795-1425.792-766.908-1425.15-766.988Zm-10.974,22.679a19.821,19.821,0,0,0,8.729-11.376h-8.7V-767.22c-2.764,1.321-5.463,2.55-8.509,2.649v8.974h8.481Z" transform="translate(0 0)" fill="#ffb628"/></g></svg>