<svg xmlns="http://www.w3.org/2000/svg" width="13.002" height="16.386" viewBox="0 0 13.002 16.386">
  <g id="Group_443" data-name="Group 443" transform="translate(1447.113 769.486)">
    <path id="Path_184" data-name="Path 184" d="M-1434.133-768.009v.41c0,1.638-.048,3.278.016,4.913a7.9,7.9,0,0,1-.692,3.446,11.639,11.639,0,0,1-5.415,6.024.883.883,0,0,1-.811.034,8.769,8.769,0,0,1-4-3.438,15.594,15.594,0,0,1-1.985-4.33,2.55,2.55,0,0,1-.093-.7c-.007-1.975,0-3.951,0-5.927V-768c2.31.591,4.269-.305,6.18-1.385a.492.492,0,0,1,.623.012,8,8,0,0,0,5.107,1.489C-1434.856-767.9-1434.512-767.962-1434.133-768.009Zm-6.486,13.4a11.716,11.716,0,0,0,5.159-6.724h-5.143v-6.818a12.653,12.653,0,0,1-5.029,1.566v5.3h5.013Z" fill="#fff"/>
  </g>
</svg>
