<svg width="24" height="24" viewBox="0 0 24 24" fill="none" xmlns="http://www.w3.org/2000/svg">
<g clip-path="url(#clip0_1107_29)">
<path d="M19.973 3.80286V4.30325C19.973 6.30252 19.914 8.30426 19.9928 10.2999C20.031 11.7475 19.7399 13.1851 19.1412 14.5059C17.8792 17.669 15.5147 20.278 12.4776 21.8585C12.3267 21.9441 12.1573 21.9925 11.9837 21.9997C11.81 22.0069 11.6371 21.9727 11.4795 21.9C9.44348 21.0354 7.72494 19.5704 6.55722 17.7037C5.47493 16.0765 4.6511 14.294 4.11454 12.4187C4.03663 12.1405 3.99809 11.853 4.00007 11.5643C3.99146 9.15371 4.00007 6.74189 4.00007 4.33007V3.81381C6.84271 4.53516 9.25349 3.44153 11.6051 2.12333C11.715 2.03763 11.8513 1.9923 11.991 1.99497C12.1308 1.99764 12.2652 2.04817 12.3717 2.13801C14.1962 3.43712 16.4138 4.07841 18.6563 3.95543C19.0833 3.9359 19.5066 3.86023 19.973 3.80286ZM11.9915 20.1582C15.0661 18.3042 17.3306 15.3768 18.3401 11.9512H12.0112V3.62951C10.1063 4.69016 7.99787 5.34137 5.82266 5.54087V12.0099H11.9915V20.1582Z" fill="#797979"/>
</g>
<defs>
<clipPath id="clip0_1107_29">
<rect width="16" height="20" fill="white" transform="translate(4 2)"/>
</clipPath>
</defs>
</svg>
