<svg xmlns="http://www.w3.org/2000/svg" width="52" height="65.535" viewBox="0 0 52 65.535">
  <g id="Group_357" data-name="Group 357" transform="translate(1447.113 769.486)">
    <path id="Path_184" data-name="Path 184" d="M-1395.2-763.582v1.641c0,6.551-.193,13.11.064,19.65a31.581,31.581,0,0,1-2.768,13.781c-4.456,10.512-11.424,18.759-21.658,24.094a3.53,3.53,0,0,1-3.243.136c-6.881-2.786-11.928-7.695-15.979-13.751a62.36,62.36,0,0,1-7.939-17.319,10.2,10.2,0,0,1-.373-2.794c-.028-7.9-.017-15.8-.017-23.7v-1.68c9.239,2.364,17.073-1.22,24.716-5.538a1.967,1.967,0,0,1,2.49.046,32.008,32.008,0,0,0,20.426,5.956C-1398.093-763.126-1396.717-763.392-1395.2-763.582Zm-25.938,53.606c10.623-6.374,16.838-15.52,20.632-26.89h-20.568v-27.266c-6.533,3.122-12.912,6.028-20.112,6.262v21.212h20.047Z" transform="translate(0 0)" fill="#ff0101"/>
  </g>
</svg>
