<svg xmlns="http://www.w3.org/2000/svg" width="15.759" height="10.625" viewBox="0 0 15.759 10.625">
  <g id="Group_449" data-name="Group 449" transform="translate(-52.857 -188.226)">
    <path id="Path_63211" data-name="Path 63211" d="M227.516,198.851a17.008,17.008,0,0,0-.164-2.523c-.208-.352-.691-.6-1.59-.971s-1.181-.69-1.181-1.366c0-.407.273-.273.393-1.016.049-.308.291,0,.338-.708,0-.281-.132-.351-.132-.351s.067-.415.094-.734a1.443,1.443,0,0,0-2.887,0c.026.319.092.734.092.734s-.132.07-.132.351c.047.7.287.4.338.708.12.743.393.61.393,1.016a1.1,1.1,0,0,1-.5,1.011c1.956.979,2.219,1.179,2.219,2.054v1.795Zm-5.822-3.154c-1.2-.5-1.577-.92-1.577-1.822,0-.541.365-.365.525-1.355.067-.411.388-.007.45-.945,0-.375-.176-.467-.176-.467s.089-.553.124-.979a1.924,1.924,0,0,0-3.849,0c.035.426.124.979.124.979s-.176.092-.176.467c.062.939.384.535.45.945.16.99.525.814.525,1.355,0,.9-.382,1.322-1.576,1.821-.362.153-1.016.389-1.016.956v2.2h8.387V197.2C223.909,196.685,222.892,196.2,221.694,195.7Z" transform="translate(-158.9 0)" fill="#ffa200"/>
    <path id="Path_63212" data-name="Path 63212" d="M52.857,263.317h2.719v-1.795c0-.875.262-1.074,2.219-2.054a1.1,1.1,0,0,1-.5-1.011c0-.407.273-.273.393-1.016.051-.308.291,0,.338-.708,0-.281-.132-.351-.132-.351s.067-.415.092-.734a1.443,1.443,0,0,0-2.887,0c.027.319.094.734.094.734s-.132.07-.132.351c.047.7.288.4.338.708.119.743.393.61.393,1.016,0,.676-.286.992-1.181,1.366s-1.382.618-1.591.971a17.006,17.006,0,0,0-.164,2.523Z" transform="translate(0 -64.466)" fill="#ffa200"/>
  </g>
</svg>
