<svg xmlns="http://www.w3.org/2000/svg" width="170" height="170" viewBox="0 0 170 170">
  <g id="Group_633" data-name="Group 633" transform="translate(-2694 -2175)">
    <circle id="Ellipse_91" data-name="Ellipse 91" cx="85" cy="85" r="85" transform="translate(2694 2175)" fill="#9aac45" opacity="0.37"/>
    <g id="Group_628" data-name="Group 628" transform="translate(2721.171 2203.825)">
      <path id="Path_73674" data-name="Path 73674" d="M-401.37,966.8c-3.688-3.417-7.046-6.5-10.35-9.645-.228-.217-.168-.906-.037-1.308a27.2,27.2,0,0,0-.807-19.844,27.152,27.152,0,0,0-25.983-16.367,27.332,27.332,0,0,0-26.17,23.563A27.452,27.452,0,0,0-441.463,974a28.185,28.185,0,0,0,12.759-1.2,1.792,1.792,0,0,1,1.513.217c3.088,3.073,6.111,6.212,9.148,9.336a8.136,8.136,0,0,1,.489.694c-2.917,1.123-5.686,2.25-8.5,3.239-.929.326-1.417.646-1.559,1.732-.373,2.856-.921,5.691-1.439,8.528a3.569,3.569,0,0,1-3.694,3.083c-3.226.024-6.452.019-9.678,0a3.693,3.693,0,0,1-3.876-3.349c-.461-2.762-.927-5.524-1.332-8.294a1.887,1.887,0,0,0-1.473-1.689c-2.74-1-5.453-2.1-8.1-3.321a1.842,1.842,0,0,0-2.223.178c-2.213,1.654-4.481,3.234-6.741,4.825-2,1.409-3.753,1.249-5.505-.493q-3.165-3.145-6.3-6.315a3.706,3.706,0,0,1-.443-5.3c1.634-2.331,3.278-4.657,4.957-6.956a1.431,1.431,0,0,0,.158-1.68q-1.966-4.394-3.729-8.877a1.607,1.607,0,0,0-1.4-1.155c-2.64-.427-5.274-.9-7.915-1.317-2.961-.471-4-1.625-4.015-4.569q-.017-4.462.007-8.924a3.5,3.5,0,0,1,3.158-3.859c2.833-.535,5.68-.994,8.527-1.45a1.627,1.627,0,0,0,1.462-1.24c1.08-2.934,2.264-5.833,3.52-8.7a1.59,1.59,0,0,0-.1-1.892c-1.677-2.248-3.287-4.546-4.9-6.839-1.533-2.175-1.382-3.787.51-5.685q3.106-3.115,6.225-6.218a3.663,3.663,0,0,1,5.288-.459q3.533,2.51,7.008,5.1a1.3,1.3,0,0,0,1.554.129c3.01-1.338,6.072-2.558,9.092-3.873a1.646,1.646,0,0,0,.888-.979c.561-2.955,1.045-5.925,1.539-8.893a3.744,3.744,0,0,1,3.745-3.386q4.9-.1,9.8,0a3.683,3.683,0,0,1,3.744,3.371c.491,2.885.961,5.773,1.518,8.644a1.738,1.738,0,0,0,.931,1.043q4.711,2.022,9.479,3.9a1.756,1.756,0,0,0,1.408-.165c2.39-1.621,4.725-3.325,7.091-4.983a3.775,3.775,0,0,1,5.4.468q3.166,3.144,6.315,6.305a3.776,3.776,0,0,1,.472,5.409c-1.664,2.361-3.333,4.72-5.034,7.055a1.356,1.356,0,0,0-.117,1.574c1.3,2.979,2.531,5.99,3.728,9.012a1.444,1.444,0,0,0,1.3,1.085c2.934.436,5.856.959,8.778,1.47a3.743,3.743,0,0,1,3.208,3.764q.038,4.776,0,9.552a3.554,3.554,0,0,1-3.027,3.743c-2.83.546-5.671,1.05-8.525,1.452a1.951,1.951,0,0,0-1.822,1.619C-399.11,961.192-400.228,963.845-401.37,966.8Z" transform="translate(490.38 -894.104)" fill="#8ca420"/>
      <path id="Path_73675" data-name="Path 73675" d="M-362.776,1027.807c2.55,1.612,4.838,3.075,7.143,4.51,2.471,1.537,4.652,1.335,6.71-.688a9.631,9.631,0,0,0,3.094-5.611,5.069,5.069,0,0,0-2.208-5.329c-2.263-1.491-4.53-2.976-6.978-4.583a5.157,5.157,0,0,1,1.114-.928c4.345-1.694,8.74-2.064,12.97.2,3.324,1.774,5.985,4.251,7.029,8.108a14.957,14.957,0,0,1-.2,7.058,5.148,5.148,0,0,0,1.177,4.8c2.388,2.517,4.861,4.959,7.394,7.332,6.509,6.1,13.069,12.143,19.61,18.208,4.422,4.1,8.865,8.178,13.262,12.305a7.268,7.268,0,0,1-2.9,12.426,6.8,6.8,0,0,1-7.144-1.867q-4.493-4.57-8.968-9.157-13.913-14.251-27.824-28.5c-.467-.478-.987-.906-1.483-1.355a6.7,6.7,0,0,0-6.943-1.518c-4.574,1.35-9.724-1.049-12.594-5.454a18.056,18.056,0,0,1-2.659-8.516A4.892,4.892,0,0,1-362.776,1027.807Zm61.178,50.663a4.053,4.053,0,0,0,4.1,4.255,4.01,4.01,0,0,0,3.9-3.922,4.08,4.08,0,0,0-4.064-4.3A3.831,3.831,0,0,0-301.6,1078.469Z" transform="translate(405.901 -973.597)" fill="#8ca420"/>
    </g>
  </g>
</svg>
