<svg xmlns="http://www.w3.org/2000/svg" width="27.857" height="27.857" viewBox="0 0 27.857 27.857"><path d="M-1791.678-359.656h-1.275a11.476,11.476,0,0,0-1.68-4.051l.9-.9a1.351,1.351,0,0,0,0-1.905l-1.361-1.361a1.351,1.351,0,0,0-1.905,0l-.9.9a11.472,11.472,0,0,0-4.051-1.68v-1.275a1.351,1.351,0,0,0-1.347-1.347h-1.925a1.351,1.351,0,0,0-1.347,1.347v1.275a11.469,11.469,0,0,0-4.051,1.68l-.9-.9a1.351,1.351,0,0,0-1.905,0l-1.361,1.361a1.351,1.351,0,0,0,0,1.905l.9.9a11.471,11.471,0,0,0-1.68,4.051h-1.275a1.351,1.351,0,0,0-1.347,1.347v1.924a1.351,1.351,0,0,0,1.347,1.347h1.275a11.471,11.471,0,0,0,1.68,4.051l-.9.9a1.351,1.351,0,0,0,0,1.905l1.361,1.361a1.351,1.351,0,0,0,1.905,0l.9-.9a11.471,11.471,0,0,0,4.051,1.68v1.275a1.351,1.351,0,0,0,1.347,1.347h1.925a1.351,1.351,0,0,0,1.347-1.347v-1.275a11.474,11.474,0,0,0,4.051-1.68l.9.9a1.351,1.351,0,0,0,1.905,0l1.361-1.361a1.351,1.351,0,0,0,0-1.905l-.9-.9a11.477,11.477,0,0,0,1.68-4.051h1.275a1.351,1.351,0,0,0,1.347-1.347v-1.924A1.351,1.351,0,0,0-1791.678-359.656Zm-12.582,8.7a6.393,6.393,0,0,1-6.393-6.393,6.393,6.393,0,0,1,6.393-6.393,6.393,6.393,0,0,1,6.393,6.393A6.393,6.393,0,0,1-1804.259-350.953Z" transform="translate(1818.188 371.275)" fill="#fff"/></svg>