<svg xmlns="http://www.w3.org/2000/svg" width="44.045" height="44.046" viewBox="0 0 44.045 44.046">
  <path id="Path_63207" data-name="Path 63207" d="M-1776.272-352.9h-2.016a18.154,18.154,0,0,0-2.656-6.406l1.428-1.427a2.138,2.138,0,0,0,0-3.012l-2.153-2.151a2.136,2.136,0,0,0-3.012,0l-1.427,1.427a18.136,18.136,0,0,0-6.406-2.656v-2.016a2.136,2.136,0,0,0-2.129-2.13h-3.043a2.136,2.136,0,0,0-2.129,2.13v2.016a18.12,18.12,0,0,0-6.405,2.656l-1.428-1.427a2.136,2.136,0,0,0-3.012,0l-2.152,2.151a2.136,2.136,0,0,0,0,3.012l1.428,1.427a18.127,18.127,0,0,0-2.656,6.406h-2.016a2.137,2.137,0,0,0-2.13,2.13v3.043a2.137,2.137,0,0,0,2.13,2.13h2.016a18.129,18.129,0,0,0,2.656,6.405l-1.428,1.427a2.136,2.136,0,0,0,0,3.012l2.152,2.152a2.136,2.136,0,0,0,3.012,0l1.428-1.427a18.128,18.128,0,0,0,6.405,2.656v2.016a2.136,2.136,0,0,0,2.129,2.13h3.043a2.136,2.136,0,0,0,2.129-2.13v-2.016a18.144,18.144,0,0,0,6.406-2.656l1.427,1.427a2.136,2.136,0,0,0,3.012,0l2.153-2.152a2.138,2.138,0,0,0,0-3.012l-1.428-1.427a18.159,18.159,0,0,0,2.656-6.406h2.016a2.136,2.136,0,0,0,2.129-2.13v-3.043A2.136,2.136,0,0,0-1776.272-352.9Zm-19.893,13.759a10.107,10.107,0,0,1-10.108-10.108,10.108,10.108,0,0,1,10.108-10.108,10.108,10.108,0,0,1,10.107,10.108A10.107,10.107,0,0,1-1796.165-339.144Z" transform="translate(1818.188 371.275)" fill="#ff0101"/>
</svg>
