<svg xmlns="http://www.w3.org/2000/svg" width="14" height="14" viewBox="0 0 14 14">
  <path id="Path_63207" data-name="Path 63207" d="M-1804.865-365.436h-.641a5.769,5.769,0,0,0-.844-2.036l.454-.454a.679.679,0,0,0,0-.957l-.684-.684a.679.679,0,0,0-.957,0l-.453.454a5.765,5.765,0,0,0-2.036-.844v-.641a.679.679,0,0,0-.677-.677h-.967a.679.679,0,0,0-.677.677v.641a5.76,5.76,0,0,0-2.036.844l-.454-.454a.679.679,0,0,0-.957,0l-.684.684a.679.679,0,0,0,0,.957l.454.454a5.761,5.761,0,0,0-.844,2.036h-.641a.679.679,0,0,0-.677.677v.967a.679.679,0,0,0,.677.677h.641a5.761,5.761,0,0,0,.844,2.036l-.454.454a.679.679,0,0,0,0,.957l.684.684a.679.679,0,0,0,.957,0l.454-.454a5.763,5.763,0,0,0,2.036.844v.641a.679.679,0,0,0,.677.677h.967a.679.679,0,0,0,.677-.677v-.641a5.767,5.767,0,0,0,2.036-.844l.453.454a.679.679,0,0,0,.957,0l.684-.684a.679.679,0,0,0,0-.957l-.454-.454a5.771,5.771,0,0,0,.844-2.036h.641a.679.679,0,0,0,.677-.677v-.967A.679.679,0,0,0-1804.865-365.436Zm-6.323,4.373a3.213,3.213,0,0,1-3.213-3.213,3.213,3.213,0,0,1,3.213-3.213,3.213,3.213,0,0,1,3.213,3.213A3.213,3.213,0,0,1-1811.188-361.063Z" transform="translate(1818.188 371.275)" fill="#ffa200"/>
</svg>
