<svg xmlns="http://www.w3.org/2000/svg" width="170" height="170" viewBox="0 0 170 170">
  <g id="Group_634" data-name="Group 634" transform="translate(-3043 -2223)">
    <circle id="Ellipse_91" data-name="Ellipse 91" cx="85" cy="85" r="85" transform="translate(3043 2223)" fill="#d5c6d5"/>
    <g id="Group_593" data-name="Group 593" transform="translate(3121.416 2234.314) rotate(50)">
      <path id="Path_73653" data-name="Path 73653" d="M24.138,29c7.271-9.4,14.348-18.458,21.288-27.615C46.85-.494,47.813-.3,49.5,1c7.943,6.1,15.94,12.115,25.712,15.146,5.7,1.769,5.61,1.849,5.354,7.8q-.752,17.432-1.336,34.872c-.077,2.4-.259,3.41-3.37,3.47-4.489.087-8.884,1.844-13.506,1.88A56.045,56.045,0,0,1,38.271,59.15a14.089,14.089,0,0,0-5.378-1.18Q20.842,57.437,8.8,56.751c-2.932-.166-5.609-1.105-7.412-3.579A6.74,6.74,0,0,1,.841,45.8,6.312,6.312,0,0,1,7.13,42.076c8.165.2,16.338.223,24.5.559,3.23.133,3.236-1.324,2.359-3.544A17.991,17.991,0,0,0,24.138,29Z" transform="translate(14.752 19.181)" fill="#9f6ba1"/>
      <path id="Path_73654" data-name="Path 73654" d="M22.663,46.876c.007,2.162-.506,3.3-3.146,3.176-5.057-.246-10.138-.14-15.2,0-3,.081-4.437-1.2-4.3-4.138Q.971,24.616,2,3.322A3.176,3.176,0,0,1,5.642.005C11.323.246,17,.643,22.677.913c2.325.111,1.56,1.772,1.566,2.971C24.279,10.8,22.637,39.465,22.663,46.876Z" transform="translate(95.972 34.089)" fill="#9f6ba1"/>
      <path id="Path_73655" data-name="Path 73655" d="M0,42.33a12.42,12.42,0,0,1,2.988-7.585C13.65,22.362,25.381,11.133,39.154,2.219,40.9,1.09,43.3-1.1,45.015.657,46.037,1.7,43.349,3.808,42.2,5.3,31.579,19.064,20.861,32.762,10.182,46.488c-3,3.853-6.243,3.7-8.982-.467A8.415,8.415,0,0,1,0,42.33Z" transform="translate(0 15.5)" fill="#9f6ba1"/>
      <path id="Path_73656" data-name="Path 73656" d="M2.615,58.48c-3.063-1.368-3.32-2.6-1.369-5.077C14.773,36.256,28.112,18.961,41.54,1.735c.694-.891,1.024-2.644,3-1.161,2.043,1.532.643,2.39-.213,3.5Q27.857,25.5,11.383,46.926c-.524.681-1.021,1.626-1.733,1.881C5.151,50.418,3.129,53.809,2.615,58.48Z" transform="translate(9.991 10.679)" fill="#9f6ba1"/>
      <path id="Path_73657" data-name="Path 73657" d="M0,44.181c4.85-6.312,9.636-12.55,14.434-18.78Q23.592,13.508,32.761,1.623c.807-1.05,1.252-2.45,3.067-1,1.743,1.39,1.035,2.27,0,3.585C26.012,16.751,16.193,29.3,6.514,41.95,4.791,44.2,3.04,45.229,0,44.181Z" transform="translate(23.414 14.286)" fill="#9f6ba1"/>
      <path id="Path_73658" data-name="Path 73658" d="M9.3,5.719C7.492,6.929,5.62,8.764,3.4,9.4,2.406,9.69-.57,8.174.1,6.034c.66-2.118.891-4.861,3.32-6.02C4.085-.3,9.4,4.726,9.3,5.719Z" transform="translate(5.349 69.29)" fill="#9f6ba1"/>
      <path id="Path_73659" data-name="Path 73659" d="M9.928,6a15.916,15.916,0,0,1-2.74,3.087C6.279,9.719,5.53,8.446,4.782,7.9c-.991-.721-1.91-1.543-2.915-2.242C.232,4.519-.846,3.693.874,1.388,2.715-1.08,3.758.269,5.187,1.412c1.246,1,2.537,1.938,3.773,2.946C9.4,4.716,10.085,4.952,9.928,6Z" transform="translate(55.155 4.963)" fill="#9f6ba1"/>
      <path id="Path_73660" data-name="Path 73660" d="M4,0A4.7,4.7,0,0,1,8.976,4.786,3.723,3.723,0,0,1,7.662,8.092C6.5,8.829,5.767,7.337,4.875,6.813A13.368,13.368,0,0,1,2.287,4.741C1.481,3.942-.141,3.792.01,2.223.1,1.234,2.4.043,4,0Z" transform="translate(59.502 0)" fill="#9f6ba1"/>
      <path id="Path_73661" data-name="Path 73661" d="M0,0H11.259A5.56,5.56,0,0,1,5.575,3.484,5.736,5.736,0,0,1,0,0Z" transform="translate(22.349 78.543)" fill="#9f6ba1"/>
      <path id="Path_73662" data-name="Path 73662" d="M0,0C3.244,0,6.485,0,9.9,0,7.107,4.153,2.7,4.036,0,0Z" transform="translate(38.167 79.108)" fill="#9f6ba1"/>
      <path id="Path_73663" data-name="Path 73663" d="M5.1,1.7,0,5.486C2.709-1,2.709-1,5.1,1.7Z" transform="translate(1.581 79.118)" fill="#9f6ba1"/>
    </g>
  </g>
</svg>
