<svg xmlns="http://www.w3.org/2000/svg" width="170" height="170" viewBox="0 0 170 170">
  <g id="Group_623" data-name="Group 623" transform="translate(-2504.571 -2141.571)">
    <circle id="Ellipse_91" data-name="Ellipse 91" cx="85" cy="85" r="85" transform="translate(2504.571 2141.571)" fill="#daf1fa"/>
    <g id="Group_622" data-name="Group 622" transform="translate(2533.38 2163.101)">
      <path id="Path_73671" data-name="Path 73671" d="M152.831,314.866c-.115-1.39-.158-2.792-.374-4.167-.7-4.49-2.785-8-7.046-10.069-1.811-.878-3.665-1.63-5.539-2.328-1.5-.557-3.005-1.081-4.517-1.6a25.612,25.612,0,0,1-3.6-1.5c-1.514-.8-2.032-3.384-1.169-4.819a30.482,30.482,0,0,0,4.525-19.746,8.935,8.935,0,0,0-7.266-8.1,19.3,19.3,0,0,0-6.737-.247,9.309,9.309,0,0,0-8.658,8.657,26.967,26.967,0,0,0,.293,7.992,30.255,30.255,0,0,0,4.9,12.345,1.259,1.259,0,0,1,.255.48,3.873,3.873,0,0,1-1.845,3.515c-1.47.634-2.978,1.188-4.494,1.7-1.485.506-2.97,1.008-4.435,1.56a40.565,40.565,0,0,0-5.494,2.486,10.91,10.91,0,0,0-4.673,5.023,19.246,19.246,0,0,0-1.7,6.938c-.06.849-.01,1.7-.01,2.583l14.39,67.345a7.757,7.757,0,0,0,7.791,6.133l14.922-.4a8.53,8.53,0,0,0,8.16-6.965l12.314-66.117C152.834,315.32,152.85,315.092,152.831,314.866Z" transform="translate(-67.466 -262.113)" fill="#0095cb"/>
      <path id="Path_73672" data-name="Path 73672" d="M389.043,342.065c-.1-1.252-.142-2.514-.336-3.752-.634-4.043-2.507-7.205-6.345-9.067a80.687,80.687,0,0,0-9.055-3.538,23.047,23.047,0,0,1-3.239-1.348,3.415,3.415,0,0,1-1.053-4.339,27.447,27.447,0,0,0,4.074-17.78,8.045,8.045,0,0,0-6.542-7.293,17.378,17.378,0,0,0-6.066-.223,8.383,8.383,0,0,0-7.8,7.8,24.283,24.283,0,0,0,.264,7.2,27.248,27.248,0,0,0,4.415,11.116,1.132,1.132,0,0,1,.23.432,3.487,3.487,0,0,1-1.661,3.165c-.5.216-1.006.419-1.515.616,1.875.7,3.729,1.45,5.539,2.328,4.262,2.067,6.342,5.579,7.046,10.069.215,1.375.258,2.777.374,4.167l-14.847,71.859h19.247a6.851,6.851,0,0,0,6.763-5.758l10.5-65.008C389.046,342.473,389.06,342.268,389.043,342.065Z" transform="translate(-276.669 -288.499)" fill="#0095cb"/>
      <path id="Path_73673" data-name="Path 73673" d="M-53.336,342.065c.1-1.252.142-2.514.336-3.752.634-4.043,2.507-7.205,6.345-9.067a80.678,80.678,0,0,1,9.055-3.538,23.056,23.056,0,0,0,3.239-1.348,3.415,3.415,0,0,0,1.053-4.339,27.447,27.447,0,0,1-4.074-17.78,8.045,8.045,0,0,1,6.542-7.293,17.378,17.378,0,0,1,6.066-.223,8.383,8.383,0,0,1,7.8,7.8,24.277,24.277,0,0,1-.264,7.2,27.242,27.242,0,0,1-4.415,11.116,1.135,1.135,0,0,0-.23.432,3.487,3.487,0,0,0,1.661,3.165c.5.216,1.006.419,1.515.616-1.875.7-3.729,1.45-5.539,2.328-4.262,2.067-6.342,5.579-7.046,10.069-.216,1.375-.258,2.777-.374,4.167l14.847,71.859H-36.071a6.851,6.851,0,0,1-6.763-5.758l-10.5-65.008C-53.338,342.473-53.352,342.268-53.336,342.065Z" transform="translate(53.344 -288.499)" fill="#0095cb"/>
    </g>
  </g>
</svg>
