<svg xmlns="http://www.w3.org/2000/svg" width="10.359" height="13.177" viewBox="0 0 10.359 13.177">
  <g id="Group_454" data-name="Group 454" transform="translate(361.9 -428.88)">
    <path id="Path_63221" data-name="Path 63221" d="M-356.732,440.175h-4.6c-.391,0-.554-.173-.566-.565a.658.658,0,0,1,.26-.571,3.057,3.057,0,0,0,.977-1.8,10.316,10.316,0,0,0,.176-2.031,6.931,6.931,0,0,1,.082-1.449,3.732,3.732,0,0,1,1.965-2.575.507.507,0,0,0,.33-.649,1.344,1.344,0,0,1,.563-1.377,1.322,1.322,0,0,1,1.482-.1,1.359,1.359,0,0,1,.746,1.289,1.779,1.779,0,0,1-.032.262.466.466,0,0,0,.289.548,3.759,3.759,0,0,1,1.289,1.048,3.783,3.783,0,0,1,.809,2.3c.02.739.038,1.479.093,2.215a3.834,3.834,0,0,0,.483,1.62,2.65,2.65,0,0,0,.619.74.746.746,0,0,1,.143.869.485.485,0,0,1-.449.226q-1.4,0-2.808,0Zm0-7.521h.073a.474.474,0,0,0,.508-.473.474.474,0,0,0-.5-.471,3.888,3.888,0,0,0-.468.026,2.8,2.8,0,0,0-2.4,2.4c-.046.437-.026.88-.039,1.32a7.724,7.724,0,0,1-.58,3.138.429.429,0,0,0,.1.5.472.472,0,0,0,.783-.168,5.973,5.973,0,0,0,.551-2.119c.057-.761.077-1.525.092-2.288A1.891,1.891,0,0,1-356.728,432.654Zm0-2.828a.472.472,0,0,0-.473.476.473.473,0,0,0,.465.469.472.472,0,0,0,.48-.469A.472.472,0,0,0-356.723,429.826Z" fill="#ffa200"/>
    <path id="Path_63222" data-name="Path 63222" d="M-247.279,829.361h3.607a1.849,1.849,0,0,1-1.73,1.4A1.865,1.865,0,0,1-247.279,829.361Z" transform="translate(-111.251 -388.707)" fill="#ffa200"/>
  </g>
</svg>
