<svg xmlns="http://www.w3.org/2000/svg" width="16.25" height="15.55" viewBox="0 0 16.25 15.55">
  <g id="Group_452" data-name="Group 452" transform="translate(-134.5 -328.699)">
    <path id="Path_63214" data-name="Path 63214" d="M493.766,378.184a13.581,13.581,0,0,0-.131-2.016c-.166-.282-.552-.475-1.271-.776s-.944-.551-.944-1.092c0-.325.219-.219.314-.812.039-.246.232,0,.27-.566,0-.225-.105-.281-.105-.281s.053-.332.075-.587a1.153,1.153,0,0,0-2.307,0c.021.255.074.587.074.587s-.105.056-.105.281c.037.562.229.32.27.566.1.594.314.487.314.812a.875.875,0,0,1-.4.808c1.563.783,1.773.942,1.773,1.641v1.434Z" transform="translate(-344.865 -40.994)" fill="#ffa200"/>
    <path id="Path_63215" data-name="Path 63215" d="M196.988,378.184h2.173v-1.434c0-.7.21-.859,1.773-1.641a.875.875,0,0,1-.4-.808c0-.325.219-.219.314-.812.04-.246.232,0,.27-.566,0-.225-.105-.281-.105-.281s.053-.332.074-.587a1.153,1.153,0,0,0-2.307,0c.022.255.075.587.075.587s-.105.056-.105.281c.037.562.23.32.27.566.1.594.314.487.314.812,0,.541-.228.793-.944,1.092s-1.1.494-1.271.776a13.59,13.59,0,0,0-.131,2.016Z" transform="translate(-60.681 -40.994)" fill="#ffa200"/>
    <path id="Path_63216" data-name="Path 63216" d="M287.1,334.669c-.955-.4-1.26-.735-1.26-1.456,0-.432.291-.291.419-1.083.053-.329.31-.006.359-.755,0-.3-.141-.373-.141-.373s.071-.442.1-.783a1.538,1.538,0,0,0-3.076,0c.028.341.1.783.1.783s-.141.074-.141.373c.049.75.307.427.359.755.128.792.419.651.419,1.083,0,.639-.241.976-.961,1.322a3.944,3.944,0,0,0-1.007.479,1.873,1.873,0,0,0-.295.324,1.235,1.235,0,0,0-.371.885v.935a.03.03,0,0,0,.03.03h7.234v-1.318C288.873,335.458,288.06,335.069,287.1,334.669Z" transform="translate(-142.855 0)" fill="#ffa200"/>
    <g id="Group_451" data-name="Group 451" transform="translate(134.5 337.502)">
      <path id="Path_63217" data-name="Path 63217" d="M139.622,638.747l-.34-.34-.184.112a2.338,2.338,0,0,1-.664.275l-.21.051v.481h-.7v-.481l-.21-.051a2.338,2.338,0,0,1-.664-.275l-.184-.112-.34.34-.5-.5.34-.34-.112-.184a2.342,2.342,0,0,1-.275-.664l-.051-.21h-.481v-.7h.481l.051-.21a2.34,2.34,0,0,1,.275-.664l.112-.184-.34-.34.5-.5.34.34.184-.112a2.344,2.344,0,0,1,.664-.275l.21-.051v-.481h.7v.481l.21.051a2.343,2.343,0,0,1,.664.275l.184.112.34-.34.319.319.389-.388-.369-.369a.479.479,0,0,0-.676,0l-.091.091a2.882,2.882,0,0,0-.42-.174v-.129a.479.479,0,0,0-.478-.478h-.843a.479.479,0,0,0-.478.478v.129a2.881,2.881,0,0,0-.42.174l-.091-.091a.479.479,0,0,0-.676,0l-.6.6a.479.479,0,0,0,0,.676l.091.091a2.893,2.893,0,0,0-.174.42h-.129a.479.479,0,0,0-.478.478v.843a.479.479,0,0,0,.478.478h.129a2.888,2.888,0,0,0,.174.42l-.091.091a.479.479,0,0,0,0,.676l.6.6a.479.479,0,0,0,.676,0l.091-.091a2.9,2.9,0,0,0,.42.174v.129a.479.479,0,0,0,.478.478h.843a.479.479,0,0,0,.478-.478v-.129a2.9,2.9,0,0,0,.42-.174l.091.091a.479.479,0,0,0,.676,0l.371-.371-.388-.388Z" transform="translate(-134.5 -633.13)" fill="#ffa200"/>
      <path id="Path_63218" data-name="Path 63218" d="M207.439,704.768a1.3,1.3,0,1,0,1.3,1.3A1.3,1.3,0,0,0,207.439,704.768Zm0,2.285a.983.983,0,1,1,.983-.983A.984.984,0,0,1,207.439,707.053Z" transform="translate(-204.066 -702.696)" fill="#ffa200"/>
      <path id="Path_63219" data-name="Path 63219" d="M315.427,635.6H315.3a2.893,2.893,0,0,0-.174-.42l.091-.091a.479.479,0,0,0,0-.676l-.6-.6a.479.479,0,0,0-.676,0l-.091.091a2.882,2.882,0,0,0-.42-.174v-.129a.479.479,0,0,0-.478-.478h-.843a.479.479,0,0,0-.478.478v.129a2.875,2.875,0,0,0-.42.174l-.091-.091a.479.479,0,0,0-.676,0l-.273.273a3.318,3.318,0,1,0,0,4.82l.273.273a.479.479,0,0,0,.676,0l.091-.091a2.9,2.9,0,0,0,.42.174v.129a.479.479,0,0,0,.478.478h.843a.479.479,0,0,0,.478-.478v-.129a2.9,2.9,0,0,0,.42-.174l.091.091a.479.479,0,0,0,.676,0l.6-.6a.479.479,0,0,0,0-.676l-.091-.091a2.889,2.889,0,0,0,.174-.42h.129a.479.479,0,0,0,.478-.478v-.843A.479.479,0,0,0,315.427,635.6Zm-7.6,2.253a.773.773,0,0,1-.149-1.532v-2.166h.3v2.166a.774.774,0,0,1,.61.61h1.462v.3h-1.462A.773.773,0,0,1,307.822,637.856Zm7.533-1h-.481l-.051.21a2.345,2.345,0,0,1-.275.664l-.112.184.34.34-.5.5-.34-.34-.184.112a2.338,2.338,0,0,1-.664.275l-.21.051v.481h-.7v-.481l-.21-.051a2.338,2.338,0,0,1-.664-.275l-.185-.112-.34.34-.244-.244a3.318,3.318,0,0,0-.133-4.165l.149.149.228-.228.34.34.185-.112a2.343,2.343,0,0,1,.664-.275l.21-.051v-.481h.7v.481l.21.051a2.344,2.344,0,0,1,.664.275l.184.112.34-.34.5.5-.34.34.112.184a2.343,2.343,0,0,1,.275.664l.051.21h.481Z" transform="translate(-299.655 -633.13)" fill="#ffa200"/>
      <path id="Path_63220" data-name="Path 63220" d="M543.778,704.768a1.3,1.3,0,1,0,1.3,1.3A1.3,1.3,0,0,0,543.778,704.768Zm0,2.285a.983.983,0,1,1,.983-.983A.984.984,0,0,1,543.778,707.053Z" transform="translate(-530.679 -702.696)" fill="#ffa200"/>
    </g>
  </g>
</svg>
