<svg xmlns="http://www.w3.org/2000/svg" xmlns:xlink="http://www.w3.org/1999/xlink" width="79" height="79" viewBox="0 0 79 79">
  <defs>
    <filter id="Ellipse_32" x="0" y="0" width="79" height="79" filterUnits="userSpaceOnUse">
      <feOffset dy="3" input="SourceAlpha"/>
      <feGaussianBlur stdDeviation="3" result="blur"/>
      <feFlood flood-opacity="0.161"/>
      <feComposite operator="in" in2="blur"/>
      <feComposite in="SourceGraphic"/>
    </filter>
  </defs>
  <g id="Group_435" data-name="Group 435" transform="translate(-1544 -274)">
    <g transform="matrix(1, 0, 0, 1, 1544, 274)" filter="url(#Ellipse_32)">
      <circle id="Ellipse_32-2" data-name="Ellipse 32" cx="30.5" cy="30.5" r="30.5" transform="translate(9 6)" fill="#6770c4" opacity="0.2"/>
    </g>
    <g id="Group_339" data-name="Group 339" transform="translate(1924.263 1172.392)">
      <path id="Path_172" data-name="Path 172" d="M-330.42-862.872q1.4-2.223,2.807-4.447c1.411-2.24,2.812-4.486,4.236-6.719a2.557,2.557,0,0,1,2.8-1.3,2.464,2.464,0,0,1,1.527,3.63c-.484.878-1.048,1.713-1.593,2.556a.717.717,0,0,0-.01.963,3.693,3.693,0,0,1,.2,4.162c-1.092,1.941-2.327,3.8-3.519,5.687a.786.786,0,0,1-1.189.331.782.782,0,0,1-.2-1.208q1.606-2.548,3.2-5.1a2.447,2.447,0,0,0,.235-2.761c-.793,1.252-1.561,2.46-2.324,3.67-1.973,3.129-3.938,6.264-5.921,9.386a2.4,2.4,0,0,0-.408,1.37c.019,3.853.01,7.706.007,11.56,0,.982-.222,1.2-1.221,1.2H-358.3c-.9,0-1.146-.234-1.147-1.108q0-19.365,0-38.729c0-.888.232-1.11,1.144-1.11q13.29,0,26.58,0c.911,0,1.151.252,1.151,1.2q0,7.952,0,15.9v.8Zm-7.655,15.527c0-.591,0-1.069,0-1.547a6.259,6.259,0,0,1,1.027-3.469c1.56-2.4,3.06-4.844,4.6-7.261a1.825,1.825,0,0,0,.291-1.033c-.008-5.865-.017-11.729.006-17.594,0-.643-.128-.849-.82-.846q-12,.041-24,0c-.739,0-.92.177-.918.912q.038,14.539.016,29.078c0,2.331.007,4.662-.006,6.993,0,.429.048.641.586.64q12.294-.03,24.588,0c.493,0,.549-.167.547-.584-.015-2.675-.007-5.349-.007-8.024,0-.159,0-.318,0-.666a3.155,3.155,0,0,0-.274.358,6.838,6.838,0,0,1-4.046,3.526.853.853,0,0,0-.444.444c-.632,1.045-1.36,1.162-2.244.321a3.042,3.042,0,0,0-3.7-.651,17.584,17.584,0,0,1-2.432,1.025,2.152,2.152,0,0,1-2.041-.13.78.78,0,0,0-1.026-.019,2.9,2.9,0,0,1-3.527-.407.787.787,0,0,1-.117-1.173.787.787,0,0,1,1.122-.112c.1.065.192.151.292.223a1.426,1.426,0,0,0,1.709-.105c.53-.315.076-.69.059-1.037a2.216,2.216,0,0,0-.084-.357c-.59-2.667.511-4.834,2.895-5.7a2.173,2.173,0,0,1,2.57.684,2.053,2.053,0,0,1-.053,2.522c-.564.8-1.161,1.581-1.723,2.384a10.391,10.391,0,0,0-1.141,1.737,8.594,8.594,0,0,0,2.811-1C-341.586-849.006-339.753-849.026-338.075-847.345Zm1.62-1.331a4.381,4.381,0,0,0,1.9-1.423q5.562-8.829,11.116-17.664c.075-.119.214-.322.178-.365a3.122,3.122,0,0,0-1.136-.778c-.363-.165-.422.247-.547.444q-5.472,8.666-10.932,17.339A4.987,4.987,0,0,0-336.455-848.676Zm16.072-24.253a.718.718,0,0,0-.483-.773.776.776,0,0,0-.964.326c-.584.871-1.117,1.775-1.7,2.65-.148.225-.114.343.086.468.227.142.468.269.678.432.324.251.514.219.731-.161.434-.762.925-1.492,1.4-2.233A1.15,1.15,0,0,0-320.383-872.929Zm-26.811,23.851a24.38,24.38,0,0,0,2.25-3.054c.159-.237.386-.516.126-.79-.233-.245-.542-.125-.82-.011C-347.187-852.3-347.766-850.911-347.194-849.078Z" transform="translate(0)" fill="#333"/>
      <path id="Path_173" data-name="Path 173" d="M-304.883-819.159c-2.231,0-4.463-.021-6.694.014-.577.009-.761-.136-.739-.725.047-1.284-.112-1.047,1.045-1.049,4.364-.008,8.729.013,13.093-.018.62,0,.792.148.763.758-.048,1.023-.01,1.022-1.069,1.021Q-301.683-819.16-304.883-819.159Z" transform="translate(-40.186 -51.081)" fill="#9194ce"/>
      <path id="Path_174" data-name="Path 174" d="M-304.9-782.243c-2.255,0-4.511-.017-6.765.011-.525.006-.661-.155-.647-.664.031-1.106,0-1.107,1.135-1.107h3.9c3.064,0,6.129.016,9.193-.014.556-.005.7.139.679.686-.042,1.084-.009,1.088-1.093,1.089Q-301.7-782.239-304.9-782.243Z" transform="translate(-40.193 -82.564)" fill="#9194ce"/>
      <path id="Path_175" data-name="Path 175" d="M-304.931-741.022c-2.256,0-4.512-.014-6.768.011-.49.005-.751-.088-.652-.631.074-.409-.277-.987.622-.98q6.841.053,13.682,0c.857-.005.5.565.57.948.085.483-.067.674-.613.666C-300.37-741.041-302.651-741.022-304.931-741.022Z" transform="translate(-40.14 -117.862)" fill="#9194ce"/>
    </g>
  </g>
</svg>
