<svg xmlns="http://www.w3.org/2000/svg" xmlns:xlink="http://www.w3.org/1999/xlink" width="63" height="63" viewBox="0 0 63 63">
  <defs>
    <filter id="Ellipse_68" x="0" y="0" width="63" height="63" filterUnits="userSpaceOnUse">
      <feOffset dy="3" input="SourceAlpha"/>
      <feGaussianBlur stdDeviation="3" result="blur"/>
      <feFlood flood-opacity="0.161"/>
      <feComposite operator="in" in2="blur"/>
      <feComposite in="SourceGraphic"/>
    </filter>
  </defs>
  <g id="Group_460" data-name="Group 460" transform="translate(-1615 -281)">
    <g transform="matrix(1, 0, 0, 1, 1615, 281)" filter="url(#Ellipse_68)">
      <circle id="Ellipse_68-2" data-name="Ellipse 68" cx="22.5" cy="22.5" r="22.5" transform="translate(9 6)" fill="#6770c4" opacity="0.2"/>
    </g>
    <g id="Group_459" data-name="Group 459" transform="translate(1994.721 1176.93)">
      <path id="Path_172" data-name="Path 172" d="M-340.4-869.049q.921-1.459,1.842-2.918c.926-1.47,1.845-2.944,2.779-4.409a1.678,1.678,0,0,1,1.838-.852,1.617,1.617,0,0,1,1,2.382c-.317.576-.688,1.124-1.046,1.677a.47.47,0,0,0-.006.632,2.423,2.423,0,0,1,.131,2.731c-.717,1.274-1.527,2.5-2.309,3.732a.516.516,0,0,1-.78.217.513.513,0,0,1-.133-.793q1.054-1.672,2.1-3.347a1.606,1.606,0,0,0,.154-1.812c-.52.821-1.024,1.614-1.525,2.408-1.294,2.054-2.584,4.11-3.886,6.159a1.578,1.578,0,0,0-.268.9c.012,2.529.007,5.057,0,7.586,0,.644-.145.786-.8.786h-17.394c-.59,0-.752-.154-.752-.727q0-12.707,0-25.414c0-.583.152-.728.751-.728q8.721,0,17.442,0c.6,0,.755.165.755.785q0,5.218,0,10.436v.527Zm-5.023,10.189c0-.388,0-.7,0-1.015a4.107,4.107,0,0,1,.674-2.276c1.024-1.577,2.008-3.179,3.017-4.765a1.2,1.2,0,0,0,.191-.678c-.005-3.849-.011-7.7,0-11.546,0-.422-.084-.557-.538-.555q-7.874.027-15.748,0c-.485,0-.6.116-.6.6q.025,9.541.011,19.081c0,1.53,0,3.059,0,4.589,0,.282.032.421.384.42q8.067-.02,16.135,0c.324,0,.36-.109.359-.383-.01-1.755,0-3.51,0-5.266,0-.1,0-.209,0-.437a2.068,2.068,0,0,0-.18.235,4.488,4.488,0,0,1-2.655,2.314.559.559,0,0,0-.291.291c-.415.686-.893.763-1.473.21a2,2,0,0,0-2.425-.428,11.538,11.538,0,0,1-1.6.672,1.412,1.412,0,0,1-1.34-.085.512.512,0,0,0-.673-.012,1.9,1.9,0,0,1-2.314-.267.517.517,0,0,1-.077-.77.516.516,0,0,1,.736-.073c.068.042.126.1.191.146a.936.936,0,0,0,1.121-.069c.348-.207.05-.453.039-.68a1.459,1.459,0,0,0-.055-.234,3.006,3.006,0,0,1,1.9-3.742,1.426,1.426,0,0,1,1.687.449,1.347,1.347,0,0,1-.035,1.655c-.37.526-.762,1.037-1.13,1.565a6.819,6.819,0,0,0-.748,1.14,5.641,5.641,0,0,0,1.845-.655A3.017,3.017,0,0,1-345.422-858.86Zm1.063-.874a2.874,2.874,0,0,0,1.245-.933q3.65-5.794,7.294-11.591c.049-.078.14-.211.117-.239a2.048,2.048,0,0,0-.746-.51c-.238-.108-.277.162-.359.292q-3.591,5.687-7.174,11.378A3.272,3.272,0,0,0-344.359-859.734Zm10.547-15.915a.471.471,0,0,0-.317-.507.509.509,0,0,0-.632.214c-.383.571-.733,1.165-1.112,1.739-.1.148-.075.225.056.307a5.275,5.275,0,0,1,.445.284c.212.165.338.144.48-.106.285-.5.607-.979.917-1.465A.755.755,0,0,0-333.812-875.649ZM-351.405-860a16.009,16.009,0,0,0,1.476-2c.1-.156.253-.339.083-.518-.153-.161-.356-.082-.538-.007A1.858,1.858,0,0,0-351.405-860Z" transform="translate(0)" fill="#333"/>
      <path id="Path_173" data-name="Path 173" d="M-307.439-819.77c-1.464,0-2.929-.014-4.392.009-.378.006-.5-.089-.485-.476.031-.842-.073-.687.686-.688,2.864-.005,5.728.009,8.592-.012.407,0,.519.1.5.5-.031.672-.007.671-.7.67Q-305.339-819.771-307.439-819.77Z" transform="translate(-42.572 -54.114)" fill="#9194ce"/>
      <path id="Path_174" data-name="Path 174" d="M-307.445-782.853c-1.48,0-2.96-.011-4.44.007-.344,0-.434-.1-.425-.436.02-.726,0-.726.745-.727h2.558c2.011,0,4.022.011,6.032-.009.365,0,.459.091.445.45-.028.711-.006.714-.717.714Q-305.345-782.851-307.445-782.853Z" transform="translate(-42.58 -87.466)" fill="#9194ce"/>
      <path id="Path_175" data-name="Path 175" d="M-307.489-741.572c-1.48,0-2.961-.009-4.441.007-.322,0-.493-.058-.428-.414.049-.269-.182-.648.408-.643q4.489.035,8.978,0c.562,0,.329.371.374.622.056.317-.044.442-.4.437C-304.5-741.585-305.993-741.572-307.489-741.572Z" transform="translate(-42.523 -124.86)" fill="#9194ce"/>
    </g>
  </g>
</svg>
