<svg xmlns="http://www.w3.org/2000/svg" width="238.301" height="64.225" viewBox="0 0 238.301 64.225">
  <g id="Group_431" data-name="Group 431" transform="translate(-24.66 -12.301)">
    <g id="Group_429" data-name="Group 429" transform="translate(235.373 12.301)">
      <path id="Path_63189" data-name="Path 63189" d="M334.518,47.607c1.529-1.124,3.011-2.322,4.6-3.358a60.2,60.2,0,0,1,17.852-7.564c1.373-.361,2.771-.634,4.165-.907a2.123,2.123,0,0,1,.783.163c-.091.279-.1.693-.289.816a27.3,27.3,0,0,1-4.135,2.479c-4.93,2.047-9.906,3.989-14.893,5.892-2.605.994-5.272,1.827-7.911,2.732Z" transform="translate(-334.326 -19.795)" fill="#ffd300"/>
      <path id="Path_63190" data-name="Path 63190" d="M338.125,31.872c.568-1.344,1.123-2.693,1.705-4.029,1.4-3.215,2.748-6.457,4.252-9.623a20.66,20.66,0,0,1,2.421-3.645c.508-.658,1.072-.538,1.572.151a2.972,2.972,0,0,1,.266,2.688,14.152,14.152,0,0,1-2.642,4.72q-3.587,4.7-7.186,9.394c-.1.132-.21.259-.314.389Z" transform="translate(-335.478 -12.888)"/>
      <path id="Path_63191" data-name="Path 63191" d="M337.791,37.2a13.358,13.358,0,0,1,2.819-4.98c2.163-2.589,4.4-5.116,6.646-7.638,1.056-1.186,2.219-2.276,3.288-3.451a2.873,2.873,0,0,1,1.973-.835c.662-.073.943.292.642.905a10.051,10.051,0,0,1-1.284,2.043,44.823,44.823,0,0,1-3.121,3.41c-3.245,3.139-6.538,6.229-9.807,9.343C338.545,36.378,338.176,36.8,337.791,37.2Z" transform="translate(-335.371 -14.851)" fill="#cc001b"/>
      <path id="Path_63192" data-name="Path 63192" d="M357.164,27.258a7.214,7.214,0,0,1-2.014,2.934,29.023,29.023,0,0,1-7.733,4.864,35.9,35.9,0,0,0-3.855,2.4c-2.406,1.581-4.792,3.19-7.207,4.755,1.486-1.376,2.953-2.774,4.465-4.121,1.078-.961,2.2-1.877,3.332-2.772,3.608-2.851,7.191-5.745,11.464-7.593a9.822,9.822,0,0,1,.976-.326C356.746,27.348,356.907,27.319,357.164,27.258Z" transform="translate(-334.912 -17.077)"/>
      <path id="Path_63193" data-name="Path 63193" d="M341.826,13.127a15.352,15.352,0,0,1,.058,2.282,32.781,32.781,0,0,1-3.04,9.406,23.612,23.612,0,0,1-1.754,3.309c.178-1.094.3-2.2.546-3.281.624-2.8,1.244-5.595,1.978-8.362a5.864,5.864,0,0,1,1.915-3.378Z" transform="translate(-335.147 -12.557)" fill="#ffd300"/>
      <path id="Path_63194" data-name="Path 63194" d="M334.456,24.142c-.418-4.3-.348-10.918,1.148-11.841C337.172,14.573,336.535,19.928,334.456,24.142Z" transform="translate(-334.236 -12.301)"/>
    </g>
    <path id="Path_63195" data-name="Path 63195" d="M42.8,68.349a17.908,17.908,0,0,1-12.943-5.042,16.786,16.786,0,0,1-5.2-12.6V24.141h9.746V50.58a8.144,8.144,0,0,0,8.362,8.362,8.131,8.131,0,0,0,5.994-2.4,8.014,8.014,0,0,0,2.4-5.964V24.141h9.746V50.7a16.782,16.782,0,0,1-5.2,12.6A17.884,17.884,0,0,1,42.8,68.349Z" transform="translate(0 -3.781)" fill="#1a1818"/>
    <path id="Path_63196" data-name="Path 63196" d="M110.743,40.446h9.192V69.068c0,4.888-1.506,8.792-4.519,11.775-3.044,2.951-7.04,4.427-12.051,4.427a17.224,17.224,0,0,1-10.576-3.2,15.192,15.192,0,0,1-5.656-8.762h9.438c1.014,2.183,3.6,3.566,6.794,3.566a7,7,0,0,0,5.38-2.152,8.151,8.151,0,0,0,2-5.719v-.984a12.618,12.618,0,0,1-9.714,4.213,14.557,14.557,0,0,1-11.067-4.673A16.231,16.231,0,0,1,85.534,55.91a16.185,16.185,0,0,1,4.427-11.59,14.531,14.531,0,0,1,11.067-4.642,12.663,12.663,0,0,1,9.714,4.212Zm-7.87,23.395A8.023,8.023,0,0,0,108.5,50.254a7.647,7.647,0,0,0-5.626-2.275,7.55,7.55,0,0,0-5.626,2.275,8.249,8.249,0,0,0,0,11.313A7.551,7.551,0,0,0,102.873,63.841Z" transform="translate(-19.44 -8.743)" fill="#cc001b"/>
    <path id="Path_63197" data-name="Path 63197" d="M163.361,24.141a15.131,15.131,0,0,1,10.883,4.212,14.03,14.03,0,0,1,4.365,10.575A14.03,14.03,0,0,1,174.244,49.5a15.131,15.131,0,0,1-10.883,4.212H157.09V67.58h-9.776V24.141Zm-.246,20.382a5.2,5.2,0,0,0,3.9-1.6,5.879,5.879,0,0,0,0-7.994,5.2,5.2,0,0,0-3.9-1.6H157.09v11.19Z" transform="translate(-39.169 -3.781)" fill="#1a1818"/>
    <path id="Path_63198" data-name="Path 63198" d="M221.112,40.446H230.3v32.1h-9.192V69.006a12.733,12.733,0,0,1-9.715,4.3,14.341,14.341,0,0,1-11.037-4.826,17.014,17.014,0,0,1-4.458-12.02,16.992,16.992,0,0,1,4.458-11.99,14.418,14.418,0,0,1,11.037-4.8,12.646,12.646,0,0,1,9.715,4.274Zm-2.213,21.7a7.815,7.815,0,0,0,2.213-5.688,7.672,7.672,0,0,0-7.87-7.9,7.437,7.437,0,0,0-5.564,2.244,8.291,8.291,0,0,0,0,11.344,7.462,7.462,0,0,0,5.564,2.275A7.67,7.67,0,0,0,218.9,62.151Z" transform="translate(-54.686 -8.743)" fill="#1a1818"/>
    <path id="Path_63199" data-name="Path 63199" d="M257.847,70.236a9.41,9.41,0,0,1-3.6-7.44h9.192a3.345,3.345,0,0,0,3.412,3.2c1.753,0,3.136-1.107,3.136-2.46,0-1.6-1.721-2.767-5.165-3.535q-10.144-2.4-10.114-10.176a8.94,8.94,0,0,1,3.474-7.44,13.29,13.29,0,0,1,8.485-2.706,13,13,0,0,1,8.639,2.921,9,9,0,0,1,3.443,7.163h-9.192a2.839,2.839,0,0,0-2.951-2.767,2.527,2.527,0,0,0-2.7,2.183q0,2.351,5.349,3.6a16.93,16.93,0,0,1,6.764,2.951,8.231,8.231,0,0,1,3.166,7.009,9.328,9.328,0,0,1-3.535,7.746,13.824,13.824,0,0,1-8.854,2.829A13.24,13.24,0,0,1,257.847,70.236Z" transform="translate(-73.319 -8.743)" fill="#1a1818"/>
    <path id="Path_63200" data-name="Path 63200" d="M299.529,70.236a9.408,9.408,0,0,1-3.6-7.44h9.192a3.344,3.344,0,0,0,3.411,3.2c1.753,0,3.136-1.107,3.136-2.46,0-1.6-1.722-2.767-5.165-3.535q-10.145-2.4-10.115-10.176a8.938,8.938,0,0,1,3.475-7.44,13.289,13.289,0,0,1,8.485-2.706A13,13,0,0,1,316.99,42.6a9,9,0,0,1,3.443,7.163h-9.192a2.839,2.839,0,0,0-2.951-2.767,2.528,2.528,0,0,0-2.706,2.183q0,2.351,5.35,3.6a16.924,16.924,0,0,1,6.763,2.951,8.23,8.23,0,0,1,3.167,7.009,9.327,9.327,0,0,1-3.536,7.746,13.821,13.821,0,0,1-8.854,2.829A13.237,13.237,0,0,1,299.529,70.236Z" transform="translate(-86.63 -8.743)" fill="#1a1818"/>
  </g>
</svg>
