<svg xmlns="http://www.w3.org/2000/svg" width="13.749" height="14.619" viewBox="0 0 13.749 14.619">
  <path id="Path_63209" data-name="Path 63209" d="M-639.865,90.655h-13.743a3.057,3.057,0,0,1,1.265-2.685,8.7,8.7,0,0,1,1.893-.946c.315-.13.631-.259.936-.411a2.949,2.949,0,0,0,.519-.344.617.617,0,0,0,.258-.56,2.223,2.223,0,0,1,.015-.322,1.2,1.2,0,0,0-.236-.962,2.561,2.561,0,0,1-.474-1.164.545.545,0,0,0-.167-.219c-.061-.061-.162-.092-.2-.162a1.52,1.52,0,0,1-.119-1.675.315.315,0,0,0,.017-.213,7.6,7.6,0,0,1-.212-2.067,2.8,2.8,0,0,1,2.431-2.8,4.225,4.225,0,0,1,1.751,0,1.66,1.66,0,0,1,.881.489.3.3,0,0,0,.141.082,2.114,2.114,0,0,1,1.63,2.094A5.879,5.879,0,0,1-643.539,81a.331.331,0,0,0,.041.3,1.472,1.472,0,0,1-.047,1.4.675.675,0,0,1-.355.376c-.061.028-.1.13-.127.2-.131.347-.255.7-.384,1.044a.292.292,0,0,1-.076.13c-.291.225-.233.544-.233.847,0,.089.01.178,0,.266a.884.884,0,0,0,.529.906c.356.189.723.359,1.094.517a9.7,9.7,0,0,1,1.963.975A3.037,3.037,0,0,1-639.865,90.655Z" transform="translate(653.608 -76.037)" fill="#ffa200"/>
</svg>
