<svg width="24" height="24" viewBox="0 0 24 24" fill="none" xmlns="http://www.w3.org/2000/svg">
<g clip-path="url(#clip0_1107_107)">
<path d="M6.99817 8.98083C8.58951 8.14374 9.10909 8.2813 9.92609 9.64172C11.3756 8.93836 11.8212 9.06953 12.5729 10.4248C14.2747 10.2242 14.5006 10.5444 14.6299 12.3536C14.8173 15.3106 14.3629 18.2735 13.2995 21.0292C13.2463 21.1478 13.17 21.254 13.0752 21.3414C12.9805 21.4287 12.8694 21.4953 12.7486 21.5371C10.6408 22.1463 8.41015 22.1499 6.3005 21.5474C6.13939 21.4681 5.99537 21.3565 5.87722 21.2191C5.75907 21.0817 5.66908 20.9213 5.61264 20.7476C5.48204 20.1054 5.3192 19.4707 5.12455 18.8458C4.22292 16.8037 3.8408 14.5609 4.01387 12.3266C4.08415 9.96705 4.02506 7.60241 4.03133 5.24031C4.03133 4.08305 4.61876 3.37581 5.53742 3.39639C6.41592 3.41439 6.98323 4.10235 6.99327 5.1966C7.00582 6.42844 6.99817 7.65255 6.99817 8.98083Z" fill="#797979"/>
<path d="M8.68245 2H8.6812C7.78846 2 7.06476 2.74149 7.06476 3.65617V3.65745C7.06476 4.57213 7.78846 5.31362 8.6812 5.31362H8.68245C9.57519 5.31362 10.2989 4.57213 10.2989 3.65745V3.65617C10.2989 2.74149 9.57519 2 8.68245 2Z" fill="#797979"/>
<path d="M13.8568 2H13.8555C12.9628 2 12.2391 2.74149 12.2391 3.65617V3.65745C12.2391 4.57213 12.9628 5.31362 13.8555 5.31362H13.8568C14.7495 5.31362 15.4732 4.57213 15.4732 3.65745V3.65617C15.4732 2.74149 14.7495 2 13.8568 2Z" fill="#797979"/>
<path d="M18.3836 2H18.3823C17.4896 2 16.7659 2.74149 16.7659 3.65617V3.65745C16.7659 4.57213 17.4896 5.31362 18.3823 5.31362H18.3836C19.2763 5.31362 20 4.57213 20 3.65745V3.65617C20 2.74149 19.2763 2 18.3836 2Z" fill="#797979"/>
<path d="M18.3836 5.97588H18.3823C17.4896 5.97588 16.7659 6.71737 16.7659 7.63204V7.63333C16.7659 8.548 17.4896 9.28949 18.3823 9.28949H18.3836C19.2763 9.28949 20 8.548 20 7.63333V7.63204C20 6.71737 19.2763 5.97588 18.3836 5.97588Z" fill="#797979"/>
<path d="M18.3836 9.95168H18.3823C17.4896 9.95168 16.7659 10.6932 16.7659 11.6078V11.6091C16.7659 12.5238 17.4896 13.2653 18.3823 13.2653H18.3836C19.2763 13.2653 20 12.5238 20 11.6091V11.6078C20 10.6932 19.2763 9.95168 18.3836 9.95168Z" fill="#797979"/>
<path d="M13.8568 5.97588H13.8555C12.9628 5.97588 12.2391 6.71737 12.2391 7.63204V7.63333C12.2391 8.548 12.9628 9.28949 13.8555 9.28949H13.8568C14.7495 9.28949 15.4732 8.548 15.4732 7.63333V7.63204C15.4732 6.71737 14.7495 5.97588 13.8568 5.97588Z" fill="#797979"/>
</g>
<defs>
<clipPath id="clip0_1107_107">
<rect width="16" height="20" fill="white" transform="translate(4 2)"/>
</clipPath>
</defs>
</svg>
